<svg width="189" height="71" xmlns="http://www.w3.org/2000/svg"><g transform="translate(-304.2 -79.2)"><rect x="321.6" y="93.4" width="26.1" height="41.1" ry="8.2" fill="#fff"/><g stroke-width=".4"><path d="M331.8 149.9a16.5 16.5 0 0 1-2.2-2.5c-1.8-2.2-3.1-3.4-4-3.4a.4.4 0 0 1-.3-.4c0-.2-.4-.4-.8-.4s-.8-.2-.8-.4-.3-.4-.6-.4-.7-.2-.7-.4-.2-.4-.4-.4c-.3 0-.5-.2-.5-.4a.4.4 0 0 0-.4-.4c-.8 0-5.2-5.5-5.2-6.6 0-.2-.2-.4-.3-.4s-.4-.2-.4-.6 0-.6-.3-.6-.3-.4-.3-.8-.1-.8-.3-.8c-.2 0-.3-.4-.3-.8s-.1-.9-.3-.9-.3-.5-.3-1.2c0-.6-.2-1.3-.3-1.4-.2-.1-.3-1-.3-2s-.2-2-.4-2.1c-.1-.1-.3-1.7-.3-3.5 0-3.2-.3-4.5-1.2-4.5-.2 0-.3-.1-.3-.4 0-.2-.2-.4-.5-.4s-.5-.2-.5-.4-.1-.4-.3-.4c-.3 0-1-.8-2-2l-.6-.4-1-1c-.8-1-.8-1.2-.7-3.8 0-1.6.3-2.8.5-2.9.2-.1.4-.4.4-.7s.1-.6.3-.6.3-.2.3-.4c0-.4.6-1.5 1.5-2.7l.4-.8c0-.4 1-1.8 1.4-1.8a.4.4 0 0 0 .4-.4c0-.3.6-.5 1.3-.5s1.2.2 1.2.4c0 .3.2.5.5.5.2 0 .7.3 1 .8l1 .8c.1 0 .4.2.4.4s.2.4.4.4.5.2.5.4.2.4.4.4.5.3.6.5c.1.4.4.2.8-.5a18.6 18.6 0 0 1 1.6-2.2c1-1.2 1.4-3.5.7-3.5-.2 0-.3-.5-.3-1s-.2-1-.4-1-.3-.5-.3-1-.1-1-.3-1-.3-1-.3-2.1c0-1.8.1-2.3 1-3.3.4-.7 1-1.2 1.3-1.2.3 0 .5-.2.5-.4s.4-.4.8-.4.8-.2.8-.4.2-.4.5-.4.8-.2 1-.5c.4-.6 4.1-1 5.1-.4.5.2.9.7.9 1 0 .4.1.7.3.7s.3.3.3.8.1.9.3 1c.2.2.3.6.3 1s.2.9.3.9.4.4.4.9c0 1.6.5 2 3.1 2 2.3 0 2.5-.2 2.5-.9 0-.4.1-.8.3-.8s.3-.5.3-1 .1-1 .3-1 .3-.5.3-1 .2-1.1.3-1.1.4-.3.4-.7c0-.3.3-1 .7-1.4.6-.7 1-.8 3.2-.6 1.3 0 2.5.4 2.6.6 0 .3.4.5.8.5s.8.2.8.4.3.4.6.4.7.2.8.4.4.4.6.4c.6 0 1.7 1.5 1.7 2.2 0 .4.2.7.4.7s.3.4.3 1l-.3 1.8-.7 1.6a5 5 0 0 0-.3 1.5c0 .3-.1.6-.3.6s-.3.5-.3 1-.2 1-.3 1c-.7 0-.2 1 1.5 3.1s1.8 2.2 2.6 1.5c.5-.4.9-.8.9-1s.2-.3.4-.3.5-.2.5-.4.2-.4.5-.4.5-.2.5-.4.2-.4.4-.4.5-.2.5-.4c0-.3.7-.4 1.6-.4 1.3 0 1.7.1 2.5 1.1.5.7.9 1.4.9 1.7s.1.4.3.4.3.3.3.6c0 .4.2.6.3.6s.3.2.3.4c0 .4.6 1.5 1.5 2.7l.4 1c0 .2.2.4.3.4s.4.9.4 1.9c0 1-.2 1.8-.4 1.8-.1 0-.3.2-.3.5s-.3.9-.8 1.3l-1.2 1.4c-.2.3-.6.5-.8.5-.1 0-.3.1-.3.3s-.6.8-1.2 1.3-1.3 1.2-1.3 1.3-.2.3-.5.3-.4.2-.4.5c0 .2-.2.4-.5.4-.6 0-.6 1.7-.1 2.8.3.6.3 1 0 1.8a16 16 0 0 0-.4 3.7c0 1.5-.1 2.7-.3 2.7-.2 0-.3.6-.3 1.4s-.1 1.4-.3 1.4-.3.5-.3 1-.2 1-.3 1-.4.5-.4.9 0 .8-.3.8-.3.3-.3.6-.1.6-.3.6-.3.3-.3.5a18.8 18.8 0 0 1-4.4 5.7c0 .2-.2.4-.5.4s-.4.1-.4.4c0 .2-.2.4-.5.4s-.5.2-.5.4-.2.4-.6.4c-.3 0-.6.2-.6.4s-.4.4-.8.4-.8.2-.8.4-.2.4-.6.4c-.3 0-1.6 1.3-2.8 3l-2.2 3h-4.5l-4.9-.1zm-4.2-18.7c0-.3 0-.6.2-.7.2-.1 0-.5-.3-.8-.4-.6-.6-.6-1.1-.2-.5.5-.5.7-.2 1.4.4 1 1.7 1.3 1.4.3zm18.7 0c-.1-.1 0-.5.2-.7.3-.1.4-.4.3-.5-.4-.4-1.4-.6-1.8-.3-.6.5 0 2 .8 2 .4 0 .6-.2.5-.4zm-2-13c-1.3-2.6-4.4-6.3-5.8-6.6-.6-.2-1.2-.2-1.2-.1l.6 2.5c.5 1.2 1 3 1 3.8.2 1.8.8 2.6 2 2.6 1 0 1.2-.8.6-2.6-.6-2.3.8-1.5 2 1.1 1.3 2.4 1.8 1.8.7-.7zm-10-14.5c.4-.3.6-1 .6-1.2 0-.3.4 0 1 .8l.9 1.3 1-.7c.7-.4 1.2-1 1.2-1.2 0-.6-1.1-3.2-1.4-3.2l.5 1.5c.7 1.5.7 1.5.1 2-.8.9-1.6.7-2.4-.4l-.8-1-.5 1c-.5 1-.7 1-1.5.9-1-.3-1-.2-.4.3.8.8 1 .8 1.7 0zm-4.5-1.7c.5-.8.5-1 .1-1.3-.6-.5-2.8-.5-3.8 0-1 .6-1 1.3-.1 1.3.3 0 .9.2 1.1.4.8.7 2 .5 2.7-.4zm14.2 0c1.4-.4 1.4-1-.1-1.5-1.3-.6-3.2-.4-3.5.4-.3.6 1.1 2 1.9 1.8l1.7-.6zm-11.7-1c.5-1 .5-1.2 0-.7-.4.4-.9 2-.6 2l.6-1.2zm-6.4-1.7c.6-.3.8-.6.4-.5-1 0-2-.5-2-1.1 0-.6 1.3-1.1 2.3-.8l1.5.4c.5 0 1.3.7 1.8 1.3 1 1.1 1.3.6.5-1a3.7 3.7 0 0 0-6.4-.5c-.6.8-.8 2.5-.4 3.9.2.6.2.6.7-.2.3-.4 1-1.1 1.6-1.5zm21.2.2c.1-2.2-1-3.6-2.8-4l-2.3.1c-1 .4-2.4 2.2-2.4 3.3 0 .7.1.7 1-.3.9-1.2 2.5-1.9 4.4-2 1 0 1.2.2 1.1.8 0 .4-.5.8-1.2 1l-1 .4 1.1.8c.7.4 1.2 1 1.2 1.2s.2.4.4.3c.2-.1.4-.8.5-1.6zm31.8 33.8c-.8-.2-1.4-.5-1.4-.7 0-.2-.3-.4-.6-.4-1 0-4-4-4.3-5.7l-.5-1.9c-.4-1.6-.6-8.2-.2-10.4.3-1.7 1-3.6 1.2-3.6.2 0 .3-.2.2-.4-.3-.5 3.2-4.7 3.5-4.3.2.1.3 0 .3-.1 0-1.1 6-1.8 8.2-1 2.7 1 3.3 2 2.7 4.2l-.4 1.5c-.1.9-1 2.5-1.6 2.8-.2.1-.8 0-1.2-.4-1-.9-2.2-1-4-.3-1.2.4-1.6.8-2 2-.8 1.9-1 6.5-.4 8 .4.9 2 3 2.4 3.1 1.4.3 2 .3 2 0s.2-.4.4-.3c.2 0 .4-.8.4-3.1.2-3.7.4-4 2.9-3.8 1.9 0 2.3.6 2 2.7V132l-1 .4a19.4 19.4 0 0 1-6 1.3c-.6 0-1.7-.3-2.6-.5zm19.5 0c-.6-.1-1.6-.6-2.2-1-1.2-.7-3.4-3.3-3.4-4 0-.3-.2-.7-.5-1s-.4-.6-.4-.8c0-.3-.3-1.5-.7-2.5-.2-.6-.2-8 .1-9.6l.4-2.1c.1-.7.3-1.3.5-1.3s.3-.2.3-.5c0-.8 1.5-3.2 2.7-4.2 1.8-1.4 3.8-2 6.4-1.8 2.7.2 4.7 1.4 6.3 3.6 2.3 3 2.8 5.6 2.6 12.1-.2 5.6-.2 5.9-.5 5.9-.1 0-.4.6-.6 1.4a6 6 0 0 1-1.1 2.2c-.5.4-.7.9-.6 1 .1.2 0 .3-.2.3-.1 0-.5.2-.7.5-1.2 1.5-6.4 2.7-8.4 1.9zm4.3-8.4c.4-.4.7-.9.7-1.2s.1-.5.3-.5c.3 0 .3-.3.5-3.7 0-1.4 0-3.2-.2-3.9-.3-1.1-2.2-4-2.2-3.2 0 .2-.2 0-.4-.2-.8-.8-2.6.6-3.6 2.9-.7 1.5-.5 6.7.3 8.5 1 2.3 2.8 2.8 4.6 1.3zm11.5 8l-.9-.9c-.2-.3-.2-6-.2-12.9a51 51 0 0 1 .5-13.4c.5-.9.6-1 5.3-.8 2.7 0 4.8.2 4.8.4s.2.4.3.4l1.2.4c.5.3 1 .5 1.1.4.2 0 .2.1.1.4-.1.2 0 .4.1.4 1 0 2.5 3.2 3.2 6.3.7 3.5.1 11-1.1 14a9.4 9.4 0 0 1-5.8 5.3c-2.3.5-8 .5-8.6 0zm8-8.1c.3-.4.6-.8.4-.8s0-.3.2-.6c.6-1 .7-7.4.1-8.8a3.5 3.5 0 0 0-2.7-2.1l-.8-.2v13.8l1-.3a4.7 4.7 0 0 0 1.7-1zM433 133c-.5-.4-.5-1.5-.5-13.8 0-7.3.1-13.6.3-13.9.2-.4 1.6-.5 6-.5 4.3 0 5.7.1 6 .5 0 .3.2 1.9.1 3.4v2.9l-3.1.1c-2.4 0-3 .2-3 .7v3.4c0 .1.7.2 1.7.2 2.5-.2 2.7.1 2.7 3 0 1.3-.2 2.5-.4 2.7-.1.2-1 .4-2 .4h-1.9l-.2 1.5c-.3 2.4-.2 2.5 2.8 2.5 1.7 0 2.9.2 3.1.5.2.3.4 1.6.4 3.2 0 2.3-.1 2.8-.6 3.2-.8.6-10.6.5-11.4 0zm18.7 0c-.6-.4-.6-.8-.5-9.7l-.1-10.2c-.2-.8-.4-1-2.2-1-1.2 0-2 0-1.9-.3.1-.2 0-.5-.1-.6-.4-.3-.4-4.3 0-5.6l.2-1 14 .3.5 1.4.5 1.5.8-3.2 13.9.3.3 1c.5 1.4.5 3.7 0 5-.5 1.2-.7 1.3-2.2 1.3-1.3 0-1.8.2-1.9.6 0 .4-.2 5-.2 10.4v9.7l-.7.3c-1.1.4-4 .3-4.6-.2-.6-.4-.6-1-.6-10.4 0-7.7-.1-10-.4-10.2l-2.1-.3c-1.7-.1-1.7-.1-2-1.5l-.3-1.5-.3 1.2c-.2.6-.5 1-.6 1s-.2.3 0 .5c0 .3-.5.4-1.6.4-1-.1-1.9 0-2 .2-.3.2-.4 3-.4 10.4 0 8.9 0 10.2-.5 10.4-.8.4-4.3.2-5-.2zm28.2 0c-.5-.4-.5-1.5-.5-14.3V105l5.8-.1c5-.1 5.9 0 6.2.5.6.8.6 5.4 0 6a8 8 0 0 1-3.1.6h-2.8v4.1h1.7c2.2-.2 2.8.4 2.8 2.9 0 2.6-.5 3.2-2.7 3.3h-1.8v3.7h2.5c3.6.2 3.9.5 3.9 3.7 0 3.8 0 3.8-6.3 3.8-2.9 0-5.4-.2-5.7-.4z" fill="#fafafa"/><path d="M332.1 149.9c-.2-.1-1.4-1.4-2.5-2.8s-2.4-2.7-2.8-2.8c-1.6-.6-4.9-3-7-4.9a26.2 26.2 0 0 1-6.1-10.6c-.2-.4-.3-1-.3-1.5s-.2-.9-.3-1c-.2-.2-.4-1-.4-2l-.2-3.5a15 15 0 0 1 0-3.2c.2-1.7.1-1.8-3.2-4.8-4.2-3.8-4.4-4-4.4-6.5 0-1.7.2-2.5.8-3.4l2-3.7c1.4-2.6 2.8-4.2 3.8-4.2.5 0 5.4 4 5.6 4.6.2.8 1 .2 2.5-1.8 2-2.6 2-2.6-.2-8.2-.7-2.1-.5-4 .6-5.5.6-.7 1.2-1.3 1.4-1.3l1-.4c2.9-2.1 6.2-3 7.5-2.1.5.4 1.6 2.8 2.6 6.2l.5 1.5c.3.8 5.4 1 5.4.2l.3-1.2a30 30 0 0 0 1.6-4.7c0-.2.3-.9.8-1.4 1-1.3 3.5-1.3 5.2-.1l1.2.7c.7-.2 4.7 2.7 4.6 3.3 0 .1 0 .6.3 1.1.3.7.3 1.2 0 2l-.6 2-.9 2.6-.6 2.3c0 .3.8 1.5 1.8 2.8l1.8 2.4 2.5-2.5c3.6-3.6 4.8-3.4 7.2 1a96.1 96.1 0 0 0 2 3.6c1.1 1.9 1.5 3 1.5 4.1 0 1.2-1.9 3.8-4.6 6.2-3.7 3.3-3.5 2.7-3.5 8.3 0 2.8-.1 5-.3 5.2-.2.1-.3.7-.3 1.2l-.3 1.7-.7 2a26 26 0 0 1-6.4 9.8 35.9 35.9 0 0 1-4.8 3.2c-.4.2-1.4 1.2-2.2 2.3-2.3 3-3.6 4-5.5 4-.8 0-1.7-.2-2-.4-.2-.4-.4-.4-.7 0-.4.5-2.8.6-3.7.2zm-4.3-19c.3-1.3-.4-2-1.4-1.5-.7.4-.7.5-.4 1.4.4 1.2 1.6 1.3 1.9.1zm18.8 0c.3-1.2-.6-2-1.5-1.5-.9.6-.9.6-.4 1.5.5 1.2 1.7 1.2 2 0zM345 120c0-1-2.2-5-3.7-6.7a5.8 5.8 0 0 0-3.5-2.1l-1-.3.6 1.3c.8 2.1 1.7 5.7 1.7 7 0 1.1 0 1.2 1.6 1.2 1.3 0 1.6-.2 1.4-.6l-.4-2.2-.2-1.5.9 1 1.4 2.3c.7 1.5 1.2 1.8 1.2.6zm-10.2-16.5l.5-.9.7 1c.6 1 .7 1 1.9.4a4 4 0 0 0 1.4-.9c.2-.4-1-3.6-1.5-3.6-.4 0-.3.5.2 1.4.7 1.2.6 1.9-.3 2.4-.8.4-1 .4-1.6-.7l-.8-1.2-.7 1.1c-.6 1-.9 1.1-1.5.9-1.2-.4-1.3-.8-.7-2 .3-.6.4-1.3.4-1.5-.2-.5-1.5 2.5-1.5 3.2 0 .4 1.4 1.2 2.3 1.3.3 0 .8-.4 1.2-.9zm-4.4-2c.6-1.5-3-1.8-5-.4-.8.6-1 .6-1 0s1.8-2 2.5-2c.2 0 .3-.1.3-.4s-.6-.4-1.4-.4c-1 0-1.4-.2-1.4-.6 0-.5.4-.6 1.8-.6 1.9 0 3.6.8 4.3 2.2l.5.8v-1a5 5 0 0 0-1-2.3c-1-1.2-1.3-1.4-2.7-1.4a3.9 3.9 0 0 0-3.8 5.2c.4 1 .7 1.2 1.9 1.4l2.1.7c1 .5 2.4 0 2.9-1.2zm14.3.6c1.9-.3 2.5-1 2.5-3 0-2.8-2.7-4.7-5.1-3.7a4.2 4.2 0 0 0-2.4 3.7v1l.5-.9c.7-1.2 2-2 3.8-2.3 1.2-.3 1.6-.2 2 .3.3.6.2.7-.8.7a5.2 5.2 0 0 0-1.9.4c-.5.3-.4.4.7.8 1.2.4 2.5 1.7 2.1 2.2 0 .1-.8-.1-1.5-.6-1.5-.9-1.8-.9-3.4-.3l-1.2.4.7 1c.6.9 1 1 1.7.8a42 42 0 0 1 2.3-.5z" fill="#fccecd"/><path d="M332.1 149.9c-.2-.1-1.4-1.4-2.5-2.8s-2.4-2.7-2.8-2.8c-1.6-.6-4.9-3-7-4.9a26.2 26.2 0 0 1-6.1-10.6c-.2-.4-.3-1-.3-1.5s-.2-.9-.3-1c-.2-.2-.4-1-.4-2l-.2-3.5a15 15 0 0 1 0-3.2c.2-1.7.1-1.8-3.2-4.8-4.2-3.8-4.4-4-4.4-6.5 0-1.7.2-2.5.8-3.4l2-3.7c1.4-2.6 2.8-4.2 3.8-4.2.5 0 5.4 4 5.6 4.6.2.8 1 .2 2.5-1.8 2-2.6 2-2.6-.2-8.2-.7-2.2-.5-4 .7-5.6.6-.7 1-1.2 1-1 0 .1 2.4-1.2 4-2.3.9-.7 4-1 4.8-.4.5.4 1.6 2.8 2.6 6.2l.5 1.5c.3.8 5.4 1 5.4.2l.3-1.2a30 30 0 0 0 1.6-4.7c0-.2.3-.9.8-1.4 1-1.3 3.5-1.3 5.2-.1l1.2.7c.7-.2 4.7 2.7 4.6 3.3 0 .1 0 .6.3 1.1.3.7.3 1.2 0 2l-.6 2-.9 2.6-.6 2.3c0 .3.8 1.5 1.8 2.8l1.8 2.4 2.5-2.5c3.6-3.6 4.8-3.4 7.2 1a96.1 96.1 0 0 0 2 3.6c1.1 1.9 1.5 3 1.5 4.1 0 1.2-1.9 3.8-4.6 6.2-3.7 3.3-3.5 2.7-3.5 8.3 0 2.8-.1 5-.3 5.2-.2.1-.3.7-.3 1.2l-.3 1.7-.7 2a25.3 25.3 0 0 1-6 9.5 17 17 0 0 1-4 2.7c0-.6-2.4 1.6-3.5 3.2-2.1 3-3.5 4-5.4 4-.8 0-1.7-.3-2-.5-.2-.4-.4-.4-.7 0-.4.5-2.8.6-3.7.2zm7.8-6.2l1.8-.3-.1-2.6c-.1-2.4 0-2.9.8-4.6.8-1.6.9-2 .5-2.8a5 5 0 0 1 0-4c.6-1.5 1.4-2.1 2.8-2.1.7 0 1.1-.2 1.2-.6.2-.4.5-.6 1-.6.5.1.6.4.6 1.5 0 .8 0 1.2.3 1 .2 0 .6.2.8.5.3.5.3.8 0 1.3-.3.6-.4.7 0 .9.4.2.5 1.4 0 2-.2.3-.2.5.2.7.4.2.5-.4.5-4.6 0-6.1-.1-6.3-3.8-7.2-2.5-.6-3.4-1.2-3.5-2.7l-.2.6-.2 1.2H340c-3-.2-3.1-.3-3.5-1.5-.3-.9-.3-.9-.3 0 0 .6-.2 1-.4 1.1l-4.5.4-4.2.3v-1.7c0-.9-.1-1.6-.3-1.6l-.9 2c-.6 2-.7 2-2 2.3a5.6 5.6 0 0 0-1.8.6c-.5.5-1 4.2-.7 7.4.2 4 .3 4.4 1 4.2.6-.2.6-.5.5-1.6-.2-1-.1-1.4.1-1.4.3 0 .3-.2 0-.9-.4-1-.1-2 .5-2 .4 0 .5-.2.4-.8-.2-.8.5-2 1-2 .2 0 .4.2.7.6s.8.6 1.4.6c1.4 0 2.9 1.8 3.1 3.7.2 1 0 1.7-.5 2.8l-.8 1.4.7 1a9.3 9.3 0 0 1 1.2 5.7l-.2 1.7 1.2.1c2 .3 6.4.3 8.2 0zm-4.5-4.6c-1-.8-1.3-1.6-1.7-4-.3-2-.3-2.3.2-2.8.6-.6 4.4-.7 5-.2 1 .8-.6 6.4-2 7-.9.5-.7.5-1.5 0zm-12-13.6c0-.8 1.3-2.2 2.4-2.5 1.7-.5 4.1 1.2 4.1 2.8 0 .5-.5.3-1-.3-1.3-1.7-3-2-4.1-.4-1 1-1.4 1.3-1.4.4zm19.3.3c-.4-.4.4-1.7 1.3-2.4 1.8-1.1 4.4-.3 4.9 1.6.3 1.2 0 1.2-1 0-1.3-1.3-3-1.3-4 0-.7 1.1-1 1.2-1.2.8zm-14.8 5.1c.2-1.3-.5-2-1.5-1.5-.7.4-.7.6-.4 1.4.4 1.3 1.6 1.3 1.9.1zm18.7 0c.3-1.2-.6-2-1.5-1.5-.9.6-.9.6-.4 1.5.5 1.2 1.7 1.2 2 0zM345 120c0-1-2.3-5-3.9-6.7-1.1-1.2-3-2.3-4-2.3-.2 0 0 .6.2 1.3a28 28 0 0 1 1.7 6.9c0 1.1 0 1.2 1.6 1.2 1.3 0 1.6-.2 1.4-.6l-.4-2.2-.2-1.5.9 1a14 14 0 0 1 1.4 2.3c.7 1.5 1.2 1.8 1.2.6zm-10.3-16.5l.6-.9.6 1c.6 1 .7 1 1.9.4a4 4 0 0 0 1.4-.8c.2-.5-1-3.7-1.4-3.7-.5 0-.4.5.1 1.4.7 1.2.6 1.9-.3 2.4-.8.5-1 .4-1.6-.7l-.8-1.2-.7 1.1c-.6 1-.9 1.1-1.5.9-1.2-.4-1.3-.8-.7-2 .3-.6.4-1.3.4-1.5-.2-.5-1.5 2.5-1.5 3.2 0 .4 1.4 1.2 2.3 1.3.3 0 .8-.4 1.2-.9zm-4.4-2c.6-1.5-3-1.8-5-.4-.8.6-1 .6-1 0s1.8-2 2.5-2c.2 0 .3-.2.3-.4s-.6-.4-1.4-.4c-1 0-1.4-.1-1.4-.6s.4-.6 1.8-.6c1.9 0 3.6.9 4.3 2.2l.5.8v-1a5 5 0 0 0-1-2.3c-1-1.2-1.3-1.3-2.7-1.3a4 4 0 0 0-3.8 5c.3 1.2 1 1.7 3.3 2.2 1.8.4 3.1 0 3.6-1.1zm14 .8c2.3-.7 2.8-1.2 2.8-3.2 0-2.8-2.7-4.7-5.1-3.7a4.2 4.2 0 0 0-2.4 3.7v1l.5-.9c.7-1.2 2-2 3.8-2.3 1.2-.2 1.6-.2 2 .4.3.5.2.6-.8.6a5.2 5.2 0 0 0-1.9.4c-.5.3-.4.4.7.8 1.2.4 2.5 1.7 2.1 2.2 0 .1-.8-.1-1.5-.6-1.5-.9-1.8-.9-3.4-.3l-1.2.4.7 1c.8 1.1 1.2 1.2 3.7.5z" fill="#d1cfd1"/><path d="M331.7 149.2a39 39 0 0 1-2.5-2.7 9.7 9.7 0 0 0-3.6-3.2 18.5 18.5 0 0 1-5.5-3.9l-1.3-1.4a26.8 26.8 0 0 1-5.4-11.7c-.3-.2-.7-4.5-.8-8 0-2.8.1-2.7-4-6.3-3.3-3-3.7-3.6-3.7-5.6 0-1.2.3-2.2.9-3.3L308 99c2-3.5 3.3-4.3 5.1-2.8l2.7 2.4 2 1.8 1.8-2.6c1.5-2 1.9-2.7 1.7-3.4a62.7 62.7 0 0 0-1.7-5.2c-.4-1-.3-3.7.2-4.6a4 4 0 0 1 1.5-1.4l3.3-1.9c3-1.8 4.3-1.8 5.6 0 .6.6 1 1.5 1 1.9 0 .3.1.8.3 1s.4 1 .6 1.9c.8 2.6 1.1 2.8 3.8 2.8h2.5l.5-1.5.7-2.4c1.2-4 2-5 3.7-5 .7 0 1.6.1 1.9.3.9.6 3.3 2 4.1 2.3 2 .8 3.6 3.6 2.9 5.1l-.4 1.2c0 .4-.7 2.8-1.6 5.2-.3.9-.2 1.2 1.6 3.4a24.7 24.7 0 0 0 2.2 2.5l1.7-1.6c2.6-2.5 3.2-3 4.5-3 1 0 1.3.4 2.3 1.8.7 1 1.6 2.4 2 3.3.3.8.7 1.5.8 1.5.4 0 1.5 3 1.5 4.1 0 1.4-1.3 3.4-3.6 5.5l-3.2 2.9-1.1 1-.1 4.6a30 30 0 0 1-1.3 9.7 21 21 0 0 1-11.8 13.9c-.2 0-.9.7-1.4 1.6-.6.9-1.7 2.3-2.6 3.2-1.4 1.4-1.9 1.7-3 1.7-1 0-1.6-.3-1.9-.7-.3-.5-.4-.5-1 0-.7 1-3 .8-4.1-.3zm8.3-5.5l1.7-.3-.1-2.6c-.1-2.4 0-2.9.8-4.6.8-1.6.9-2 .5-2.8a5 5 0 0 1 0-4c.6-1.5 1.4-2.1 2.8-2.1.7 0 1.1-.2 1.3-.6 0-.4.4-.6.8-.5.6 0 .7.3.7 1.4 0 .8 0 1.2.3 1 .2 0 .6.2.8.5.4.5.3.8 0 1.3-.3.6-.3.7 0 .9.4.2.5 1.4 0 2-.2.3-.2.5.2.7.4.2.5-.4.5-4.6 0-6.1-.1-6.3-3.7-7.2-2.6-.6-3.4-1.2-3.6-2.7l-.2.6-.2 1.2H340c-3-.2-3.1-.2-3.5-1.5-.3-.9-.3-.9-.3 0 0 .6-.2 1-.4 1.2l-4.5.3-4.2.3V120c0-1 0-1.7-.2-1.7s-.6 1-1 2c-.6 2-.7 2-2 2.3a5.6 5.6 0 0 0-1.8.6c-.5.5-1 4.2-.7 7.4.2 4 .3 4.4 1 4.2.6-.2.7-.5.5-1.6-.1-1 0-1.4.1-1.4.3 0 .3-.2 0-.9-.4-1-.1-2 .6-2 .3 0 .4-.2.3-.8-.1-.8.5-2 1-2 .2 0 .5.2.7.6s.8.6 1.4.6c1.4 0 3 1.8 3.1 3.7.2 1 0 1.7-.5 2.8l-.7 1.4.6 1a9.2 9.2 0 0 1 1.2 5.7l-.2 1.7 1.2.1c2 .3 6.4.3 8.3 0zm-4.6-4.6c-1-.8-1.3-1.6-1.7-4-.3-2-.3-2.3.2-2.8.6-.6 4.4-.7 5-.2 1 .8-.6 6.4-2 7-.9.5-.7.5-1.5 0zm-11.9-13.4c-.3-.7.7-2 2-2.5 1.3-.6 2.6-.2 3.6 1.1 1.1 1.4.7 2-.5.8-1.2-1.4-2.7-1.4-4 0-.5.6-1 .8-1 .6zm19.3-.2c0-.8 1.2-2.3 2-2.6 1.2-.3 2.7.2 3.5 1.2.4.5.7 1 .7 1.2 0 .7-.8.4-1.4-.4-.8-1.3-2.7-1.1-3.9.2-.7.8-1 .9-1 .4zm-14.9 5.7c.3-.7.3-1-.2-1.6-.5-.6-.7-.6-1.3-.2l-.8.5c0 .1 0 .6.3 1.1.3 1.3 1.6 1.4 2 .2zm18.7-.3c.2-1-.2-2-.8-2-.8 0-1.6 1.1-1.3 1.7a4 4 0 0 1 .4 1.3c.2.6 1.6-.3 1.7-1zm-2.8-13.7c-1.2-2.4-4.2-5.8-5-5.8a4.9 4.9 0 0 1-1.3-.3l-.7-.2.5 1.3c.8 2 1.7 5.7 1.7 7 0 1 .1 1 1.6 1.2 1.7.2 1.8 0 1.2-2-.2-.8-.3-1.5-.1-1.6.2-.4 2.3 2.7 2.3 3.4 0 .8.8.9.9 0 0-.4-.4-1.8-1-3zm-9.1-13.7l.6-.9.6 1c.6 1 .7 1 1.9.4a4 4 0 0 0 1.4-.8c.2-.5-1-3.7-1.4-3.7-.5 0-.4.5.1 1.4.7 1.2.6 1.9-.3 2.4-.8.5-1 .4-1.6-.7l-.8-1.2-.7 1.1c-.6 1-.9 1.1-1.5.9-1.2-.4-1.3-.8-.7-2 .3-.6.5-1.2.4-1.5-.1-.5-1.5 2.5-1.5 3.2 0 .4 1.5 1.2 2.3 1.3.3 0 .8-.4 1.2-.9zm-5.5-.9c.4-.1.9-.6 1-1 .3-.7.2-.9-1-1.3-1.2-.5-1.7-.4-4.3 1-.4.3-.6.2-.6 0 0-.9 2-2.2 3.1-2.2 1.8 0 .7-.8-1.2-1-1 0-1.7-.3-1.8-.6-.1-.4.3-.5 2-.3 2.3.2 3.5 1 4.1 2.5.3.8.3.7.4-.3 0-.8-.3-1.6-1-2.6-1-1.2-1.3-1.4-2.7-1.3a4 4 0 0 0-4 4.7c.3 1.3 1.3 2.2 2.5 2.2.5 0 1.3.2 1.7.5.5.3.9.4 1 .3 0-.2.5-.4.8-.6zm15.8-.5c1.6-.3 2.1-1 2.1-3 0-1.2-.2-1.7-1-2.6-2.4-2.7-6.5-1-6.4 2.8 0 1.1 0 1.2.3.4.5-2 3.8-3.4 5.5-2.5.8.4.8.4-1.1.8-2.6.4-3 1-1 1.2 1 .2 1.8.5 2.3 1.1.6.8.6.9 0 .9a4 4 0 0 1-1.4-.7 3 3 0 0 0-2.4-.4c-2 .3-2.1.6-1.3 1.8.6.8 1 1 1.9.7l2.5-.5z" fill="#9fdbf0"/><path d="M331.7 149.2a39 39 0 0 1-2.5-2.7 9.7 9.7 0 0 0-3.6-3.2 18.5 18.5 0 0 1-5.5-3.9l-1.3-1.4a26.8 26.8 0 0 1-5.4-11.7c-.3-.2-.7-4.5-.8-8 0-2.8.1-2.7-4-6.3-3.3-3-3.7-3.6-3.7-5.6 0-1.2.3-2.2.9-3.3L308 99c2-3.5 3.3-4.3 5.1-2.8l2.7 2.4 2 1.8 1.8-2.6c1.5-2 1.9-2.7 1.7-3.4a62.7 62.7 0 0 0-1.7-5.2c-.4-1-.3-3.7.2-4.6a4 4 0 0 1 1.5-1.4l3.3-1.9c3-1.8 4.3-1.8 5.6 0 .6.6 1 1.5 1 1.9 0 .3.1.8.3 1s.4 1 .6 1.9c.8 2.6 1.1 2.8 3.8 2.8h2.5l.5-1.5.7-2.4c1.2-4 2-5 3.7-5 .7 0 1.6.1 1.9.3.9.6 3.3 2 4.1 2.3 2 .8 3.6 3.6 2.9 5.1l-.4 1.2c0 .4-.7 2.8-1.6 5.2-.3.9-.2 1.2 1.6 3.4a24.7 24.7 0 0 0 2.2 2.5l1.7-1.6c2.6-2.5 3.2-3 4.5-3 1 0 1.3.4 2.3 1.8.7 1 1.6 2.4 2 3.3.3.8.7 1.5.8 1.5.4 0 1.5 3 1.5 4.1 0 1.4-1.3 3.4-3.6 5.5l-3.2 2.9-1.1 1-.1 4.6a30 30 0 0 1-1.3 9.7 21 21 0 0 1-11.8 13.9c-.2 0-.9.7-1.4 1.6-.6.9-1.7 2.3-2.6 3.2-1.4 1.4-1.9 1.7-3 1.7-1 0-1.6-.3-1.9-.7-.3-.5-.4-.5-1 0-.7 1-3 .8-4.1-.3zm8.3-5.5l1.7-.3-.1-2.6c-.1-2.4 0-2.9.8-4.6.8-1.6.9-2 .5-2.8a5 5 0 0 1 0-4c.6-1.5 1.4-2.1 2.8-2.1.7 0 1.1-.2 1.3-.6 0-.4.4-.6.8-.5.6 0 .7.3.7 1.4 0 .8 0 1.2.3 1 .2 0 .6.2.8.5.4.5.3.8 0 1.3-.3.6-.3.7 0 .9.4.2.5 1.4 0 2-.2.3-.2.5.2.7.4.2.5-.4.5-4.6 0-6.1-.1-6.3-3.7-7.2-2.6-.6-3.4-1.2-3.6-2.7l-.2.6-.2 1.2H340c-3-.2-3.1-.2-3.5-1.5-.3-.9-.3-.9-.3 0 0 .6-.2 1-.4 1.2l-4.5.3-4.2.3V120c0-1 0-1.7-.2-1.7s-.6 1-1 2c-.6 2-.7 2-2 2.3a5.6 5.6 0 0 0-1.8.6c-.5.5-1 4.2-.7 7.4.2 4 .3 4.4 1 4.2.6-.2.7-.5.5-1.6-.1-1 0-1.4.1-1.4.3 0 .3-.2 0-.9-.4-1-.1-2 .6-2 .3 0 .4-.2.3-.8-.1-.8.5-2 1-2 .2 0 .5.2.7.6s.8.6 1.4.6c1.4 0 3 1.8 3.1 3.7.2 1 0 1.7-.5 2.8l-.7 1.4.6 1a9.2 9.2 0 0 1 1.2 5.7l-.2 1.7 1.2.1c2 .3 6.4.3 8.3 0zm-4.6-4.6c-1-.8-1.3-1.6-1.7-4-.3-2-.3-2.3.2-2.8.6-.6 4.4-.7 5-.2 1 .8-.6 6.4-2 7-.9.5-.7.5-1.5 0zm-11.8-13.4c-.3-.6 1.2-2.3 2.2-2.6 1.2-.3 2.3 0 3.1 1 1.2 1.4 1 2.2-.2 1-1.3-1.4-3-1.4-4.1 0-.5.7-1 .9-1 .6zm19.2-.4c0-.1.3-.7.8-1.3.6-.8 1.1-1 2.3-1s1.7.2 2.3 1c1 1.1 1 1.7.4 1.7-.3 0-.5-.2-.5-.4 0-.7-1.3-1.4-2.4-1.4-.7 0-1.4.4-1.8 1-.7.8-1.1 1-1.1.4zm-14.9 5.9c.3-.7.3-1-.2-1.6-.5-.6-.7-.6-1.3-.2l-.8.5c0 .1 0 .6.2 1.1.4 1.3 1.6 1.4 2.1.2zm18.7-.3c.2-1-.2-2-.8-2-.8 0-1.6 1.1-1.3 1.7a4 4 0 0 1 .4 1.3c.2.6 1.6-.3 1.7-1zm-1.5-10.7c-.4-1.7-1-3-2.5-5-1.7-2.5-3-3.6-4.6-4l-1.2-.3 1 3a29.1 29.1 0 0 1 1.1 4.6l.2 1.8 1.5.1c1.7.2 1.7 0 1.2-2-.2-.8-.3-1.5-.1-1.6.2-.4 2.3 2.7 2.3 3.4 0 .5.4.9 1 1 .2 0 .2-.4 0-1zm-10.4-16.7l.5-.9.5 1c.3.4.8.8 1.2.8.6 0 2.4-1 2.4-1.4 0-.6-1.3-3.5-1.6-3.5-.4 0-.3.3.3 1.8.4 1.2.4 1.3-.1 1.8-.8.8-1.3.7-2-.6l-.6-1.1-1 1.1c-.7 1-1 1.1-1.5.7-.8-.5-.8-.9-.2-2.5.7-1.6 0-1.5-.8.2-.8 1.8-.8 2.5.2 3 1.4.7 2 .6 2.7-.4zm-4.3-2c.6-1 .6-2.9.2-4-.5-1.2-2-2-3.8-2-1.4 0-1.7.1-2.7 1.3-1 1.5-1.3 2.5-.7 4.1.4 1 1.1 1.5 2.5 1.5.4 0 1.1.2 1.5.5 1 .7 2.2 0 3-1.4zm-6-.3c0-.8 1.9-2 3-2 1.8 0 .7-1-1.2-1-1-.1-1.7-.4-1.8-.7-.2-.9 4-.3 5 .7.8.7 1.4 2 1.1 2.4l-1.4-.3c-1.2-.5-2-.3-4.5 1.2-.2 0-.3 0-.3-.3zm21.1.8c.9 0 1.1-.2 1.6-1.4.4-1.4.4-1.6 0-2.8-.9-2.4-3.6-3.5-5.5-2.2-2.6 1.7-2.8 5.4-.4 6.9.8.5 1.2.5 2.1 0 .7-.2 1.6-.5 2.2-.5zm-1.4-1.5c-.8-.6-1.3-.6-2.6-.3-1.4.4-1.5.3-1.5-.3 0-1.8 3.8-3.7 5.5-2.7.8.4.8.4-1.1.8-2.6.4-3 1-1 1.2 1 .2 1.8.5 2.3 1.1.6.8.6.9 0 .8a4.4 4.4 0 0 1-1.6-.7z" fill="#dcb8c4"/><path d="M331.4 148.8a51.2 51.2 0 0 1-2.4-2.7 10.1 10.1 0 0 0-2-2c-4.2-2.5-6.2-4-7.7-5.6a24.2 24.2 0 0 1-4.5-7.5l-.8-2.2c-.2-.4-.3-1-.3-1.5s-.1-.9-.3-1c-.3-.2-.7-4.5-.8-8.3 0-1.8-.1-2.7-.5-3l-1.5-1.3-3-2.7a15.7 15.7 0 0 1-2.2-2.4c-.8-1.2-.5-3.8.5-5.6l2.2-4c1.5-2.7 3-4 4.1-3.2.7.4 3.3 2.6 4.8 4 .6.6.8.5 2.6-1.9 1.6-2 1.9-2.6 1.7-3.4-.2-1-1.2-4.2-1.7-5.3a8 8 0 0 1-.3-2.3c0-2 1-3.2 3-4.2.9-.4 2.2-1.2 3-1.8 3.5-2.2 4.8-1.2 6.9 5.6.7 2.2.7 2.2 3.5 2.3l2.6.1.5-1.3 1.1-3.3.7-2.2c0-.2.3-.8.7-1.3.8-1 2.9-1.2 3.9-.5.3.2 1 .7 1.8 1 3.5 2 4.4 2.8 5 4.2.3 1 .4 1.6.1 2.5l-.6 2-.9 2.7a18.9 18.9 0 0 0-.6 2.2c0 .4 3.7 5 4 5 .2 0 1-.7 1.8-1.5 2.4-2.4 3.1-3 4.3-3 1.5 0 2.7 1.7 6.2 8.6 1 2.2.5 4-2.3 6.6l-3.3 3.2-2 1.8v4.9a26.2 26.2 0 0 1-.6 6.6c0 2-2.4 7.6-4.3 10.2-.5.7-1.5 1.8-2.3 2.5a29.7 29.7 0 0 1-5.8 3.8c-.2 0-1.2 1.2-2.3 2.7a20 20 0 0 1-3 3.3c-1.2.8-3.1.7-3.4 0 0-.4-.3-.7-.5-.7s-.5.3-.7.6c-.3.4-1 .6-1.8.6-1 0-1.7-.3-2.6-1.3zm8.3-5l2-.3-.1-2.6c-.2-2.4 0-2.8.8-4.6.8-1.7.9-2 .5-3-1.2-2.7.3-6 2.7-6 .7 0 1.2-.2 1.3-.6.3-.8 1-.8 1.5 0 .3.5.3.8 0 1.5s-.2.7.5.7c.5 0 .7.3.7.9 0 .4-.1.8-.3.8s-.3.2-.3.6c0 .3.2.6.4.6s.3.4.2 1c-.1.6 0 1 .2 1.2.8.4 1-8.4.1-10.4-.2-.5-1.1-1-3-1.4-1.5-.3-2.7-.7-2.8-.8l-1-1.8-.7-1.5.2 1.5.2 1.6h-2.3c-3 0-3.6-.3-3.9-1.6l-.2-1-.3 1c-.3 1.4-.6 1.5-5.3 1.7l-3.7.3v-1.9c0-2.2-.4-2-1.3.6-.7 1.9-.7 1.9-3.4 2.7-.8.2-.9.4-1 3.2a47 47 0 0 0 0 5.8c.2 2.5.3 2.8.9 2.7.8-.2 1.1-1 .7-1.6-.3-.5-.3-.7.1-1 .5-.5.5-.6 0-1.2-.6-.9-.3-2 .6-2 .5 0 .6-.2.4-1-.2-1.3.6-2.2 1.4-1.3.3.4 1 .7 1.5.7 2 0 3.6 2.9 3 5.5-.2.7-.6 1.6-.8 1.8-.4.4-.3.7.3 1.5 1 1.2 1.4 3.7 1.2 5.8-.2 1.6-.2 1.7.8 1.8 1.8.3 6 .3 8.2 0zm-5-5.7a7.7 7.7 0 0 1-.9-2.6 92.7 92.7 0 0 0-.3-2.2c-.2-1.3 2.3-2 4.9-1.3.9.3 1 .4.7 1.8-.3 2.3-1 4.5-1.7 5-1 .6-2 .4-2.7-.7zm-11.1-12.4c-.3-.6 1.2-2.3 2.2-2.6 1.2-.3 2.3 0 3.1 1 1.2 1.4 1 2.2-.2 1-1.3-1.4-3-1.4-4.1 0-.5.6-1 .9-1 .6zm19.2-.4c0-.2.3-.8.8-1.3.6-.8 1.1-1 2.3-1s1.7.2 2.3 1c1 1.1 1 1.7.3 1.7-.2 0-.4-.2-.4-.4 0-.7-1.3-1.4-2.4-1.4-.7 0-1.4.4-1.8 1-.7.8-1.1 1-1.1.4zm-14.9 5.9c.3-.7.3-1-.2-1.6-.5-.6-.7-.6-1.4-.2-.5.3-.7.7-.6 1l.2 1.2c0 .9 1.6.5 2-.4zm18.7-.4c.3-1.6-.7-2.4-1.8-1.4-.4.5-.5.8-.2 1.6.2.9.5 1 1 .9.5-.1 1-.6 1-1zm-1.5-10.6c-.4-1.7-1-3-2.5-5-1.7-2.5-3-3.6-4.6-4l-1.2-.3 1 2.9a29.1 29.1 0 0 1 1.1 4.7l.2 1.8 1.5.1c1.7.2 1.7 0 1.2-2-.2-.8-.3-1.5-.1-1.6.2-.4 2.3 2.7 2.3 3.4 0 .5.4.9 1 1 .2 0 .2-.4 0-1zm-10.5-16.7l.6-.9.5 1c.3.4.8.8 1.1.8.7 0 2.5-1 2.5-1.4 0-.6-1.3-3.5-1.6-3.5-.4 0-.3.3.3 1.8.4 1.2.4 1.3-.1 1.8-.8.8-1.3.6-2-.6l-.6-1.1-1 1.1c-.7 1-1 1.1-1.5.7-.8-.5-.8-.9-.2-2.5.7-1.6 0-1.5-.8.2-.8 1.8-.8 2.5.2 3 1.4.7 2 .6 2.6-.4zm-4.2-2c.6-1 .6-2.9.2-4-.5-1.3-2-2-3.8-2-1.4 0-1.7.1-2.7 1.3a5 5 0 0 0-1 2.3c0 1 .6 2.9 1 2.9.1 0 .2.1.1.3 0 .2.4.2 1.2.2.7 0 1.6.1 2 .4.7.5 1 .5 1.7 0l1.3-1.4zm-6-.3c0-.8 2-2 3-2 1.8 0 .6-1-1.2-1-1-.1-1.7-.4-1.8-.6-.2-.7 2.7-.7 3.9 0 1 .5 2.3 1.9 2.3 2.6 0 .5-.2.5-.7.3a5 5 0 0 0-4.3.4c-1.3.8-1.3.8-1.3.3zm18.6 1.6c.1-.3 1-.5 1.8-.6 4.2-.5 2.8-7.2-1.4-7.2-2 0-3.8 2-3.8 4 0 1.6.5 2.8 1.7 3.5 1.2.8 1.2.8 1.7.3zm1.2-2.3c-1-.6-1.5-.6-2.8-.3-1.4.4-1.5.4-1.4-.4.2-1.8 3.8-3.5 5.5-2.6.8.4.7.5-1.1.7-2.6.5-3 1-1 1.3 1 .2 1.8.5 2.3 1.1.8 1 .3 1.1-1.5.2z" fill="#f89bab"/><path d="M331.4 148.8a51.2 51.2 0 0 1-2.4-2.7 10.1 10.1 0 0 0-2-2c-4.2-2.5-6.2-4-7.7-5.6a24.2 24.2 0 0 1-4.5-7.5l-.8-2.2c-.2-.4-.3-1-.3-1.5s-.1-.9-.3-1c-.3-.2-.7-4.5-.8-8.3 0-1.8-.1-2.7-.5-3l-1.5-1.3-3-2.7a15.7 15.7 0 0 1-2.2-2.4c-.8-1.2-.5-3.8.5-5.6l2.2-4c1.5-2.7 3-4 4.1-3.2.7.4 3.3 2.6 4.8 4 .6.6.8.5 2.6-1.9 1.6-2 1.9-2.6 1.7-3.4-.2-1-1.2-4.2-1.7-5.3a8 8 0 0 1-.3-2.3c0-2 1-3.2 3-4.2.9-.4 2.2-1.2 3-1.8 3.5-2.2 4.8-1.2 6.9 5.6.7 2.2.7 2.2 3.5 2.3l2.6.1.5-1.3 1.1-3.3.7-2.2c0-.2.3-.8.7-1.3.8-1 2.9-1.2 3.9-.5.3.2 1 .7 1.8 1 3.5 2 4.4 2.8 5 4.2.3 1 .4 1.6.1 2.5l-.6 2-.9 2.7a18.9 18.9 0 0 0-.6 2.2c0 .4 3.7 5 4 5 .2 0 1-.7 1.8-1.5 2.4-2.4 3.1-3 4.3-3 1.5 0 2.7 1.7 6.2 8.6 1 2.2.5 4-2.3 6.6l-3.3 3.2-2 1.8v4.9a26.2 26.2 0 0 1-.6 6.6c0 2-2.4 7.6-4.3 10.2-.5.7-1.5 1.8-2.3 2.5a29.7 29.7 0 0 1-5.8 3.8c-.2 0-1.2 1.2-2.3 2.7a20 20 0 0 1-3 3.3c-1.2.8-3.1.7-3.4 0 0-.4-.3-.7-.5-.7s-.5.3-.7.6c-.3.4-1 .6-1.8.6-1 0-1.7-.3-2.6-1.3zm11.4-5.6a12 12 0 0 0 6-4.1c1.2-2.3 1.5-4.5 1.6-9.6 0-3-.1-5.2-.4-5.7-.3-.8-1.4-1.3-4.8-2-1-.2-1.3-.6-2-2l-.7-1.7.1 1.5.2 1.6h-2.3c-3 0-3.6-.3-3.9-1.6l-.2-1-.3 1c-.4 1.4-.6 1.5-5.3 1.7l-3.7.3v-1.9c0-2.2-.4-2-1.3.6-.7 1.7-.8 2-2.4 2.4a6 6 0 0 0-1.8.7c-.4.5-.2 10.1.2 12 1 4.7 3.8 7.3 8.8 8.2 2.5.5 10 .2 12.2-.4zm-8.1-5.1a7.7 7.7 0 0 1-.9-2.6 92.7 92.7 0 0 0-.3-2.2c-.2-1.3 2.3-2 4.8-1.3 1 .3 1 .4.8 1.8-.3 2.3-1 4.5-1.7 5-1 .6-2 .4-2.7-.7zm3-.4c.5-1 .5-1.1-.1-1.7-.8-.7-1.8-.7-2.7.2l-.7.8.7.9c1 1.2 2.1 1 2.8-.3zm-13-3.2a6.8 6.8 0 0 0-1.4-1.2c-.7-.3-.7-1 0-1.4.4-.2.4-.3-.1-1-.6-.9-.4-2 .5-2 .5 0 .6-.2.4-1-.2-1.3.6-2.2 1.4-1.3.3.4 1 .7 1.5.7 1.2 0 2.4 1.2 3 2.8.4 1.6 0 3.8-1.2 4.7-1 1-3 .8-4-.3zm3.2-3.3c.3-.7.3-1-.2-1.6-.5-.6-.7-.6-1.4-.2-.5.3-.7.7-.6 1l.2 1.2c0 .9 1.6.5 2-.4zm16.1 3.7c-2.7-2-1.6-7.6 1.6-7.6.7 0 1.2-.2 1.3-.6.3-.8 1-.8 1.5 0 .3.5.3.8 0 1.4-.3.8-.2.8.5.8.5 0 .7.3.7.9 0 .4-.1.8-.3.8s-.3.2-.3.6c0 .3.2.6.3.6s.3.4.3.8c0 .5-.2.8-.5.8-.2 0-.9.5-1.4 1-1 1.2-2.5 1.4-3.7.5zm2.6-4c.3-1.7-.7-2.5-1.8-1.5-.4.5-.5.8-.2 1.6.2.9.5 1 1 .9.5-.1 1-.6 1-1zm-23-5.2c-.3-.6 1.2-2.3 2.2-2.6 1.2-.3 2.3 0 3.1 1 1.1 1.4 1 2.2-.2 1-1.3-1.4-3-1.4-4.1 0-.5.6-1 .9-1 .6zm19.2-.4c0-.2.3-.8.8-1.3.6-.8 1.1-1 2.3-1s1.7.2 2.3 1c1 1.1 1 1.7.3 1.7-.2 0-.4-.2-.4-.4 0-.7-1.3-1.4-2.4-1.4-.7 0-1.4.4-1.8 1-.8.8-1.1 1-1.1.4zm2.3-5c-.4-1.8-1-3-2.5-5.2-1.7-2.4-3-3.5-4.6-3.9l-1.2-.3 1 2.9a29.1 29.1 0 0 1 1.1 4.7l.2 1.8 1.5.1c1.7.2 1.7 0 1.2-2-.2-.8-.3-1.5-.1-1.6.2-.4 2.3 2.7 2.3 3.4 0 .5.4.9 1 1 .2 0 .2-.4 0-1zM328 107c.5-.6.6-1 .5-2.2-.2-1.3-.1-1.6.4-1.8 1.5-.6 2.3-3.6 1.6-5.5-.5-1.3-2-2-3.8-2-1.4 0-1.7.1-2.7 1.3a5 5 0 0 0-1 2.3c0 1 .5 2.5 1 3 .2.1.1.4-.3.5-2.5 1.2-2.2 4.7.6 5.5 1.3.3 3-.1 3.7-1zm-3.8-5.8c0-.8 2-2 3.1-2 1.8 0 .6-1-1.3-1-.9-.1-1.7-.4-1.7-.6-.2-.7 2.7-.7 3.9 0 1 .5 2.3 1.9 2.3 2.6 0 .5-.2.5-.7.3a5 5 0 0 0-4.3.4c-1.3.8-1.3.8-1.3.3zm22.8 6.3c1.6-1.5 1.4-3.8-.3-4.7-.8-.5-.9-.5-.3-1.3 2.6-3.3-1.5-8.2-5-5.9-2.5 1.7-2.7 5.5-.3 6.9.6.3.9.7.7 1.1-.5 1.7-.4 2.4.5 3.4 1.2 1.3 3.5 1.5 4.7.5zm-2.9-7c-1-.6-1.5-.6-2.8-.3-1.4.4-1.5.4-1.4-.4.2-1.8 3.8-3.5 5.5-2.6.8.4.7.5-1.2.7-2.6.5-3 1-1 1.3 1.2.2 2 .5 2.4 1.1.8 1 .3 1.1-1.5.2zm-9.6 3l.6-.9.5 1c.3.4.8.8 1.1.8.7 0 2.5-1 2.5-1.4 0-.6-1.3-3.5-1.6-3.5-.4 0-.3.3.2 1.8.5 1.2.5 1.3 0 1.8-.8.8-1.3.6-2-.6l-.6-1.1-1 1.1c-.7 1-1 1.1-1.5.7-.8-.5-.8-.9-.2-2.5.7-1.6 0-1.5-.8.2-.8 1.8-.8 2.5.2 3 1.4.7 2 .6 2.6-.4z" fill="#63d4f1"/><path d="M331.4 148.8a51.2 51.2 0 0 1-2.4-2.7 10.1 10.1 0 0 0-2-2c-4.2-2.5-6.2-4-7.7-5.6a24.2 24.2 0 0 1-4.5-7.5l-.8-2.2c-.2-.4-.3-1-.3-1.5s-.1-.9-.3-1c-.3-.2-.7-4.5-.8-8.3 0-1.8-.1-2.7-.5-3l-1.5-1.3-3-2.7a15.7 15.7 0 0 1-2.2-2.4c-.8-1.2-.5-3.8.5-5.6l2.2-4c1.5-2.7 3-4 4.1-3.2.7.4 3.3 2.6 4.8 4 .6.6.8.5 2.6-1.9 1.6-2 1.9-2.6 1.7-3.4-.2-1-1.2-4.2-1.7-5.3a8 8 0 0 1-.3-2.3c0-2 1-3.2 3-4.2.9-.4 2.2-1.2 3-1.8 3.5-2.2 4.8-1.2 6.9 5.6.7 2.2.7 2.2 3.5 2.3l2.6.1.5-1.3 1.1-3.3.7-2.2c0-.2.3-.8.7-1.3.8-1 2.9-1.2 3.9-.5.3.2 1 .7 1.8 1 3.5 2 4.4 2.8 5 4.2.3 1 .4 1.6.1 2.5l-.6 2-.9 2.7a18.9 18.9 0 0 0-.6 2.2c0 .4 3.7 5 4 5 .2 0 1-.7 1.8-1.5 2.4-2.4 3.1-3 4.3-3 1.5 0 2.7 1.7 6.2 8.6 1 2.2.5 4-2.3 6.6l-3.3 3.2-2 1.8v4.9a26.2 26.2 0 0 1-.6 6.6c0 2-2.4 7.6-4.3 10.2-.5.7-1.5 1.8-2.3 2.5a29.7 29.7 0 0 1-5.8 3.8c-.2 0-1.2 1.2-2.3 2.7a20 20 0 0 1-3 3.3c-1.2.8-3.1.7-3.4 0 0-.4-.3-.7-.5-.7s-.5.3-.7.6c-.3.4-1 .6-1.8.6-1 0-1.7-.3-2.6-1.3zm11.4-5.6a12 12 0 0 0 6-4.1c1.2-2.3 1.5-4.5 1.6-9.6 0-3-.1-5.2-.4-5.7-.3-.8-1.4-1.3-4.8-2-1-.2-1.3-.6-2-2l-.7-1.7.1 1.5.2 1.6h-2.3c-3 0-3.6-.3-3.9-1.6l-.2-1-.3 1c-.4 1.4-.6 1.5-5.3 1.7l-3.7.3v-1.9c0-2.2-.4-2-1.3.6-.7 1.7-.8 2-2.4 2.4a6 6 0 0 0-1.8.7c-.4.5-.2 10.1.2 12 1 4.7 3.8 7.3 8.8 8.2 2.5.5 10 .2 12.2-.4zm-8.1-5.1a7.7 7.7 0 0 1-.9-2.6 92.7 92.7 0 0 0-.3-2.2c-.2-1.3 2.3-2 4.8-1.3 1 .3 1 .4.8 1.8-.3 2.3-1 4.5-1.7 5-1 .6-2 .4-2.7-.7zm3-.4c.5-1 .5-1.1-.1-1.7-.8-.7-1.8-.7-2.7.2l-.7.8.7.9c1 1.2 2.1 1 2.8-.3zm-13-3.2a6.8 6.8 0 0 0-1.4-1.2c-.7-.3-.7-1 0-1.4.4-.2.4-.3-.1-1-.6-.9-.4-2 .5-2 .5 0 .6-.2.4-1-.2-1.3.6-2.2 1.4-1.3.3.4 1 .7 1.5.7 1.2 0 2.4 1.2 3 2.8.4 1.6 0 3.8-1.2 4.7-1 1-3 .8-4-.3zm3.2-3.3c.3-.7.3-1-.2-1.6-.5-.6-.7-.6-1.4-.2-.5.3-.7.7-.6 1l.2 1.2c0 .9 1.6.5 2-.4zm16.1 3.7c-2.7-2-1.6-7.6 1.6-7.6.7 0 1.2-.2 1.3-.6.3-.8 1-.8 1.5 0 .3.5.3.8 0 1.4-.3.8-.2.8.5.8.5 0 .7.3.7.9 0 .4-.1.8-.3.8s-.3.2-.3.6c0 .3.2.6.3.6s.3.4.3.8c0 .5-.2.8-.5.8-.2 0-.9.5-1.4 1-1 1.2-2.5 1.4-3.7.5zm2.6-4c.3-1.7-.7-2.5-1.8-1.5-.4.5-.5.8-.2 1.6.2.9.5 1 1 .9.5-.1 1-.6 1-1zm-23-5.6c0-.2.5-.8 1-1.2a3 3 0 0 1 4.3.1c.5.5.8 1.1.6 1.3 0 .2-.5-.1-1-.6-1-1.3-2.6-1.3-3.9-.1-.5.5-1 .7-1 .5zm19.2 0c0-.6 1.2-1.8 2.2-2 1.4-.4 3 .1 3.5 1.2.7 1.3.4 1.4-.8.2-1.3-1.5-3.3-1.3-4 .4-.4.6-1 .8-1 .2zm2.4-5.3a22.6 22.6 0 0 0-3.6-6.3c-1.1-1.4-1.9-2-3-2.3-.9-.3-1.6-.4-1.7-.3l.7 2.4c.4 1.2 1 3.2 1.1 4.5l.4 2.3 1.5.1c1.7.2 1.7 0 1.2-2-.2-.8-.3-1.5-.1-1.6.2-.4 2.3 2.7 2.3 3.4 0 .5.5.9 1.2 1 .3 0 .3-.3 0-1.2zm-17.4-12.5c.7-.4 1-1.6.7-3-.1-1 0-1.3.4-1.5 1-.4 2-2.2 2-3.5 0-2.8-2.7-5-5-4-2.4.8-3.6 4.3-2.2 6 .6.9.6 1 0 1.2a2.8 2.8 0 0 0-1.6 2.6c0 1.3.7 2.3 1.8 2.6l1.2.4c.3 0 1.9-.4 2.7-.8zm-3.5-6.3c0-.8 2-2 3.1-2 1.8 0 .6-1-1.3-1-.9-.1-1.7-.4-1.7-.6-.2-.6 2.7-.7 3.9 0 1 .5 2.3 1.9 2.3 2.7 0 .4-.2.4-.7.2a5 5 0 0 0-4.3.4c-1.3.8-1.3.8-1.3.3zm23 6l.9-1.4c.3-.7-.4-2.5-1.1-2.8-.7-.3-.7-1-.1-2s.6-2 0-3.5c-1.3-3.3-5.8-3.2-7.2.1-.8 1.8-.3 3.4 1.2 4.7.9.8 1 1.2.8 1.7-.9 2.2.7 4.1 3.3 4.1 1.3 0 1.7-.2 2.2-1zm-3.1-6.7c-1-.6-1.5-.6-2.8-.3-1.4.4-1.5.4-1.4-.4.2-1.8 3.8-3.5 5.5-2.6.8.4.7.5-1.2.7-2.6.5-3 1-1 1.3 1.2.2 2 .5 2.4 1.1.8 1 .3 1.1-1.5.2zm-9.7 3.3l.6-1 .7 1c.8 1 .8 1 2.1.3.8-.4 1.4-.8 1.4-1 0-.6-1-3-1.4-3.5-.6-.7-.6.1 0 1.6.6 1.3.6 1.4-.3 2-.8.4-1.3 0-2-1.5-.3-.7-.4-.6-1.1.6-1 1.5-1 1.5-1.9.8-.5-.5-.5-.6 0-1.8.6-1.6.6-1.8 0-1.8-.4 0-1.4 2.5-1.4 3.5 0 .4 1.7 1.6 2.6 1.8l.7-1z" fill="#a79da1"/><path d="M332 149.3a50.7 50.7 0 0 1-3-3.3 9.8 9.8 0 0 0-2.3-2.4 2.5 2.5 0 0 1-1.1-.4l-1.2-.7a23.3 23.3 0 0 1-10.4-14.2c-.7-2.4-1-4.5-1-8.3v-4.3l-1.4-1.2-3.2-3.1c-3.2-3-3.5-3.4-3.5-5.3 0-.9.1-1.7.3-1.7s.5-.5.8-1.1a30 30 0 0 1 4.3-7c1.2-1 2.2-.6 4.4 1.6 3 3 2.8 3 5.1 0 2-2.7 2-2.7 1.6-3.9a98.9 98.9 0 0 1-1.8-5.2 4.5 4.5 0 0 1 .7-4.3c.5-.7 1-1.3 1.2-1.3.4 0 2.6-1.2 4.5-2.5 1.5-1 2.5-1 3.5 0 .7.5 1.2 1.7 2.8 6.5.3.7.6 1.4.8 1.5.2.2 1.5.3 2.8.4h2.5l.8-2.1.7-2.6c0-.6.7-2 1.6-3.3.8-1.2 2.3-1.5 3.4-.8l1.3.8c2.4 1.2 5 3 5.3 3.5.5.9.6 3.6 0 5a56.4 56.4 0 0 0-1.3 4c-.5 1.3-.2 2 1.7 4.4 2 2.5 2.3 2.6 2.6 2 .4-1 4.8-4.5 5.5-4.5 1.1 0 1.8.7 4 4.6 3 5.3 3 5.6 2.3 7.3-.6 1.3-3.6 4.6-6.2 6.7l-1.4 1.1v5c-.2 5.6-.5 7.2-1.8 10.8a21.2 21.2 0 0 1-10 11.8 8.2 8.2 0 0 0-3.1 3c-2.7 3.8-5.6 5.5-6.7 3.7-.2-.3-.5-.6-.7-.6-.3 0-.6.3-.8.6-.6 1-2.5.8-3.6-.3zm11-6.2c3.8-1.2 5.9-3.3 6.8-6.9.8-3 .9-11.8.1-12.8-.2-.3-1.7-1-3.2-1.3-2.6-.6-2.7-.7-3.3-2.2-.7-1.6-1.5-2.7-1.1-1.4l.4 1.7c.1.9 0 1-1 1l-3-.3c-1.7-.2-1.8-.3-2.1-1.5l-.3-1.3-.2 1.3c-.3 1.4 0 1.4-6.9 2l-2.1.1v-2c.2-1.6.1-1.8-.2-1.5-.3.3-.8 1.3-1.1 2.3-.7 1.8-.8 2-2.4 2.3-1.7.4-1.7.5-2 2a47 47 0 0 0 .6 11.5c.9 3.9 3.4 6.2 7.8 7.4 2.7.7 10.8.4 13.3-.4zm-8.1-4.7a8.5 8.5 0 0 1-1.2-4.5c0-1.8.4-2.1 2.7-2.1 2.7 0 3 .7 2.3 4.1-.6 2.9-2.6 4.2-3.8 2.5zm2.8-.7c.5-1 .5-1.1 0-1.7-.8-.7-1.5-.7-2.6 0-1 .5-1 .8-.2 2 1 1 2.1 1 2.8-.3zm-13-3.3c-.5-.7-1-1.2-1.3-1.2-.7 0-.7-.9 0-1.2.8-.3.8-.7 0-1.3-.8-.7-.5-1.8.5-1.8.7 0 .7 0 .4-.6-.2-.3-.3-.9-.2-1.2.2-.8 1.4-.8 1.6 0 .1.3.5.4 1 .3 1-.3 2.6 1 3.1 2.5.5 1.7.3 3-.7 4.4-1.2 1.6-3.2 1.6-4.4 0zm3.3-2.8a1.2 1.2 0 0 1 .2-1c.2-.3.2-.6-.3-1-.7-.8-1-.8-1.7-.1-.4.3-.5.8-.4 1.5.1 1 .3 1.1 1.2 1 .7 0 1-.1 1-.4zm16 3.3c-2.8-2-1.5-7.6 1.9-7.6.5 0 1-.3 1-.6.3-.8 1-.8 1.5 0 .3.4.3.8 0 1.4-.3.7-.2.8.5.8.9 0 1 1.4.2 1.9-.5.2-.5.3 0 .8.7.6.5 2-.1 1.7-.2 0-.8.4-1.2 1-1 1.3-2.5 1.5-3.8.6zm2.3-3.1c.3 0 .6-.1.4-.3s0-.5.1-.9c.2-.5 0-.8-.4-1.3-.6-.6-.7-.6-1.4 0-.5.5-.6 1-.5 1.8.2.8.4 1 .7 1a3 3 0 0 1 1-.3zm-22.6-6.5c0-.2.4-.8.8-1.2a3 3 0 0 1 4.4.1c.5.5.8 1.1.7 1.3-.2.2-.6-.1-1-.6-1-1.3-2.7-1.3-4-.1-.5.5-.9.7-.9.5zm19 0c0-.6 1.3-1.8 2.3-2 1.4-.5 3 .1 3.5 1.2.7 1.3.4 1.4-.7.2-1.4-1.5-3.4-1.3-4.2.4-.3.6-.8.8-.8.2zm2.5-5.2c-1.3-3.9-4.8-8.5-6.8-9H337l.6 2.4a30.6 30.6 0 0 1 1.2 4.5l.3 2.3 1.5.2a5 5 0 0 0 1.5 0l-.2-1.8a5 5 0 0 1-.2-2c.2-.3 1.4 1.2 2 2.6.4 1.4.9 1.9 1.5 1.9.3 0 .3-.3 0-1.1zm-17.9-12.2c1.2-.7 1.6-2 1.3-3.6-.2-.8 0-1 .4-1.3 1-.4 2-2.2 2-3.5 0-2.8-2.7-5-5.1-4-2.3.8-3.5 3.9-2.4 6 .4.7.4.8-.4 1.7a2.6 2.6 0 0 0-1 2c0 1.4.3 2 1.4 2.7 1.2.8 2.5.8 3.8 0zm-3-6.8c.3-.8 2.2-2 3.4-2 1.9 0 .6-.9-1.4-1-2.1-.2-2.7-1-.7-1 .8 0 1.9.2 2.5.4 1 .4 2.5 1.9 2.5 2.5 0 .1-1 .2-2.1.2-1.5 0-2.5.2-3.2.7-.8.5-1 .6-1 .2zm21.6 7.2c1.2-.4 2.5-2 2.5-3 0-.6-.4-1.5-1-2.1-.9-1.1-.9-1.2-.4-2.1.6-1.2.6-2 0-3.6-1.3-3.3-5.8-3.2-7.2.2-.7 1.7-.3 3.4 1.2 4.7.8.6 1 1.1.8 1.4-.5.6-.3 2.5.3 3.2 1 1.3 2.2 1.7 3.8 1.3zm-1.6-7.8a4 4 0 0 0-2.7-.4c-2 .3-2.2-.4-.6-1.8 1-1.1 4.4-1.6 5-.9.2.4 0 .5-1.2.5-.9 0-2 .3-2.5.6l-1 .6h1.2c1.4 0 3.4 1 3.4 1.6 0 .6-.2.5-1.6-.2zm-9.8 3.3l.6-1 .8 1c.7 1 .7 1 2 .3.8-.4 1.4-.8 1.4-1 0-.6-1-3-1.4-3.5-.6-.7-.6.1 0 1.6.6 1.3.6 1.4-.3 2-.8.4-1.3 0-2-1.5-.3-.7-.4-.6-1.1.6-1 1.5-1 1.5-1.9.8-.5-.5-.5-.6 0-1.8.6-1.6.6-1.8 0-1.8-.4 0-1.4 2.5-1.4 3.5 0 .4 1.7 1.6 2.6 1.8l.8-1z" fill="#02d7fc"/><path d="M332 149.3a50.7 50.7 0 0 1-3-3.3 9.8 9.8 0 0 0-2.3-2.4 2.5 2.5 0 0 1-1.1-.4l-1.2-.7a23.3 23.3 0 0 1-10.4-14.2c-.7-2.4-1-4.5-1-8.3v-4.3l-1.4-1.2-3.2-3.1c-3.2-3-3.5-3.4-3.5-5.3 0-.9.1-1.7.3-1.7s.5-.5.8-1.1a30 30 0 0 1 4.3-7c1.2-1 2.2-.6 4.4 1.6 3 3 2.8 3 5.1 0 2-2.7 2-2.7 1.6-3.9a98.9 98.9 0 0 1-1.8-5.2 4.5 4.5 0 0 1 .7-4.3c.5-.7 1-1.3 1.2-1.3.4 0 2.6-1.2 4.5-2.5 1.5-1 2.5-1 3.5 0 .7.5 1.2 1.7 2.8 6.5.3.7.6 1.4.8 1.5.2.2 1.5.3 2.8.4h2.5l.8-2.1.7-2.6c0-.6.7-2 1.6-3.3.8-1.2 2.3-1.5 3.4-.8l1.3.8c2.4 1.2 5 3 5.3 3.5.5.9.6 3.6 0 5a56.4 56.4 0 0 0-1.3 4c-.5 1.3-.2 2 1.7 4.4 2 2.5 2.3 2.6 2.6 2 .4-1 4.8-4.5 5.5-4.5 1.1 0 1.8.7 4 4.6 3 5.3 3 5.6 2.3 7.3-.6 1.3-3.6 4.6-6.2 6.7l-1.4 1.1v5c-.2 5.6-.5 7.2-1.8 10.8a21.2 21.2 0 0 1-10 11.8 8.2 8.2 0 0 0-3.1 3c-2.7 3.8-5.6 5.5-6.7 3.7-.2-.3-.5-.6-.7-.6-.3 0-.6.3-.8.6-.6 1-2.5.8-3.6-.3zm11-6.2c3.8-1.2 5.9-3.3 6.8-6.9.8-3 .9-11.8.1-12.8-.2-.3-1.7-1-3.2-1.3-2.6-.6-2.7-.7-3.3-2.2-.7-1.6-1.5-2.7-1.1-1.4l.4 1.7c.1.9 0 1-1 1l-3-.3c-1.7-.2-1.8-.3-2.1-1.5l-.3-1.3-.2 1.3c-.3 1.4 0 1.4-6.9 2l-2.1.1v-2c.2-1.6.1-1.8-.2-1.5-.3.3-.8 1.3-1.1 2.3-.7 1.8-.8 2-2.4 2.3-1.7.4-1.7.5-2 2a47 47 0 0 0 .6 11.5c.9 3.9 3.4 6.2 7.8 7.4 2.7.7 10.8.4 13.3-.4zm-8.1-4.7a8.5 8.5 0 0 1-1.2-4.5c0-1.8.4-2.1 2.7-2.1 2.7 0 3 .7 2.3 4.1-.6 2.9-2.6 4.2-3.8 2.5zm2.8-.7c.5-1 .5-1.1 0-1.7-.8-.7-1.5-.7-2.6 0-1 .5-1 .8-.2 2 1 1 2.1 1 2.8-.3zm-13-3.3c-.5-.7-1-1.2-1.3-1.2-.7 0-.7-.9 0-1.2.8-.3.8-.7 0-1.3-.8-.7-.5-1.8.5-1.8.7 0 .7 0 .4-.6-.2-.3-.3-.9-.2-1.2.2-.8 1.4-.8 1.6 0 .1.3.5.4 1 .3 1-.3 2.6 1 3.1 2.5.5 1.7.3 3-.7 4.4-1.2 1.6-3.2 1.6-4.4 0zm3.3-2.8a1.2 1.2 0 0 1 .2-1c.2-.3.2-.6-.3-1-.7-.8-1-.8-1.7-.1-.4.3-.5.8-.4 1.5.1 1 .3 1.1 1.2 1 .7 0 1-.1 1-.4zm16 3.3c-2.8-2-1.5-7.6 1.9-7.6.5 0 1-.3 1-.6.3-.8 1-.8 1.5 0 .3.4.3.8 0 1.4-.3.7-.2.8.5.8.9 0 1 1.4.2 1.9-.5.2-.5.3 0 .8.7.6.5 2-.1 1.7-.2 0-.8.4-1.2 1-1 1.3-2.5 1.5-3.8.6zm2.3-3.1c.3 0 .6-.1.4-.3s0-.5.1-.9c.2-.5 0-.8-.4-1.3-.6-.6-.7-.6-1.4 0-.5.5-.6 1-.5 1.8.2.8.4 1 .7 1a3 3 0 0 1 1-.3zm-22-10c.3-.2.8-.8 1-1.6.4-1.5 1.5-3.4 2.1-3.6.4 0 .4.4.4 2v2.3l1.6-.3 4-.2h2.2v-1.6c0-1.5.4-2.9.8-2.5l.5 2 .4 1.9 2.4.2h2.4l-.2-1.7a5 5 0 0 1-.2-2c.2-.3 1.6 1.6 2 2.9l.4 1.2c1 .3 5.1 1 5.2 1 .6-.8-3.5-6.8-5.7-8.2-2-1.3-5.6-2.6-7.4-2.6-5.6 0-11 3.8-13.4 9.3l-.7 1.7h.7c.4 0 1-.1 1.4-.3zm3-14c1.2-.6 1.6-1.9 1.3-3.5-.1-.7 0-1 .7-1.6 1.5-1 2-2.5 1.6-4.1-.4-1.8-1-2.5-2.7-3.2-3.1-1.2-6.3 3-4.7 6 .4.8.4 1-.4 1.8a2.6 2.6 0 0 0-1 2c0 1.4.3 2 1.4 2.7 1.2.8 2.5.8 3.8 0zm-3-6.7c.3-.8 2.2-2 3.4-2 1.9 0 .6-.9-1.4-1-2.1-.2-2.7-1-.7-1 .8 0 1.9.2 2.5.4 1 .4 2.5 1.9 2.5 2.5 0 .1-1 .2-2.1.2-1.5 0-2.5.2-3.2.7-.8.5-1 .6-1 .2zm21.6 7.2c1.2-.4 2.5-2 2.5-3 0-.6-.4-1.5-1-2.1-.9-1.1-.9-1.2-.4-2.1.6-1.2.6-2 0-3.6-1.3-3.3-5.7-3.2-7.2 0-.9 2 0 4.5 1.7 5.4.6.3.7.5.4.8-.6.7-.5 2.6.2 3.3 1 1.3 2.2 1.7 3.8 1.3zm-1.6-7.8a4 4 0 0 0-2.7-.4c-2 .3-2.2-.4-.6-1.8 1-1.1 4.4-1.6 5-.9.2.4 0 .5-1.2.5-.9 0-2 .3-2.5.6l-1 .6h1.2c1.4 0 3.4 1 3.4 1.6 0 .6-.2.5-1.6-.2zm-9.8 3.3l.6-1 .8 1c.7 1 .7 1 2 .3.8-.4 1.4-.9 1.4-1.1 0-.7-.9-3-1.4-3.5-.6-.6-.6.3 0 1.7.6 1.3.6 1.4-.3 2-.8.4-1.3 0-2-1.5-.3-.7-.4-.6-1.1.6-1 1.5-1 1.5-1.9.8-.5-.5-.5-.6 0-1.9.4-.9.4-1.5.2-1.8-.2-.2-.6.3-1.1 1.7l-.8 2.1 1.3.8c1.7 1 1.7 1 2.3-.2z" fill="#957a84"/><path d="M332.8 149.8c0-.2-.3-.5-.7-.7-.3-.1-1.5-1.3-2.6-2.6a14.9 14.9 0 0 0-4.4-3.8 18.9 18.9 0 0 1-6.7-5.7 24 24 0 0 1-5.3-16.2c0-2.6-.2-5-.4-5.3a32.2 32.2 0 0 0-2.9-2.8 56 56 0 0 1-3.7-3.7c-1.7-2-1.6-3 1-7.8s3-5.1 4.4-5.1c.8 0 1.7.5 3.6 2.3l2.5 2.3 2.1-2.7c2.5-3 2.4-2.2.5-7.8-.5-1.4-.9-2.9-.9-3.3 0-1.6 1.5-3.1 4.5-4.7 1.6-.9 3-1.7 3.2-2 .6-.6 2-.2 2.8 1 .5.6 1.4 2.5 1.9 4.1l1.2 3.4c.2.3 1.5.5 3 .5h2.6l.6-1.9c2.2-6.6 2.6-7.4 4.4-7.4.6 0 1.1.2 1.1.4s.2.5.5.5.7.1 1 .3a24 24 0 0 0 3.8 2.1c.1 0 .6.5 1.1 1.2 1.1 1.5 1 3.2-.2 7.4l-1.1 3.5 2 2.5c1 1.4 2 2.5 2.1 2.6.2 0 1.2-1 2.4-2 2.4-2.4 3.2-3 4-3 .7 0 2.5 2.2 3.7 4.5l1.7 3.3c1.8 3.4 1.2 4.7-4.2 9.6l-2.7 2.5v4c0 3.7-.1 5-1 8.8-1.3 6.2-5.6 12-10.7 14.5-1 .5-2.3 1.7-3.7 3.6-3.1 4-5 5-6.2 3.1-.5-.7-.6-.7-1.2-.3-.3.3-.6.7-.6.9s-.6.3-1.3.3-1.2-.2-1.2-.4zm10.7-6.8a9.4 9.4 0 0 0 5.7-5c1.4-3.1 1.8-13.2.7-14.7-.3-.3-1.7-.9-3.2-1.2-2.7-.7-2.8-.8-3.3-2.2-.7-1.8-1.4-2.6-1.1-1.2l.3 1.7c.2.9.2.9-2 .6a36.5 36.5 0 0 0-2.9-.2c-.7 0-.9-.3-1-1.5-.3-1.6-.8-1.5-.8.2v1.2l-3 .2-4.5.4-1.3.2.1-2c.1-1.8.1-2-.3-1.5a8.6 8.6 0 0 0-1 2.2c-.7 1.7-1.2 2.1-3.6 2.7-.9.2-1.2 2.6-1 7.4.2 5 .9 7.6 2.4 9.6 1.3 1.7 3.8 3.2 6.4 3.7 2.7.6 11 .2 13.4-.6zm-8.6-4.6c-.8-1-1.2-2.8-1.2-4.6 0-1.5 0-1.6 1.3-1.8a7.8 7.8 0 0 1 2.6 0c1.3.2 1.4.3 1.4 1.3 0 4.2-2.6 7.4-4.1 5.1zm2.9-1c.4-1 .4-1.2 0-1.5-.7-.6-2.3-.5-3 .1-.6.5-.6.6 0 1.7.7 1.5 2.3 1.3 3-.3zm-12.9-3.2c-.5-.6-1.1-1-1.3-1-.8.4-.9-.5-.2-1.2l.7-.6-.6-.7c-.9-.7-.6-1.8.4-1.8.7 0 .7 0 .4-.6-.2-.3-.3-.9-.2-1.2.2-.8 1.4-.8 1.7 0 0 .4.4.5.9.3.8-.2 2.5.8 3 2a5.8 5.8 0 0 1-.6 4.8c-1 1.8-2.9 1.8-4.2 0zm3-2.6c0-.3 0-.7.2-1 .2-.2.1-.6-.3-1.2-.5-.7-.7-.7-1.4-.2-.6.4-.8.8-.7 1.2l.2 1.2c0 .4.3.5 1 .5.8 0 1.2-.2 1-.5zm15.7 2.5c-1.5-2-1.5-3.5 0-5.4.7-1 1.3-1.4 2-1.4.5 0 1.2-.3 1.4-.6.7-.8 1.9 0 1.6 1-.4 1.2-.4 1.4.2 1.3.8-.2 1 1.1.4 1.6-.5.4-.5.5 0 1.2.5.8.4 1.7-.3 1.5-.2 0-.7.3-1 .9a2.7 2.7 0 0 1-2 1.1c-1.1.2-1.3.1-2.3-1.2zm3.1-2.6c0-.2 0-.7.2-1 .3-.3.2-.6-.4-1.2-.7-.7-.8-.7-1.5 0-.4.3-.6.8-.5 1.1l.1 1.1c0 .3.5.5 1.1.5.8 0 1.1-.1 1-.5zm-22.5-9.8c.4-.1.9-.7 1-1.5.5-1.5 1.6-3.4 2.2-3.6.4-.1.5.3.4 2v2.3l1.6-.3 4-.3h2.2V119c0-3 .7-3.5 1.3-.8.4 2.2.3 2.1 3.1 2.4 2 .2 2.1.2 2.1-.6l-.3-1.8c-1-2.6.9-1.2 2 1.5.4 1.3.7 1.6 1.6 1.6l2.3.4c.8.2 1.5.3 1.6.2.6-.9-3.5-6.7-5.7-8.3-2-1.3-5.6-2.5-7.4-2.5-5.5 0-11 3.8-13.4 9.3l-.7 1.7h.7c.4 0 1-.1 1.4-.3zm3.1-13.9c1.2-.7 1.6-1.9 1.3-3.5-.1-.7 0-1 .7-1.6 1.5-1 2-2.5 1.6-4.1-.4-1.8-1-2.5-2.7-3.2-3.1-1.2-6.3 3-4.7 6 .4.8.4 1-.4 1.7a2.6 2.6 0 0 0-1 2c0 1.5.3 2 1.4 2.8 1.2.8 2.5.8 3.8 0zm-3-6.8c0-.6 1.7-1.6 3-1.8 1.6-.4 1.6-.4.7-.8a5.8 5.8 0 0 0-2.3-.5c-.8 0-1.4-.2-1.4-.4 0-.5 2.4-.5 3.8 0 1 .4 2.5 1.8 2.5 2.5 0 .2-.8.2-1.7.1-1.1-.2-2 0-2.8.4-1.3.7-1.8.8-1.8.5zm21.6 7.3c1.2-.4 2.5-2 2.5-3 0-.6-.4-1.5-1-2.1-.9-1.1-.9-1.3-.4-2.1.6-1.2.6-2.1 0-3.6-1.3-3.3-5.7-3.3-7.2 0-.9 2 0 4.5 1.7 5.3.6.3.7.5.4.9-.6.7-.5 2.5.2 3.3 1 1.3 2.2 1.7 3.8 1.2zm-1.4-7.8c-.6-.5-1.4-.6-2.7-.5-2 .3-2.3 0-1-1.5 1-1.3 4.8-2 5.2-1 .2.2-.4.4-1.3.4s-2 .2-2.5.5c-.8.4-.8.4.7.7 1.7.3 3 1 3 1.7 0 .5-.3.4-1.4-.3zm-10 3.3l.6-1 .7 1c.8 1 .8 1 2.2.3.7-.4 1.3-.9 1.3-1.1 0-.7-.9-3-1.4-3.5-.6-.7-.6.2 0 1.7.6 1.3.6 1.4-.3 2-.8.4-1.3 0-2-1.6-.3-.6-.4-.5-1.1.7-1 1.5-1 1.5-1.9.8-.5-.6-.5-.6 0-2 .4-.8.4-1.4.2-1.7-.2-.3-.6.3-1.1 1.7l-.8 2.1 1.3.8c1.7 1 1.7 1 2.3-.2z" fill="#0093e0"/><path d="M332.8 149.8c0-.2-.3-.5-.7-.7-.3-.1-1.5-1.3-2.6-2.6a14.9 14.9 0 0 0-4.4-3.8 18.9 18.9 0 0 1-6.7-5.7 24 24 0 0 1-5.3-16.2c0-2.6-.2-5-.4-5.3a32.2 32.2 0 0 0-2.9-2.8 56 56 0 0 1-3.7-3.7c-1.7-2-1.6-3 1-7.8s3-5.1 4.4-5.1c.8 0 1.7.5 3.6 2.3l2.5 2.3 2.1-2.7c2.5-3 2.4-2.2.5-7.8-.5-1.4-.9-2.9-.9-3.3 0-1.6 1.5-3.1 4.5-4.7 1.6-.9 3-1.7 3.2-2 .6-.6 2-.2 2.8 1 .5.6 1.4 2.5 1.9 4.1l1.2 3.4c.2.3 1.5.5 3 .5h2.6l.6-1.9c2.2-6.6 2.6-7.4 4.4-7.4.6 0 1.1.2 1.1.4s.2.5.5.5.7.1 1 .3a24 24 0 0 0 3.8 2.1c.1 0 .6.5 1.1 1.2 1.1 1.5 1 3.2-.2 7.4l-1.1 3.5 2 2.5c1 1.4 2 2.5 2.1 2.6.2 0 1.2-1 2.4-2 2.4-2.4 3.2-3 4-3 .7 0 2.5 2.2 3.7 4.5l1.7 3.3c1.8 3.4 1.2 4.7-4.2 9.6l-2.7 2.5v4c0 3.7-.1 5-1 8.8-1.3 6.2-5.6 12-10.7 14.5-1 .5-2.3 1.7-3.7 3.6-3.1 4-5 5-6.2 3.1-.5-.7-.6-.7-1.2-.3-.3.3-.6.7-.6.9s-.6.3-1.3.3-1.2-.2-1.2-.4zm1.2-1.7c.5-.3.6-.3.6 0s.2.4.4.2a.6.6 0 0 0 0-.6c0-.2 0-.4.2-.4s.2-.4.1-.8c0-.6-.4-.8-1-.9l-1.6-.1c-.3 0-.6-.2-.8-.3-.4-.6-.8-.3-.4.3.3.5.3.5-.3.4-1-.3-.8 0 .7 1.4s1.3 1.4 2.1.8zm5.6 0c0-.3.2-.3.3-.2.4.3 3-2.7 2.6-3 0-.2-1.5-.2-3 0-2.7.5-2.7.5-2.5 1.6l.4 1.4c.4.6 2.2.7 2.2.2zm1-2.2l.6-.4c.3 0 .6 0 .5.2-.2.4-1.1.5-1.1.2zm2.9-2.9a9.4 9.4 0 0 0 5.7-4.9c1.4-3.2 1.8-13.3.7-14.8-.3-.3-1.7-.9-3.2-1.2-2.7-.7-2.8-.8-3.3-2.2-.7-1.8-1.4-2.6-1.1-1.2l.3 1.7c.2.9.2.9-2 .6a36.5 36.5 0 0 0-2.9-.2c-.7 0-.9-.3-1-1.5-.3-1.6-.8-1.5-.8.2v1.2l-3 .2-4.5.4-1.3.2.1-2c.1-1.8.1-2-.3-1.5a8.6 8.6 0 0 0-1 2.2c-.7 1.8-1.2 2.1-3.6 2.7-.9.2-1.2 2.6-1 7.5.2 5 .9 7.6 2.4 9.6 1.3 1.6 3.8 3 6.4 3.6 2.7.6 11 .2 13.4-.6zm-8.6-4.6c-.8-1-1.2-2.8-1.2-4.6 0-1.5 0-1.5 1.3-1.8a7.8 7.8 0 0 1 2.6 0c1.3.2 1.4.4 1.4 1.3 0 4.2-2.6 7.4-4.1 5.1zm2.9-1c.4-1 .4-1.2 0-1.5-.7-.6-2.3-.5-3 .1-.6.6-.6.6 0 1.7.7 1.5 2.3 1.3 3-.3zm-12.9-3.2c-.5-.6-1.1-1-1.3-1-.8.4-.9-.5-.2-1.2l.7-.6-.6-.6c-.9-.8-.6-1.9.4-1.9.7 0 .7 0 .4-.6-.2-.3-.3-.9-.2-1.2.2-.8 1.4-.8 1.7 0 0 .4.4.5.9.4.8-.3 2.5.7 3 1.8a5.8 5.8 0 0 1-.6 5c-1 1.7-2.9 1.7-4.2 0zm3-2.6c0-.3 0-.7.2-1 .2-.2.1-.6-.3-1.2-.5-.7-.7-.7-1.4-.2-.6.4-.8.8-.7 1.2l.2 1.2c0 .4.3.6 1 .5.8 0 1.2-.2 1-.5zm15.7 2.5c-1.5-2-1.5-3.5 0-5.4.7-1 1.3-1.4 2-1.4.5 0 1.2-.3 1.4-.6.7-.8 1.9 0 1.6 1-.4 1.2-.4 1.4.2 1.3.8-.2 1 1.2.4 1.7-.5.3-.5.4 0 1.1.5.8.4 1.7-.3 1.5-.2 0-.7.3-1 .9a2.7 2.7 0 0 1-2 1.1c-1.1.2-1.3.1-2.3-1.2zm3.1-2.5c0-.3 0-.8.2-1 .3-.4.2-.7-.4-1.2-.7-.7-.8-.7-1.5-.2-.4.4-.6 1-.5 1.2l.1 1.1c0 .3.5.5 1.1.5.8 0 1.1-.1 1-.5zm7 3.5c.2-.6.6-1.2.7-1.3s.2-.5 0-.8c0-.3 0-.4.2-.2.2.1.6-.4 1-1.5 1-2.5 1.6-4.8 1.2-4.8-.1 0-.3-.2-.3-.5s.1-.3.3-.2c.1.1.2-.3.1-.9 0-.8 0-1 .2-.5.3.5.4.3.4-.8 0-1-.1-1.3-.3-.8-.4.7-.4.2-.2-1.2.2-.7.3-.8.5-.4s.3-.6.3-2.4c0-1.6-.1-2.9-.3-2.8s-.2-.6-.3-1.7c0-1.8-1-6.5-1.5-7a1.7 1.7 0 0 1-.4-.8c-.1-1.1-2.2-5-2.7-5-.2 0-.5-.1-.5-.4 0-.2.2-.3.4-.1.2.2.3.1.1-.2 0-.2-.4-.3-.7-.2-.4.2-.4.1-.3-.4.1-.4 0-.6-.3-.4-.3.2-.4 0-.2-.4.1-.5 0-.6-.3-.4-.4.1-.5 0-.4-.3.3-1-5.7-6.4-6.4-5.9-.1.1-.3 0-.4-.2 0-.3-.5-.5-1-.5-.4 0-.8-.3-.8-.4s-.3-.3-.7-.3c-.4.1-.9 0-1-.2a.9.9 0 0 0-1 0c-.2 0-.5 0-.6-.3-.2-.4-5.4-.5-5.4 0 0 .1-.6.3-1.4.3a14.5 14.5 0 0 0-7.4 4s-.3 0-.6.3c-1 .7-5.3 6.1-5.3 6.6 0 .3.4 0 .8-.6.4-.7.7-1 .7-.8 0 .5-1.4 2.2-1.6 1.9-.3-.4-1.3 1.7-1 2.2.1.3 0 .4-.2.4-.6-.2-2.5 6.3-2.6 8.3 0 .9-.1 1.6-.3 1.6l-.2.4c0 .2.1.3.3.2s.3-.1.3.1-.1.5-.3.7c-.4.3-.4 5.3 0 8 .2 1.2.6 2.5 1 3 .2.4.2.6 0 .5-.3-.3-.3-.1 0 .7 1 3.8 4.1 8.8 5 8.3.5-.2.5-.5.3-1.4a51 51 0 0 1 0-12.6c.1.1.4-.6.7-1.6a17.2 17.2 0 0 1 9-10.3c3.2-1.5 7.9-1.5 11-.2 2.6 1.2 5.5 3.6 6.8 5.8.5.9 1.1 1.5 1.3 1.4.2-.2.3-.1.1.2-.1.2 0 .9.3 1.5.9 1.8 1.8 5.5 1.8 7.4a65.2 65.2 0 0 1-.9 9.5c-.5 1.8 1.9.6 3-1.6zm-7.9-26.9h.6c.1.2 0 .3-.4.3-.3 0-.4-.1-.2-.3zm-23.8-.9c-.1-.2 0-.5.1-.6.2-.2.3 0 .3.4 0 .7-.1.8-.4.2zm-.1-2c0-.6 0-.9.1-.6v1c0 .3-.1.1-.1-.5zm6.8.1c0-.5.1-.6.2-.2.1.3 0 .6 0 .8-.1 0-.2-.1-.2-.6zm12.3.2c0-.2 0-.6.2-.9.2-.3.3-.2.3.5 0 1-.1 1.1-.5.4zm6.9-2c-.4-.6-.3-.7 0-.5.5.2 1 1.3.6 1.3-.2 0-.4-.3-.6-.8zm-25.8.3l.6-.7c.5-.6.5-.5.1.1-.4.7-.7 1-.7.6zm10.2-1.1c-.1-.2 0-.4.1-.4s.4.2.4.4l-.2.4-.3-.4zm-9-.3c-.1-.2 0-.4.2-.4.3 0 .4.2.3.4l-.3.3s-.2-.1-.2-.3zm10.6-.1c0-.2.3-.4.5-.4.1 0 .2.2 0 .4 0 .2-.2.4-.4.4s-.2-.2-.1-.4zm5.6-.8c-.5-.3-.5-.4-.1-.4.3 0 .6.1.7.4.2.5.2.5-.6 0zm-15.2-.6c0-.5 1.7-1.6 3-1.8 1.6-.3 1.6-.3.7-.8a5.8 5.8 0 0 0-2.3-.5c-.8 0-1.4-.2-1.4-.4 0-.5 2.4-.5 3.8 0 1 .4 2.5 1.9 2.5 2.5 0 .2-.8.2-1.7.1-1.1-.2-2 0-2.8.4-1.3.7-1.8.8-1.8.5zm20.2-.5c-.6-.5-1.4-.6-2.7-.4-2 .2-2.3-.1-1-1.6 1-1.3 4.8-2 5.2-1 .2.2-.4.4-1.3.4s-2 .2-2.5.5c-.8.5-.8.5.7.7 1.7.3 3 1 3 1.7 0 .5-.3.5-1.4-.3zm-6.3-.9c-.8-1-.6-1.2.3-.3.3.3.5.7.5 1 0 .1-.4-.2-.8-.7zm-6.5.2c.1-.4.3-.6.4-.5 0 .2 0 .5-.2.8-.3.4-.4.3-.2-.3zm15.8-.9c0-.7 0-.9.2-.5v1.2c0 .2-.2 0-.2-.7zm-25-.7c-.2-.8-.1-1 .5-1.7 1-1 1.4-.4.5.6-.4.4-.6.8-.4.9.1 0 .2.3 0 .6-.1.3-.3.2-.5-.4zm16.5.3c0-.5.1-.6.2-.3s.1.7 0 .8c-.1.1-.2 0-.2-.5zm6-3.9c-.3-.2-.4-.4-.2-.4l.8.4c.2.2.3.4.1.4l-.7-.4zm-20.8 27.1c.4-.1.9-.7 1-1.5.5-1.5 1.6-3.4 2.2-3.6.4 0 .4.4.4 2v2.3l1.6-.3 4-.2h2.2V119c0-3.1.7-3.6 1.3-.9.4 2.2.3 2.1 3.1 2.4 2 .2 2.1.2 2.1-.6l-.3-1.8c-1-2.6.9-1.2 2 1.5.4 1.3.7 1.6 1.6 1.6l2.3.4c.8.2 1.5.3 1.6.2.6-.9-3.5-6.8-5.8-8.3a16 16 0 0 0-7.2-2.5c-5.6 0-11.1 3.8-13.5 9.3l-.7 1.7h.7c.4 0 1-.1 1.4-.3zm36.7-10a32.7 32.7 0 0 0 2.7-2.6c.3-.3.6-.7.6-1s.1-.6.3-.7c.5-.4.9-3 .4-3-.1 0-.5-.6-.7-1.4a4.3 4.3 0 0 0-1.1-1.8c-.4-.3-.6-.7-.6-1 0-.4-.2-.7-.4-.7s-.2-.1-.1-.3c.2-.5-.9-1.7-1.9-2-.6-.1-1.3.3-3.2 2.1l-2.5 2.3 1.3 3a44.8 44.8 0 0 1 2 6c.5 2 1 3 1.2 3l2-2zm-48 1.1c.3.2.6-.7 1.1-2.5.4-1.6 1-3.5 1.4-4.4a7 7 0 0 0 .5-2.2c0-.3 0-.5.3-.3.3.3 1-1.3.8-1.7-.1-.2-.2 0-.2.2 0 .7-.5.6-.7-.1-.1-.5 0-.6.2-.4.2.2.2.1 0-.4-.3-.3-.6-.7-.8-.7s-.7-.4-1.1-1c-1.2-1.4-2.6-2.2-3.4-2-.4.2-1.6 2-2.8 4-1.6 3.2-2 4.1-1.9 5.2 0 .7.2 1.3.3 1.5.8 1 5.7 5.2 5.8 5 0-.2.3-.3.5-.2zm16.7-22.3c1.2-.4 2.2-1 2.2-1.2s-.1-.3-.3-.1c-.3.2-.3 0-.2-.4v-.5c-.4.3-.7-.8-.7-2.4 0-.9-.1-1-.3-.7-.2.4-.3 0-.5-1-.3-2-.7-2.6-1.6-2.6-.7 0-6.5 3-7.2 3.7-.5.6-.4 2.7.2 4.8l1.1 3.2.4 1.3L325 93c1.3-.8 3.3-2 4.6-2.4zm18.7 3.4c-.1-.2 0-.5.5-.6.4-.2.6-.5.4-1 0-.3 0-.5.1-.3.3.2 1-1.8 1-3.2.1-.6.3-1 .4-.8.2.1.2 0 0-.5l-.1-1.4c0-.8-2.4-2.8-2.7-2.3-.1 0-.4-.1-.7-.5-.3-.4-.5-.4-.6-.2 0 .3-.4.1-.7-.3-.4-.5-.8-.7-1.1-.5-.4.1-.5 0-.3-.2 0-.3-.2-.5-1-.4-.8 0-1.2.3-1.1.6 0 .3-.1.5-.3.4-.5-.1-1.9 4.6-1.7 5.6.2.6.1.7 0 .3-.3-.5-.4-.4-.6.1v1l.1-.3c0-.3.3-.4.5-.2.3.1.5.3.4.4-.1.1 1 .7 2.3 1.4s3 1.6 3.8 2.1c1.5 1.2 1.6 1.3 1.4.8z" fill="#8c6f73"/><path d="M332.8 149.8c0-.2-.4-.5-.8-.8a19.8 19.8 0 0 1-2.8-2.9c-1-1.4-2.2-2.5-2.4-2.5l-3-1.7a23.4 23.4 0 0 1-8.7-10.7 26.8 26.8 0 0 1-2-10.8l-.1-4.3a16 16 0 0 0-3.1-3.5c-5.3-4.9-5.8-5.8-4.2-8.7 3.7-7 4.9-8.5 6.5-7.8.4.1 1.7 1.2 2.8 2.3a28.2 28.2 0 0 0 2.4 2c.1.1 1.2-1 2.4-2.4l2-2.5-.4-1.8-1.8-5.5c-.4-1 0-3 1-3.9a21 21 0 0 1 3.2-2.1 25 25 0 0 0 3.2-2c.5-.6 1.7-.3 2.6.8.5.6 1.4 2.5 2 4.2 1 3.4 1.7 4.7 2.2 4.3a8.4 8.4 0 0 1 2.5-.3h2.2l1.3-3.8c.7-2 1.6-4.2 2-4.6.6-.9 2.8-1.2 2.8-.4 0 .2.2.4.4.4.3 0 1.1.4 2 1l2.3 1.2c.3.2 1.2.8 1.7 1.4 1.1 1.4 1.1 3.3-.2 7-.6 1.7-1 3.4-1 3.7.1.8 3.5 5.2 4 5.2.2 0 1.1-.7 2-1.6 3.4-3.3 4.8-3.6 6.3-1.5 1.8 2.4 4.4 7.8 4.4 8.9 0 1.6-.7 2.5-4.4 6l-3.4 3.1v4c0 7.5-1.6 13-5.2 17.8a15.7 15.7 0 0 1-5.5 5 15.5 15.5 0 0 0-5 4.5c-2.9 3.7-4.4 4.5-5.7 2.8-.6-.7-.8-.8-1.4-.3-.3.3-.6.7-.6.9s-.6.3-1.3.3-1.2-.2-1.2-.4zm1.2-1.7c.5-.3.6-.3.6 0s.2.4.4.2a.6.6 0 0 0 0-.6c0-.2 0-.4.2-.4s.2-.4.1-.8c0-.6-.4-.8-1-.9l-1.6-.1c-.3 0-.6-.2-.8-.3-.4-.6-.8-.3-.4.3.3.5.3.5-.3.4-1-.3-.8 0 .7 1.4s1.3 1.4 2.1.8zm5.6 0c0-.3.2-.3.3-.2.4.3 3-2.7 2.6-3 0-.2-1.5-.2-3 0-2.7.5-2.7.5-2.5 1.6l.4 1.4c.4.6 2.2.7 2.2.2zm1-2.2l.6-.4c.3 0 .6 0 .5.2-.2.4-1.1.5-1.1.2zm.5-2.3c4.6-.8 7.9-3.4 8.8-7.1.5-2 .8-8.5.5-11-.2-2.4-.8-3-4-3.6-2.3-.4-2.5-.6-2.8-1.7a6 6 0 0 0-1-1.9c-.5-.5-.5-.4-.3.7l.3 1.7c.2.5-.2.5-1.8.3l-3-.2c-.9 0-1-.2-1.2-1.5-.3-2-.7-2.1-.7-.2v1.7h-1.5l-4.4.3-3 .3.3-2.2c.2-2.6-.2-2.5-1.3.5a38.2 38.2 0 0 1-1 2.2l-1.7.7c-2 .6-2 .9-2 5.7-.1 6.2.8 10.3 2.8 12.2a12.9 12.9 0 0 0 5.7 3c2.1.6 8.6.6 11.3.1zm-6.3-5.2c-.6-1-1.1-3-1.1-4.8 0-1.2 0-1.3 1.4-1.6a7.8 7.8 0 0 1 2.7 0c1 .2 1.2.4 1.2 1.4 0 4.1-2.6 7.3-4.2 5zm2.7-.4c.7-.8.7-2 0-2.3-.8-.4-2-.3-2.7.3-.6.6-.6.6 0 1.7.6 1.2 1.8 1.4 2.7.4zm-12.6-3.8c-.5-.6-1.1-1-1.3-1-.8.4-.9-.5-.2-1.2l.7-.6-.6-.6c-.9-.8-.6-1.9.4-1.9.7 0 .7 0 .4-.6-.2-.3-.3-.9-.2-1.2.3-.8 1.4-.8 1.7 0 .1.5.4.6 1 .4.8-.3 2.4.7 2.8 1.8 1.1 2.7-.4 6.2-2.6 6.2-.9 0-1.4-.3-2-1.2zm3-2.6c0-.3 0-.7.2-1 .2-.2.1-.6-.3-1.2-.6-.9-.7-.9-1.5-.2-.4.4-.7 1-.6 1.2l.2 1.2c0 .4.3.6 1 .5.8 0 1.2-.2 1-.5zm15.7 2.7c-.8-1-1-1.5-1-3s.2-1.8 1-2.8c.7-.8 1.4-1.2 2.1-1.2.6 0 1.1-.2 1.1-.4 0-.6.9-.8 1.5-.2.5.4.5.6.1 1.2-.5.7-.2 1.2.6 1.2.2 0 .5.4.6.7 0 .5-.1.8-.4.8-.7 0-.6 1 0 1.5s.3 1.5-.4 1.1c-.2 0-.5.1-.6.4-.2.9-1.8 1.9-2.8 1.9-.4 0-1.2-.6-1.8-1.2zm3.1-2.8c0-.2 0-.7.2-1 .3-.3.2-.6-.4-1.1-.7-.7-.8-.7-1.5-.2-.4.4-.6 1-.5 1.2l.1 1.1c0 .3.5.5 1.1.5.8 0 1.1-.1 1-.5zm7 3.6c.2-.6.6-1.2.7-1.3s.2-.5 0-.8c0-.3 0-.4.2-.2.2.1.6-.4 1-1.5 1-2.5 1.6-4.8 1.2-4.8-.1 0-.3-.2-.3-.5s.1-.3.3-.2c.1.1.2-.3.1-.9 0-.8 0-1 .2-.5s.3.3.3-.8c0-1 0-1.3-.2-.8-.4.7-.5.2-.2-1.2.2-.7.3-.8.5-.4s.3-.6.3-2.4c0-1.6-.1-2.9-.3-2.8s-.2-.6-.3-1.7c0-1.8-1-6.5-1.5-7a1.7 1.7 0 0 1-.4-.8c-.2-1.1-2.2-5-2.7-5-.2 0-.5-.1-.5-.4 0-.2.2-.3.4-.1.2.2.3.1.1-.2 0-.2-.4-.3-.7-.2-.4.2-.4.1-.3-.4.1-.4 0-.6-.3-.4-.3.2-.4 0-.2-.4.1-.5 0-.6-.3-.4-.4.1-.5 0-.4-.3.3-1-5.7-6.4-6.4-5.9-.1.1-.3 0-.4-.2 0-.3-.5-.5-1-.6-.4 0-.8-.2-.8-.4s-.3-.2-.7-.2c-.4.1-.9 0-1-.2a.9.9 0 0 0-1 0c-.2 0-.5 0-.6-.3-.2-.4-5.4-.5-5.4 0 0 .1-.6.3-1.4.3a14.2 14.2 0 0 0-7.4 4s-.3 0-.6.3c-1 .6-5.3 6.1-5.3 6.6 0 .3.3 0 .8-.7.4-.6.7-1 .7-.7 0 .5-1.4 2.1-1.6 1.9-.3-.4-1.3 1.7-1 2.2.1.3 0 .4-.2.4-.6-.2-2.6 6.3-2.6 8.3 0 .9-.1 1.5-.3 1.5 0 0-.2.2-.2.5 0 .2.1.3.3.2.2-.2.3-.1.3.1s-.1.5-.3.7c-.4.3-.4 5.3 0 8 .2 1.2.6 2.5 1 3 .2.4.2.6 0 .5-.3-.3-.3-.1 0 .7 1 3.8 4.1 8.8 5 8.3.5-.2.5-.5.2-1.4a51 51 0 0 1 .1-12.6c.1.1.4-.6.7-1.6a17.2 17.2 0 0 1 9-10.3c3.2-1.5 7.9-1.6 11-.2a17 17 0 0 1 6.8 5.8c.5.9 1.1 1.5 1.3 1.3.2-.1.3 0 .1.3-.1.2 0 1 .3 1.4.9 1.9 1.8 5.6 1.7 7.5 0 3.3-.2 7.2-.5 8l-.3 1.5c-.5 1.8 1.9.6 3-1.6zm-7.9-26.9h.6c.1.2 0 .3-.4.3-.3 0-.4-.1-.2-.3zm-23.8-.9c-.1-.2 0-.5.1-.6.2-.2.3 0 .3.4 0 .7-.2.8-.4.2zm-.1-2c0-.6 0-.8.1-.6v1c0 .3-.1.1-.1-.4zm6.8.1c0-.5.1-.6.2-.2.1.3 0 .6 0 .8-.1 0-.2-.1-.2-.6zm12.3.2c0-.2 0-.6.2-.9.2-.3.3-.2.3.5 0 1-.2 1.1-.5.4zm6.8-2c-.3-.6-.3-.7.1-.5.5.2 1 1.3.6 1.3-.2 0-.4-.3-.7-.8zm-25.7.3l.6-.7c.5-.5.5-.5.1.1-.4.7-.7 1-.7.6zm10.2-1.1c-.1-.2 0-.4.1-.4s.4.2.4.4l-.2.4-.3-.4zm-9-.3c-.1-.2 0-.4.2-.4.3 0 .4.2.3.4l-.3.3s-.2-.1-.2-.3zm10.6-.1c0-.2.3-.4.5-.4.1 0 .2.2 0 .4 0 .2-.2.4-.4.4s-.2-.2-.1-.4zm5.6-.8c-.5-.3-.5-.4-.1-.4.3 0 .6.1.7.4.2.5.2.5-.6 0zm-15.2-.6c0-.5 1.7-1.6 3-1.8 1.6-.3 1.6-.3.7-.8a5.8 5.8 0 0 0-2.3-.5c-.9 0-1.3-.2-1.2-.4.5-1 4.2-.2 5.3 1.3 1.1 1.3 1 1.6-.9 1.3-1.1-.2-2 0-2.8.4-1.3.7-1.8.8-1.8.5zm20.2-.5c-.7-.5-1.4-.6-2.7-.4-2 .2-2.3-.1-1-1.5 1-1.4 4.8-2.1 5.2-1.1.2.3-.4.4-1.3.4s-2 .2-2.5.5c-.8.5-.8.5.7.7 1.7.4 3 1 3 1.7 0 .5-.3.5-1.4-.3zm-6.3-.9c-.8-1-.6-1.2.3-.3.3.3.5.7.5 1 0 .1-.4-.2-.8-.7zm-6.5.2c.1-.4.3-.6.4-.5 0 .2 0 .5-.2.8-.3.4-.4.3-.2-.3zm15.8-.9c0-.6 0-.9.2-.5v1.3c0 .3-.2-.1-.2-.8zm-25-.7c-.2-.8-.1-1 .5-1.7 1-1 1.4-.4.5.6-.4.4-.6.8-.4.9.1 0 .2.3 0 .6-.1.3-.3.2-.5-.4zm16.5.3c0-.5.1-.6.2-.3s.1.7 0 .8c-.1.2-.2 0-.2-.5zm6-3.9c-.3-.2-.4-.4-.2-.4l.8.4c.2.3.3.4.1.4l-.7-.4zm-20.8 27.1c.4-.1.9-.7 1-1.5.5-1.5 1.6-3.4 2.2-3.6.4 0 .4.4.4 2v2.3l1.6-.3 4-.2h2.2V119c0-3.1.7-3.6 1.3-.8.4 2 .3 2 3.1 2.3 2 .2 2.1.2 2.1-.5 0-.5-.1-1.3-.3-1.9-1-2.5.9-1.2 2 1.5.4 1.3.7 1.6 1.6 1.6l2.3.4c.8.2 1.5.3 1.6.2.6-.9-3.5-6.8-5.9-8.3-2-1.4-5.3-2.5-7.2-2.5-5.6 0-11 3.8-13.4 9.3l-.7 1.7h.7c.4 0 1-.1 1.4-.3zm36.7-10a32.7 32.7 0 0 0 2.7-2.6c.3-.2.6-.7.6-1 0-.2.1-.6.3-.7.5-.4.9-3 .4-3-.1 0-.5-.6-.7-1.4a4.3 4.3 0 0 0-1.1-1.8c-.4-.3-.6-.7-.6-1 0-.4-.2-.7-.4-.7s-.2-.1-.1-.3c.2-.5-.9-1.7-1.9-2-.6-.1-1.3.4-3.2 2.1l-2.5 2.3 1.3 3a44.8 44.8 0 0 1 2 6c.5 2 1 3 1.2 3l2-2zm-48 1.1c.3.2.6-.7 1.1-2.5.4-1.5 1-3.5 1.4-4.4.3-1 .6-2 .5-2.2 0-.3 0-.5.3-.3.3.3 1-1.3.8-1.7-.1-.1-.2 0-.2.2 0 .7-.5.6-.7-.1-.1-.5 0-.6.2-.4.2.2.2.1 0-.4-.3-.3-.6-.6-.8-.6s-.7-.5-1.1-1c-1.2-1.5-2.6-2.3-3.4-2-.4 0-1.6 1.9-2.8 4-1.6 3-2 4-1.9 5 0 .8.2 1.5.3 1.6.8 1 5.7 5.3 5.8 5 0-.2.3-.3.5-.1zm16.7-22.3c1.2-.4 2.2-1 2.2-1.2s-.1-.3-.3-.1c-.3.2-.3 0-.2-.4v-.5c-.4.3-.7-.8-.7-2.4 0-.8-.1-1-.3-.7-.2.4-.3 0-.5-1-.3-2-.7-2.6-1.6-2.6-.7 0-6.5 3-7.2 3.7-.6.6-.4 2.7.2 4.8l1.1 3.2.4 1.3L325 93c1.3-.8 3.3-2 4.6-2.4zm18.7 3.4c-.1-.2 0-.5.5-.6.4-.2.6-.5.4-1 0-.3 0-.5.1-.3.3.2 1-1.8 1-3.2.1-.6.3-1 .4-.8s.2 0 0-.5a6 6 0 0 1-.1-1.4c0-.7-2.4-2.8-2.7-2.3-.1 0-.4-.1-.7-.5-.3-.4-.5-.4-.6-.2 0 .3-.4.1-.7-.3-.4-.5-.8-.7-1.1-.5-.4.1-.5 0-.3-.2 0-.3-.2-.5-1-.4-.8 0-1.2.3-1.1.6 0 .3-.1.5-.3.4-.5-.1-1.9 4.6-1.7 5.6.2.6.1.7 0 .3-.3-.5-.4-.4-.6.1v1l.1-.3c0-.3.3-.3.5-.2.3.1.5.3.4.4-.1.2 1 .7 2.3 1.4s3 1.6 3.8 2.1c1.5 1.2 1.6 1.3 1.4.8z" fill="#0092db"/><path d="M332.8 149.8c0-.2-.4-.5-.8-.8a19.8 19.8 0 0 1-2.8-2.9c-1-1.4-2.2-2.5-2.4-2.5l-3-1.7a23.4 23.4 0 0 1-8.7-10.7 26.8 26.8 0 0 1-2-10.8l-.1-4.3a16 16 0 0 0-3.1-3.5c-5.3-4.9-5.8-5.8-4.2-8.7 3.7-7 4.9-8.5 6.5-7.8.4.1 1.7 1.2 2.8 2.3a28.2 28.2 0 0 0 2.4 2c.1.1 1.2-1 2.4-2.4l2-2.5-.4-1.8-1.8-5.5c-.4-1 0-3 1-3.9a21 21 0 0 1 3.2-2.1 25 25 0 0 0 3.2-2c.5-.6 1.7-.3 2.6.8.5.6 1.4 2.5 2 4.2 1 3.4 1.7 4.7 2.2 4.3a8.4 8.4 0 0 1 2.5-.3h2.2l1.3-3.8c.7-2 1.6-4.2 2-4.6.6-.9 2.8-1.2 2.8-.4 0 .2.2.4.4.4.3 0 1.1.4 2 1l2.3 1.2c.3.2 1.2.8 1.7 1.4 1.1 1.4 1.1 3.3-.2 7-.6 1.7-1 3.4-1 3.7.1.8 3.5 5.2 4 5.2.2 0 1.1-.7 2-1.6 3.4-3.3 4.8-3.6 6.3-1.5 1.8 2.4 4.4 7.8 4.4 8.9 0 1.6-.7 2.5-4.4 6l-3.4 3.1v4c0 7.5-1.6 13-5.2 17.8a15.7 15.7 0 0 1-5.5 5 15.5 15.5 0 0 0-5 4.5c-2.9 3.7-4.4 4.5-5.7 2.8-.6-.7-.8-.8-1.4-.3-.3.3-.6.7-.6.9s-.6.3-1.3.3-1.2-.2-1.2-.4zm2-1.2a5 5 0 0 0 1-2.7c0-.5-.3-.6-1.3-.6l-3-.4c-1-.2-1.7-.4-1.8-.3-.2.3 2 3 3.2 3.7 1 .7 1.4.8 2 .3zm5-.2a9.7 9.7 0 0 0 2.2-2.3l1.2-1.8-1.8.3c-4.2.6-4.6.7-4.6 1.5s1.2 2.8 1.6 2.8c.2 0 .8-.2 1.3-.5zm1.3-4.8c4.6-.7 7.9-3.4 8.8-7.1.5-2 .8-8.5.5-11-.2-2.4-.8-3-4-3.6-2.3-.4-2.5-.5-2.8-1.7a6 6 0 0 0-1-1.8c-.5-.6-.5-.5-.3.6l.3 1.7c.2.5-.2.5-1.8.3l-3-.2c-.9 0-1-.2-1.2-1.5-.3-2-.7-2.1-.7-.2v1.7h-1.5l-4.4.3-3 .3.3-2.2c.2-2.6-.2-2.5-1.3.5a38.2 38.2 0 0 1-1 2.2l-1.7.7c-2 .6-2 .9-2 5.8-.1 6 .8 10.2 2.8 12.1a12.9 12.9 0 0 0 5.7 3c2.1.6 8.6.6 11.3.1zm-6.3-5.2c-.6-1-1.1-3-1.1-4.8 0-1.2 0-1.3 1.4-1.6a7.8 7.8 0 0 1 2.7 0c1 .2 1.2.4 1.2 1.4 0 4.1-2.6 7.3-4.2 5zm2.7-.3c.7-.9.7-2 0-2.4-.8-.4-2-.3-2.7.3-.6.6-.6.6 0 1.7.6 1.2 1.8 1.4 2.7.4zm-12.6-3.8c-.5-.7-1.1-1.2-1.3-1-.8.3-.9-.6-.2-1.3l.7-.6-.6-.6c-.9-.8-.6-1.9.4-1.9.7 0 .7 0 .4-.6-.2-.3-.3-.9-.2-1.2.3-.8 1.4-.8 1.7 0 .1.5.4.6 1 .4.8-.3 2.4.7 2.8 1.8 1.1 2.7-.4 6.2-2.6 6.2-.9 0-1.4-.3-2-1.2zm3-2.7c0-.3 0-.7.2-1 .2-.2.1-.6-.3-1.2-.6-.9-.7-.9-1.5-.2-.4.4-.7 1-.6 1.3l.2 1.1c0 .4.3.6 1 .5.8 0 1.2-.2 1-.5zm15.7 2.7c-.8-1-1-1.5-1-3s.2-1.8 1-2.8c.7-.8 1.4-1.2 2.1-1.2.6 0 1.1-.2 1.1-.4 0-.6.9-.8 1.5-.2.5.4.5.6.1 1.2-.5.7-.2 1.2.6 1.2.2 0 .5.4.6.7 0 .5-.1.8-.4.8-.7 0-.6 1 0 1.5s.3 1.5-.4 1.1c-.2 0-.5.1-.6.4-.3.9-1.8 1.9-2.8 1.9-.4 0-1.2-.6-1.8-1.2zm3.1-2.8c0-.2 0-.6.2-1 .3-.3.2-.6-.4-1.1-.7-.7-.8-.7-1.5-.2-.4.4-.6 1-.5 1.3l.1 1c0 .3.5.5 1.1.5.8 0 1.1-.1 1-.4zm-25.4 5.8a31 31 0 0 1-.7-7.4l-.1-5.8 1-3c1.9-5 4.8-8.3 9.2-10.2 2.4-1 7.4-1.1 9.8-.2 4.2 1.7 7.8 5.4 9.5 10 1 2.7 1 2.8 1 8.8 0 4.8 0 6.5-.5 7.7-.3.8-.4 1.6-.3 1.7.4.3 3.7-3.7 4.7-5.9a34 34 0 0 0 1.9-5c.7-2.6.8-3.7.8-8.5 0-4.7 0-6-.7-8.5-2.8-12-11.6-20.4-21-20.4-12.1 0-22 12.8-22 28.5 0 6.2 1.2 10.9 4 15.5 1 2 3.6 4.7 3.8 4.4.1-.1 0-.9-.4-1.8zm.5-31.9c0-.5.1-.6.2-.2.1.3.1.6 0 .8 0 0-.2-.1-.2-.6zm2.5-4.4c0-.6 1.7-1.6 3-1.8 1.5-.4 1.5-.4.7-.8a5.8 5.8 0 0 0-2.3-.5c-.9 0-1.3-.2-1.2-.4.5-1 4.1-.2 5.3 1.3 1.1 1.3 1 1.6-.9 1.3-1.2-.2-2 0-2.8.4-1.3.7-1.8.8-1.8.5zm20.2-.5c-.7-.5-1.4-.6-2.7-.4-2 .2-2.3-.1-1-1.6 1-1.3 4.8-2 5.2-1 .2.2-.4.4-1.3.4s-2 .2-2.5.5c-.8.4-.8.5.7.7 1.7.4 3 1 3 1.7 0 .5-.3.5-1.4-.3zm-20.4 21.3c.5-.2 1-.7 1.2-1.6.5-1.5 2.1-4 2.4-3.7.2 0 .2 1 0 2v2c.2.2 2 .1 4 0l3.9-.3V119c0-1.5.2-2.6.6-2.6.1 0 .4.8.6 1.9.5 2 .4 2 3.2 2.3 2 .2 2.1.2 2.1-.5 0-.5-.1-1.3-.3-1.9-1-2.5.9-1.2 2 1.5.4 1.3.6 1.5 2.2 1.7l2.7.5 1 .3-.7-1.7a19 19 0 0 0-4.7-6.2c-2-1.7-5.9-3.2-8-3.2-5.7 0-11.5 4-13.5 9.4-.8 2-.8 2.1-.1 1.8l1.4-.4zm38.4-11.6c2.6-2.5 3-3.1 3-4 0-1.4-3.6-8.2-4.8-9-.9-.7-1.2-.5-4.2 2.4l-2.1 2 1.5 3.8a48.3 48.3 0 0 1 2 6.3c.5 2.3.7 2.5 1.1 2l3.5-3.5zm-48.7 1c.3-1.3 1.2-4 2-6 1-2.7 1.3-3.5 1-3.9a24 24 0 0 0-5.3-4.2c-.8 0-1.5 1-3.3 4.3-2.3 4-2.5 4.6-2 5.7.3 1 6 6.7 6.7 6.7.2 0 .6-1.1 1-2.5zm11.6-18.4c1.5-1 3.5-2 4.4-2.3 1-.3 1.8-.7 2-1l-1-4c-1.7-5-2-5-8-1.5-2.3 1.5-2.7 2.3-2.1 4.4a146 146 0 0 0 2 6.2l2.7-1.8zm24.8-2.5c1.4-4.6 1.3-4.8-3.1-7.3-2.4-1.3-3.7-1.8-4.2-1.7-.6.2-1 1-1.9 3.4-1.7 4.8-1.7 5 0 5.4 1.7.6 4.7 2.3 6.3 3.5 1.5 1.2 1.6 1.1 3-3.3z" fill="#1489b4"/><path d="M332.8 149.8c0-.2-.4-.5-.8-.8a19.8 19.8 0 0 1-2.8-2.9c-1-1.4-2.2-2.5-2.4-2.5l-3-1.7a23.4 23.4 0 0 1-8.7-10.7 26.8 26.8 0 0 1-2-10.8l-.1-4.3a16 16 0 0 0-3.1-3.5c-5.3-4.9-5.8-5.8-4.2-8.7 3.7-7 4.9-8.5 6.5-7.8.4.1 1.7 1.2 2.8 2.3a28.2 28.2 0 0 0 2.4 2c.1.1 1.2-1 2.4-2.4l2-2.5-.4-1.8-1.8-5.5c-.4-1 0-3 1-3.9a21 21 0 0 1 3.2-2.1 25 25 0 0 0 3.2-2c.5-.6 1.7-.3 2.6.8.5.6 1.4 2.5 2 4.2 1 3.4 1.7 4.7 2.2 4.3a8.4 8.4 0 0 1 2.5-.3h2.2l1.3-3.8c.7-2 1.6-4.2 2-4.6.6-.9 2.8-1.2 2.8-.4 0 .2.2.4.4.4.3 0 1.1.4 2 1l2.3 1.2c.3.2 1.2.8 1.7 1.4 1.1 1.4 1.1 3.3-.2 7-.6 1.7-1 3.4-1 3.7.1.8 3.5 5.2 4 5.2.2 0 1.1-.7 2-1.6 3.4-3.3 4.8-3.6 6.3-1.5 1.8 2.4 4.4 7.8 4.4 8.9 0 1.6-.7 2.5-4.4 6l-3.4 3.1v4c0 7.5-1.6 13-5.2 17.8a15.7 15.7 0 0 1-5.5 5 15.5 15.5 0 0 0-5 4.5c-2.9 3.7-4.4 4.5-5.7 2.8-.6-.7-.8-.8-1.4-.3-.3.3-.6.7-.6.9s-.6.3-1.3.3-1.2-.2-1.2-.4zm2.3-1.4c.2-.3.6-1.2.7-2l.2-1.6h-2.2c-1.2 0-2.7 0-3.4-.2l-1.2-.3.7 1.1c1 1.5 3.5 3.5 4.1 3.5.3 0 .8-.2 1-.5zm5.5-.7a16 16 0 0 0 2.2-2.3l.8-1-1.8.2-3.3.2c-1.6 0-1.7 0-1.7 1.2 0 1.3 1 3 1.9 3 .3 0 1.1-.6 2-1.3zm.5-4c4.6-.8 7.9-3.5 8.8-7.2.5-2 .8-8.5.5-11-.2-2.4-.8-3-4-3.6-2.3-.4-2.5-.6-2.8-1.7a6 6 0 0 0-1-1.9c-.5-.5-.5-.4-.3.7l.3 1.7c.2.5-.2.5-1.8.3l-3-.2c-.9 0-1-.2-1.2-1.5-.3-2-.7-2.1-.7-.2v1.7h-1.5l-4.4.3-3 .3.3-2.2c.2-2.6-.2-2.5-1.3.5a38.2 38.2 0 0 1-1 2.2l-1.7.7c-2 .6-2 .9-2 5.7-.1 6.2.8 10.3 2.8 12.2a12.9 12.9 0 0 0 5.7 3c2.1.6 8.6.6 11.3.1zm-6.3-5.3c-.6-1-1.1-3-1.1-4.8 0-1.2 0-1.3 1.4-1.6a7.8 7.8 0 0 1 2.7 0c1 .2 1.2.4 1.2 1.4 0 4.1-2.6 7.3-4.2 5zm2.7-.4c.7-.8.7-2 0-2.3-.8-.4-2-.3-2.7.3-.6.6-.6.6 0 1.7.6 1.2 1.8 1.4 2.7.4zm-12.6-3.8c-.5-.6-1.1-1-1.3-1-.8.4-.9-.5-.2-1.2l.7-.6-.6-.6c-.9-.8-.6-1.9.4-1.9.7 0 .7 0 .4-.6-.2-.3-.3-.9-.2-1.2.3-.8 1.4-.8 1.7 0 .1.5.4.6 1 .4.8-.3 2.4.7 2.8 1.8 1.1 2.7-.4 6.2-2.6 6.2-.9 0-1.4-.3-2-1.2zm3-2.6c0-.3 0-.7.2-1 .2-.2.1-.6-.3-1.2-.6-.9-.7-.9-1.5-.2-.4.4-.7 1-.6 1.2l.2 1.2c0 .4.3.6 1 .5.8 0 1.2-.2 1-.5zm15.7 2.7c-.8-1-1-1.5-1-3s.2-1.8 1-2.8c.7-.8 1.4-1.2 2.1-1.2.6 0 1.1-.2 1.1-.4 0-.6.9-.8 1.5-.2.5.4.5.6.1 1.2-.5.7-.2 1.2.6 1.2.2 0 .5.4.6.7 0 .5-.1.8-.4.8-.7 0-.6 1 0 1.5s.3 1.5-.4 1.1c-.2 0-.5.1-.6.4-.2.9-1.8 1.9-2.8 1.9-.4 0-1.2-.6-1.8-1.2zm3.1-2.8c0-.2 0-.7.2-1 .3-.3.2-.6-.4-1.1-.7-.7-.8-.7-1.5-.2-.4.4-.6 1-.5 1.2l.1 1.1c0 .3.5.5 1.1.5.8 0 1.1-.1 1-.5zm6.5 4.3a22 22 0 0 0 3.7-8 47 47 0 0 0 .4-14.9c-1.5-8.5-6-15.9-12.2-19.7a17.7 17.7 0 0 0-18.6 0 27.7 27.7 0 0 0-11.6 17.2 25.1 25.1 0 0 0-1 8.3 29 29 0 0 0 3.8 15.9c1.2 2 3.6 4.5 4.1 4.5.2 0 0-.8-.4-1.9-.5-1.7-.6-2.7-.7-7.9 0-5.6 0-6 .9-8.2 1.6-4.7 5.4-8.7 9.6-10.3 2-.8 7-.8 9.2-.1a15 15 0 0 1 7 5.3c3.2 4.3 4 7.3 3.7 14.8a25.1 25.1 0 0 1-1.5 8.6c0 .6 2.2-1.6 3.6-3.5zM324.3 101c0-.6 1.7-1.6 3-1.8 1.5-.4 1.5-.4.7-.8a5.8 5.8 0 0 0-2.3-.5c-.9 0-1.3-.2-1.2-.4.5-1 4.2-.2 5.3 1.3 1.1 1.3 1 1.6-.9 1.3-1.1-.2-2 0-2.8.4-1.3.7-1.8.8-1.8.5zm20.2-.5c-.7-.5-1.4-.6-2.7-.4-2 .2-2.3-.1-1-1.6 1-1.3 4.8-2 5.2-1 .2.2-.4.4-1.3.4s-2 .2-2.5.5c-.8.4-.8.5.7.7 1.7.4 3 1 3 1.7 0 .5-.3.5-1.4-.3zm-20.4 21.3c.6-.2 1-.7 1.4-2 .3-1 1-2.2 1.5-2.7l.9-1-.5 4.8 2.6-.3a54 54 0 0 1 4-.2c1.5 0 1.6 0 1.6-1.4a9.9 9.9 0 0 1 .3-2.1c.2-.8.2-.8.5 0l.6 2.1c.2 1.3.2 1.4 1.7 1.4.8 0 2 0 2.5.2.8.2 1 .1 1-.6a7 7 0 0 0-.4-1.9c-1-2.5.9-1.2 2 1.5.4 1.2.7 1.6 1.4 1.6.5 0 1.7.2 2.7.5l1.8.4-.7-1.8a16.2 16.2 0 0 0-9.2-8.7c-6.2-2-13.3 1.2-16.5 7.7-1.3 2.5-1.4 3.3-.6 3l1.4-.5zm-10.6-9a42.3 42.3 0 0 1 2.8-8.8c.5-.9.8-1.8.8-2 0-.2-1-1.4-2.4-2.6-2.5-2.4-3.7-2.8-4.5-1.6a52 52 0 0 0-4.3 8.3 4 4 0 0 0 .7 1.8c.7 1 6.1 6.3 6.5 6.3.1 0 .3-.6.4-1.4zM365 108c1.2-1.4.9-2.7-1.4-6.9-3-5.1-3-5.2-6.4-2.2l-2.8 2.6.5 1.2a43.5 43.5 0 0 1 3 8.6l.6 2.9 3-2.7a82.3 82.3 0 0 0 3.5-3.5zm-40.6-14.3a28 28 0 0 1 6.5-3.5l1.3-.5-.5-1.5-1.1-3.7c-.4-1.2-1-2.5-1.4-2.8-.7-.6-1-.6-3 .5-4.2 2.1-5.5 3-5.7 4.1-.2 1 2 8.3 2.4 8.3.2 0 .8-.4 1.4-1zm25.8-3c1.6-5 1.6-5.2-2.9-7.6a26 26 0 0 0-3.9-2c-.9 0-1.7 1.4-2.6 4.2a30.2 30.2 0 0 1-1.1 3.5c-.5.7-.3.9 1.8 1.6 1 .3 3 1.4 4.5 2.3a53.1 53.1 0 0 0 2.8 1.9l1.4-3.8z" fill="#74696f"/><path d="M331.8 148.8c-.8-.7-2-2-2.7-3a9.5 9.5 0 0 0-3.2-2.8c-5.6-3-8.9-6.7-11-12.4-1.5-4.5-1.8-6.8-1.6-11l.2-3.6-2.3-2.2a140.6 140.6 0 0 0-3.7-3.4 11 11 0 0 1-2-2.3c-.6-1.1-.8-3-.3-3.3a28.8 28.8 0 0 0 2-3.4c3.6-6.7 4-6.8 8.7-2 .8.7 1.5 1.3 1.7 1.3.3 0 4.2-5 4.2-5.5a36 36 0 0 0-1-3.7 21.9 21.9 0 0 1-1.2-4.5c0-1.8 1.3-3.2 4.6-4.9a13 13 0 0 0 2.9-1.8c.2-.8 1.7-.3 2.5.8a18 18 0 0 1 2 4.4c.5 1.8 1.1 3.5 1.3 3.7.3.4 1.1.4 3.1.2l2.7-.3 1.3-3.8c1.2-3.9 2-5.3 3.2-5.3.3 0 1.3.4 2.2.9l3.3 2c2.6 1.4 3.1 2.1 3 4.1 0 1-.6 3-1.1 4.7l-1 3.5c0 .2 1 1.6 2.1 3l2.1 2.5 1.6-1.5c3.2-3 3.7-3.3 4.7-3.3s2 1 3.8 4.2c2 3.8 2.4 4.5 2.4 6.1 0 1.8-.1 2-3 4.6l-3.1 3-1.8 1.7v4.3c0 7.5-1.5 12.8-5.1 17.4-2 2.6-3.7 4-6.2 5.2-1.1.6-2.3 1.6-3.8 3.6-1.3 1.6-2.6 3-3 3.1s-.7.5-.7.7c0 .2-.4.4-.9.4s-1-.2-1-.3-.2-.6-.6-1c-.6-.4-.8-.3-1.6.4-1.2 1.2-2 1-3.7-.5zm3.2-.4c.4-.3.7-1.2.8-2l.2-1.6h-2.2c-1.2 0-2.7 0-3.4-.2l-1.2-.3.7 1.1c1 1.5 3.4 3.5 4.1 3.5.3 0 .8-.2 1-.5zm5.6-.7c.8-.6 1.7-1.7 2.2-2.3l.7-1-1.7.2-3.3.2c-1.6 0-1.7 0-1.7 1.2 0 1.3 1 3 1.9 3 .3 0 1.1-.6 1.9-1.3zm0-3.7c-.7-.3-.6-.3.5-.3.8.1 1.4 0 1.4-.1 0-.2.5-.4 1.1-.6a9.9 9.9 0 0 0 5.1-3.9c.5-.7 1.1-2.5 1.4-3.8.5-2.8.6-8.7.2-11-.4-1.5-.6-1.7-4.4-2.5-1.8-.5-2.2-.7-2.2-1.3 0-.3-.3-1-.8-1.7l-.7-1.1.1 1.4c.2 1.4.2 1.4-.3-.3-.9-3 .1-2.7 1.6.6.6 1.4 1 1.8 1.6 1.8.5 0 1.7.2 2.6.5l1.8.4-.6-1.8a16.2 16.2 0 0 0-9.2-8.7c-6.2-2-13.2 1.2-16.5 7.7-1.3 2.4-1.4 3.2-.6 3l1.4-.5c.6-.2 1-.7 1.4-2 .3-1 1-2.2 1.5-2.7l.8-1-.4 4.8 2.6-.3 4-.2c1.5 0 1.5 0 1.7-1.6v-1.5l.2 3.3-2.9.3a62.7 62.7 0 0 1-4.4.3h-1.5l.2-2.1c.2-2.6-.2-2.4-1.3.6a38.2 38.2 0 0 1-1 2.2l-1.7.7c-2 .5-2 .9-2 5.7-.1 6.8.9 10.5 3.4 12.8 2.8 2.4 4.1 2.7 16 3.2.5 0 .5 0-.1-.3zm-5.8-5.6a10 10 0 0 1-1.1-4.8c0-1.2 0-1.3 1.3-1.6a8.1 8.1 0 0 1 2.7 0l1.4.3-.2 1.8c-.2 2.2-.3 2.4-1 1.8-1-.6-2.4-.5-3.1.1-.6.6-.6.6 0 1.7.7 1.4 2 1.4 3 0 .3-.6.6-1 .6-.7 0 .7-1.5 2.1-2.2 2.1-.5 0-1-.3-1.4-.7zm-9.9-4.2c-.6-.7-1.1-1-1.4-1-.4.3-.5.1-.4-.4.1-.5.3-.8.5-.7.6.2.5-.9-.2-1.4-.7-.6-.5-2 .2-1.6.7.4 1.1-.2.7-.8-.2-.3-.3-.9-.2-1.2.2-.8 1.1-.8 1.3 0 .2.4.7.6 1.6.6 1.9 0 3 1.3 3 3.7 0 3.6-3.1 5.4-5 2.8zm3.3-3c0-.8 0-1.4-.5-2-.5-.6-.6-.6-1.4 0-.4.4-.7 1-.6 1.3l.2 1.1c0 .4.3.6 1 .6 1 0 1.1-.2 1.3-1zm15.4 3c-.8-.9-1-1.4-1-2.8 0-1.5.2-2 1-3 .9-.9 1.3-1.1 2-1 .6.1 1 0 1.1-.4.2-.7 1.6-.7 1.8 0 .1.4 0 .8-.1 1-.6.4-.3 1.3.4 1.2.4 0 .7.2.8.7 0 .4-.1.7-.4.7-.7 0-.6 1 0 1.5.3.2.4.6.3.9-.2.3-.3.3-.6 0-.4-.3-.5-.2-.7.4-.2 1-1.6 2-2.8 2-.4 0-1.2-.5-1.8-1.1zm3.3-3.2c.2-1-.5-2.5-1.2-2.5s-1.3 1.4-1.2 2.5c.2 1 .4 1.1 1.2 1 .9 0 1.1-.1 1.2-1zm-8.1-10.1l-2-.2-.2-1.6c0-.9-.3-1.7-.4-1.8a.9.9 0 0 1-.3-.7c0-1 .6.3 1 2 .3 1.7.3 1.7 1.8 1.8l2.8.3c1.2.3 1.3.4.3.3l-3-.1zm14.4 15a22 22 0 0 0 3.7-8.2c.9-3.2 1.1-11 .4-14.8a29.3 29.3 0 0 0-12.2-19.7 17.7 17.7 0 0 0-18.6 0 27.7 27.7 0 0 0-11.6 17.2 25.1 25.1 0 0 0-1 8.3 29 29 0 0 0 3.8 15.9c1.2 2 3.6 4.5 4.1 4.5.2 0 0-.8-.4-1.9-.5-1.7-.6-2.7-.7-7.9 0-5.6 0-6 .9-8.2 1.6-4.7 5.4-8.7 9.6-10.3 2-.8 7-.9 9.2-.1a15 15 0 0 1 7 5.3c3.2 4.3 4 7.3 3.7 14.8a25.4 25.4 0 0 1-1.5 8.6c0 .5 2.2-1.6 3.6-3.5zm-28.7-35c.3-.8 2.3-1.8 3.5-1.8 1.2 0 1.2 0 .4-.6a5 5 0 0 0-2.5-.6c-1 0-1.5-.2-1.4-.4.5-1 4.2 0 5.4 1.3 1 1.3.8 1.6-1 1.3-1.1-.2-2 0-2.8.4-1.4.8-1.9.8-1.6.3zm20-.4c-.7-.5-1.4-.6-2.7-.4-1 0-1.8 0-1.8-.2 0-.5 1-1.7 2-2.3 1.2-.6 3.9-.7 3.9-.1 0 .2-.7.4-1.6.4a5 5 0 0 0-2.5.6c-.7.6-.7.6.6.6 1.5 0 3.5 1 3.5 1.6 0 .6-.3.6-1.4-.2zm-31 12.3a42.3 42.3 0 0 1 2.8-8.8c.5-.9.8-1.8.8-2 0-.2-1-1.4-2.4-2.6-2.5-2.4-3.7-2.8-4.5-1.6a51.1 51.1 0 0 0-4.3 8.4 4 4 0 0 0 .7 1.7c.7 1 6.1 6.3 6.5 6.3.1 0 .3-.6.4-1.4zM365 108c1.2-1.4.9-2.7-1.4-6.9-3-5.1-3-5.2-6.4-2.2l-2.8 2.6.4 1.2a43.5 43.5 0 0 1 3 8.6l.7 2.9 3-2.7a82.3 82.3 0 0 0 3.5-3.5zm-40.7-14.3a28 28 0 0 1 6.6-3.5l1.3-.5-.5-1.5-1.1-3.7a8 8 0 0 0-1.4-2.8c-.7-.6-1-.6-3 .5-4.2 2.1-5.5 3-5.7 4.1-.2 1 2 8.3 2.4 8.3.2 0 .8-.4 1.4-1zm25.9-3c1.6-5 1.6-5.2-2.9-7.7-1.9-1-3.6-1.8-3.9-1.8-.9 0-1.7 1.3-2.6 4.1a30.2 30.2 0 0 1-1.2 3.5c-.4.7-.2.9 1.9 1.5 1 .4 3 1.5 4.5 2.4a53.1 53.1 0 0 0 2.8 1.9l1.4-3.8z" fill="#18709c"/><path d="M331.8 148.8c-.8-.7-2-2-2.7-3a9.5 9.5 0 0 0-3.2-2.8c-5.6-3-8.9-6.7-11-12.4-1.5-4.5-1.8-6.8-1.6-11l.2-3.6-2.3-2.2a140.6 140.6 0 0 0-3.7-3.4 11 11 0 0 1-2-2.3c-.6-1.1-.8-3-.3-3.3a28.8 28.8 0 0 0 2-3.4c3.6-6.7 4-6.8 8.7-2 .8.7 1.5 1.3 1.7 1.3.3 0 4.2-5 4.2-5.5a36 36 0 0 0-1-3.7 21.9 21.9 0 0 1-1.2-4.5c0-1.8 1.3-3.2 4.6-4.9a13 13 0 0 0 2.9-1.8c.2-.8 1.7-.3 2.5.8a18 18 0 0 1 2 4.4c.5 1.8 1.1 3.5 1.3 3.7.3.4 1.1.4 3.1.2l2.7-.3 1.3-3.8c1.2-3.9 2-5.3 3.2-5.3.3 0 1.3.4 2.2.9l3.3 2c2.6 1.4 3.1 2.1 3 4.1 0 1-.6 3-1.1 4.7l-1 3.5c0 .2 1 1.6 2.1 3l2.1 2.5 1.6-1.5c3.2-3 3.7-3.3 4.7-3.3s2 1 3.8 4.2c2 3.8 2.4 4.5 2.4 6.1 0 1.8-.1 2-3 4.6l-3.1 3-1.8 1.7v4.3c0 7.5-1.5 12.8-5.1 17.4-2 2.6-3.7 4-6.2 5.2-1.1.6-2.3 1.6-3.8 3.6-1.3 1.6-2.6 3-3 3.1s-.7.5-.7.7c0 .2-.4.4-.9.4s-1-.2-1-.3-.2-.6-.6-1c-.6-.4-.8-.3-1.6.4-1.2 1.2-2 1-3.7-.5zm3.6-.8a9 9 0 0 0 .7-2l.2-1.2H334a19.9 19.9 0 0 1-3.7-.3l-1.5-.4 1.7 2c2.5 3 4 3.6 4.9 2zm4.7.3c.5-.3 1.6-1.4 2.3-2.3l1.3-1.8h-2c-1.2 0-1.7 0-1.3.3.4.2-.2.3-1.6.3h-2.2l.2 1.5c.5 2.7 1.3 3.2 3.3 2zm2.3-4.7c0-.2.6-.4 1.2-.6a9.9 9.9 0 0 0 5.1-3.9c.5-.7 1.1-2.5 1.4-3.8.5-2.8.6-8.7.2-11-.4-1.5-.6-1.7-4.4-2.5-1.8-.5-2.2-.7-2.2-1.3 0-.3-.3-1-.8-1.7l-.7-1.1.1 1.4c.2 1.4.2 1.4-.3-.3-.9-3 0-2.8 1.4.3 1 1.8 1 1.9 3.5 2.5l2.7.6c.3-.4-1.5-4-3-5.7-5.7-7.4-16-7.3-21.7.2a21.1 21.1 0 0 0-2.4 4l-.7 1.8 1.3-.3c1.8-.4 1.7-.3 2.4-2.4.4-1 1-2.2 1.5-2.8l.8-1-.2 2.4-.2 2.4h1.2l4-.3 3-.3V119c.2-1.3.2-1.3.2.2v1.4l-2.8.3a62.7 62.7 0 0 1-4.4.3h-1.5l.2-2.1c.2-2.6-.2-2.4-1.3.6a38.2 38.2 0 0 1-1 2.2l-1.7.7c-2 .5-2 .9-2 5.7-.1 6.2.8 10.3 2.8 12.2 3 2.9 5.3 3.5 12.6 3.4 3.2 0 5.7-.2 5.7-.3zm-7.6-5.2a10 10 0 0 1-1.1-4.8c0-1.2 0-1.3 1.3-1.6a8.1 8.1 0 0 1 2.7 0l1.4.3-.2 1.8c-.2 2.2-.3 2.4-1 1.8-1-.6-2.4-.5-3.1.1-.6.6-.6.6 0 1.7.7 1.4 2 1.4 3 0 .3-.6.6-1 .6-.7 0 .7-1.5 2.1-2.3 2.1-.4 0-1-.3-1.3-.7zm-9.9-4.2c-.6-.7-1.1-1-1.4-1-.4.3-.5.1-.4-.4.1-.5.3-.8.5-.7.6.2.5-.9-.2-1.4-.7-.6-.5-2 .2-1.6.7.4 1.1-.2.7-.8-.2-.3-.3-.9-.2-1.2.2-.8 1.1-.8 1.3 0 .2.4.7.6 1.6.6 1.9 0 3 1.3 3 3.7 0 3.6-3.1 5.4-5 2.8zm3.2-3c.1-.8 0-1.4-.4-2-.6-.6-.6-.6-1.4 0-.4.4-.7 1-.6 1.3l.2 1.1c0 .4.3.6 1 .6 1 0 1.1-.2 1.3-1zm15.5 3c-.8-.9-1-1.4-1-2.8 0-1.5.2-2 1-3 .9-.9 1.3-1.1 2-1 .6.1 1 0 1.1-.4.2-.7 1.6-.7 1.8 0 .1.4 0 .8-.1 1-.6.4-.3 1.3.4 1.2.4 0 .7.2.8.7 0 .4-.1.7-.4.7-.6 0-.6 1 0 1.5.3.2.4.6.3.9-.2.3-.3.3-.6 0-.4-.3-.5-.2-.7.4-.2 1-1.6 2-2.8 2-.4 0-1.2-.5-1.8-1.1zm3.3-3.2c.2-1-.5-2.5-1.2-2.5s-1.3 1.4-1.2 2.5c.2 1 .4 1.1 1.2 1 .9 0 1.1-.1 1.2-1zm-8.1-10.1l-2-.2-.2-1.5a7.4 7.4 0 0 0-.5-2c-.2-.4-.2-.5 0-.5s.5.5.6 1.1c.4 2.6.4 2.5 2 2.6l2.8.3c1.2.3 1.3.4.3.3l-3-.1zm14 15.7c3.2-4.2 5-10 5-16.9 0-5.2-.4-8-2-12.6a25.2 25.2 0 0 0-10.4-13.7c-3.7-2.4-5.8-3-10.4-2.8-3.3.2-4.3.4-6.2 1.3a22.6 22.6 0 0 0-8.7 7.4 31 31 0 0 0-5.8 13.7c-1.6 8 0 16.9 4 22.6 1.6 2.2 3.7 4.2 4 3.8a35.5 35.5 0 0 1-1.4-15.6 16 16 0 0 1 3.6-7.8c3-4 6.6-5.8 11.4-5.8 4.7 0 8.3 1.8 11.4 5.9 3.2 4.2 4 7.4 3.6 16.1-.2 3.5-.4 4.6-.9 5.8l-.7 1.7c0 .6 2-1 3.5-3.1zm-28.3-35.8c.3-.7 2.3-1.7 3.5-1.7 1.2 0 1.2 0 .4-.6a5 5 0 0 0-2.5-.6c-1 0-1.5-.2-1.4-.4.5-1 4.2 0 5.4 1.3 1 1.3.8 1.6-1 1.3-1.1-.2-2 0-2.8.4-1.4.7-2 .8-1.7.3zm20-.3c-.7-.5-1.4-.6-2.7-.4-1 0-1.8 0-1.8-.2 0-.6 1-1.7 2-2.3 1.2-.6 3.9-.7 3.9-.1 0 .2-.7.4-1.7.4a5 5 0 0 0-2.4.6c-.7.6-.7.6.6.6 1.5 0 3.5 1 3.5 1.6 0 .6-.3.6-1.4-.2zm-29.4 6.7l1.5-3.8.8-1.7-2.5-2.3c-2.5-2.2-3.7-2.7-4.5-2-.8.6-4.5 8-4.5 8.8 0 1.4.3 1.7 3.9 5.1l3.4 3.2.6-2.5 1.3-4.8zM362 111c4.3-4.3 4.4-4.7 2-9-2.3-4.1-3.1-5.2-3.9-5.2-.7 0-5.8 4.4-5.8 5l1.1 2.7a34 34 0 0 1 3 9.8l3.6-3.3zm-38.3-16.7a23.1 23.1 0 0 1 6.4-3.7 6.4 6.4 0 0 0 1.8-.8c.3-.4-1.9-7-2.6-7.8-1-1-1.3-1-5 1.1-3.3 1.9-4 2.6-4 4 0 .7 2.2 8 2.4 8l1-.8zm26.4-3.1c1.7-5.6 1.7-5.6-3-8.3-3.4-1.8-4.3-2-5-1a30 30 0 0 0-2.6 8l2 .7c1.9.6 5.1 2.4 6.1 3.5.3.3.8.6 1 .6.2 0 .8-1.6 1.5-3.5z" fill="#685257"/><path d="M333.4 149.8c0-.2-.5-.6-1-.8s-1.8-1.6-2.8-3c-1.2-1.5-2.2-2.5-3-2.8-2-.7-5.6-3.3-7.4-5.4a22.5 22.5 0 0 1-4.9-9.7 31.2 31.2 0 0 0-.7-2.7 6.2 6.2 0 0 1-.2-2v-7.7l-3.8-3.5a25.2 25.2 0 0 1-4.4-5c-.3 0-.4-1.8 0-2l1.5-2.9 2.6-4.4c1.2-1.7 1.3-1.7 2.5-1.5 1.1.2 3.1 1.8 4 3.1a5.2 5.2 0 0 0 1.9 1.3c.3 0 4.4-5.2 4.4-5.6l-.3-.9a76.4 76.4 0 0 1-1.9-5.9c-.5-1.8 0-3.6 1-4.3a64.2 64.2 0 0 1 5-2.7 8.6 8.6 0 0 0 1.7-1.1c.3-.3.8-.1 1.5.4 1 .8 1.3 1.3 2 3.7a186.3 186.3 0 0 0 1.4 4.4l.4 1.3h2.5c2.8 0 3-.2 3.9-2.6l.7-2 .3-1.3c0-.3.1-.6.3-.6s.3-.3.3-.8c0-.4.5-1.2 1-1.8 1.2-1 2.1-1.4 2.1-.7 0 .3.2.4.4.4l1.4.7 1.8 1 2.2 1.3c1.5 1 1.6 1 1.7 3 0 1-.1 2.4-.3 3a35 35 0 0 0-1.4 4.1l-.4 1.4 2 2.8c1.2 1.5 2.3 2.7 2.5 2.7.2 0 .6-.3 1-.8 1.2-1.4 4.5-4 5.2-4 1 0 2.1 1.4 4 4.9 2.7 4.6 2.7 7 .1 9l-2 2c-.4.4-1.4 1.4-2.3 2l-1.5 1.3v4.1c0 4-.1 4.9-1.1 9.5-1.3 5.8-5.3 11-10.3 13.7a10 10 0 0 0-3.6 3.3c-1.5 2.1-4.2 4.5-5.1 4.5-.2 0-.6-.5-1-1-.7-1-.8-1-1.7-.4l-1 1c0 .2-.3.3-.6.3s-.6-.1-.6-.3zm2-1.8l.7-2 .2-1.2H334a19.9 19.9 0 0 1-3.7-.3l-1.4-.4 1.7 2c2.4 3 4 3.6 4.8 2zm4.7.3c.5-.3 1.6-1.4 2.3-2.4l1.4-1.8-1 .2a4 4 0 0 1-2-.3c-1-.3-.9-.4.5-.2h1.5c0-.3 1-.7 1.9-1.1a10 10 0 0 0 5.1-5.7c.4-1.2.6-3.3.7-6.8.1-3.1.3-4.6.4-3.7a52.7 52.7 0 0 1-.9 11.5l-.7 1.7c0 .6 2-1 3.5-3.1 3.2-4.1 5-10 5-16.9 0-5.2-.4-8-2-12.6a25.3 25.3 0 0 0-10.4-13.7c-3.7-2.4-5.7-3-10.4-2.8-3.3.2-4.3.4-6.2 1.3a22.6 22.6 0 0 0-8.7 7.4 31 31 0 0 0-5.8 13.7c-1.5 8 0 16.9 4 22.6 1.6 2.2 3.7 4.2 4 3.8a35.3 35.3 0 0 1-1.4-15.6 16 16 0 0 1 3.6-7.8c3-4 6.6-5.8 11.4-5.8 5.6 0 10.4 3 13.2 8.6 1.2 2.3 1.9 5 1.6 5.8-.2.3-.3 0-.4-.5-.1-.7-.6-1.2-1.3-1.6-.8-.4-.9-.5-.2-.3 1 .2 1 .2.3-1.6-2.7-7-10-11-16.7-9.2-4 1.1-8.3 5.1-10 9.3l-.6 1.8 2.7-.5-1.5.5c-1.7.5-1.8.8-1.8 6.8 0 7.8 1.7 11.5 6 13.5 2 .9 3 1 7.8 1.2 3 .1 5.6.4 5.8.5 0 .2-.8.3-2 .3h-2.2l.2 1.5c.5 2.7 1.4 3.2 3.3 2zm-5.3-10a2.9 2.9 0 0 1-.5-1c0-.2.2 0 .5.5.6 1.1 1.9 1.2 2.8.2.6-.7.6-.7 0 .2-.7 1.1-2 1.2-2.8.2zm-1-2.6l-.1-2.2v-1.3h5.4l-.2 1.9a13.4 13.4 0 0 1-.3 2c0 .1-.6 0-1.2-.4-1-.6-1.2-.5-2.2.1-1.1.7-1.1.7-1.3-.1zm-9-1.5c-.6-.9-.8-1.5-.7-2.2 0-.7 0-1-.5-1.3-.8-.3-.7-1.4.2-1.4.9 0 1-.4.5-1-.5-.7-.1-1.8.5-1.8.3 0 .6.3.7.6 0 .4.6.6 1.3.6 1.6 0 2.1.3 2.7 1.7.7 1.8.6 3.5-.5 4.9-1.2 1.6-2.8 1.6-4.1 0zm3.4-3.1c0-.7 0-1.3-.2-1.6a2.4 2.4 0 0 1-.6-.9c0-.2-.4-.1-1 .5-.6.7-.7 1-.6 2 .1 1 .3 1 1.2 1 .8 0 1 0 1.2-1zm15.5 3.3c-.8-.9-1-1.3-1-3 0-1.5.2-2.1.8-2.8.9-1.1 2.7-1.7 2.7-.9 0 .3.2.2.5-.3s.7-1 1-1c.6 0 .8 1.2.4 2-.3.4-.3.6 0 .7.3.2.7.2 1 .2.2-.1.4.1.5.5 0 .5-.1.8-.4.8-.6 0-.6 1 0 1.5.3.2.4.6.3.9-.2.3-.3.3-.6 0s-.5-.1-.8.6a3.4 3.4 0 0 1-2.9 1.9c-.3 0-1-.5-1.5-1.1zm3.2-3.3a2.5 2.5 0 0 0-.5-2.1l-.8-1-.8 1.2c-.4.6-.6 1.2-.5 1.3.2 0 .3.5.3 1s.3.7 1.1.7c.9 0 1-.2 1.2-1.1zm-23.8 1.7c0-.3.1-.6.3-.6s.3.3.3.6-.1.6-.3.6-.3-.3-.3-.6zm2.4-12.8a14.1 14.1 0 0 1 1.5-3l.8-.9v1.4c-.1 1.3-.1 1.3-.3.4l-.2-1-.7 1.2c-.3.7-.8 1.8-1 2.6-.2.7-.5 1.3-.7 1.3s.1-1 .6-2zm21.1 1.7h1c.1.1-.1.2-.6.2s-.7 0-.4-.2zm-2.5-.4c-.2-.1-.4-.4-.4-.7 0-.3-.4-1.1-.8-1.9l-.8-1.4.2 1.6.2 1.7-.5-1.8c-.9-3 .1-2.7 1.6.6.5 1.2 1 1.8 1.6 1.9.8.1.8.2 0 .2-.4 0-.9 0-1.1-.2zm-17-1.3c.1-.9.1-1 .2-.2.2.8.4 1 2.1 1l2 .2-4.3.2zm14.2.9h1c.1.1-.1.2-.6.2-.6 0-.7-.1-.4-.2zm-7.7-.4c2-.2 2-.2 2-1.5.2-1.3.2-1.3.2.2v1.6l-4.1-.2zm3.4 0l-.2-.7c0-.3.1-.3.3 0 .1.3 1 .6 2 .7l1.6.1H339c-1 .1-1.9 0-2-.1zm-.5-2a2.5 2.5 0 0 0-.4-1.3c-.3-.4-.3-.5 0-.5.4 0 1 2 .6 2.3-.1.1-.2 0-.2-.5zM324.3 101c0-.5 2.2-1.7 3.5-1.9l1.4-.2-1-.5a6.2 6.2 0 0 0-2.4-.5c-1 0-1.5-.1-1.3-.5.3-.6 3.2-.2 4.5.7a4 4 0 0 1 1.3 1.4c.3.8.2.8-1 .6l-2.2-.4h-.5s-.2.6-.8 1c-1 .5-1.5.6-1.5.3zm20.2-.5c-.7-.5-1.4-.6-2.7-.4l-1.9-.1c0-.7 1.6-2.1 2.6-2.5 1.3-.5 3.4-.5 3.4 0 0 .1-.7.3-1.6.3a5.5 5.5 0 0 0-2.4.7l-.9.6h1.4c1.3 0 3.5 1.1 3.5 1.7 0 .5-.4.4-1.4-.3zm-29.4 6.7l1.5-3.8.8-1.7-2.5-2.3c-2.5-2.2-3.7-2.7-4.5-2-.8.6-4.5 8-4.5 8.8 0 1.4.3 1.7 4 5.1l3.3 3.2.6-2.5a44 44 0 0 1 1.3-4.8zM362 111c4.3-4.3 4.4-4.7 2-9-2.3-4.1-3.1-5.2-3.9-5.2-.7 0-5.8 4.4-5.8 5l1.1 2.7a34.7 34.7 0 0 1 3 9.8 40 40 0 0 0 3.6-3.3zm-38.3-16.7a23.1 23.1 0 0 1 6.4-3.7 6.4 6.4 0 0 0 1.8-.8c.4-.4-1.9-7-2.6-7.8-1-1-1.3-1-5 1.1-3.3 1.9-4 2.6-4 4 0 .7 2.2 8 2.4 8l1-.8zm26.4-3.1c1.7-5.6 1.7-5.6-3-8.3-3.4-1.8-4.3-2-5-1a30 30 0 0 0-2.5 8l2 .7c1.8.6 5 2.4 6 3.5.4.3.8.6 1 .6.2 0 .8-1.6 1.5-3.5z" fill="#4d474b"/><path d="M337.6 149.1c-1-1-1.7-1.3-1.7-.6 0 .8-1.8 1.2-3 .7-1.2-.4-4.5-4.3-4.5-5.2 0-.2-.6-.5-1.3-.6-.7-.2-1.2-.5-1.2-.6 0-.2-.3-.4-.6-.4s-.7-.3-.8-.6c0-.3-.4-.5-.8-.4-.3.2-.7 0-.8-.3-.2-.3-.1-.4.3-.2.3.2.5.1.3-.2 0-.2-.4-.3-.6-.2-1 .5-6.4-5.3-6.4-7 0-.3-.1-.5-.3-.5s-.3-.3-.3-.6-.2-.6-.3-.6-.4-.4-.4-.8 0-.8-.2-.8-.4-1-.7-2.4a17.9 17.9 0 0 0-.7-3c-.2-.4-.2-1 0-1.8.3-1.2.3-1.2.3-.2 0 3.1 2.1 9.4 4.5 12.8 1.5 2.2 3.6 4.2 4 3.8 0 0-.2-.8-.6-1.5a38 38 0 0 1-.7-14.6c0-2 1.3-4.6 3.4-7.3a14.3 14.3 0 0 1 7.1-5.3c2-.6 6.5-.7 8-.1l1.7.6c1.2.3 3.8 2.3 5.3 3.9 2.5 2.8 4.6 8 4 9.4-.3.4-.3.2-.3-.6 0-.7-.2-1-.5-1s-.4-.3-.3-.5c.2-.5-1-3.5-2.1-5.2a16 16 0 0 0-6.7-5.2c-2.8-1.2-4.6-1.5-6.5-1l-2.3.5c-3.1.6-8 5.3-9.4 9.2l-.7 1.8 2.7-.5-1.5.5c-1.7.5-1.8.9-1.8 6.8 0 11 3.5 14.7 13.8 14.7 2.1 0 4.4.2 5 .3.9.3.7.4-1.2.5l-2.2.2.3 1.8c.5 3 2.3 2.8 5.2-.6l2-2.2-1.2.2a4.2 4.2 0 0 1-2.2-.2c-.8-.3-.8-.4.4-.2 1.8.2 3.7-.2 3.2-.6-.3-.3-.3-.4 0-.4l.5.4c.2.4-4 5.7-4.6 5.7-.2 0-.7.3-1 .6-.6.5-.8.5-1.6-.4zm-2.2-1l.6-2 .2-1.1-3.2-.3a18.6 18.6 0 0 1-3.8-.5c-.8-.4 2.9 3.9 3.7 4.3 1.1.6 2 .5 2.5-.5zm9.8-5.2c-.3-.3 2.3-1.9 3-1.8.2 0 .5 0 .7-.3 0-.3 0-.4-.4-.4-.5 0-.5-.1.1-1 1.3-1.8 1.8-3.9 2-9.2 0-3 .2-4.6.3-3.7a46.5 46.5 0 0 1-1.1 12c-1.3 2.4.6 1.2 3-1.9a29 29 0 0 0 5-17.5c0-5.7-.5-8.1-2.4-13a25.4 25.4 0 0 0-10-12.7c-3.8-2.4-5.8-3-10.4-2.7-4.2.2-5.6.4-6.3 1.2-.2.3-.5.5-.6.4-1-.3-6.1 4.2-8.6 7.7a31.5 31.5 0 0 0-4.9 10.6c-.2 0-.3.2-.2.6.1.3 0 .5 0 .4-.2-.1-.3.3-.4 1 0 .5 0 2.9-.3 5.1l-.2 4v-4.1c-.1-3.6 0-4.8.7-7.4a38 38 0 0 1 3-8.1c0-.3-1-1.5-2.4-2.8-2.4-2.1-3.6-2.6-4.4-1.9-.8.7-4.5 8-4.5 9 0 1.2.4 1.7 4.1 5.1 1.7 1.6 3 3 3 3.2 0 .4-1.6-.7-2.5-1.8-.3-.4-.7-.7-.9-.7s-.3-.2-.3-.3c0-.2-.8-1-1.7-1.7-1-.9-1.8-1.9-1.9-2.4 0-.5-.3-1-.5-1s-.3-.2-.3-.5c0-.4.2-.6.3-.6s.4-.5.5-1c.1-.6.4-1 .5-1 .2 0 .3-.4.3-.7s.1-.6.2-.6c.2 0 .5-.5.7-1.1a13 13 0 0 1 1.7-3c.8-1.5 1-1.6 2.3-1.6 1.3 0 1.8.2 3.1 1.6 1 1 1.8 1.6 1.9 1.6l.8.8c.7.9 1.2.8 1.2-.2 0-.3.1-.5.3-.4.2.2.3 0 .3-.2 0-.6.8-1.6 1.3-1.6.2 0 .3-.1.2-.2-.3-.3.5-1.4 1-1.4l.6-.8c.3-.6.2-1-.1-1.4a2.8 2.8 0 0 1-.5-1.5c0-.4-.1-.8-.3-.8s-.3-.5-.3-1-.1-1-.3-1c-.1 0-.4-.9-.6-1.9-.4-1.6-.4-2 0-2.8.6-1.2 1.8-2 2-1.7.2.2 0 .4-.2.5-.7.4-1.6 1.7-1.6 2.6 0 .6 2 7.2 2.4 8 0 .2.5-.2 1-.7a23 23 0 0 1 6.5-3.7 6.4 6.4 0 0 0 1.8-.8c.5-.5-2.1-7.5-3-8.1-.8-.6-1.3-.4-6 2.3-.3.1-.4 0-.3-.4.1-.4.4-.7.7-.7s.7-.2 1-.4c1.5-1 1.8-1.2 2.8-1.4 1.7-.5 2.8 0 3.3 1.7l1.1 3.2c.7 1.9 1 3.5 1 4 0 .1 1.8.2 4 .2 3.7 0 4.5.1 6.5 1 1.3.6 3 1.6 3.9 2.3a8.9 8.9 0 0 0 1.8 1.2c.3 0 2.5-6.9 2.5-8 0-.4-.3-1.1-.6-1.5-.8-.9-6.4-4-7.4-4-1.2 0-1.5.6-3 5.5-.8 2.6-1.5 3.8-1.3 2.1.1-.5.3-1 .5-1s.2-.3.2-.6l.3-1.5.7-1.6.3-1.2c0-.6.6-1.4 1.5-2 .6-.4 1-.4 2.1 0 .8.3 1.4.7 1.4.9 0 .1.3.3.7.3s.9.2 1 .4c.1.2.5.4.8.4s.6.2.6.4.2.4.5.4.8.3 1.2.7c.7.5.8 1 .8 2.8 0 1.2-.1 2.2-.3 2.2s-.3.4-.3.8c0 .5-.2.9-.3.9s-.4.4-.4.9-.2 1.4-.5 2l-.6 1.3 2.2 2.8c2 2.4 3.3 3.5 3.3 2.4l1-1 1.3-1.3c1.3-1.6 4-2.9 4-1.8 0 .2.2.4.4.4s.6.3.8.8l.7 1.3c.3.3.8 1.2 1.2 2l1.3 2.2c.8 1 1 3.3.6 4l-.2.7c.1 0-.1.5-.6 1-.4.6-.9 1-1 1s-.4.2-.4.3c0 .2-.8 1-1.7 1.8-1 .8-1.7 1.5-1.7 1.7 0 .2-.2.3-.4.3-.1 0-.6.3-.9.7-.5.6-.6 1.6-.7 5.2a26 26 0 0 1-1.2 9.5c0 .5-.1 1-.3 1s-.3.2-.3.6c0 3-7.4 11.6-10 11.6-.4 0-.6.2-.6.4 0 .5-.4.5-.7.1zm16.8-32c4.4-4.4 4.5-4.6 1.5-9.9-2.3-4.1-2.5-4.3-3.4-4.3-.5 0-4.6 3.3-5.8 4.8l.6 1.6a45.9 45.9 0 0 1 2.7 7.7l.4 2.3c0 .6.2 1.1.3 1.1l3.7-3.3zm-25.8 28l1.4-1c.6-.6.6-.6 0 .3-.3.6-.9 1-1.4.9h-.8zm-2.3-3.5c-.5-3.2-.5-3.2 2.5-3.2h2.7l-.2 1.5a27 27 0 0 0-.2 2c0 .4-.3.4-1.1 0-1-.6-1.3-.6-2.1-.2-.6.3-1.1.7-1.2.9s-.3-.2-.4-1zm-8.6-.9c-.8-.7-1-1.2-1-2.4 0-1.3-.1-1.5-.6-1.5a.6.6 0 0 1-.6-.7c0-.4.2-.5.7-.3 1 .3 1.4-.6.7-1.3-.6-.6-.6-1.3 0-1.6.7-.3 1.1.2 1 1-.2.7-.1.8.2.5.2-.3.9-.4 1.5-.4 2 0 3.4 3.2 2.4 5.6-.4 1-1.9 2-2.7 2-.3 0-1-.3-1.6-.9zm3-3.4c0-.8 0-1.3-.4-1.6l-.5-.9c0-.6-.7-.4-1.5.6-.4.5-.6 1-.4 1.1.2.2.4.7.4 1.1 0 .6.2.8 1 .8 1 0 1.1-.2 1.3-1.1zm16.1 4c-1.1-.6-1.7-2.2-1.5-4.1.2-2.1.9-3.1 2.4-3.4.6-.2.8-.2.5 0-.3.2-.8.8-1.1 1.4-.6.9-.6 1.2-.3 2.1.3.8.6 1 1.4 1 .8 0 1 0 1.2-1.2.3-1.8.4-2 1-1.7.5.3.8 2.2.4 3.5-.3 1.2-2 2.8-2.8 2.7a3.6 3.6 0 0 1-1.2-.4zm-21.3-2.3v-.6l.4.6-.1.6c-.2 0-.3-.3-.3-.6zm25.8-.2c-.2-.2 0-.4.3-.4s.4.2.4.4 0 .4-.3.4-.3-.2-.4-.4zm0-2.8c.1-.5.3-.8.5-.6.4.3.3 1.4-.2 1.4-.3 0-.4-.3-.3-.8zm-2.5-1c-.2-.8.9-2.5 1.5-2.2.8.4.6 1.3-.4 2-.7.6-1 .6-1 .2zm-21-8.8a14.1 14.1 0 0 1 1.6-3l.7-.9v1.4c0 1.3 0 1.3-.2.4l-.2-1-.7 1.2a17 17 0 0 0-1 2.6c-.2.7-.5 1.3-.7 1.3-.1 0 .1-1 .6-2zm21.3 1.7a1 1 0 0 1 .8 0c.2.1 0 .2-.4.2s-.6 0-.4-.2zm-2.6-.4l-.5-1.1a8.1 8.1 0 0 0-.9-1.9l-.6-1 .2 1.6.2 1.7-.5-1.8c-.3-1-.5-1.9-.4-2 .1-.1.2 0 .2.3s.2.3.3.2c.2-.1.8.6 1.3 1.7.6 1.3 1.2 2 1.8 2.2.8.3.8.3 0 .3-.4 0-.9 0-1-.2zm-17-1.2c.1-1 .1-1 .2-.3.2.8.4 1 2.1 1l2 .2-4.3.2zm14.2.8h1c.1.1-.1.2-.6.2-.6 0-.7-.1-.4-.2zm-7.7-.4c2-.2 2-.2 2-1.5.2-1.2.2-1.2.2.2v1.6l-4.1-.2zm3.4 0l-.2-.7c0-.3.1-.3.3 0 .1.3.9.6 1.8.7l1.5.1h-1.6c-.9.1-1.7 0-1.8-.1zm-.4-2.2c0-.5 0-.8.1-.5v1l-.1-.5zm-11.8-17.7c.3-.3.7-.5.8-.4.2.1.3 0 .3-.3 0-.2.1-.3.3-.1.3.2.1.5-.4.8-1 .8-1.8.8-1 0zm20 0a5.4 5.4 0 0 0-4.2-.5c-.9.4-.8-.2 0-1.3a5.2 5.2 0 0 1 4.1-1.7c1.8 0 1.4.6-.5.7-1.6.1-3.3.8-3.3 1.3 0 .2.5.2 1 .1 1.2-.2 4 1 4 1.6 0 .5 0 .5-1.1-.3zm-16.3-.5c-.7-.1-1.4-.4-1.5-.6-.3-.3 0-.4 1-.2.7.1 1.3 0 1.3-.1 0-.6-1.9-1.4-3.5-1.5-.8 0-1.3-.1-1.2-.4.4-.5 3.5.1 4.7 1 .8.7 1.4 2.2.7 2l-1.5-.2z" fill="#2c4e5d"/><path d="M337.6 149.1c-1-1-1.7-1.3-1.7-.6 0 .8-1.8 1.2-3 .7-1.2-.4-4.5-4.3-4.5-5.2 0-.2-.6-.5-1.3-.6-.7-.2-1.2-.5-1.2-.6 0-.2-.3-.4-.6-.4s-.7-.3-.8-.6c0-.3-.4-.5-.6-.4-1 .5-7.4-6.2-7.4-7.9 0-.3-.1-.5-.3-.5s-.3-.3-.3-.6-.2-.6-.3-.6-.4-.4-.4-.8 0-.8-.2-.8-.4-1.1-.7-2.5a10 10 0 0 0-.7-2.7l-.2-1c0-1.5.5-.3 1 2.5.6 3 2 6.5 3.5 8.7 1.1 1.5 4.2 4.9 5.2 5.6.8.5.7.2-.7-2-1.2-2-1.5-4-1.5-9 0-5.6.3-8.2 1.7-10.9 4.5-8.7 14.5-11.4 21.9-5.7 3.1 2.4 6.1 7.6 6 10.5 0 .8 0 1-.1.5-.4-2.3-2.2-6-3.8-8-5.7-6.7-14.2-7.1-20.7-1-1.2 1.2-4 6-4 7l.6.3c.7.2.6.2-.1.3-1 0-1.2 1-1.2 6.5 0 11.1 3.4 14.7 14.1 14.7 2.8 0 4.4.2 4.5.5.2.5-8 .3-10.2-.3l-1-.3.9 1.3c1.3 2 3.6 3.7 4.5 3.7 1 0 1.7-.9 2-2.6l.4-1.2.4 1.7c.5 2.1 1.4 2.7 3 1.8 1.4-.9 5-5.2 4.4-5.5-.2-.2-.2-.2 0-.3 1 0 .6 1-1.4 3.4-1.2 1.5-2.3 2.7-2.6 2.7s-.7.3-1 .6c-.6.5-.8.5-1.6-.4zm3.1-5l-1-.4h1a2.4 2.4 0 0 1 1.4.3c.4.4.4.4 0 .4a8.5 8.5 0 0 1-1.4-.4zm4.5-1.1c-.3-.4 2.2-2 2.8-1.9 1 .2 5.4-4.7 7-7.7 2-4 2.9-8.2 2.9-13.9 0-5.1-.4-7.7-1.7-11.7-3.1-9-10.1-16-17.2-17.3l-2-.3 2.3.1a13 13 0 0 1 7.7 3.3c1 .8 1.8 1.4 1.9 1.3a60 60 0 0 0 2.3-8.2c0-.6-.3-1.3-.8-1.8a19.4 19.4 0 0 0-7.5-3.7c-1 .2-1 .3-3 5.8-1 2.9-1.2 3.4-1 1.7.1-.5.3-1 .5-1s.2-.3.2-.6l.3-1.5.7-1.6.3-1.2c0-.6.6-1.4 1.5-2 .6-.4 1-.4 2.1 0 .8.3 1.4.7 1.4.9 0 .1.3.3.7.3s.9.2 1 .4c.1.2.5.4.8.4s.6.2.6.4.2.4.5.4.8.3 1.2.7c.7.5.8 1 .8 2.8 0 1.2-.1 2.2-.3 2.2s-.3.4-.3.8c0 .5-.2.9-.3.9s-.4.4-.4.9-.2 1.4-.5 2l-.6 1.3 2.2 2.8c2 2.4 3.3 3.5 3.3 2.4l1-1 1.3-1.3c1.3-1.6 4-2.9 4-1.8 0 .2.2.4.4.4s.6.3.8.8l.7 1.3c.3.3.8 1.2 1.2 2l1.2 2c.6.7 1 2.3 1 3.4a41.9 41.9 0 0 0-5-9 2 2 0 0 0-1.2-.5c-.6 0-3.3 2.2-6 4.7 0 0 .2.7.6 1.3a40.6 40.6 0 0 1 3.2 9.4l.4 2.5 2-1.9a204.4 204.4 0 0 0 3.7-3.5c1.7-1.7 2.4-2 1.2-.5-.4.6-.9 1-1 1s-.4.2-.4.3c0 .2-.8 1-1.7 1.8-1 .8-1.7 1.5-1.7 1.7 0 .2-.2.3-.4.3-.1 0-.6.3-.9.7-.5.6-.6 1.6-.7 5.2a26 26 0 0 1-1.2 9.5c0 .5-.1 1-.3 1s-.3.2-.3.6c0 3-7.4 11.6-10 11.6-.4 0-.6.2-.6.4 0 .5-.4.5-.7.1zm3.4-3.5c1.3-2 1.7-4 2-9.3l.2-5.1v4.5c.1 5.4-.4 8-2 9.8-.7 1-.8 1-.2.1zm-12.4-.7c.4 0 1-.5 1.4-.8.6-.7.6-.7 0 .2-.3.6-.9 1-1.4.9h-.8zm-2.3-3.4c-.5-3.2-.5-3.2 2.5-3.2h2.7l-.2 1.5a27 27 0 0 0-.2 2c0 .4-.3.4-1.1 0-1-.6-1.3-.6-2.1-.2-.6.3-1.1.7-1.2.9s-.3-.2-.4-1zm-8.6-.9c-.8-.7-1-1.2-1-2.4 0-1.3-.1-1.5-.6-1.5a.6.6 0 0 1-.6-.7c0-.4.2-.5.7-.3 1 .3 1.4-.6.7-1.3-.6-.6-.6-1.3 0-1.6.7-.3 1.1.2 1 1-.2.7-.1.8.2.5.2-.3.9-.4 1.5-.4 2 0 3.4 3.2 2.4 5.6-.4 1-1.9 2-2.7 2-.3 0-1-.3-1.6-.9zm3-3.4c0-.8 0-1.3-.4-1.6l-.5-.9c0-.6-.7-.4-1.5.6-.4.5-.6 1-.4 1.1.2.2.4.7.4 1.1 0 .6.2.8 1 .8 1 0 1.1-.2 1.3-1.1zm16.1 4c-1.1-.6-1.7-2.2-1.5-4.1.2-2.1.9-3.1 2.4-3.4.6-.2.8-.2.5 0-.3.2-.8.8-1.1 1.4-.6.9-.6 1.2-.3 2.1.3.8.6 1 1.4 1 .8 0 1 0 1.2-1.2.3-1.8.4-2 1-1.7.5.3.8 2.2.4 3.5-.3 1.2-2 2.8-2.8 2.7a3.6 3.6 0 0 1-1.2-.4zm-21.3-2.3v-.6l.4.6-.1.6c-.2 0-.3-.3-.3-.6zm25.8-.2c-.2-.2 0-.4.3-.4s.4.2.4.4 0 .4-.3.4-.3-.2-.4-.4zm0-2.8c.1-.5.3-.8.5-.6.4.3.3 1.4-.2 1.4-.3 0-.4-.3-.3-.8zm-2.5-1c-.2-.8.9-2.5 1.5-2.2.8.4.6 1.3-.4 2-.7.6-1 .6-1 .2zm-22.8-6.7h.6c.1.2 0 .3-.4.3-.3 0-.4-.2-.2-.3zm1.6-1.3c.3-.7.5-1.1.6-1 .2.1-.6 2.2-.9 2.2-.1 0 0-.5.3-1.2zm-11.8-1.9c0-3.6.3-7.2.6-6.9.2.2.2.5.1.7a38 38 0 0 0-.4 4.8c-.2 3.7-.2 4-.3 1.4zm30.7 2.4l-.5-1.1a8.1 8.1 0 0 0-.9-1.9l-.6-1 .2 1.6.2 1.7-.5-1.8c-.3-1-.5-1.9-.4-2 .1-.1.2 0 .2.3s.2.3.3.2c.2-.1.8.6 1.3 1.7.5 1 1.2 2 1.6 2.2.7.3.7.3.1.3a1.6 1.6 0 0 1-1-.2zm-17-1.1c0-.7.2-1 .2-.5v1.2l-.1-.7zm1.7.7a5.3 5.3 0 0 1 1.7 0c.5 0 0 .2-.9.2s-1.3-.1-.8-.2zm12.5 0h1c.1.1-.1.2-.6.2-.6 0-.7-.1-.4-.2zm-7-.4c1-.1 1.3-.4 1.4-1 0-.8.1-.8.1.1 0 1.1 0 1.2-1.3 1.1h-1.3zm2.7 0l-.2-.7c0-.3.1-.3.3 0 0 .3.8.6 1.4.7l1.3.1-1.3.1c-.7 0-1.4 0-1.5-.2zm-11-1.8c.4-.9 1.2-2 1.5-2 .1 0 .2.4.2.9 0 .8 0 .8-.2.2-.2-.8-.3-.7-1 .4l-.4.5zm-14.4-4.7a7 7 0 0 1-1.3-1.5c0-.2-.3-.3-.6-.3s-.4-.2-.4-.3c0-.2-.8-1-1.7-1.7-1-.9-1.8-1.9-1.9-2.4 0-.5-.3-1-.5-1s-.3-.2-.3-.5c0-.4.2-.6.3-.6s.4-.5.5-1c.1-.6.4-1 .5-1 .2 0 .3-.4.3-.7s.1-.6.2-.6c.2 0 .5-.5.7-1.1a13 13 0 0 1 1.7-3c.5-1 1.1-1.6 1.4-1.6.3 0 .4.1.1.2-.2.2-1.4 2-2.6 4.2-3 5.5-3 5.9.6 9.2 3.9 3.6 6.2 6.5 3 3.7zm2.6-3.4a38.2 38.2 0 0 1 4.5-10.4c.2 0 .3 0 .3-.3 0-.5.9-1.8 1-1.5.1 0-.5 1.2-1.4 2.6a44.2 44.2 0 0 0-3 6.5c-1 2.2-1.5 3.6-1.4 3zm1-11a31.6 31.6 0 0 0-2.7-2.3c-.7-.5-.7-.6-.2-.6.3 0 1.3.7 2.2 1.6l1.9 1.7.6.6c1 1.1 0 .6-1.9-1zm9.6 1c.3-.3.7-.5.8-.4.2.1.3 0 .3-.2 0-.3.1-.4.3-.2.3.2.1.5-.4.8-1 .8-1.8.8-1 0zm20 0a5.4 5.4 0 0 0-4.2-.5c-.9.4-.8-.2 0-1.3a5.2 5.2 0 0 1 4.1-1.7c1.8 0 1.4.6-.5.7-1.6.1-3.3.8-3.3 1.3 0 .2.5.2 1 .1 1.2-.2 4 1 4 1.6 0 .5 0 .5-1.1-.3zm-16.3-.5c-.7-.1-1.4-.4-1.5-.6-.3-.3 0-.4 1-.2.7.1 1.3 0 1.3-.1 0-.6-1.9-1.4-3.5-1.5-.8 0-1.3-.1-1.2-.4.4-.5 3.5.1 4.7 1 .8.7 1.4 2.2.7 2l-1.5-.2zm-7.8-2.8c.2-.3.6-.6.8-.6s.4-.4.6-.8c.3-.6.2-1-.1-1.4a2.8 2.8 0 0 1-.5-1.5c0-.4-.1-.8-.3-.8s-.3-.5-.3-1-.1-1-.3-1l-.6-1.8c-.5-2-.2-3 1-4.1 1-1.1 1.3-.7.3.4-1.4 1.3-1.3 2.4 0 6.7a73.4 73.4 0 0 0 1.3 3.6c0 .1.7-.3 1.3-.8 1.7-1.4 4.7-3.1 6.6-3.7.9-.3 1.6-.7 1.6-1 0-.7-2-6.7-2.6-7.5-.8-1.2-1.8-1-4.6.6-1.6.9-2.4 1.1-2.3.8.1-.4.4-.6.6-.6.5 0 .8-.1 2.2-1.1a4.9 4.9 0 0 1 3.6-.7c.7.2 1 .6 1.4 1.7l1.1 3.2c.7 1.9 1 3.5 1 4 0 .1.3.3.7.3s-.4.3-1.7.6c-2.7.6-7.3 3.4-9.3 5.7-1.2 1.4-2.5 2-1.5.8z" fill="#473c43"/><path d="M332 148.5c-.1-.2 0-.4.1-.4.2 0 .4.2.5.4.1.3 0 .4-.1.4s-.4-.1-.5-.4zm9.8-1.7l1.6-2 .8-.7-1.4 2c-1 1.3-2 2.4-2.2 2.4s.3-.7 1.2-1.7zm-5.7.2l.1-.8h.3c.2.2.3.5.3.8s-.1.2-.3.1-.3 0-.4.1v-.2zm-6.6-1l-1-1.8a3.6 3.6 0 0 0-1-.9c-.5-.3-.6-.4-.2-.3 1.6.7 4.4 1 8 1 2.1 0 4 .2 4.3.5.5.4-7.9.2-10-.3l-1-.2 1.3 1.6c.7 1 1.1 1.7.9 1.7-.2 0-.8-.6-1.3-1.4zm11.2-2l-.9-.3h1a2.4 2.4 0 0 1 1.3.3c.5.4.5.4 0 .4a8.5 8.5 0 0 1-1.4-.4zm-15-1.5c-.1-.5 0-.5.3-.1.6.6.6.8.2.8l-.5-.7zm19.9 0c.2-.3.6-.5.8-.5s0 .2-.2.4l-.8.4c-.2 0 0-.2.2-.4zm-21.1-1a.5.5 0 0 0-.7-.1c-.3 0-.4 0-.3-.2.1-.2-.3-1.1-.9-2-.6-1-1-2-.9-2.2.1-.2.4.2.7.9.2.7 1 1.9 1.6 2.7.7.8 1.1 1.4 1 1.4s-.4-.2-.5-.4zm25-1.3a24.6 24.6 0 0 0 5-6c1.4-2.5 1.8-2.9 1-1-.5 1.1-4.6 6.4-5.5 7-.9.7-1.3.7-.6 0zm-30.8-3.4c-1.8-2.3-3.2-5-2.7-5a31.8 31.8 0 0 0 5 7.1c.5.4.5.6.2.6-.2 0-1.4-1.2-2.5-2.7zm17.7 2c.3 0 .9-.4 1.2-.8.6-.7.6-.7 0 .2-.3.5-.9 1-1.2.9-.6 0-.6 0 0-.2zm13.3-1.5c.5-1.6.7-3.2.9-7.1l.2-5.1v4.5c.1 4.7-.4 7.8-1.4 9.1-.2.4-.1-.1.3-1.4zm-15.7-1c0-1 .9-2 1.4-1.8.4.2.4.4.1.8-.2.3-.5.6-.7.6s-.5.2-.6.5c0 .3-.2.2-.2-.2zm-13-1.3c-.2-2.3-.2-9.4.2-11.7a17 17 0 0 1 7.1-10.9 14.1 14.1 0 0 1 16.2.8c2.8 2.2 6.3 8 6 10 0 .3-.5-.7-1.1-2.1-2.2-5.7-7-9.7-12.5-10.3a15 15 0 0 0-11.3 4.7c-1 1-3.8 6-3.8 6.7l.7.3c.6.2.6.2-.1.3-.8 0-.9.2-1 1.9a63.5 63.5 0 0 0 .2 11.6c-.2 0-.4-.6-.5-1.3zm17.5-.4l.2-2-2.3-.3h1.3c1.2 0 1.3 0 1.3.8l-.3 2.2c-.2 1-.3.8-.2-.7zm-13.1 0l-1-1c-.1-.1-.1-.3 0-.4s.5.2.9.6.7.8.8.7c.1-.2 0-.5-.3-.8-.4-.4-.6-1-.5-2 .2-1.1.2-1.2.4-.5.2 1 2 1.6 2.2 1 .2-.3.3-.3.5-.2.1.1.3 0 .5-.2 0-.2-.1-.4-.4-.4-.4 0-.5-.1-.2-.4.3-.2.3-.6.2-1-.2-.8-.2-.8.3-.3.3.3.5 1 .5 1.6 0 1.3-1.1 3-1.8 2.6-.4-.2-.4 0-.1.4.3.4.5.4 1 0 .3-.3.6-.3.6-.1 0 .4-1.6 1.3-2.3 1.3-.2 0-.8-.4-1.3-1zm1.6-1.6c0-.2 0-.4-.2-.4-.1 0-.3.2-.3.4l.1.4.4-.4zm1.5 0c.1-.2 0-.4 0-.4-.3 0-.5.2-.6.4l.1.4c.2 0 .4-.2.5-.4zm15.3 1.4c-.3-1 0-1 .6-.1.5.7.5.8 0 .8-.2 0-.5-.3-.6-.7zm.6-.7a4.7 4.7 0 0 1-1-2.1c0-.5-.2-1-.3-1.3-.5-.5.6-2.3 1.4-2.4.4-.1.3.1-.3.8-.8.9-.9 1-.4 1.8.2.5.5.8.6.6s.2 0 .2.4.3.7.5.7c.4 0 .5.2.4.7-.2.7-.2.7.2 0 .2-.4.6-.7.8-.7.2 0 .3-.3.3-.6s.1-.6.3-.6c.1 0 .2.5.1 1 0 .8 0 1 .2.9.2-.2.4-.1.5 0 .1.3-.2.4-.6.3-.7-.2-.8-.1-.5.6.3.7.2.7-.3.5-.5-.1-.6 0-.5.3.5 1-.6.4-1.6-.9zm-10.7.2c0-.6.1-.8.5-.6.3.1.4.4.2.5l-.5.6c-.1.2-.2 0-.2-.5zm-4.2-1.5c.3-2 .4-2.4.4-.8 0 .7-.1 1.5-.3 1.8-.2.4-.2.1 0-1zm13.5.8c-.3-1-.3-1.3.1-.5.2.5.3.9.2 1 0 0-.2-.1-.3-.5zm-20-.2c0-.2.2-.3.4-.2s.3.4.3.5l-.3.1c-.2 0-.3-.2-.3-.4zm11.6-.4l-1-.3h1.1c.7 0 1.2 0 1.2.3v.4l-1.3-.4zm14.6 0c0-.2.2-.4.3-.4l.1.4c0 .2-.1.4-.3.4-.2 0-.2-.2-.1-.4zm-33.8-1.6v-.7s.2.1.3.5c.2.7 0 .8-.3.2zm8.8-.9c.2-.3.5-.4.6-.3.1.2 0 .4-.4.5-.4.3-.5.2-.2-.2zm23.1 0l.3-.3c.1 0 .2.1.2.4 0 .2-.2.4-.4.4s-.2-.2-.1-.4zm1.6-.4c.1-.4.3-.6.5-.5.4.3.3 1.2-.2 1.2-.2 0-.4-.3-.3-.7zm7.5 0c.1-.4.3-.6.5-.5.2.1.1.5 0 .8-.6.8-.7.7-.5-.2zm-41.9-1c-.2-2 0-2.2.4-.4.1.8.2 1.5 0 1.7 0 0-.3-.5-.4-1.3zm14.5.5c-.2-.4-.7-.7-1-.7-.6-.2-.6-.2-.2-.4.3-.2.8 0 1.2.7l.6 1-.6-.6zm-4.8-1.5c-.3-.4.7-1.3 1-1a.9.9 0 0 1 .4.6c0 .4-1.2.8-1.4.4zm2 .2a1 1 0 0 1 .7 0c.2 0 0 .2-.4.2s-.6-.1-.4-.2zm21.6-.2c-.3-.2-.4-.5-.3-.6.2-.2.4-.1.6.1.5.6.2 1-.3.5zm9.5-1.5c.3-1 .5-2.3.5-2.8 0-.6.1-1 .3-1 .2 0 .3.4.2 1a27 27 0 0 0-.4 2.6c-.1.9-.4 1.8-.6 1.9-.3.1-.3-.2 0-1.7zm-11.8 1.2h.6c.1.2 0 .3-.4.3s-.4-.1-.2-.3zm-31.8-2.3c-.2-.6-.2-1.1 0-1.2.1-.2.3.3.4.9.2 1.4 0 1.5-.4.3zm10-3h.5c.1.2 0 .3-.4.3-.3 0-.4-.1-.2-.3zm1.5-1.3c.3-.7.6-1.1.6-1 .2.1-.6 2.2-.9 2.2-.1 0 0-.5.3-1.2zm32.8-2.7c-.4-8-2.2-13.1-6.5-19.2l-1.7-2.4 2 2.4a27 27 0 0 1 5.9 12.8l.6 2.9 2.2-2.1a455 455 0 0 1 3.2-3.1l1.1-1-1.2 1.5c-.6.8-1.2 1.5-1.4 1.5l-.9.7c-.4.4-1 1.2-1.7 1.7l-1.2.9-.2 7.5zm-44.4-.8c.1-5.5.1-5.5.5-5.3v.7l-.4 4.8-.3 4.3zm31.3 4h.6c0 .2 0 .3-.4.3s-.5-.2-.2-.3zm-17.7-1c0-.5 0-.7.1-.4v1l-.1-.5zm1.6.6a4 4 0 0 1 1.5 0c.4 0 0 .2-.8.2-.9 0-1.2-.1-.7-.2zm12.5 0h1c.1.1-.1.2-.6.2-.6 0-.7-.1-.4-.2zm1.8-1.7c-.4-1-.5-1.5-.2-1 .8 1.1 1.5 3 1.2 3a6 6 0 0 1-1-2zm-8.7 1.3c.9-.1 1.2-.4 1.3-1 0-.8.1-.8.1.2s0 1-1.2 1h-1.4zm2.6 0l-.2-.7c0-.3.1-.3.3 0 .1.3.8.6 1.4.7l1.3.1-1.3.1c-.7 0-1.4 0-1.5-.2zm5.2-.8c0-.5 0-.6.2-.2v.8c-.2 0-.3-.1-.2-.6zm-16.1-1c.3-.9 1-2 1.4-2 .1 0 .2.4.2 1 0 .7 0 .8-.2 0-.2-.6-.3-.6-1 .5l-.4.5zm15.6-.8c-.2-.5-.2-1 0-1 0-.2.2.1.3.6v1c0 .2-.2-.1-.3-.6zm-30.1-4c-.4-.5-.8-.9-1-.9s-.4-.1-.4-.3c0-.2-.7-1-1.6-1.7a10 10 0 0 1-2.1-2.2 38.9 38.9 0 0 1 6.3 5.7c0 .4-.6.1-1.2-.7zm2.6-3.3a39.6 39.6 0 0 1 4.5-10.4c.2 0 .3 0 .3-.2 0-.6.9-1.9 1.1-1.6 0 0-.5 1.1-1.3 2.3a33.1 33.1 0 0 0-4.2 9.5c-.5 1-.6 1.2-.4.4zm-8.6-4.3c0-.7.2-1.6.4-2 .3-.5.4-.6.3-.3a12.5 12.5 0 0 0-.5 2c-.2 1.5-.2 1.5-.2.3zm60-1.1a44 44 0 0 0-4.5-8.2c-.5-.4-2-.4-2.2 0-.1.3-.4.5-.6.5-.2 0 0-.4.4-.8.8-.9 2.2-1.1 2.2-.4 0 .2.2.4.5.4s.6.5 1 1.2c.2.7.6 1.2.7 1.2s.3.2.3.4c0 .3.5 1.3 1.1 2.4 1.2 2 1.8 3.6 1.6 4.3l-.4-1zM307 102c.3-.5.7-.8.9-.8.1 0 0 .4-.3.8-.3.5-.7.8-.8.8s0-.4.2-.8zm8-2.6c-2.3-2.1-2.5-2.3-2-2.3l1.2 1 2 2c.8.6 1.2 1 .8 1 0 0-1-.7-2-1.7zm9.8 1.3c.3-.3.9-.6 1.2-.6.6-.1.5 0-.1.5-.4.3-1 .6-1.3.6-.3 0-.3-.2.2-.5zm20-.2a5.4 5.4 0 0 0-4.2-.3c-.8.3-.8-.3 0-1.3a5.5 5.5 0 0 1 4-1.8c2 0 1.5.6-.5.7-1.5.1-3.5 1-3.5 1.6l1.2-.1c1.3-.3 4 .8 4 1.5 0 .5.1.5-1-.3zm9.9-.1c0-.3 0-.4.3-.4.2 0 .2.1.1.4 0 .2-.2.4-.3.4l-.1-.4zm-26-.3c-.6-.1-1.2-.4-1.4-.6-.2-.3.1-.3 1-.1.9.2 1.3.1 1.3-.2 0-.2-.6-.7-1.3-1-.8-.4-1-.6-.7-.7.9 0 2.6 1.4 2.6 2.2 0 .4-.1.6-.2.6l-1.3-.2zm-19.5-1.7c.4-1 1-1.7 1.3-1.7.4 0 .3.1-.1.7l-1.4 1.7c-.6 1-.6.9.2-.7zm11.7-1c.2-.4.5-.7.7-.7.2 0 .1.3 0 .6-.3.3-.6.6-.8.6-.2 0-.1-.3 0-.6zm3.6 0c0-.1.7-.3 1.3-.3 1.4 0 1.3.2-.3.5-.7.2-1.1.1-1-.1zm-1.5-2.3c2.1-2.4 7.2-5 9.6-5 1 .1 1 .2-1 .6-2.5.6-4.7 1.8-7.6 4-1.8 1.5-2 1.5-1 .4zm24.6-.3a21.5 21.5 0 0 0-8.6-4.2l-2-.4 2 .1 3 .4a31 31 0 0 1 6.7 4.3c1.3 1.4.6 1.2-1-.2zm-26-1.6c0-.3-.1-.7 0-.8 0-.1.2.1.3.6.2 1 0 1.1-.3.2zm27.7.3c0-.6.6-1.4.7-1 .1.2 0 .5-.2.8-.3.3-.5.4-.5.2zM320.8 91c0-.5-.3-1.3-.4-1.8-.4-1.4.1-.4.6 1.2.3.8.4 1.5.2 1.5s-.3-.4-.4-1zm18.1-1.9c.1-.5.3-1 .5-1.1.4-.4.3.4-.2 1.3-.4.7-.5.7-.3-.2zm12.2-1.6c.2-1.4 0-1.7-.6-2.4-.5-.5-.8-1-.7-1 .1-.2.6 0 1 .6.6.7.7 1.2.7 2.6 0 1-.2 1.7-.3 1.7s-.2-.7 0-1.5zm-20-1.3c-1-2.8-1-2.9-.6-2.9l.7 1.8c.2 1 .5 2 .7 2 .2 0 .3.5.2 1 0 .5-.4 0-1-1.9zM320 87a3.1 3.1 0 0 1 .8-2.3c.5-.6.9-1 1-.9 0 .1-.2.6-.7 1-.5.5-.8 1.4-1 2.2v1.3zm19.6 0c0-.3.3-.9.5-1.2.6-.8.6-.2 0 .9-.3.4-.5.5-.5.2zm1.3-3.8c.3-.8.8-1.7 1-1.8 0-.1-.1.6-.6 1.6-1 2.3-1.3 2.4-.4.2zm7.8.4c-.2-.2-.4-.4-.3-.6.2-.1.4 0 .6.4.5.7.4.8-.3.2zm-1.6-.8c-.2-.2-.3-.4 0-.4.2 0 .4.2.5.4.3.5.1.5-.5 0zm-17.4-1c-.4-.8-.4-.8.1-.1.3.4.5.8.4.9 0 0-.3-.2-.5-.7zm-4.2.1c.2-.2.5-.4.6-.2 0 0-.1.3-.4.5-.5.2-.5.1-.2-.3z" fill="#484339"/><path d="M332 148.5c-.1-.2 0-.4.1-.4.2 0 .4.2.5.4.1.3 0 .4-.1.4s-.4-.1-.5-.4zm9.8-1.7l1.6-2 .8-.7-1.4 2c-1 1.3-2 2.4-2.2 2.4s.3-.7 1.2-1.7zm-12.3-.8l-1-1.8a3.6 3.6 0 0 0-1-.9c-.5-.3-.6-.4-.2-.3 1.6.7 4.4 1 8 1.1 2.2 0 4.2.2 4.4.4.4.4-8.2.2-10-.3l-1.2-.2 1.4 1.6c.7 1 1.1 1.7.9 1.7-.2 0-.8-.6-1.3-1.4zm11.2-2l-.9-.3h1a2.4 2.4 0 0 1 1.3.3c.5.4.5.4 0 .4a8.5 8.5 0 0 1-1.4-.4zm-15-1.4c-.1-.6 0-.6.3-.2.6.6.6.8.2.8l-.5-.6zm19.9-.2l.8-.4c.2 0 0 .2-.2.4l-.8.4c-.2 0 0-.2.2-.4zm-21.1-.8a.5.5 0 0 0-.7-.2c-.2 0-.4 0-.3-.2.1-.2-.3-1.1-.9-2.1-.6-1-1-1.9-.9-2 .1-.1.3.2.5.6.2.5 1 1.6 1.7 2.6s1.2 1.7 1 1.7-.3-.2-.4-.4zm25-1.4a24.6 24.6 0 0 0 5-6c1.4-2.5 1.8-2.9 1-1-.5 1.1-4.6 6.4-5.5 7-.9.7-1.3.7-.6 0zm-30.8-3.4c-1.8-2.3-3.2-5-2.7-5a31.8 31.8 0 0 0 5 7.1c.5.4.5.6.2.6-.2 0-1.4-1.2-2.5-2.7zm17.7 2c.3 0 .9-.4 1.2-.8.6-.7.6-.7 0 .2-.3.5-.9 1-1.2.9-.6 0-.6 0 0-.2zm13.3-1.5c.5-1.6.7-3.1.9-7.1l.2-5.1v4.5c.1 4.7-.4 7.8-1.4 9.1-.2.4-.1-.2.3-1.4zm-15.7-1c0-1 .9-2 1.4-1.8.4.2.4.4.1.8-.2.3-.5.6-.7.6s-.5.2-.6.5c0 .3-.2.2-.2-.2zm-13-1.3a69 69 0 0 1 0-10c.1-.2.2 1.7.2 4.2 0 4.5 0 5.1.5 6.4l-.1.7c-.2 0-.4-.6-.5-1.3zm17.5-.4l.2-2-2.3-.3h1.3c1.2 0 1.3 0 1.3.8l-.3 2.2c-.2 1-.3.8-.2-.7zm-13.1 0l-1-1c-.1-.1-.1-.3 0-.4s.5.2.9.6.7.8.8.7c.1-.2 0-.5-.3-.8-.4-.4-.6-1-.5-2 .2-1.1.2-1.2.4-.5.2 1 2 1.6 2.2 1 .2-.3.3-.3.5-.2.1.1.3 0 .5-.2 0-.2-.1-.4-.4-.4-.4 0-.5-.1-.2-.4.3-.2.3-.6.2-1-.2-.8-.2-.8.3-.3.3.3.5 1 .5 1.6 0 1.3-1.1 3-1.8 2.6-.4-.1-.4 0-.1.4.3.4.5.4 1 0 .3-.2.6-.3.6-.1 0 .4-1.6 1.3-2.3 1.3-.2 0-.8-.4-1.3-1zm1.6-1.6c0-.2 0-.4-.2-.4-.1 0-.3.2-.3.4l.1.4.4-.4zm1.5 0c.1-.2 0-.4 0-.4-.3 0-.5.2-.6.4l.1.4c.2 0 .4-.2.5-.4zm15.3 1.4c-.3-1 0-1 .6-.1.5.7.5.8 0 .8-.2 0-.5-.3-.6-.7zm.6-.7a4.7 4.7 0 0 1-1-2.1c0-.5-.1-1-.3-1.3-.5-.5.6-2.3 1.4-2.4.4-.1.3.1-.3.8-.8.9-.9 1-.4 1.8.2.5.5.8.6.6s.2 0 .2.4.3.7.5.7c.4 0 .5.2.4.7-.2.7-.2.7.2 0 .2-.4.6-.7.8-.7.2 0 .3-.3.3-.6s.1-.6.3-.6c.1 0 .2.5.1 1 0 .8 0 1 .2.9.2-.2.4-.1.5 0 .1.3-.2.4-.6.3-.7-.2-.8-.1-.5.6.3.7.2.7-.3.5-.5-.1-.6 0-.5.3.5 1-.6.4-1.6-.9zm-10.7.2c0-.6.1-.8.5-.6.3.1.4.4.2.5l-.5.6c-.1.2-.2 0-.2-.5zm-4.2-1.5c.3-2 .4-2.4.4-.8 0 .7-.1 1.5-.3 1.8-.2.4-.2.1 0-1zm13.5.8c-.3-1-.3-1.3.1-.5.2.5.3.9.2 1 0 0-.2-.1-.3-.5zm-20-.2c0-.2.2-.3.4-.2s.3.4.3.5l-.3.1c-.2 0-.3-.2-.3-.4zm11.6-.4l-1-.3h1.1c.7 0 1.2 0 1.2.3v.4l-1.3-.4zm14.6 0c0-.2.2-.4.3-.4l.1.4c0 .2-.1.4-.3.4-.2 0-.2-.2-.1-.4zm-33.8-1.6v-.7s.2.1.3.5c.2.7 0 .8-.3.2zm8.8-.9c.2-.3.5-.4.6-.3.1.2 0 .4-.4.5-.4.3-.5.2-.2-.2zm23.1 0l.3-.3c.1 0 .2.1.2.4 0 .2-.2.4-.4.4s-.2-.2-.1-.4zm1.6-.4c.1-.4.3-.6.5-.5.4.3.3.8-.2 1-.3.2-.4 0-.3-.5zm7.5 0c.1-.4.3-.6.5-.5.2.1.1.5 0 .8-.6.8-.7.7-.5-.2zm-41.9-1c-.2-2 0-2.2.4-.4.1.8.2 1.5 0 1.7 0 0-.3-.5-.4-1.3zm14.5.5c-.2-.4-.7-.7-1-.8-.7-.2-.7-.2 0-.2.3 0 .8.3 1.2.7l.4.9-.6-.6zm-4.8-1.5c-.3-.4.7-1.3 1-1a.9.9 0 0 1 .4.6c0 .4-1.2.8-1.4.4zm2 .2a1 1 0 0 1 .7 0c.2 0 0 .2-.4.2s-.6-.1-.4-.2zm21.6-.2c-.3-.2-.4-.5-.3-.6.2-.2.4-.1.6.1.5.6.2 1-.3.5zm9.5-1.5c.3-1 .5-2.3.5-2.8 0-.6.1-1 .3-1 .2 0 .3.4.2 1-.2.4-.3 1.6-.4 2.6-.1.9-.4 1.8-.6 1.9-.3.1-.3-.2 0-1.7zm-11.8 1.2h.6c.1.2 0 .3-.4.3s-.4-.1-.2-.3zm-31.8-2.5c-.2-.5-.2-1 0-1 .1-.2.3.2.4.8.2 1.2 0 1.3-.4.2zm7.5-1.5c0-1.2 0-1.2 1-1 1 .2 1 .2.2.3-.6.1-.9.5-1 1 0 .7-.1.6-.2-.3zm29.1-.5c0-.6-.1-1-.2-.8-.1.2-.6-.6-1-1.6a15.1 15.1 0 0 0-7.2-8.1c-1.5-.8-1.6-1-.9-1 1.3 0 4.4 2.3 6.3 4.8 1.8 2.3 3.4 5.8 3.2 7-.1.4-.2.3-.2-.3zm-26.7-.8h.6c.1.2 0 .3-.4.3-.3 0-.4-.1-.2-.3zm1.6-1.3c.3-.7.6-1.1.6-1 .2.1-.6 2.2-.9 2.2-.1 0 0-.5.3-1.2zm33-1.2a76 76 0 0 0-.4-5c-.3-2.4-.2-3.3.2-1.2l.2 1.2 2.2-2 3.3-3.1 1.1-1.1-1.2 1.5a6 6 0 0 1-1.4 1.5l-.9.7c-.4.4-1 1.2-1.7 1.7l-1.2.9v3.8c-.2 3.2-.2 3.4-.3 1zm-44.8-1.3c0-1.9.1-3.8.3-4.2v2.8c0 5-.3 5.6-.3 1.4zm8.1 3l1.1-2.4a16.2 16.2 0 0 1 3.6-4.8c1-.9 2.5-2 2.7-1.8 0 .1-.5.7-1.3 1.3a15.6 15.6 0 0 0-4.7 6c-.6 1.5-1.4 2.6-1.4 1.8zm23.4 0h.6c.1.2 0 .3-.4.3s-.5-.2-.2-.3zm-17.7-1c0-.5 0-.7.1-.4v1l-.1-.5zm1.6.6a4 4 0 0 1 1.5 0c.4 0 0 .2-.8.2-.9 0-1.2-.1-.7-.2zm12.5 0h1c.1.1-.1.2-.6.2s-.7-.1-.4-.2zm1.8-1.7c-.4-1-.5-1.5-.2-1 .8 1.1 1.5 3 1.2 3a6 6 0 0 1-1-2zm-8.7 1.3c.9-.1 1.2-.4 1.3-1 0-.8.1-.8.2.2 0 1 0 1-1.3 1h-1.4zm2.6 0l-.2-.7c0-.3.1-.3.3 0 .1.3.8.6 1.4.7l1.3.1-1.3.1c-.7 0-1.3 0-1.5-.2zm5.2-.8c0-.5 0-.6.1-.2.1.3.1.6 0 .8 0 0-.2-.1-.1-.6zm-16.1-1c.3-.9 1-2 1.4-2 .1 0 .2.4.2 1 0 .7 0 .8-.2 0-.2-.6-.3-.6-1 .5-.3.6-.6.9-.4.5zm15.6-.8c-.2-.5-.2-1 0-1 0-.2.2.1.3.6v1c0 .2-.2-.1-.3-.6zm-30.1-4c-.4-.5-.8-.9-1-.9s-.4-.1-.4-.3c0-.2-.7-1-1.6-1.7a10 10 0 0 1-2.1-2.2 38.9 38.9 0 0 1 6.3 5.7c0 .4-.6.1-1.2-.7zm17.8-2c.2-.4 2.6-1.3 3.5-1.3 1 0 .2.7-1 .9l-2 .5c-.4.2-.6.2-.5 0zm27.7-1c-.1-.8 0-1 .1-.8.2.2.3.7.2 1.1-.1.6-.2.5-.3-.4zm-18.5.3c0-.2-1-.3-2-.4-.9 0-1.8-.3-1.9-.4-.1-.2.8-.2 2 0l2.8.3c.4 0 .6.2.6.4-.2.3-1.2.4-1.5 0zm17.3-4.5l-.6-1.9c0-.2-.2-.4-.4-.4s-.2-.1-.1-.3c0-.2 0-.5-.3-.6a.9.9 0 0 1-.5-.7c0-1 1 .6 2 3 1 2.6 1 3.1 0 .9zm-50.3-.4c0-.7.2-1.6.5-2 .2-.5.3-.6.2-.3a12.5 12.5 0 0 0-.5 2c-.2 1.5-.2 1.5-.2.3zm10.4-1.4c.6-1.2 1.4-2.7 1.8-3.2s.8-1.2.7-1.3.1-.3.4-.3c.3 0 .2.4-.4 1.2a16 16 0 0 0-2.3 4.3l-.5 1c-.4.3-.2-.3.4-1.7zm49.7.3A44 44 0 0 0 361 97c-.5-.4-2-.4-2.2 0-.1.3-.4.5-.6.5-.2 0 0-.4.4-.8.8-.9 2.2-1.1 2.2-.4 0 .2.2.4.5.4s.7.5 1 1.2c.3.7.6 1.2.8 1.2s.2.2.2.4c0 .3.5 1.3 1.1 2.4 1.2 2 1.8 3.6 1.6 4.3l-.4-1zM307 102c.3-.5.7-.8.9-.8.1 0 0 .4-.3.8-.3.5-.7.8-.8.8s0-.4.2-.8zm44.7-2.8l-1.9-2.7 2 2.4c2 2.5 2.5 3.1 2 3l-2.1-2.7zm-36.7.2c-2.3-2.1-2.5-2.3-2-2.3l1.2 1a21 21 0 0 0 2 2c.8.6 1.2 1 .8 1 0 0-1-.7-2-1.7zm9.7 1.5c.3-.1.6-.3.6-.5 0-.1.3-.3.7-.3.7 0 .6 0-.1.5-.4.3-1 .5-1.3.5-.3 0-.3 0 .1-.2zm20.1-.4a5 5 0 0 0-4.1-.4c-.4.2-.7.2-.7 0 0-1.3 2.6-3 4.7-3 1.9 0 1.4.6-.6.7-1.5.1-3.5 1-3.5 1.6l1.2-.1c1.3-.3 4 .8 4 1.5 0 .5.1.5-1-.3zm9.8-.1c0-.3.2-.4.4-.4s.2.1.1.4c0 .2-.2.4-.3.4l-.1-.4zm-25.9-.3c-.6-.1-1.2-.4-1.4-.6-.2-.3.1-.3 1-.1 1 .2 1.3.1 1.3-.3 0-.3.1-.4.3-.2.3.4.4 1.5.1 1.4l-1.3-.2zm-19.5-1.7c.4-1 1-1.7 1.3-1.7.4 0 .3.1-.1.7l-1.4 1.7c-.6 1-.6.9.2-.7zm18.9-.3c-.8-.4-1-.5-.5-.6a2 2 0 0 1 1.3.6c.7.7.6.7-.8 0zm-7-.8c0-.3.3-.6.5-.6s.1.2 0 .6l-.6.6v-.6zm3.4.2c0-.2.7-.4 1.3-.4 1.4 0 1.3.2-.3.5-.7.2-1.1.1-1-.1zm-2-1.7c.5-1 1.5-1.7 1.5-1.2 0 .3-.2.5-.4.5s-.6.3-1 .7c-.6.7-.6.7-.2 0zm25.7-.4a8 8 0 0 1-1-1.3l-.5-.3a9.7 9.7 0 0 1-1.8-1l-3.7-1.8c-1.9-.8-1.5-.9.8-.3 1.1.3 5.6 3.2 6.7 4.3 1 1.1.7 1.4-.5.4zm-23.7-1.5c.2-.4 2.8-2.1 3.2-2.1.3 0-2 1.8-2.8 2.2-.4.1-.5 0-.4-.1zm-2.9-.7c0-.3-.1-.7 0-.8 0-.1.2.1.3.6.2 1 0 1.1-.3.2zm27.7.4c0-.7.6-1.5.7-1.1.1.2 0 .6-.2.8-.3.3-.5.4-.5.2zm-28.5-2.7c0-.5-.3-1.3-.4-1.8-.4-1.4.1-.4.6 1.2.3.8.4 1.5.2 1.5s-.3-.4-.4-1zm7.6.5c.2-.2.7-.4 1-.4.3 0 .3 0 0 .4l-1 .4c-.4 0-.4 0 0-.4zm2-.8c.6-.4 3.5-.6 3.3-.3l-2 .4c-1.2.1-1.7.1-1.3-.1zm7.1-.3a2 2 0 0 1 1.1 0c.3 0 0 .2-.5.2s-.9-.1-.6-.2zm1.5-1.4c0-.4.2-.8.3-1 .4-.3.4.2 0 1-.2.6-.3.6-.3 0zm12.1-1.5c.1-1.4 0-1.7-.6-2.4-.5-.5-.8-1-.7-1 .1-.2.6 0 1 .6.6.7.7 1.2.7 2.6 0 1-.2 1.7-.3 1.7s-.2-.7 0-1.5zm-19.7-.4c-.3-1-.5-1.8-.4-2l.4.7c0 .6.3 1.1.5 1.2.2.2.2.6.2 1 0 .6-.3.3-.7-1zM320 87c0-1.3.1-1.7 1-2.6.6-.6.6-.5 0 .4a6 6 0 0 0-.8 2.2l-.2 1.2zm19.6-.2c0-.2.2-.7.5-1 .6-.9.6-.3 0 .8-.3.4-.5.5-.5.2zm1-2.9c.5-1.2.6-1.4.6-1 0 .3-.2.8-.5 1.3-.4.7-.5.7-.1-.3zm-10.2 0v-.7c.3-.3.6.2.4.8 0 .4-.2.4-.4 0zm18.3-.3c-.2-.3-.4-.5-.3-.7.1-.1.4 0 .6.4.5.7.4.8-.3.3zm-1.6-.9c-.2-.2-.3-.4 0-.4l.5.4c.2.5.1.5-.5 0zm-17.4-1c-.4-.8-.4-.8.1-.1.3.4.5.8.4.9 0 0-.3-.2-.5-.7zm11.5.5l.5-.8c.5-.5.5-.5.2.2-.4.7-.7.9-.7.6z" fill="#383d42"/><path d="M332 148.5c-.1-.2 0-.4.1-.4.2 0 .4.2.5.4.1.3 0 .4-.1.4s-.4-.1-.5-.4zm9.8-1.7c2.6-3 3-3.4 1-.8-1 1.4-2 2.5-2.2 2.5s.3-.7 1.2-1.7zm-12-.4c-1.2-1.7-1.2-2.2 0-.7.6.7 1 1.4 1 1.5 0 .4-.5 0-1-.8zm1.9-2c-.6-.1.8-.2 3.3-.2 2.4 0 4.4.1 4.5.3.2.4-6.5.4-7.8 0zm9.2-.4c-1-.3-1-.3-.2-.3.5 0 1.2.1 1.4.3.6.5.4.5-1.2 0zm-11.8-.2a2 2 0 0 1 1 0c.4 0 .1.2-.5.2s-.8-.1-.5-.2zm-6.8-5.3c-.5-.8-.7-1.4-.6-1.4.2 0 .6.7 1 1.4.9 1.9.7 1.9-.4 0zm30.4-1.7c1.3-1.8 2.5-3.1 2.6-3 .1 0-4.5 6.1-4.8 6.2-.1 0 .8-1.5 2.2-3.2zm-34 0c-1.2-1.5-2.2-3-2.2-3.2 0-.2.6.5 1.3 1.5a28.7 28.7 0 0 0 2.6 3.2c.6.7 1 1.2.8 1.2-.2 0-1.4-1.2-2.6-2.7zm17.6 2c.4 0 1-.4 1.3-.8.6-.7.6-.7 0 .2-.3.5-.9 1-1.2.9-.6 0-.6 0 0-.2zm13.3-1.3c.3-.9.6-1.4.6-1.2.1.3-.8 2.8-1 2.8l.4-1.6zm-15.6-1.4c0-.5.1-.6.2-.3s.1.7 0 .8c-.1.1-.2-.1-.2-.5zm16.3-1.3c0-.4 0-.5.2-.2v.8c-.1 0-.2-.1-.2-.6zm-29.4-5.3c0-5 .2-4.4.4 1.4 0 1.8 0 3.3-.2 3.3s-.2-2.1-.2-4.8zm29.8 0a51.7 51.7 0 0 1 0 0zm4.7 3c.2-.4.3-.6.4-.5.1.1 0 .4-.2.7-.3.4-.3.4-.2-.2zm-21.5-.2h.6c.1.2 0 .3-.4.3-.3 0-.4-.1-.2-.3zm4.1 0a1 1 0 0 1 .8 0c.2.2 0 .2-.4.2s-.6 0-.4-.2zm-22.6-1.3v-.7s.2.1.3.5c.2.7 0 .8-.3.2zm41-1c.1-.4.3-.6.5-.6s.2.2 0 .6l-.6.6.1-.6zm-41.8-.6c0-1 .2-1.1.4-.3v.9c-.2.1-.4-.2-.4-.6zm34.4.1c0-.3.2-.5.3-.4.2.2.3.5.3.7 0 .2-.1.4-.3.4s-.3-.3-.3-.7zm-22.9-1.7h.6c.1.2 0 .3-.4.3-.3 0-.4-.1-.2-.3zm31.2-1.2c.3-1.6.5-1.7.5-.2 0 .7-.2 1.3-.4 1.3-.1 0-.2-.4 0-1.1zm-43.7-2c-.1-.3 0-.6.1-.8.2-.1.3.2.3.6 0 1-.2 1.1-.4.3zm44.2-.6c0-.6.1-1.2.3-1.4.4-.3.4.5 0 1.6-.3.8-.3.7-.3-.2zm-36.6-.5c0-1 0-1 1-1s1 0 .2.2c-.6.1-.9.5-1 1 0 .8-.1.8-.2-.2zm2.4-1.4h.6c.1.2 0 .3-.4.3-.3 0-.4-.1-.2-.3zm25.5-1.8a14.8 14.8 0 0 0-6-7.2c-1.2-.8-2.1-1.5-2-1.6.7-.3 4.5 2.5 6 4.5 1.9 2.4 3.4 5.5 3 6-.2.2-.6-.6-1-1.7zm9 .7c0-.7.1-1 .2-.5v1.2c0 .2-.2 0-.2-.7zm-44.6-2.3c0-1.6 0-2.3.1-1.5v3c0 .9-.1.2-.1-1.5zm8.3 2a18.5 18.5 0 0 1 7-8.4c.2.1-.4.7-1.2 1.3a15.2 15.2 0 0 0-4.8 6c-.8 2-1.7 2.9-1 1zm23.1.6h.6c.1.2 0 .3-.4.3s-.5-.2-.2-.3zm-19.6-.3c0-.2.1-.7.3-1 .1-.4.3-.5.3-.2l-.3 1c-.2.3-.3.4-.3.2zm3.5-.1h1.5c.4 0 0 .2-.8.2-.9 0-1.2-.1-.7-.2zm5.9-.4c.6-.1.9-.5 1-1 0-.8.1-.8.1.2s0 1-1 1c-.8 0-.9 0-.1-.2zm2.3 0l-.2-.7c0-.3.1-.3.3 0 .1.3.6.6 1.1.7l1 .2h-1c-.5 0-1 0-1.2-.2zm5.2-.8c0-.5 0-.6.2-.2v.8c-.2 0-.3-.1-.2-.6zm1-.7c-.5-.8-.5-.8 0-.2.4.4.6.8.5 1-.1 0-.4-.3-.6-.8zm15-1c0-1.1-.2-2.4-.3-3-.2-.7-.1-.9.2-.5.2.3.3 1.3.2 2.8 0 2.1-.1 2.2-.2.6zm-16.4.5c0-.3 0-.9-.2-1.3-.1-.7-.1-.7.2 0 .2.4.3 1 .2 1.2 0 .4-.1.4-.2 0zm-15-1.1c.2-.4.5-.7.7-.7.1 0 .2.3.2.7 0 .5 0 .5-.2.2 0-.4-.2-.4-.6 0-.5.5-.5.4-.1-.2zm-15.2-3.6c-.4-.4-.8-.8-1-.8s-.4-.1-.4-.3c0-.2-.7-1-1.6-1.7a10.2 10.2 0 0 1-2-2.1c-.2-.4 1 .7 2.9 2.4l3.2 3.2c0 .4-.5 0-1.1-.7zm48.2-.6a12 12 0 0 1 1.6-1.5l.6-.4-.6.8-1.6 1.5-1 .7zm-2.1 0c-.3-1-.3-1.3.1-.5.2.4.3.9.2 1 0 0-.2-.1-.3-.5zm-27.4-1.6c1.2-.8 3.4-1.3 3-.8l-1.4.6-2 .6c-.5.1-.4 0 .3-.4zm8.2-.4l-2.2-.6-1.8-.4 2.1.2a8.1 8.1 0 0 1 2.7.6c.4.3.4.4 0 .3-.2 0-.6 0-.8-.2zm18.6-.6c-.2-.7-.1-.8.1-.5.2.2.3.6.2 1 0 .2-.2 0-.3-.5zm5.2.4c.1-.2.6-.8 1.2-1.3l1-.9-1 1.3c-1 1.2-1.6 1.7-1.2.9zm-6.3-4.2c-.7-1.5-1-2.8-.9-2.8l1 2c.8 2.4.8 2.8-.1.8zm-40-1.6c.3-1 1-2.3 1.6-3s.7-.9.4-.4l-1.5 3c-1.2 2.5-1.6 2.8-.6.4zm50 .6c0-.4 0-.5.1-.2s0 .6 0 .8c-.1.1-.2-.1-.2-.6zm-60.4-.4l.4-1.2c.5-.7.5-.7.2.2-.5 1.3-.6 1.5-.6 1zm57.9-4.7c-1.3-2.2-2.1-4-2-4 .2 0 .5.3.6.8l.7 1.3a147.2 147.2 0 0 0 3 5.8l-2.3-3.9zm-9.2 2.2c-.4-.6-.4-.6.1-.1s.7.8.4.8l-.5-.7zM307 102c.3-.4.6-.7.7-.6.2.2-.6 1.4-1 1.4 0 0 0-.3.3-.8zm46-1.3l-1-1.4 1 1.2c1 1.2 1.2 1.5 1 1.5-.1 0-.6-.6-1-1.3zm-36.9-.4l-.7-.8.9.7.8.8c0 .3-.2.2-1-.7zm9 .2c.1-.3.3-.4.5-.3.4.3.4.4-.2.7-.3.2-.4 0-.3-.4zm20.2.3c-.3-.2-.4-.5-.3-.6l.6.2c.3.2.4.4.3.5-.1.1-.4 0-.6-.1zm9.3-.4c0-.3.2-.4.4-.4s.2.1.1.4c0 .2-.2.4-.3.4l-.2-.4zm-11-.5a3.2 3.2 0 0 0-1.8-.1c-.7.1-.7.1-.2-.3.6-.5 2.6-.2 2.9.5v.3l-1-.4zm-34.4-1.5c.4-1 1-1.7 1.3-1.7.3 0 .3.2-.2.7l-1.3 1.7c-.4.7-.4.4.2-.7zm18.6 1.3h1.1c.3 0 0 .2-.5.2s-.9-.1-.6-.2zm-14-1.4c-.6-.7-1-1.2-.8-1.2s.8.5 1.3 1.2c1.4 1.6 1.1 1.6-.4 0zm26.5 1l.5-.6c.5-.5.5-.5.1.1-.4.7-.6 1-.6.6zm1.2-1.1c0-.1.2-.3.5-.4.3-.2.4-.1.3.1-.2.4-.8.6-.8.3zm3.5-.7l-.8-.3h.8c.5 0 .9 0 .9.3v.4l-1-.4zm-19.7-.3h1c.2.1 0 .2-.6.2-.5 0-.7 0-.4-.2zm33.4-.5c.8-.8 2.2-1.1 2.2-.4 0 .2-.4.4-.8.4s-1.1.2-1.5.4c-.6.4-.6.3.1-.4zM348.1 95c-1-1-3.7-2.7-6-3.7-1.1-.5-1.3-.6-.6-.5a19.4 19.4 0 0 1 7.8 5c0 .3-.5 0-1.2-.8zm-26.5-1.6v-.6c0-.1.2 0 .3.4.2.7 0 .8-.3.2zm3.3.2c0-.2 2.6-1.9 2.7-1.7l-1.3 1-1.4.7zm24.7-1c0-.3.2-.3.3-.2l.4.4-.3.2c-.1 0-.4-.2-.4-.4zM321 91.2l.1-.6.3.6c.1.3 0 .6-.1.6-.2 0-.3-.3-.3-.6zm7.6.2c.9-.5 1.4-.5.8 0-.2.2-.7.4-1 .4-.2 0-.2-.2.2-.4zm1.7-.7h.6c.1.2 0 .3-.4.2-.4 0-.5 0-.2-.2zm9.4-.4h.6c0 .2-.1.3-.4.2-.4 0-.5 0-.2-.2zm-19.2-.8c-.3-1-.2-1.3.2-.4.2.4.3.8.2.9l-.4-.5zm11.3-1.6v-1c.2-.3.5.3.4 1-.1.8-.2.8-.4 0zm7.5.2c0-.2.2-.4.3-.4l.1.4c0 .2-.1.4-.3.4s-.2-.2-.1-.4zm-19.2-.6c0-.5 0-.6.2-.3v.8c-.2.1-.2-.1-.2-.5zm31.3-.7c0-1.2-.3-1.7-.9-2-.4-.3-.7-.6-.6-.8.1-.2.5 0 1 .6.6.7.7 1.2.6 2.3v1.4zm-11.7-.1c0-.4.2-.6.3-.6.2 0 .3.2.2.6l-.3.6-.2-.6zm-19.7-.5c0-.5.4-1 1.1-1.8.5-.4.5-.2-.1.7a50.3 50.3 0 0 0-1 1.1zm11.2-.4c-.3-1-.2-1.2.1-.4.2.4.3.8.2 1l-.3-.6zm9.5-1.8c.5-1.2.6-1.5.6-1 0 .3-.2.8-.5 1.3-.4.7-.5.7-.1-.3zm-10.2 0v-.7c.3-.4.6.2.4.8 0 .4-.2.4-.4 0zm18-.8c0-.3.1-.3.3-.2.2.1.3.3.3.4 0 .1-.1.2-.3.2s-.3-.2-.3-.4zm-18.7-1.3c-.4-.9-.4-.9.1-.2.3.4.5.8.4.9 0 0-.3-.2-.5-.7zm11.5.3l.5-.7c.5-.5.5-.5.2.2-.4.7-.7.9-.7.5z" fill="#493534"/><path d="M331.7 144.5c-.5-.2 1-.3 3.3-.3 2.4 0 4.4.2 4.5.4.3.3-6.6.2-7.8-.1zm8.8-.8h.6c.1.2 0 .3-.4.3s-.4-.1-.2-.3zm-17.8-4.5c-.4-.6-.4-.6.1-.1.6.5.7.9.5.9l-.6-.8zm13.8-.2l1-.9.7-.8-.6 1c-.3.4-.7.8-.9.8h-.2zm16.7-2.7c.3-.5.7-.8.8-.8l-.4.8-.8.8.4-.8zM334 136c0-.4.1-.5.2-.2s.1.6 0 .8c-.1.1-.2-.1-.2-.6zm0-3.7h.6c0 .2-.1.3-.5.3-.3 0-.4-.2-.1-.3zm4 0a1 1 0 0 1 .8 0c.2.1 0 .2-.4.2s-.6 0-.4-.2zm12.7-3a33.5 33.5 0 0 1 0 0zm-29.7.4c0-.7 0-1 .1-.7v1.5l-.1-.8zm28-.2c0-.3.2-.5.3-.4.2.2.3.5.3.7 0 .2-.1.3-.3.3s-.3-.2-.3-.6zm-22.9-1.7h.6c.1.2 0 .3-.4.3-.3 0-.4-.1-.2-.3zm-4.9-4.5c0-.7.2-.9.9-.9.7.1.7.1.1.3-.3 0-.7.5-.8.8-.1.5-.1.5-.2-.2zm23.7-2h.6c0 .2 0 .3-.4.2-.4 0-.4 0-.2-.2zm-31.4-2.8c0-1.6 0-2.2.1-1.3v2.9l-.1-1.6zm15.3 2.4a4 4 0 0 1 1.5 0c.4 0 0 .2-.8.1-.9 0-1.2 0-.7-.1zm5.9-.4c.6-.1.9-.5 1-1 0-.8.1-.8.1.1 0 1 0 1.2-1 1.1-.8 0-.9 0-.1-.2zm2.3 0l-.2-.7c0-.3.1-.3.3 0 0 .3.6.6 1.1.7l1 .1-1 .1c-.5 0-1 0-1.2-.2zm5.2-.8c0-.5 0-.6.2-.2v.7c-.2.2-.2 0-.2-.5zm1-.7c-.5-.9-.5-.9 0-.2.4.4.6.8.5 1-.1 0-.4-.3-.6-.8zm15-1l-.3-3c-.2-.7-.1-.9.2-.5.2.3.3 1.3.2 2.8 0 2.1-.1 2.2-.2.6zm-31.3-.7c.3-.4.6-.7.7-.6 0 .1-.2.5-.6.8-.6.5-.6.5-.1-.2zm-3.2-.4l.5-.7c.5-.5.5-.5.2.2-.4.6-.7.9-.7.5zm8.3-6c-.1-.2 0-.3.1-.3.2 0 .4.1.5.4.1.2 0 .4-.1.4s-.4-.2-.5-.4zm7 .2h.6c0 .1-.1.3-.4.2-.4 0-.5 0-.2-.2zm-13.8-10.6c0-.3.3-.5.4-.3.4.3.3.4-.2.7-.3.1-.4 0-.2-.4zm20 .3c-.2-.2-.3-.5-.2-.6l.6.1c.2.2.4.5.3.6-.1.1-.4 0-.6-.1zm-1.6-.9a3.2 3.2 0 0 0-1.8-.2c-.7.2-.7.2-.2-.2.6-.5 2.6-.2 2.9.5v.3l-1-.4zm-15.8-.2h1.1l-.5.1c-.5 0-.9 0-.6-.1zm12.5-.3l.5-.7c.5-.5.5-.5.1.1-.4.7-.6 1-.6.6zm1.2-1.3l.5-.4c.3 0 .4 0 .3.2-.2.4-.8.6-.8.2zm3.5-.6l-.8-.3h.8c.5-.1.9 0 .9.3v.4l-1-.4zm-19.6-.3h.9c.2.1 0 .2-.6.2-.5 0-.7 0-.4-.2zm34.5-.8h.6c.1.2 0 .3-.4.2-.4 0-.4 0-.2-.2zm-8.6-10c0-.7 0-1 .1-.7v1.5l-.1-.7zm-31-.9l.5-.7c.5-.5.5-.5.1.1-.4.7-.6 1-.6.6z" fill="#312f30"/></g></g></svg>