<svg viewBox="0 0 16 16" xmlns="http://www.w3.org/2000/svg"><rect x="4.1" y="3.3" width="7.9" height="9.4" ry="3.4" fill="#fff"/><path d="M7.2 14.8H7c-.2 0 0-.1 0-.1l-.2-.1-.5-.4-.5-.5h-.1-.2l-.2-.1-.3-.2a.3.3 0 0 0-.2-.1.3.3 0 0 1-.3-.2h-.1l-.2-.2-.2-.1a4.5 4.5 0 0 1-1.1-1.2l-.1-.2h-.1c-.1 0 0-.1 0-.2l-.1-.1-.1-.1v-.2h-.1v-.2l-.1-.2-.1-.2c-.1 0 0-.1 0-.4L2 9.4v-1l-.6-.6-.2-.1-.1-.1-.3-.2-.2-.2L.4 7c-.2-.2-.2-.2-.2-.7V6v-.1l.3-.3.2-.2.1-.3.2-.2.5-.5h.1l.2-.1H2.1l.2.2.2.1.2.2c0 .2.1 0 .2 0L3 5l.2.1c.2 0 0 0 0 0l.6-.3.4-.5V4l-.1-.2-.1-.1v-.1L4 3.4c0-.2 0 0 0 0l-.1-.2-.1-.1c-.1 0 0-.2 0-.4v-.4c0-.2.2-.3.3-.3h.1l.2-.1c.2 0 0 0 0 0l.2-.2H5l.3-.2h.1l.2-.1c.2 0 0 0 0 0l.5-.1c.4 0 .4 0 .7.2l.2.4v.2l.2.1V2.5h.1l.1.2c0 .2.1.3.8.3.5 0 .6 0 .6-.2v-.2l.1-.1v-.2c0-.2.1 0 .2 0V2 2l.1-.1.2-.3c.2-.2.3-.2.7-.2H10.6c.2 0 .1.1.1.1l.2.1.3.1.2.1.2.1c0 .1 0 0 0 0 .2 0 .6.5.6.6l.1.3V3a.3.3 0 0 1-.2.3.3.3 0 0 0-.1.2l-.1.2c-.1 0 0 0 0 .2l-.1.1c-.2 0 0 .3.4.7l.4.4.2-.1.3-.2.2-.2.3-.2.1-.1.4-.1h.4l.5.6.2.2c.2 0 0 0 0 .1l.3.3.2.2v.2c.2 0 .2.2.2.5v.4l-.3.3-.4.3-.3.2-.3.2-.1.1-.2.1-.2.2c-.2.1-.2.1-.2 1v1.3c0 .2-.1.2-.2.2v.2l-.1.2h-.1c-.1 0 0 .2 0 .2a.3.3 0 0 1-.2.3l-.1.2-.1.2-.2.1-.6.7-.2.1-.3.2-.2.1-.1.1c0 .1 0 0-.2 0v.1H11l-.1.1-.1.1h-.2l-.1.1c-.2 0-.4.2-.4.3l-.6.6-.2.1-.2.1c-.2 0 0 0 0 0l-.5.1h-.4H8h-.8zM5.9 11l-.1-.2c-.1 0-.2 0-.2.2s0 .2.2.2.1 0 .1-.2zm4.8 0c0-.2 0-.2-.2-.2l-.3.1c0 .2.2.3.4.3l.1-.2zm-.3-2V9l-.2-.1v-.2l-.2-.2-.9-.8-.3-.1-.2-.1c0-.1 0 0 0 0h-.2v.2h.1v.2l.1.2.1.2c.1 0 0 0 0 .2l.1.3v.1c0 .2 0 .2.4.2s.3 0 .3-.2v-.1l-.1-.2v-.2c.2 0 .7.5.7.6l.2.2zM7.7 5.8l.1-.2.2.2c.2.2.4.2.4.1h-.1L8 5.7l-.2-.2-.1.2-.3.2h-.1l.4-.1zm-.5 0L7 5.5H7c-.1 0 0 0 0 0V6h.2zm1.6 0c0-.1.1-.1 0-.2v-.1-.1l-.2-.1V5v.7c0 .1.1 0 .2 0zm-2.6-.1c.2 0 .4-.2.4-.3L6 5.3h-.5-.1l-.2.1.2.1c.2 0 0 0 0 0l.3.1h.1l.2.1zm3.8-.1h.3l.2-.1-.1-.1h-.1l-.6-.1H9c0 .2 0 .2.2.2l.4.1h.3zm-5-.3l.2-.2H5.5c.2 0 0-.1 0-.1l-.2-.1-.2-.1c0-.2 0-.2-.2 0v.5l.1.2c.1 0 0 0 0-.2zm2.2 0H7h.1c.1 0 0 0 0 0zm3.7-.2c0-.3 0-.4-.2-.5l-.2-.2h-.1l-.5-.1h-.4v.1s-.2 0-.3.2c-.2.1-.2.3-.1.3l.2-.1c.2 0 0 0 0 0l.2-.1.1-.1h1c0 .2 0 .2-.2.2l-.3.1.2.1c.2 0 .3.1.3.3h.1c.1 0 .2 0 .2-.2zm-4.2-.3l-.4-.4h-.1l-.4-.1h-.4v.1h-.2l.4.1h.5v.1l.2.1c0 .1 0 0 .1 0l.2.1z" fill="#fbcecc"/><path d="M7.2 14.8H7c-.2 0 0-.1 0-.1l-.2-.1-.5-.4-.5-.5h-.1-.2l-.2-.1-.3-.2a.3.3 0 0 0-.2-.1.3.3 0 0 1-.3-.2h-.1l-.2-.2-.2-.1a4.5 4.5 0 0 1-1.1-1.2l-.1-.2h-.1c-.1 0 0-.1 0-.2l-.1-.1-.1-.1v-.2h-.1v-.2l-.1-.2-.1-.2c-.1 0 0-.1 0-.4L2 9.4v-1l-.6-.6-.2-.1-.1-.1-.3-.2-.2-.2L.4 7c-.2-.2-.2-.2-.2-.7V6v-.1l.3-.3.2-.2.1-.3.2-.2.5-.5h.1l.2-.1H2.1l.2.2.2.1.2.2c0 .2.1 0 .2 0L3 5l.3.1s1-.9.9-1V4l-.1-.2-.1-.1v-.1L4 3.4c0-.2 0 0 0 0l-.1-.2-.1-.1c-.1 0 0-.2 0-.4v-.4c0-.2.2-.3.3-.3h.1l.2-.1c.2 0 0 0 0 0l.2-.2H5l.3-.2h.1l.2-.1c.2 0 0 0 0 0l.5-.1c.4 0 .4 0 .7.2l.2.4v.2l.2.1V2.5h.1l.1.2c0 .2.1.3.8.3.5 0 .6 0 .6-.2v-.2l.1-.1v-.2c0-.2.1 0 .2 0V2 2l.1-.1.2-.3c.2-.2.3-.2.7-.2H10.6c.2 0 .1.1.1.1l.2.1.3.1.2.1.2.1c0 .1 0 0 0 0 .2 0 .6.5.6.6l.1.3V3a.3.3 0 0 1-.2.3.3.3 0 0 0-.1.2l-.1.2c-.1 0 0 0 0 .2l-.1.1c-.2 0 0 .3.4.7l.4.4.2-.1.3-.2.2-.2.3-.2.1-.1.4-.1h.4l.5.6.2.2c.2 0 0 0 0 .1l.3.3.2.2v.2c.2 0 .2.2.2.5v.4l-.3.3-.4.3-.3.2-.3.2-.1.1-.2.1-.2.2c-.2.1-.2.1-.2 1v1.3c0 .2-.1.2-.2.2v.2l-.1.2h-.1c-.1 0 0 .2 0 .2a.3.3 0 0 1-.2.3l-.1.2-.1.2-.2.1-.6.7-.2.1-.3.2-.2.1-.1.1c0 .1 0 0-.2 0v.1H11l-.1.1-.1.1h-.2l-.1.1c-.2 0-.4.2-.4.3l-.6.6-.2.1-.2.1c-.2 0 0 0 0 0l-.5.1h-.4H8h-.8zm2.3-1.4v-.1l-.1-.4v-.4l.1-.1c0-.1 0-.2.2-.3.2-.2.2-.4.1-.4v-.1l-.1-.1v-.3-.2-.2c0-.2 0 0 .1 0v-.2l.2-.1h.1l.3-.1c.2 0 .3 0 .4-.2h.2c.1 0 .1-.1 0-.2l-.5-.1c-.3 0-.4 0-.5.2-.2.2-.3.2-.3 0s.4-.6.6-.6h.2l-.3-.1-.2-.1V9l-.1.1c0 .1-.3 0-.8 0h-.8H8h-.8l-.8.1h-.6a.4.4 0 0 1-.1-.2v-.2l-.1.1v.1l-.2.1c0 .2-.1.3-.3.3H5l-.3.1h-.2v.5s-.2.2-.2.6l.1.5v.3c0 .3 0 .3.2.3l.1-.2v-.2c-.1 0-.1 0 0 0v-.2-.5c.3-.1.3-.5.2-.5v-.1c0-.2.2-.5.3-.5h.9c.2 0 .3.2.3.3l.1.1c.1 0 0 0 0 .1 0 .2-.1.2-.3 0-.2-.2-.2-.2-.5-.2-.4 0-.6 0-.4.2l.2.1v.1h.3l.3.1c0 .1 0 0 0 0 .2 0 .5.4.5.5v.6l-.2.3c-.1 0-.1.2.1.4l.2.3v.2l.1.2v.3l-.1.1v.2H8l1.4-.1zM8 12.7h-.1l-.1-.2h-.1c-.1 0 0-.1 0-.2l-.1-.1v-1h.7l.6.1V12.2c0 .2-.4.6-.7.6H8zM6 11l-.1-.2c-.1 0-.2 0-.2.2s0 .2.2.2.1 0 .1-.2zm4.8 0c0-.2 0-.2-.2-.2l-.2.1c0 .2 0 .3.3.3l.1-.2zm.9.1h-.1v.1h.1zm.1-.5v-.3l-.1-.2c0-.3-.1-.5-.3-.5H11 11l.3.1v.2h.1c.1 0 0 .1 0 .1v.1h-.2v.1l.2.2.3.4v-.2zM10.4 9V9l-.2-.1v-.2l-.2-.2-.9-.8-.3-.1-.2-.1c0-.1 0 0 0 0h-.2v.2h.1v.2l.1.2.1.2c.1 0 0 0 0 .2l.1.3v.1c0 .2 0 .2.4.2s.3 0 .3-.2v-.1l-.1-.2v-.2c.2 0 .7.5.7.6l.2.2zM7.7 5.8l.1-.2.2.2c.2.2.4.2.4.1h-.1L8 5.7l-.2-.2-.1.2-.3.2h-.1l.4-.1zm-.5 0L7 5.5H7c-.1 0 0 0 0 0V6h.2zm1.6 0c0-.1.1-.1 0-.2v-.1-.1l-.2-.1V5v.7c0 .1.1 0 .2 0zm-2.6-.1c.2 0 .4-.2.4-.3L6 5.3h-.5-.1l-.3.3h.6l.2.1h.2zm3.7 0h.3c.3 0 .3 0 .3-.2l-.1-.1h-.2l-.5-.1H9c0 .2 0 .2.2.2l.3.1h.1l.1.2c.1 0 0 0 0-.1zM5 5.3l.1-.2H5.5c.2 0 0-.1 0-.1l-.2-.1-.2-.1c0-.2 0-.2-.2 0v.5l.1.2c.1 0 0 0 0-.2zm2 0zM11 5c0-.2 0-.3-.2-.4l-.2-.2h-.1l-.5-.1h-.4v.1s-.2 0-.3.2c-.2.1-.2.3-.1.3l.2-.1c.2 0 0 0 0 0l.2-.2h1.1c0 .2 0 .2-.2.2H10c0 .2 0 .2.2.2s.3.1.3.3h.1c.1 0 .2 0 .2-.3zm-4.2-.2l-.4-.4h-.1l-.4-.1h-.4v.1h-.2l.4.1.5.1c0 .1 0 0 0 0l.2.1c0 .1 0 0 .1 0l.2.1v0z" fill="#d1ced1"/><path d="M7.1 14.7l-.2-.1-.5-.4-.5-.4v-.1c0-.1-.1 0-.2 0l-.1-.1c0-.1 0 0-.1 0l-.2-.1-.1-.1H5l-.2-.1c-.2 0 0 0 0 0l-.2-.2h-.2l-.2-.2-.3-.2-.3-.3a.3.3 0 0 1-.2-.2l-.3-.3c-.2-.1-.2-.3-.2-.4l-.2-.2v-.1-.1l-.1-.1v-.2c0-.2-.1 0-.2 0v-.3-.3l-.1-.1-.1-.2c-.1 0 0-.3 0-.8 0-.8 0-.9-.2-1l-.2-.2s-.2 0-.3-.2-.2-.1-.2-.1L1 7.4c0-.2-.1 0-.2 0l-.2-.2-.1-.1s-.2 0-.3-.2l-.1-.5V6v-.1l.3-.3.2-.2v-.2L1 5l.1-.2.1-.1.3-.3h.1l.3-.1h.3l.1.1.2.1.2.2.3.1.2.2h.1l.2.1c.2 0 .3 0 .3-.2l.4-.4c.1 0 .2-.1.2-.3V4l-.1-.2-.1-.2v-.2L4 3.3a.3.3 0 0 0-.1-.3c-.1 0-.2-.1-.2-.3v-.2l.2-.1c0-.1.2-.4.4-.4l.2-.1.3-.2H5l.2-.1.1-.1h.2v-.1h.2l.3-.1h.4l.3.3v.1l.1.2.1.2v.1l.1.1.1.2c.1 0 0 0 0 .1 0 .2.4.5.4.4h1c0 .2.3 0 .3-.3v-.1-.1l.1-.2.1-.1V2l.1-.1c0-.1 0-.2.2-.2s0-.2 0-.2l.2-.1h.1l.3-.1h.5l.2.1.1.1h.2v.1h.2l.2.1.2.1c0 .1 0 0 0 0l.2.1h.1c.1 0 .3.2.3.4l.1.3v.2L12 3v.2l-.1.2-.1.2c-.1 0 0 0 0 0l-.1.2c-.1 0 0 0 0 .1l-.1.1c-.2 0 0 .3.4.7s.6.5.6.4h.1l.3-.3.2-.1.2-.2h.2l.1-.1.3-.1c.4 0 .4 0 .7.3l.4.4v.2l.2.2.2.2c.2.1.2.2.2.3v.7c0 .2-.2.4-.3.4l-.2.1-.3.2-.2.2-.3.2-.2.2c-.1.2-.2.1-.3.1v.2l-.2.1c.1.1.2 1 0 1s0 .2 0 .2c.1 0 .1 0 0 .1v.6l-.1.3v.2l-.1.2-.1.2c-.1 0 0 0 0 0l-.2.3-.1.2-.1.1-.2.2a3.5 3.5 0 0 1-1 1l-.2.1h-.1l-.1.1-.2.1c0 .1 0 0 0 0l-.2.1h-.2l-.2.1v.1l-.7.6-.7.5-.2.1-.4.2c-.2 0-.3 0-.4-.2h-.2H8c-.1.1-.2.2-.5.2l-.4-.2zm2.4-1.3v-.1l-.1-.4v-.4l.1-.1c0-.1 0-.2.2-.3.2-.2.2-.4.1-.4v-.1l-.1-.1v-.3-.2-.2c0-.2 0 0 .1 0v-.2l.2-.1h.1l.3-.1c.2 0 .3 0 .4-.2h.2v-.3a.6.6 0 0 0-.9 0c-.2.2-.3.3-.3.1l.1-.2.3-.2h.2v-.1l-.2-.1-.2-.1V9l-.1.1c0 .1-.3 0-.8 0h-.8H8h-.8l-.8.1h-.6a.4.4 0 0 1-.1-.2v-.2l-.1.1v.1l-.2.1c0 .2-.1.3-.3.3H5l-.3.1h-.2v.5s-.2.2-.2.6l.1.5v.3c0 .3 0 .3.2.3l.1-.2v-.2c-.1 0-.1 0 0 0v-.2-.5c.2 0 .3-.2.3-.3v-.2h.4l.2.1c0 .1 0 0 .2 0l.3.1c0 .1 0 0 0 0 .2 0 .5.4.5.5v.6l-.2.3c-.1 0-.1.2.1.4l.2.3v.2l.1.2v.3l-.1.1v.2H8l1.4-.1zM8 12.7h-.1l-.1-.2-.2-.2v-1.1H8.8v1c0 .3-.4.6-.7.6H8zm-3-2.6V10v-.1l.2-.1.1-.1c0-.1 0 0 .1 0l.1-.1H6l.4.4v.1l-.2-.1-.1-.1h-.2l-.2-.1h-.3L5 10c0 .1-.3.2-.3 0zm1 1.1l.1-.1c.1 0 0 0 0-.1v-.2h-.4c-.1 0-.2 0-.2.2h.1c.1 0 0 .1 0 .2l.3.1h.1zm4.6 0h.1l.1-.1c0-.2 0-.4-.2-.4s-.3.4-.2.5c.1.1.2.2.2 0zm1.1 0V11h-.1v.1h.1zm.1-.6v-.2l-.1-.3c0-.3-.1-.5-.3-.5H11 11c.2 0 .5.3.5.4l-.1.1V10.4l.4.4v-.2zM10.4 9V9l-.2-.1v-.2l-.2-.2-.4-.4-.5-.4-.1-.1-.4-.2c-.2 0-.2 0-.2.2l.1.2v.1l.1.2.1.2c.1 0 0 0 0 .2l.1.3.1.1V9h.7v-.1-.2c0-.2-.1-.2-.2-.2v-.1h.3l.2.3.1.1.1.2.1.1h.2zM7.7 6l.1-.1h.3c0 .2.4.2.4.1h.1c.2 0 .3-.2.2-.3v-.1-.1l-.2-.1v-.1V5.9c-.2.1-.4 0-.6-.1l-.2-.2-.1.2c-.2.2-.4.2-.6 0v-.3-.1c0-.1-.2.1-.2.4 0 .1 0 .2.2.2h.6zm-1.2-.4l.2-.2h-.3l-.2-.1c0-.1 0 0-.2 0h-.2-.2l-.2.1c0 .1 0 0 0 0l-.2.2c-.2 0-.1-.2 0-.3h.2V5c0-.1.1 0 .2 0 .2 0 .2-.1.2-.2l-.4-.1c-.3 0-.4 0-.2-.2H6l.4.2c.2.3.3.3.3 0l-.4-.4h-.1l-.4-.1-.5.1-.2.1-.1.2h-.1c-.1 0 0 .2 0 .4 0 .4.1.5.6.5h.3l.2.2.5-.2zm3.4.2h.3l.3-.1c.3 0 .4-.3.4-.6 0-.2 0-.3-.3-.5-.2-.2-.2-.2-.6-.2h-.5v.1c-.2 0-.5.3-.5.5s0 .2.3 0c0-.2.2-.2.3-.2l.2-.1c0-.1.1 0 .4 0h.4s0 .2-.4.2H10l.3.2.4.4h-.4v-.1l-.2-.1c0-.1-.1 0-.2 0h-.3-.2c-.1 0-.2 0-.2.2l.4.2h.1l.2.1c.2 0 0 0 0 0z" fill="#9ed4ed"/><path d="M7.1 14.7l-.2-.1-.5-.4-.5-.4v-.1c0-.1-.1 0-.2 0l-.1-.1c0-.1 0 0-.1 0l-.2-.1-.1-.1H5l-.2-.1c-.2 0 0 0 0 0l-.2-.2h-.2l-.2-.2-.3-.2-.3-.3a.3.3 0 0 1-.2-.2l-.3-.3c-.2-.1-.2-.3-.2-.4l-.2-.2v-.1-.1l-.1-.1v-.2c0-.2-.1 0-.2 0v-.3-.3l-.1-.1-.1-.2c-.1 0 0-.3 0-.8 0-.8 0-.9-.2-1l-.2-.2s-.2 0-.3-.2-.2-.1-.2-.1L1 7.4c0-.2-.1 0-.2 0l-.2-.2-.1-.1s-.2 0-.3-.2l-.1-.5V6v-.1l.3-.3.2-.2v-.2L1 5l.1-.2.1-.1.3-.3h.1l.3-.1h.3l.1.1.2.1.2.2.3.1.2.2h.1l.2.1c.2 0 .3 0 .3-.2l.4-.4c.1 0 .2-.1.2-.3V4l-.1-.2-.1-.2v-.2L4 3.3a.3.3 0 0 0-.1-.3c-.1 0-.2-.1-.2-.3v-.2l.2-.1c0-.1.2-.4.4-.4l.2-.1.3-.2H5l.2-.1.1-.1h.2v-.1h.2l.3-.1h.4l.3.3v.1l.1.2.1.2v.1l.1.1.1.2c.1 0 0 0 0 .1 0 .2.4.5.4.4h1c0 .2.3 0 .3-.3v-.1-.1l.1-.2.1-.1V2l.1-.1c0-.1 0-.2.2-.2s0-.2 0-.2l.2-.1h.1l.3-.1h.5l.2.1.1.1h.2v.1h.2l.2.1.2.1c0 .1 0 0 0 0l.2.1h.1c.1 0 .3.2.3.4l.1.3v.2L12 3v.2l-.1.2-.1.2c-.1 0 0 0 0 0l-.1.2c-.1 0 0 0 0 .1l-.1.1c-.2 0 0 .3.4.7s.6.5.6.4h.1l.3-.3.2-.1.2-.2h.2l.1-.1.3-.1c.4 0 .4 0 .7.3l.4.4v.2l.2.2.2.2c.2.1.2.2.2.3v.7c0 .2-.2.4-.3.4l-.2.1-.3.2-.2.2-.3.2-.2.2c-.1.2-.2.1-.3.1v.2l-.2.1c.1.1.2 1 0 1s0 .2 0 .2c.1 0 .1 0 0 .1v.6l-.1.3v.2l-.1.2-.1.2c-.1 0 0 0 0 0l-.2.3-.1.2-.1.1-.2.2a3.5 3.5 0 0 1-1 1l-.2.1h-.1l-.1.1-.2.1c0 .1 0 0 0 0l-.2.1h-.2l-.2.1v.1l-.7.6-.7.5-.2.1-.4.2c-.2 0-.3 0-.4-.2h-.2H8c-.1.1-.2.2-.5.2l-.4-.2zm2.4-1.3v-.1l-.1-.4v-.4l.1-.1c0-.1 0-.2.2-.3.2-.2.2-.4.1-.4v-.1l-.1-.1v-.3-.2-.2c0-.2 0 0 .1 0v-.2l.2-.1h.1l.3-.1c.2 0 .3 0 .4-.2.2-.2.6 0 .6.2l.3.4v-.2-.2l-.1-.3c0-.3-.1-.5-.3-.5h-.7.4v.2c.2 0 .3.1.3.2 0 .2 0 .1-.2 0-.1-.2-.2-.2-.5-.2h-.4l-.2.2c-.2 0 .2-.4.3-.4h.2c0-.2 0-.2-.3-.2s-.2 0-.2-.1V9l-.1.1c0 .1-.3 0-.8 0h-.8H8h-.8l-.8.1h-.6a.4.4 0 0 1-.1-.2v-.2l-.1.1v.2h-.1c0 .2-.2.3-.4.3H5l-.3.1h-.2v.5l-.1.6v.8c0 .3 0 .3.2.3l.1-.2v-.2c-.1 0-.1 0 0 0v-.2-.5c.2 0 .3-.2.3-.3v-.2h.5c.2 0 0 0 0 .1h.3l.3.1c0 .1 0 0 0 0 .2 0 .5.4.5.5v.6l-.2.3c-.1 0-.1.2.1.4l.2.3v.2l.1.2v.3l-.1.1v.2H8l1.4-.1zM8 12.7h-.1l-.1-.2-.2-.2v-1.1H8.8v1c0 .3-.4.6-.7.6H8zM5 10l.2-.2c.1-.2.2-.2.6-.2H6v.1c.2 0 .3.2.3.3 0 .2 0 .1-.2 0-.2-.2-.2-.3-.5-.3s-.3 0-.5.2-.2.3-.2.1zm1 1.2l.1-.1c.1 0 0 0 0-.1v-.2h-.4c-.1 0-.2 0-.2.2h.1c.1 0 0 .1 0 .2l.3.1h.1zm4.6 0h.1l.1-.2c0-.1 0-.3-.2-.3s-.3.4-.2.5c.1.1.2.1.2 0zm1.1 0V11h-.1v.1h.1zM10.4 9v-.2l-.2-.1-.1-.3-.2-.2s0-.2-.2-.2-.2-.2-.2-.2l-.2-.2c-.1-.2-.3-.1-.3-.1l-.1-.1h-.6l.1.2.1.3V8h.1l.1.2c.1 0 0 .2 0 .4V9h.9v-.1-.2c0-.2-.1-.2-.2-.2v-.1h.3l.2.3.1.1.1.2.1.1.2-.1zM7.7 5.9l.1-.2.2.2h.8l.1-.2v-.2h-.1c0-.2-.3-.5-.4-.5V5.3h.1v.2l.1.1v.2h-.2l-.2-.1c-.2-.2-.5-.3-.5-.1l-.3.3s-.4-.3-.3-.4v-.1l.1-.1.1-.2c0-.2 0 0 0 0l-.4.3V6h.8zm-1.5 0v-.1c.2 0 .5-.3.5-.4l-.3-.1-.2-.1c0-.1 0 0-.2 0h-.2-.2c-.2 0-.1 0-.1.1h-.2v.2H5v-.3h.3V5c0-.1.1 0 .2 0 .2 0 .2-.1.2-.2l-.4-.1c-.3 0-.4 0-.2-.2H6c.2 0 .3.1.5.3l.3.3V5v-.2l-.1-.1-.3-.3-.6-.1h-.5v.1c-.2 0-.5.3-.5.4v.5H5c.1 0 0 .1 0 .2l.5.1h.4l.1.2h.2zm3.7-.2h.3l.3-.1c.3 0 .5-.4.5-.6v-.2l-.1-.1c0-.2-.3-.4-.5-.4h-.2l-.2-.1h-.4l-.2.2h-.1l-.2.1v.2L9 5l-.1.1c0 .2 0 .2.3-.1l.4-.2.2-.1c0-.1.1 0 .4 0h.4s0 .2-.4.2H10l.3.2.4.4h-.4v-.1l-.2-.1c0-.1-.1 0-.2 0h-.3H9l.2.3c.2.2.3.2.5.2h.2z" fill="#f0b1b7"/><path d="M7.1 14.7l-.2-.1-.5-.4-.5-.4v-.1c0-.1-.1 0-.2 0l-.1-.1c0-.1 0 0-.1 0l-.2-.1-.1-.1H5l-.2-.1c-.2 0 0 0 0 0l-.2-.2h-.2l-.2-.2-.3-.2-.3-.3a.3.3 0 0 1-.2-.2l-.3-.3c-.2-.1-.2-.3-.2-.4l-.2-.2v-.1-.1l-.1-.1v-.2c0-.2-.1 0-.2 0v-.3-.3l-.1-.1-.1-.2c-.1 0 0-.3 0-.8 0-.8 0-.9-.2-1l-.2-.2s-.2 0-.3-.2-.2-.1-.2-.1L1 7.4c0-.2-.1 0-.2 0l-.2-.2-.1-.1s-.2 0-.3-.2l-.1-.5V6v-.1l.3-.3.2-.2v-.2L1 5l.1-.2.1-.1.3-.3h.1l.3-.1h.3l.1.1.2.1.2.2.3.1.2.2h.1l.2.1c.2 0 .3 0 .3-.2l.4-.4c.1 0 .2-.1.2-.3V4l-.1-.2-.1-.2v-.2L4 3.3a.3.3 0 0 0-.1-.3c-.1 0-.2-.1-.2-.3v-.2l.2-.1c0-.1.2-.4.4-.4l.2-.1.3-.2H5l.2-.1.1-.1h.2v-.1h.2l.3-.1h.4l.3.3v.1l.1.2.1.2v.1l.1.1.1.2c.1 0 0 0 0 .1 0 .2.4.5.4.4h1c0 .2.3 0 .3-.3v-.1-.1l.1-.2.1-.1V2l.1-.1c0-.1 0-.2.2-.2s0-.2 0-.2l.2-.1h.1l.3-.1h.5l.2.1.1.1h.2v.1h.2l.2.1.2.1c0 .1 0 0 0 0l.2.1h.1c.1 0 .3.2.3.4l.1.3v.2L12 3v.2l-.1.2-.1.2c-.1 0 0 0 0 0l-.1.2c-.1 0 0 0 0 .1l-.1.1c-.2 0 0 .3.4.7s.6.5.6.4h.1l.3-.3.2-.1.2-.2h.2l.1-.1.3-.1c.4 0 .4 0 .7.3l.4.4v.2l.2.2.2.2c.2.1.2.2.2.3v.7c0 .2-.2.4-.3.4l-.2.1-.3.2-.2.2-.3.2-.2.2c-.1.2-.2.1-.3.1v.2l-.2.1c.1.1.2 1 0 1s0 .2 0 .2c.1 0 .1 0 0 .1v.6l-.1.3v.2l-.1.2-.1.2c-.1 0 0 0 0 0l-.2.3-.1.2-.1.1-.2.2a3.5 3.5 0 0 1-1 1l-.2.1h-.1l-.1.1-.2.1c0 .1 0 0 0 0l-.2.1h-.2l-.2.1v.1l-.7.6-.7.5-.2.1-.4.2c-.2 0-.3 0-.4-.2h-.2H8c-.1.1-.2.2-.5.2l-.4-.2zm2.5-1.3v-1l.2-.3s.1-.4 0-.4v-.1l-.1-.1v-.3-.2-.2c0-.2 0 0 .1 0v-.2l.2-.1h.1l.3-.1c.2 0 .3 0 .4-.2.2-.2.6 0 .6.2l.3.4v-.3-.4l-.1-.2-.1-.3h-.1l-.4-.1h-.4l.2.1h.2v.1c.2 0 .4.2.4.3 0 .2 0 .1-.3 0-.1-.2-.2-.3-.5-.3l-.3.1c0 .1-.1 0-.2 0l-.1.1c-.1 0 0 .1 0 0-.2 0 .2-.3.3-.3l.2-.1-.2-.1-.3-.1-.1-.2-.1.1c0 .1-.3 0-.8 0h-.7V9S8 9 8 9.2H7l-1 .1h-.3a.4.4 0 0 1-.1-.2v-.2l-.1.1v.2h-.2c0 .2-.1.3-.4.3h-.2l-.2.1-.1.3v.2c-.2 0-.2 1 0 1.1v.1l-.1.1v.3l.1.2h.2c.2 0 .2-.3 0-.4-.1 0-.1-.1 0-.2v-.2-.2c-.1 0 0 0 0-.2.2 0 .3-.2.3-.3l.2-.3.2.1c0 .1.1.2.4.2H6c.2 0 .5.4.5.5v.6l-.2.3c-.2.2-.3.3 0 .3l.1.2c.1 0 0 0 0 .1l.1.1v.9l1.4.1h1.6zm-1.9-.8l-.2-.3v-.1-.4-.5h1.2c.2 0 .2 0 .2.4v.4h-.1v.2l-.2.1-.1.2c-.2.3-.5.2-.8 0zM5 10l.1-.2c.1-.2.2-.2.6-.2H6v.1c.2 0 .3.2.3.3 0 .2 0 .1-.2 0-.2-.2-.2-.3-.5-.3s-.3 0-.5.2-.2.3-.2.1zm6.6 1.6h-.1.1zM6 11.2v-.1-.1-.2h-.4c-.1 0-.2 0-.2.2h.1c.1 0 0 .1 0 .2l.3.1h.1zm4.5 0h.1l.1-.2c0-.1 0-.3-.2-.3s-.3.4-.2.5c.1.1.2.1.2 0zm1.1 0V11h-.1v.1h.1zM10.4 9v-.2l-.1-.1-.2-.3-.2-.2s0-.2-.2-.2-.1-.2-.2-.2l-.2-.2c-.1-.2-.3-.1-.3-.1l-.1-.1h-.6l.1.2.1.3V8h.2V9h.9v-.1-.2c0-.2-.1-.2-.2-.2v-.1h.3l.2.3.1.1.1.2.2.1V9zM7.7 5.9l.2-.2V6h.8c.2 0 .2 0 .2-.2v-.2h-.1c0-.2-.3-.5-.4-.5V5.3h.1v.2l.2.1c0 .1 0 .2-.2.2h-.1l-.2-.1c-.2-.2-.5-.3-.5-.1l-.3.3s-.4-.3-.3-.4v-.1l.1-.1.1-.2c0-.2 0 0 0 0l-.4.3V6h.8zm-1.5 0v-.1c.2 0 .5-.3.5-.4l-.3-.1-.2-.1c0-.1 0 0-.2 0h-.2-.2c-.2 0-.1 0-.1.1h-.2v.2h-.1v-.3h.2V5c0-.1.1 0 .2 0 .2 0 .2-.1.2-.2l-.3-.1c-.4 0-.5 0-.3-.2H6c.2 0 .3.1.5.3l.3.3V5v-.2l-.1-.1-.3-.3-.6-.1h-.5v.1c-.2 0-.5.3-.5.4v.5H5c.1 0 0 .1 0 .2l.4.1h.4l.1.2h.4zm3.6 0v-.1l.2-.1h.3l.2-.1c.3 0 .5-.4.5-.6v-.2l-.1-.1c0-.2-.3-.4-.5-.4h-.2l-.2-.1h-.4l-.2.2h-.1l-.2.1v.2L9 5l-.1.1c0 .2 0 .2.3-.1l.4-.2.2-.1c0-.1.1 0 .4 0h.4s0 .2-.4.2H10l.3.2.4.4h-.4v-.1l-.2-.1c0-.1-.1 0-.2 0h-.3H9c0 .2.5.6.5.6h.2c.1 0 0 0 0 0z" fill="#dabcc1"/><path d="M7.3 14.8h-.1l-.2-.1v-.1l-.6-.4-.5-.5h-.2l-.1-.1h-.1l-.2-.2H5l-.2-.1c-.2 0 0 0 0-.1h-.2l-.2-.2-.2-.1A8 8 0 0 1 3 11.5l-.2-.2v-.1-.1l-.1-.1v-.2h-.2v-.3-.3l-.1-.2-.1-.2c-.1 0 0-.4 0-.8 0-.7 0-.8-.2-1h-.2l-.3-.3-.2-.1s-.2 0-.2-.2-.1 0-.2 0L.7 7 .4 7c-.2 0-.2-.2-.2-.6V6l.1-.1c0-.1 0-.2.2-.3s.2-.2.2-.2v-.2L1 5l.3-.4c.4-.3.4-.3.7-.3H2l.1.1.3.2.3.2.1.1.2.1h.1l.2.1c.2 0 .3 0 .3-.2a.3.3 0 0 1 .3-.2c.1 0 .3-.3.3-.5v-.1-.2h-.1v-.3L4 3.4 4 3.3V3L3.8 3l-.1-.2c-.1 0 0 0 0-.1v-.2-.1c0-.1.3-.4.5-.4s.1-.1.2-.1h.1s0-.2.2-.2H5l.2-.1h.1l.2-.2h.2l.3-.1h.4c.1 0 .3.2.3.4l.1.2.1.2.1.1c.1 0 0 0 0 .2h.1c.1 0 0 .1 0 .2 0 .2.4.6.4.4h1s0 .1.2 0v-.2h.1l.1-.3v-.1l.1-.2V2l.1-.1.3-.4.6-.2h.4l.3.2.2.1h.2l.2.1.2.1c0 .1 0 0 0 0 .2 0 .6.5.6.6l.1.3v.1L12 3v.2l-.1.2v.2h-.2V4l-.1.1c-.2 0 0 .3.4.7s.6.5.6.4h.1l.2-.2.2-.1.2-.2.3-.2h.1l.4-.1c.3 0 .3 0 .6.3l.2.3.2.2v.2l.3.2.2.3v.1c.2.1.2.2.2.4v.3l-.1.1-.3.3-.2.1-.3.2-.2.2-.3.2-.1.1-.2.1-.4.4v.1l.1.4v.9l-.1.5-.1.3v.2l-.1.1v.2h-.2V11.4l-.1.1v.1l-.2.2-.1.2a3.5 3.5 0 0 1-1 1l-.3.1-.2.1-.1.1c0 .1 0 0-.2 0v.1h-.3l-.2.1v.1s-.4.2-.6.5l-.6.5-.2.1-.2.1-.4.1h-.4l-.1-.2-.2.1-.4.1h-.3zm1.4-1.2H9c.3 0 .4-.1.5-.2v-1l.2-.3s.1-.4 0-.4v-.1l-.1-.1v-.3-.2-.1l.2-.3.3-.1.3-.1c.1 0 .2 0 .3-.2h.4c.1 0 .2 0 .2.2l-.1.2c-.1 0 0 0 0 0h.2v.5l.1.1.1-.5V10l-.1-.2-.1-.3h-.1l-.3-.1h-.3l-.4-.1-.3-.1c-.1-.2-.3-.2-.3-.1H8.3V9l-.2.1c-.1.2-.2.2-1 .2H6 6c-.1 0-.2 0-.2-.2s0-.3-.1-.3l-.1.1V9l-.1.2c0 .2-.2.3-.4.3h-.3l-.1.1c-.2 0-.2 0-.2.2v.2l-.1.7v1l.1.2h.2l.1-.2v-.1c-.1 0-.1-.4 0-.4v-.3-.2c.1 0 .2 0 .2-.2v-.3h.4l.4.2H6c.2 0 .3.2.3.3l.1.1c.1 0 0 0 0 .2h.1c.1 0 0 .1 0 .2v.2l-.1.2c-.1 0 0 0 0 0l-.2.3-.1.1c0 .1 0 0 .1 0l.1.2h.1c.1 0 0 .1 0 .2l.1.1v.9l.4.1h.4l.6.1h.7zm-1-1l-.2-.4v-.1-.4-.4h.2l.5-.1h.5v.1c.2 0 .2 0 .2.3v.3l-.1.2v.2h-.2v.3h-.2l-.1.1c0 .2-.4 0-.6-.1zM5 10l.1-.2c.1-.2.2-.2.6-.2H6v.1c.2 0 .3.2.3.3 0 .2 0 .1-.2 0-.2-.2-.2-.3-.5-.3s-.3 0-.5.2-.2.3-.2.1zm6.1 0c-.1-.2-.2-.3-.5-.3l-.4.1c0 .1 0 0 0 0l-.2.2c-.2 0 .2-.4.3-.4h.2c0-.1 0-.1 0 0h.5v.2h.3v.3a.7.7 0 0 1-.2-.2zm.5 1.6h-.1.1zM6 11.2l.1-.1c.1 0 0 0 0-.1v-.2h-.2-.2c-.1 0-.2 0-.2.2h.1c.1 0 0 .1 0 .2l.3.1h.1zm4.6 0h.1l.1-.2c0-.1 0-.3-.2-.3s-.3.4-.2.5c.1.1.2.1.2 0zM10.4 9v-.2l-.2-.1-.1-.3-.2-.2s0-.2-.2-.2-.2-.2-.2-.2l-.2-.2c-.1-.2-.3-.1-.3-.1l-.1-.1h-.6l.1.2.1.3V8l.1.2.1.1c.1 0 0 .2 0 .4V9h.9v-.1-.2l-.1-.2h-.1c0-.1.3-.1.4 0v.2l.2.1.1.2.1.1.2-.1zM7.7 5.8H8l.5.2h.3v-.1c.2 0 .2 0 .2-.2v-.2l-.1-.1-.4-.4V5.3h.1v.2l.2.1-.2.1-.1.1-.2-.1c-.2-.2-.5-.3-.5-.1l-.3.3-.3-.4v-.1l.1-.1.1-.2-.4.3V6h.8zm-1.5 0c.2 0 .5-.3.5-.5h-.2l-.2-.1c0-.1 0 0-.2 0h-.3-.2c-.2 0-.1 0-.1.1h-.2v.1l-.1.1v-.3h.2V5c0-.1.1 0 .2 0 .2 0 .2-.1.2-.2l-.3-.1c-.4 0-.5 0-.3-.2H6l.4.3.3.2V5v-.2l-.1-.1-.3-.3-.6-.1h-.5v.1c-.2 0-.5.3-.5.4v.5c0 .2 0 0 .1 0v.2l.4.1h.4l.1.1.1.1c0 .1.1 0 .2 0zm3.6 0l.2-.1h.3c.2 0 .3-.1.5-.3L11 5v-.2l-.1-.1c0-.2-.3-.4-.5-.4h-.2l-.3-.1h-.3l-.2.1-.1.1-.2.1v.2L9 5l-.1.1c0 .2 0 .2.3-.1l.4-.2.2-.1c0-.1.1 0 .4 0h.4s0 .2-.3.2h-.4l.3.2.4.3H10.3 10v-.1c0-.1-.2 0-.4 0h-.3H9c0 .2.5.5.5.5l.1.1c0 .1 0 0 .1 0z" fill="#fc98aa"/><path d="M7.3 14.8h-.1l-.2-.1v-.1l-.6-.4-.5-.5h-.2l-.1-.1h-.1l-.2-.2H5l-.2-.1c-.2 0 0 0 0-.1h-.2l-.2-.2-.2-.1A8 8 0 0 1 3 11.5l-.2-.2v-.1-.1l-.1-.1v-.2h-.2v-.3-.3l-.1-.2-.1-.2c-.1 0 0-.4 0-.8 0-.7 0-.8-.2-1h-.2l-.3-.3-.2-.1s-.2 0-.2-.2-.1 0-.2 0L.7 7 .4 7c-.2 0-.2-.2-.2-.6V6l.1-.1c0-.1 0-.2.2-.3s.2-.2.2-.2v-.2L1 5l.3-.4c.4-.3.4-.3.7-.3H2l.1.1.3.2.3.2.1.1.2.1h.1l.2.1c.2 0 .3 0 .3-.2a.3.3 0 0 1 .3-.2c.1 0 .3-.3.3-.5v-.1-.2h-.1v-.3L4 3.4 4 3.3V3L3.8 3l-.1-.2c-.1 0 0 0 0-.1v-.2-.1c0-.1.3-.4.5-.4s.1-.1.2-.1h.1s0-.2.2-.2H5l.2-.1h.1l.2-.2h.2l.3-.1h.4c.1 0 .3.2.3.4l.1.2.1.2.1.1c.1 0 0 0 0 .2h.1c.1 0 0 .1 0 .2 0 .2.4.6.4.4h1s0 .1.2 0v-.2h.1l.1-.3v-.1l.1-.2V2l.1-.1.3-.4.6-.2h.4l.3.2.2.1h.2l.2.1.2.1c0 .1 0 0 0 0 .2 0 .6.5.6.6l.1.3v.1L12 3v.2l-.1.2v.2h-.2V4l-.1.1c-.2 0 0 .3.4.7s.6.5.6.4h.1l.2-.2.2-.1.2-.2.3-.2h.1l.4-.1c.3 0 .3 0 .6.3l.2.3.2.2v.2l.3.2.2.3v.1c.2.1.2.2.2.4v.3l-.1.1-.3.3-.2.1-.3.2-.2.2-.3.2-.1.1-.2.1-.4.4v.1l.1.4v.9l-.1.5-.1.3v.2l-.1.1v.2h-.2V11.4l-.1.1v.1l-.2.2-.1.2a3.5 3.5 0 0 1-1 1l-.3.1-.2.1-.1.1c0 .1 0 0-.2 0v.1h-.3l-.2.1v.1s-.4.2-.6.5l-.6.5-.2.1-.2.1-.4.1h-.4l-.1-.2-.2.1-.4.1h-.3zm1.4-1.2H9l.4-.1.4-.1h.3l.2-.1.1-.1c0-.1 0 0 .1 0l.1-.1c0-.1 0 0 .1 0 .2 0 .6-.5.6-.6v-.2l.1-.1.1-.3c0-.3 0-.3-.2-.3l-.3.1-.3.2-.3.1h-.3l-.3-.2-.2-.3v-.3-.2-.1l.2-.3.2-.1h.1s.1-.2.3-.2h.3c.1-.2.3-.2.3-.1h.1c.1 0 .2 0 .2.2l-.1.2c-.1 0 0 0 0 0h.2v.5l.1.1.1-.6v-.5l-.1-.2-.1-.3h-.2l-.3-.1h-.3l-.3-.1-.3-.1c-.1-.2-.3-.2-.3-.1H8.3V9L8 9c-.1.1-.2.2-1 .2H6h-.2v-.2c0-.2 0-.3-.2-.3h-.1V9s-.2 0-.2.2 0 .3-.4.3h-.2l-.2.1-.1.2v.2s-.2.3-.2.7l.1.7v.3l.1.3v.2l.1.2.1.1.5.5h.1l.1.1.2.1c0 .1 0 0 .1 0l.1.1h.3l.2.1.6.1h.5l.6.1h.6zm-1-1l-.2-.4v-.1-.4-.4h.2l.5-.1h.5v.1c.2 0 .2 0 .2.3v.3l-.1.2v.2h-.2v.3h-.2l-.1.1c0 .2-.4 0-.6-.1zm.7-.1a.4.4 0 0 0 .1-.3l-.3-.1h-.4v.3c.2.2.5.2.6 0zm-3-.5l-.3-.2-.1-.1c-.2 0-.4-.4-.2-.5v-.3-.2c.1 0 .2 0 .2-.2v-.3h.4l.4.2H6c.2 0 .3.2.3.4h.1c.1 0 0 .1 0 .2h.1c.1 0 0 .1 0 .2v.2l-.1.2c-.1 0 0 0 0 0 0 .2-.2.3-.3.3H6l-.3.1h-.3zm.5-.8l.1-.1c.1 0 0 0 0-.1v-.2h-.2c0-.1 0-.1 0 0h-.2c-.1 0-.2 0-.2.2h.1c.1 0 0 .1 0 .2l.3.1c.2 0 .1 0 .1-.1zM5 10l.2-.2c.1-.2.2-.2.6-.2H6v.1c.2 0 .3.2.3.3 0 .2 0 .1-.2 0-.2-.2-.2-.3-.5-.3s-.3 0-.5.2-.2.3-.2.1zm6.2 0c-.1-.2-.2-.3-.5-.3l-.4.1c0 .1 0 0 0 0l-.2.2c-.2 0 .2-.4.3-.4h.2c0-.1 0-.1 0 0h.5v.2h.3v.3a.7.7 0 0 1-.2-.2zm-.6 1.3l.1-.1.1-.1c0-.2 0-.4-.2-.4s-.3.4-.2.5c.1.1.2.1.2 0zM10.4 9v-.2l-.2-.1-.1-.3-.2-.2s0-.2-.2-.2-.2-.2-.2-.2l-.2-.2c-.1-.2-.3-.1-.3-.1l-.1-.1h-.6l.1.2.1.3V8l.1.2h.1V9h.9v-.1-.2l-.1-.2h-.1c0-.1.3-.1.4 0v.2l.2.1.1.2.1.1.2-.1zM5.7 6.7l.1-.1c.3 0 .5-.6.3-.6l.2-.3c.1 0 .4-.2.4-.4h-.2l-.2-.1c0-.1 0 0-.2 0h-.3-.2c-.2 0-.1 0-.1.1h-.2v.1l-.1.1v-.3h.2V5c0-.1.1 0 .2 0 .2 0 .2-.1.2-.2l-.3-.1c-.4 0-.5 0-.3-.2H6c.2 0 .3.1.5.3l.3.2V5v-.2l-.1-.1-.3-.3-.6-.1h-.5v.1c-.2 0-.5.3-.5.4v.5c0 .2 0 0 .1 0v.2l.1.1c.1 0 0 0 0 0v.1c-.1 0-.4.3-.4.5 0 0 0 .2.2.3.2.2.2.2.6.2h.3zm5 0v-.1c.2 0 .4-.3.4-.5s-.1-.4-.2-.4h-.2l.1-.3.2-.4v-.2l-.1-.1c0-.2-.3-.4-.5-.4h-.2l-.3-.1h-.3l-.2.1-.1.1-.2.1v.2L9 5l-.1.1c0 .2 0 .2.3-.1l.4-.2.2-.1c0-.1.1 0 .4 0h.4s0 .2-.3.2h-.4l.3.2.4.3H10.3 10v-.1c0-.1-.2 0-.4 0h-.3H9c0 .2.5.5.5.5l.1.2c0 .2 0 0 0 0v.2c0 .2.2.5.3.5h.1l.3.1h.3zm-3-.8l.2-.2V6h.8c.2 0 .2 0 .2-.2v-.2l-.1-.1-.4-.4V5.3h.1v.2l.2.1-.2.1-.1.1-.2-.1c-.2-.2-.5-.3-.5-.1l-.3.3-.3-.4v-.1l.1-.1.1-.2-.4.3V6h.8z" fill="#d0afaf"/><path d="M7.3 14.8h-.1l-.2-.1v-.1l-.6-.4-.5-.5h-.2l-.1-.1h-.1l-.2-.2H5l-.2-.1c-.2 0 0 0 0-.1h-.2l-.2-.2-.2-.1A8 8 0 0 1 3 11.5l-.2-.2v-.1-.1l-.1-.1v-.2h-.2v-.3-.3l-.1-.2-.1-.2c-.1 0 0-.4 0-.8 0-.7 0-.8-.2-1h-.2l-.3-.3-.2-.1s-.2 0-.2-.2-.1 0-.2 0L.7 7 .4 7c-.2 0-.2-.2-.2-.6V6l.1-.1c0-.1 0-.2.2-.3s.2-.2.2-.2v-.2L1 5l.6-.6h.1l.3-.1H2l.1.1.3.2.3.2.1.1.2.1h.1l.2.1c.2 0 .3 0 .3-.2a.3.3 0 0 1 .3-.2c.1 0 .3-.3.3-.5v-.1-.2h-.1v-.3L4 3.4 4 3.3V3L3.8 3l-.1-.2c-.1 0 0 0 0-.1v-.2-.1c0-.1.3-.4.5-.4l.2-.1h.1s0-.2.2-.2H5l.2-.1h.1l.2-.2h.2l.3-.1h.4l.3.3v.1l.1.2.1.2.1.1c.1 0 0 0 0 .1l.1.2c.1 0 0 0 0 .1 0 .2.4.6.4.4h1.2v-.2h.1l.1-.3v-.2l.1-.1V2l.1-.1.3-.4.6-.2h.4l.3.2.2.1h.2l.2.1.2.1c0 .1 0 0 0 0 .2 0 .6.5.6.6l.1.3v.1L12 3v.2l-.1.2v.2h-.2V4l-.1.1c-.2 0 0 .3.4.7s.6.5.6.4h.1l.2-.2.2-.1.2-.2.3-.2h.1l.4-.1c.3 0 .3 0 .6.3l.2.3.2.2v.1l.3.3.2.3v.1c.2.1.2.2.2.4v.3l-.1.1-.3.3-.2.1-.3.2-.2.2-.3.2-.1.1-.2.1-.4.4v.1l.1.4v.9l-.1.5-.1.3v.2l-.1.1v.2h-.2V11.4l-.1.1v.1l-.2.2-.1.2a3.5 3.5 0 0 1-1 1l-.3.1-.2.1-.1.1c0 .1 0 0-.2 0v.1h-.3l-.2.1v.1s-.4.2-.6.5a3.2 3.2 0 0 1-.8.6l-.2.1-.4.1h-.4l-.1-.2-.2.1-.4.1h-.3zm1.6-1.2h.4l.3-.1.3-.1h.3l.2-.1.1-.1c0-.1 0 0 .1 0l.1-.1c0-.1 0 0 .1 0 .2 0 .6-.5.6-.6v-.2l.1-.1.1-.3v-.2l.1-1V10l-.1-.1c0-.2-.2-.3-.4-.3H11l-.4-.1h-.4v-.1c-.2 0-.2 0-.2-.2l-.1-.2v-.1l.2.2.1.1.2-.1v-.2l-.2-.1-.1-.3-.2-.2-.4-.4-.2-.2c-.1-.2-.3-.2-.3-.2h-.1-.6l.1.2.1.3V8l.2.2V9h.9v-.1-.2l-.1-.2h-.1c0-.1.3-.1.4 0v.8h-.6l-.6-.1c0-.1 0 0-.1 0L8.2 9 8.1 9c-.1 0 0 0 0 .1l-.3.1-.1.1H5.8V9v-.3l-.2.2V9l-.2.1c0 .2-.2.4-.5.4h-.2v.1c-.3 0-.4.2-.4 1.2l.1 1c.1 0 0 0 0 .1l.1.1v.2l.1.2.1.1.2.3.3.2h.1l.1.1.2.1c0 .1 0 0 .1 0l.1.1h.3l.2.1.4.1H7l1 .1h.9zm-1.2-1v-.2-.1l-.1-.1-.1-.1c-.1 0 0-.2 0-.4v-.4H7.7l.4-.1h.3l.2.1c.2 0 .2 0 .2.3v.2l-.1.2v.2h-.2l-.1.3-.4.2-.4-.1zm.7-.1a.4.4 0 0 0 .1-.3l-.3-.1h-.4v.3c.2.2.5.2.6 0zm-3-.5c-.2 0-.3-.2-.3-.3l-.2-.1-.2-.1v-.2h.1V11v-.2l.1-.2h.2c-.2 0-.1-.3 0-.4H5.7l.3.1c0 .1 0 0 0 0l.4.3.2.5c0 .3 0 .3-.3.6-.3.2-.3.3-.6.3l-.2-.1zm.5-.8l.1-.1c.1 0 0 0 0-.1v-.1l-.2-.1h-.2c-.1 0-.2 0-.2.2h.1c.1 0 0 .2 0 .2l.3.1h.1zm4.3.8l-.2-.1-.1-.2v-.1l-.1-.2-.1-.2v-.3c0-.1.3-.4.5-.4l.3-.1c.2 0 .3 0 .4-.2H11.2l.1.3c-.1 0 0 .2 0 .2l.2.1c.1.1.1.1 0 .2l-.2.1.2.2c.2.1.1.3 0 .3-.2 0-.3 0-.4.2l-.3.1v.1h-.6zm.3-.7h.1l.1-.2c0-.2 0-.4-.2-.4s-.3.4-.2.5c.1.1.2.2.2 0zM5 10l.1-.2c.1-.1.2-.2.6-.2l.4.1c0 .1 0 0 0 0 .2 0 .3.2.3.3 0 .2 0 .2-.2 0s-.2-.2-.5-.2-.3 0-.5.1c-.2.2-.2.3-.2.1zm6.1 0c-.1-.2-.2-.2-.5-.2h-.4l-.2.2c-.2 0 .2-.4.3-.4h.2c0-.1 0-.1 0 0h.3l.2.1c0 .1 0 0 0 0l.3.2v.2a.7.7 0 0 1-.2-.2zM5.8 6.6l.2-.1v-.1l.1-.1c.1 0 .1-.4 0-.4l.2-.2.4-.4-.2-.1-.2-.1c0-.1 0 0-.2 0h-.3-.2c-.2 0-.1 0-.1.1h-.2v.1l-.1.1v-.3h.2V5c0-.1.1 0 .2 0 .2 0 .2-.1.2-.2l-.3-.1c-.4 0-.5 0-.3-.2H6l.4.3.3.2V5v-.2l-.1-.1-.3-.3-.6-.1h-.5v.1c-.2 0-.5.3-.5.4v.5H5v.5c-.2 0-.3.1-.3.4s.1.4.3.4l.5.1h.4zm5 0v-.1c.2 0 .3-.1.3-.3.1-.1.1-.1 0-.2a.1.1 0 0 1 0-.1l-.2-.3h-.2v-.3c.2-.1.3-.2.3-.4v-.2l-.1-.1c0-.2-.3-.4-.5-.4h-.2l-.3-.1h-.3l-.2.1-.1.1-.2.1v.2L9 5l-.1.1c0 .2 0 .2.3-.1l.4-.2.2-.1c0-.1.1 0 .4 0h.4s0 .2-.4.2H10l.3.2.4.3h-.4l-.2-.1h-.6H9c0 .2.4.5.5.5l.1.2c0 .2 0 0 0 0v.2c0 .2.2.5.3.5h.1l.4.1h.3zm-3-.8v-.2L8 6h.7c.2 0 .2 0 .2-.2v-.2h-.1c0-.2-.3-.5-.4-.5V5.3h.1v.2l.2.1c0 .1 0 .2-.2.2h-.1l-.2-.1c-.2-.2-.5-.3-.5-.1l-.3.3s-.4-.3-.3-.4v-.1l.1-.1.1-.2c0-.2 0 0 0 0l-.4.3V6h.8z" fill="#5fd3f2"/><path d="M7.3 14.8h-.1l-.2-.1v-.1l-.6-.4-.5-.5h-.2l-.1-.1h-.1l-.2-.2H5l-.2-.1c-.2 0 0 0 0-.1h-.2l-.2-.2-.2-.1A8 8 0 0 1 3 11.5l-.2-.2v-.1-.1l-.1-.1v-.2h-.2v-.3-.3l-.1-.2-.1-.2c-.1 0 0-.4 0-.8 0-.7 0-.8-.2-1h-.2l-.3-.3-.2-.1s-.2 0-.2-.2-.1 0-.2 0L.7 7 .4 7c-.2 0-.2-.2-.2-.6V6l.1-.1c0-.1 0-.2.2-.3s.2-.2.2-.2v-.2L1 5l.6-.6h.1l.3-.1H2l.1.1.3.2.3.2.1.1.2.1h.1l.2.1c.2 0 .3 0 .3-.2a.3.3 0 0 1 .3-.2c.1 0 .3-.3.3-.5v-.1-.2h-.1v-.3L4 3.4 4 3.3V3L3.8 3l-.1-.2c-.1 0 0 0 0-.1v-.2-.1c0-.1.3-.4.5-.4l.2-.1h.1s0-.2.2-.2H5l.2-.1h.1l.2-.2h.2l.3-.1h.4l.3.3v.1l.1.2.1.2.1.1c.1 0 0 0 0 .1l.1.2c.1 0 0 0 0 .1 0 .2.4.6.4.4h1.2v-.2h.1l.1-.3v-.2l.1-.1V2l.1-.1.3-.4.6-.2h.4l.3.2.2.1h.2l.2.1.2.1c0 .1 0 0 0 0 .2 0 .6.5.6.6l.1.3v.1L12 3v.2l-.1.2v.2h-.2V4l-.1.1c-.2 0 0 .3.4.7s.6.5.6.4h.1l.2-.2.2-.1.2-.2.3-.2h.1l.4-.1c.3 0 .3 0 .6.3l.2.3.2.2v.1l.3.3.2.3v.1c.2.1.2.2.2.4v.3l-.1.1-.3.3-.2.1-.3.2-.2.2-.3.2-.1.1-.2.1-.4.4v.1l.1.4v.9l-.1.5-.1.3v.2l-.1.1v.2h-.2V11.4l-.1.1v.1l-.2.2-.1.2a3.5 3.5 0 0 1-1 1l-.3.1-.2.1-.1.1c0 .1 0 0-.2 0v.1h-.3l-.2.1v.1s-.4.2-.6.5a3.2 3.2 0 0 1-.8.6l-.2.1-.4.1h-.4l-.1-.2-.2.1-.4.1h-.3zm1.6-1.2h.4l.3-.1.3-.1h.3l.2-.1.1-.1c0-.1 0 0 .1 0l.1-.1c0-.1 0 0 .1 0 .2 0 .6-.5.6-.6v-.2l.1-.1.1-.3v-.2l.1-1V10l-.1-.1c0-.2-.2-.3-.4-.3H11l-.4-.1h-.4v-.1c-.2 0-.2 0-.2-.2l-.1-.2v-.1l.2.2.2.1h.2l-.1-.3a.3.3 0 0 0-.2-.2v-.2L9.6 8c-.4-.3-.5-.5-.7-.5H9h-.6v.2h.1v.2l.1.2v.2l.1.2.1.2c.1 0 0 .1 0 .2V9h.9v-.1-.2c0-.2-.1-.2-.2-.2 0-.1.3-.1.4 0v.8h-.6l-.6-.1c0-.1 0 0-.1 0L8.2 9 8.1 9c-.1 0 0 0 0 .1l-.3.1-.1.1H5.8V9v-.3l-.2.2V9l-.2.1c0 .2-.2.4-.5.4h-.2v.1c-.3 0-.4.2-.4 1.2l.1 1c.1 0 0 0 0 .1l.1.1v.2l.1.2.1.1.2.3.3.2h.1l.1.1.2.1c0 .1 0 0 0 0l.2.1h.3l.2.1.4.1H7l1 .1h.9zm-1.2-1v-.2-.1l-.1-.1-.1-.1c-.1 0 0-.2 0-.4v-.4H7.7l.4-.1h.3l.2.1c.2 0 .2 0 .2.3v.2l-.1.2v.2h-.2l-.1.3-.4.2-.4-.1zm.7-.1a.4.4 0 0 0 .1-.3l-.3-.1h-.4v.3c.2.2.5.2.6 0zm-3-.5c-.2 0-.3-.2-.3-.3l-.2-.1-.2-.1v-.2h.1V11v-.2l.1-.2h.2c-.2 0-.1-.3 0-.4H5.7l.3.1c0 .1 0 0 0 0l.4.3.2.5c0 .3 0 .3-.3.6-.3.2-.3.3-.6.3l-.2-.1zm.5-.8l.1-.1c.1 0 0 0 0-.1v-.1l-.2-.1h-.2c-.1 0-.2 0-.2.2h.1c.1 0 0 .2 0 .2l.3.1h.1zm4.3.8l-.2-.1-.1-.2v-.1l-.1-.2-.1-.2v-.3c0-.1.3-.4.5-.4l.3-.1c.2 0 .3 0 .4-.2H11.2l.1.3c-.1 0 0 .2 0 .2l.2.1c.1.1.1.1 0 .2l-.2.1.2.2c.2.1.1.3 0 .3-.2 0-.3 0-.4.2l-.3.1v.1h-.6zm.3-.7h.1l.1-.2c0-.2 0-.4-.2-.4s-.3.4-.2.5c.1.1.2.2.2 0zM5.8 6.7H6v-.2l.1-.1c.1 0 .1-.4 0-.4l.2-.2.4-.4-.2-.1h-.2l-.2-.1h-.3-.2c-.2 0-.1.1-.1.1l-.2.1-.1.1v-.3h.2V5c0-.1.1 0 .2 0 .2 0 .2-.1.2-.2l-.3-.1c-.4 0-.5 0-.3-.2H6l.4.3.3.3V5v-.2l-.1-.1-.3-.3-.3-.1H6l-.2-.1h-.1l-.2.1c-.2 0-.3 0-.4.2l-.3.3v.6l.1.1c.1 0 0 0 0 .1v.2c-.2 0-.3.1-.3.4s.1.4.3.4l.5.1h.4zm5 0c.2 0 .3-.2.3-.4.1-.1.1-.1 0-.1a.1.1 0 0 1 0-.2l-.2-.3a.4.4 0 0 1-.3-.2h.1l.2-.1v-.2V5v-.2-.1c0-.2-.3-.4-.5-.4h-.2l-.3-.1h-.3-.1c-.2 0-.5.3-.5.5l-.1.3V5s.2 0 .3-.2l.4-.3h1s0 .2-.4.2H10l.3.2.4.3h-.4l-.2-.1h-.6H9c0 .2.4.5.5.5l.1.2c0 .2 0 0 0 0v.2c0 .2.2.5.3.5h.1l.4.1h.3zm-3.1-.8l.1-.1.2.1.4.2.1-.1h.1l.2-.1.1-.2v-.2l-.1-.1v-.1l-.2-.1V5s-.2 0-.2.2l.1.2v.1l.1.1c0 .1 0 .2-.2.2L8 5.6l-.2-.2-.1.2-.4.2-.1-.3v-.2l.1-.1V5l-.4.4V6H7l.2.1h.2c0 .2 0 .1.3 0z" fill="#b3aeb1"/><path d="M7.3 14.8h-.1l-.2-.2-.2-.1-.5-.4-.5-.5h-.1-.1l-.1-.1-.2-.1H5l-.1-.1-.2-.1c0-.1 0 0 0 0l-.2-.1c0-.1 0 0-.1 0l-.2-.2-.2-.1A5.3 5.3 0 0 1 3 11.4l-.1-.2-.2-.2a.3.3 0 0 1 0-.2l-.2-.2v-.3-.2l-.1-.4-.1-.3v-1-.2L2 8l-.2-.2h-.1l-.3-.3-.2-.2-.3-.1L.7 7l-.3-.2c-.2-.2-.2-.3-.2-.6V6l.2-.1.2-.3.2-.3.1-.1.1-.2c0-.1.4-.5.6-.5l.2-.1H2l.1.1h.2v.1l.3.2.3.2.2.1.2.1c.2 0 0 0 0 .1l.6-.4c.4-.4.5-.5.5-.7L4.3 4c-.1 0 0 0 0-.1l-.1-.1-.1-.2v-.2L4 3.2V3l-.1-.4v-.4C4 2 4 2 4.2 2h.1l.1-.1h.2l.1-.1h.1l.1-.1.2-.1c0-.1 0 0 .1 0l.2-.1c0-.1 0 0 .2 0v-.2H5.9l.2-.1h.2c.2 0 .6.5.6.7V2l.1.1v.2H7l.1.2c.1 0 0 0 0 .2s.2.3.9.3c.6 0 .8 0 .8-.3v-.3l.2-.1v-.2c0-.2 0 0 0 0l.1-.2.1-.1c.1 0 0 0 0-.1s.3-.4.5-.4l.2-.1H10.2l.2.1.1.1h.2l.2.1.2.1c0 .1 0 0 .1 0l.1.1c0 .1.1 0 .2 0V2l.2.1.4.4.1.3v.1L12 3v.2l-.1.1-.1.2c-.1 0 0 0 0 0l-.1.2c-.1 0 0 0 0 .2l-.1.2c-.2 0 0 .2.4.6.4.5.6.6.8.3h.2l.2-.3.3-.1.1-.2H14.5l.4.4.2.2.2.3.2.2c.2.1.1.2.1.3h.1c.1 0 0 .1 0 .2l.1.1.1.2c0 .2 0 .3-.3.6l-.4.3-.3.2-.2.2-.2.1-.2.1-.3.2-.2.2v2l-.1.2v.2l-.1.2-.1.2c-.1 0 0 0 0 .1l-.1.1c-.1 0 0 0 0 .1l-.2.2-.1.2-.2.2-.2.3-.4.3-.2.2-.3.2-.2.1-.2.2c0 .2-.1 0-.2 0v.1l-.3.1h-.2l-.1.1c-.2 0-.5.3-.5.4l-.5.5h-.2s0 .2-.2.2l-.2.1-.1.1c0 .1 0 0-.2 0h-.2-.1l-.1-.1c0-.1 0 0-.1 0H8l-.2.1h-.5zm1.6-1.2h.4l.3-.1.3-.1h.3l.2-.1.1-.1c0-.1 0 0 .1 0l.1-.1c0-.1 0 0 .1 0 .2 0 .6-.5.6-.6v-.2l.1-.1.1-.3v-.2l.1-1V10l-.1-.1c0-.2-.2-.3-.4-.3H11l-.4-.1h-.4v-.1c-.2 0-.2 0-.2-.2l-.1-.2v-.1l-.1.2v.3h-.6l-.6-.1c0-.1 0 0-.1 0-.2 0-.2 0-.2-.2L8.2 9 8 9l-.1.1-.2.1H5.8V9v-.3l-.2.2V9l-.1.1c0 .2-.3.4-.6.4l-.4.1-.1 1.2V12l.1.1v.2l.2.2v.1l.2.3.3.2h.1l.1.1.2.1c0 .1 0 0 .1 0l.1.1h.3l.2.1.4.1H7l1 .1h.9zm-1.2-1v-.2-.1l-.1-.1-.1-.1c-.1 0 0-.2 0-.4v-.4h.4l.3-.1h.3l.2.1c.2 0 .2 0 .2.3v.2l-.1.2v.2h-.2l-.1.3-.4.2-.4-.1zm.7-.1a.4.4 0 0 0 .1-.3l-.3-.1h-.4v.3c.2.2.5.2.6 0zm-3-.5c-.2 0-.3-.2-.3-.3l-.2-.1-.2-.1v-.2h.1V11v-.2l.1-.2h.2c-.2 0-.1-.3 0-.4H5.7l.3.1c0 .1 0 0 0 0l.4.3.2.5c0 .3 0 .3-.3.6-.3.2-.3.3-.6.3l-.2-.1zm.6-.8c.2-.1 0-.5-.2-.5-.3 0-.4.4-.3.5.1.2.4.2.5 0zm4.3.8H10l-.1-.2-.1-.1v-.1l-.1-.4.1-.6.3-.1.3-.1c.2 0 .3 0 .4-.2H11.2c.1.2.2.2.1.3-.1 0 0 .2 0 .2l.2.1c.1.1.1.1 0 .2l-.2.1.2.2c.2.1.1.3 0 .3-.2 0-.3 0-.4.2l-.3.1v.1h-.6zm.4-.8l.1-.1v-.3a.4.4 0 0 0-.2 0c-.2 0-.3 0-.3.3 0 .2 0 .2.2.2h.2zm-.3-2c.1-.1.1-.1 0-.1v-.2a.3.3 0 0 0-.2-.3v-.2L9.6 8 9 7.5l-.2-.1h-.6v.2l.1.1v.1l.1.2v.2s.2 0 .2.2v.4c0 .3.2.4.6.4.3 0 .3 0 .3-.2v-.2-.2-.2l.4.5a1 1 0 0 0 .3.4l.1-.1zM5.8 6.7H6c.2 0 .3-.3.3-.6v-.3c.2 0 .5-.3.5-.4l-.2-.1h-.2L6 5.1h-.3-.1l-.1.1H5l.3-.1V5c0-.1.2 0 .4 0C6 5 6 5 6 4.8l-.5-.1H5l.5-.1h.7l.3.3.2.2V5v-.2l-.1-.1-.3-.3-.3-.1H6l-.2-.1-.3.1c-.2 0-.3 0-.4.2-.2.1-.2.3-.2.3l-.1.1c-.1 0 0 0 0 .2v.2l.1.2c.1 0 0 0 0 .1v.2c-.2 0-.3.1-.3.4s.1.4.3.4l.5.1h.4zm5 0c.2 0 .3-.2.3-.4.1-.1.1-.1 0-.1a.1.1 0 0 1 0-.2l-.2-.3a.4.4 0 0 1-.3-.2h.1l.2-.1v-.2V5v-.2-.1c0-.2-.3-.4-.5-.4h-.2l-.3-.1h-.3-.1c-.2 0-.5.3-.5.5l-.1.3.1.1h.1c0-.2.2-.3.3-.3l.1-.1c0-.1.1 0 .2 0l.3-.1h.5c.2.2.1.2-.3.2h-.5c-.1.2 0 .2.2.2h.3l.1.1.3.2h-.2-.2c-.2 0 0 0 0-.1h-.8H9c0 .2.4.5.5.5l.1.1c0 .1 0 0 0 0v.7h.1l.2.2h.8zm-3.1-.8l.1-.1.2.1.4.2.1-.1h.1l.2-.1.1-.2v-.2l-.1-.1v-.1l-.2-.1V5s-.2 0-.2.2l.1.2v.1l.1.1c0 .1 0 .2-.2.2L8 5.6l-.2-.2-.1.2-.4.2-.1-.3v-.2l.1-.1V5l-.4.4V6H7l.2.1h.2c0 .2 0 .1.3 0z" fill="#9ca2c7"/><path d="M7.3 14.8h-.1l-.2-.2-.2-.1-.5-.4-.5-.5h-.1-.1l-.1-.1-.2-.1H5l-.1-.1-.2-.1c0-.1 0 0 0 0l-.2-.1c0-.1 0 0-.1 0l-.2-.2-.2-.1A5.3 5.3 0 0 1 3 11.4l-.1-.2-.2-.2a.3.3 0 0 1 0-.2l-.2-.2v-.3-.2l-.1-.4-.1-.3v-1-.2L2 8l-.2-.2h-.1l-.3-.3-.2-.2-.3-.1L.7 7l-.3-.2c-.2-.2-.2-.3-.2-.6V6l.2-.1.2-.3.2-.3.1-.1.1-.2c0-.1.4-.5.6-.5l.2-.1H2l.1.1h.2v.1l.3.2.3.2.2.1.2.1c.2 0 0 0 0 .1l.6-.4c.4-.4.5-.5.5-.7L4.3 4c-.1 0 0 0 0-.1l-.1-.1-.1-.2v-.2L4 3.2V3l-.1-.4v-.4C4 2 4 2 4.2 2h.1l.1-.1h.2l.1-.1h.1l.1-.1.2-.1c0-.1 0 0 .1 0l.2-.1c0-.1 0 0 .2 0v-.2H5.9l.2-.1h.2c.2 0 .6.5.6.7V2l.1.1v.2H7l.1.2c.1 0 0 0 0 .2s.2.3.9.3c.6 0 .8 0 .8-.3v-.3l.2-.1v-.2c0-.2 0 0 0 0l.1-.2.1-.1c.1 0 0 0 0-.1s.3-.4.5-.4l.2-.1H10.2l.2.1.1.1h.2l.2.1.2.1c0 .1 0 0 .1 0l.1.1c0 .1.1 0 .2 0V2l.2.1.4.4.1.3v.1L12 3v.2l-.1.1-.1.2c-.1 0 0 0 0 0l-.1.2c-.1 0 0 0 0 .2l-.1.2c-.2 0 0 .2.4.6.4.5.6.6.8.3h.2l.2-.3.3-.1.1-.2H14.5l.4.4.2.2.2.3.2.2c.2.1.1.2.1.3h.1c.1 0 0 .1 0 .2l.1.1.1.2c0 .2 0 .3-.3.6l-.4.3-.3.2-.2.2-.2.1-.2.1-.3.2-.2.2v2l-.1.2v.2l-.1.2-.1.2c-.1 0 0 0 0 .1l-.1.1c-.1 0 0 0 0 .1l-.2.2-.1.2-.2.2-.2.3-.4.3-.2.2-.3.2-.2.1-.2.2c0 .2-.1 0-.2 0v.1l-.3.1h-.2l-.1.1c-.2 0-.5.3-.5.4l-.5.5h-.2s0 .2-.2.2l-.2.1-.1.1c0 .1 0 0-.2 0h-.2-.1l-.1-.1c0-.1 0 0-.1 0H8l-.2.1h-.5zm1.6-1.2h.4l.3-.1.3-.1h.3l.2-.1.1-.1c0-.1 0 0 .1 0l.1-.1c0-.1 0 0 .1 0 .2 0 .6-.5.6-.6v-.2l.1-.1.1-.3v-.2l.1-1V10l-.1-.1c0-.2-.2-.3-.4-.3H11l-.4-.1h-.4v-.1c-.2 0-.2 0-.2-.2l-.1-.2v-.1l-.1.2v.3h-.6l-.6-.1c0-.1 0 0-.1 0-.2 0-.2 0-.2-.2L8.2 9 8 9l-.1.1-.2.1H5.8V9v-.3l-.2.2V9l-.1.1c0 .2-.3.4-.6.4l-.4.1-.1 1.2V12l.1.1v.2l.2.2v.1l.2.3.3.2h.1l.1.1.2.1c0 .1 0 0 .1 0l.1.1h.3l.2.1.4.1H7l1 .1h.9zm-1.2-1v-.2-.1l-.1-.1-.1-.1c-.1 0 0-.2 0-.4v-.4h.4l.3-.1h.3l.2.1c.2 0 .2 0 .2.3v.2l-.1.2v.2h-.2l-.1.3-.4.2-.4-.1zm.7-.1a.4.4 0 0 0 .1-.3l-.3-.1h-.4v.3c.2.2.5.2.6 0zm-3-.5c-.2 0-.3-.2-.3-.3l-.2-.1-.2-.1v-.2h.1V11v-.2l.1-.2h.2c-.2 0-.1-.3 0-.4H5.7l.3.1c0 .1 0 0 0 0l.4.3.2.5c0 .3 0 .3-.3.6-.3.2-.3.3-.6.3l-.2-.1zm.6-.8c.2-.1 0-.5-.2-.5-.3 0-.4.4-.3.5.1.2.4.2.5 0zm4.3.8H10l-.1-.2-.1-.1v-.1l-.1-.4.1-.6.3-.1.3-.1c.2 0 .3 0 .4-.2H11.2c.1.2.2.2.1.3-.1 0 0 .2 0 .2l.2.1c.1.1.1.1 0 .2l-.2.1.2.2c.2.1.1.3 0 .3-.2 0-.3 0-.4.2l-.3.1v.1h-.6zm.4-.8l.1-.1v-.3a.4.4 0 0 0-.2 0c-.2 0-.3 0-.3.3 0 .2 0 .2.2.2h.2zm-.3-2c.1-.1.1-.1 0-.1v-.2a.3.3 0 0 0-.2-.3v-.2L9.6 8 9 7.5l-.2-.1h-.6v.2l.1.1v.1l.1.2v.2s.2 0 .2.2v.4c0 .3.2.4.6.4.3 0 .3 0 .3-.2v-.2-.2-.2l.4.5a1 1 0 0 0 .3.4l.1-.1zM5.6 6.8h.1a.5.5 0 0 0 .3-.2c.2-.1.2-.2.2-.5v-.3l.3-.2.2-.2v-.1l.1-.3v-.2l-.1-.1-.3-.3-.3-.1H6l-.2-.1h-.1-.2c-.2 0-.3.1-.4.3-.2.1-.2.3-.2.3l-.1.1c-.1 0 0 0 0 .2v.2l.1.2-.2.3-.2.4c0 .1.4.5.6.5h.1l.2.1h.2zM5 5.4l.3-.2V5c0-.1.2 0 .4 0C6 5 6 5 6 4.8l-.5-.1H5l.5-.1h.6c.2 0 .5.4.5.5h-.4-.6-.1l-.1.1c0 .1-.1 0-.2 0H5zm6 1.1c.1-.2.2-.5 0-.5v-.1-.2c-.2 0-.4-.2-.3-.2v-.1l.1-.1V5v-.2-.1c0-.2-.3-.4-.5-.4h-.2l-.3-.1h-.3-.1c-.2 0-.5.3-.5.5l-.1.3.1.1h.1c0-.2.2-.3.3-.3h.1l.3-.1.2-.1h.5c.2.2.1.2-.3.2h-.5c-.1.2 0 .2.2.2h.3l.1.1.3.3h-.2l-.2-.1c-.2 0 0 0 0-.1h-.8H9c0 .2.5.6.5.6h.1V6l-.2.1v.1l.1.1c0 .1 0 .2.2.3l.6.1c.5 0 .5 0 .7-.2zM7.6 6l.1-.2.2.2.4.2.1-.1h.1l.2-.1.1-.2v-.2l-.1-.1v-.1s-.2 0-.2-.2-.2 0-.2 0v.2h.1v.2l.1.1c0 .1 0 .2-.2.2L8 5.6l-.2-.2-.1.2-.4.2-.1-.3v-.2l.1-.2c0-.2 0 0 0 0l-.4.3V6H7.2l.2.1h.3z" fill="#5aa6dd"/><path d="M7.3 14.8h-.1l-.2-.2-.2-.1-.5-.4-.5-.5h-.1-.1l-.1-.1-.2-.1H5l-.1-.1-.2-.1c0-.1 0 0 0 0l-.2-.1c0-.1 0 0-.1 0l-.2-.2-.2-.1A5.3 5.3 0 0 1 3 11.4l-.1-.2-.2-.2a.3.3 0 0 1 0-.2l-.2-.2v-.3-.2l-.1-.4-.1-.3v-1-.2L2 8l-.2-.2h-.1l-.3-.3-.2-.2-.3-.1L.7 7l-.3-.2c-.2-.2-.2-.3-.2-.6V6l.2-.1.2-.3.2-.3.1-.1.1-.2c0-.1.4-.5.6-.5l.2-.1H2l.1.1h.2v.1l.3.2.3.2.2.1.2.1c.2 0 0 0 0 .1l.6-.4c.4-.4.5-.5.5-.7L4.3 4c-.1 0 0 0 0-.1l-.1-.1-.1-.2v-.2L4 3.2V3l-.1-.4v-.4C4 2 4 2 4.2 2h.1l.1-.1h.2l.1-.1h.1l.1-.1.2-.1c0-.1 0 0 .1 0l.2-.1c0-.1 0 0 .2 0v-.2H5.9l.2-.1h.2c.2 0 .6.5.6.7V2l.1.1v.2H7l.1.2c.1 0 0 0 0 .2s.2.3.9.3c.6 0 .8 0 .8-.3v-.3l.2-.1v-.2c0-.2 0 0 0 0l.1-.2.1-.1c.1 0 0 0 0-.1s.3-.4.5-.4l.2-.1H10.2l.2.1.1.1h.2l.2.1.2.1c0 .1 0 0 .1 0l.1.1c0 .1.1 0 .2 0V2l.2.1.4.4.1.3v.1L12 3v.2l-.1.1-.1.2c-.1 0 0 0 0 0l-.1.2c-.1 0 0 0 0 .2l-.1.2c-.2 0 0 .2.4.6.4.5.6.6.8.3h.2l.2-.3.3-.1.1-.2H14.5l.4.4.2.2.2.3.2.2c.2.1.1.2.1.3h.1c.1 0 0 .1 0 .2l.1.1.1.2c0 .2 0 .3-.3.6l-.4.3-.3.2-.2.2-.2.1-.2.1-.3.2-.2.2v2l-.1.2v.2l-.1.2-.1.2c-.1 0 0 0 0 .1l-.1.1c-.1 0 0 0 0 .1l-.2.2-.1.2-.2.2-.2.3-.4.3-.2.2-.3.2-.2.1-.2.2c0 .2-.1 0-.2 0v.1l-.3.1h-.2l-.1.1c-.2 0-.5.3-.5.4l-.5.5h-.2s0 .2-.2.2l-.2.1-.1.1c0 .1 0 0-.2 0h-.2-.1l-.1-.1c0-.1 0 0-.1 0H8l-.2.1h-.5zm1.6-1.2h.4l.3-.1.3-.1h.3l.2-.1.1-.1c0-.1 0 0 .1 0l.1-.1c0-.1 0 0 .1 0 .2 0 .6-.5.6-.6v-.2l.1-.1.1-.3v-.2l.1-1V10l-.1-.1c0-.2-.2-.3-.4-.3H11l-.4-.1h-.4v-.1c-.2 0-.2 0-.2-.2l-.1-.2v-.1l-.1.2v.3h-.6l-.6-.1c0-.1 0 0-.1 0-.2 0-.2 0-.2-.2L8.2 9 8 9l-.1.1-.2.1H5.8V9v-.3l-.2.2V9l-.1.1c0 .2-.3.4-.6.4l-.4.1-.1 1.2V12l.1.1v.2l.2.2v.1l.2.3.3.2h.1l.1.1.2.1c0 .1 0 0 .1 0l.1.1h.3l.2.1.4.1H7l1 .1h.9zm-1.2-1v-.2-.1l-.1-.1-.1-.1c-.1 0 0-.2 0-.4v-.4h.4l.3-.1h.3l.2.1c.2 0 .2 0 .2.3v.2l-.1.2v.2h-.2l-.1.3-.4.2-.4-.1zm.7-.1a.4.4 0 0 0 .1-.3l-.3-.1h-.4v.3c.2.2.5.2.6 0zm-3-.5c-.2 0-.3-.2-.3-.3l-.2-.1-.2-.1v-.2h.1V11v-.2l.1-.2h.2c-.2 0-.1-.3 0-.4H5.7l.3.1c0 .1 0 0 0 0l.4.3.2.5c0 .3 0 .3-.3.6-.3.2-.3.3-.6.3l-.2-.1zm.6-.8c.2-.1 0-.5-.2-.5-.3 0-.4.4-.3.5.1.2.4.2.5 0zm4.3.8H10l-.1-.2-.1-.1v-.1l-.1-.4.1-.6.3-.1.3-.1c.2 0 .3 0 .4-.2H11.2c.1.2.2.2.1.3-.1 0 0 .2 0 .2l.2.1c.1.1.1.1 0 .2l-.2.1.2.2c.2.1.1.3 0 .3-.2 0-.3 0-.4.2l-.3.1v.1h-.6zm.4-.8l.1-.1v-.3a.4.4 0 0 0-.2 0c-.2 0-.3 0-.3.3 0 .2 0 .2.2.2h.2zm-.2-2V9l-.1-.1a.3.3 0 0 0-.2-.3v-.2L9.6 8 9 7.5l-.2-.1h-.6v.2l.1.1v.1l.1.2v.2s.2 0 .2.2v.4c0 .3.2.4.6.4.3 0 .3 0 .3-.2v-.2-.2-.2l.4.5.4.4v-.1zM5.8 6.8H6l.3-.3v-.1c.1 0 .1-.4 0-.4l.2-.2.3-.3v-.1l.1-.3c0-.3 0-.4-.2-.6l-.3-.2h-.1l-.4-.1h-.5c0 .2-.2.2-.2.2l-.3.3v.7l-.1.4a.6.6 0 0 0 0 .8l.2.1.5.1h.4zm-.7-1.4l.3-.2V5c0-.1.2 0 .4 0C6 5 6 5 6 4.8l-.5-.1H5l.5-.1h.6c.2 0 .5.4.5.5h-.4-.6-.1l-.1.1c0 .1-.1 0-.2 0H5zm5.6 1.4h.1l.3-.2a.6.6 0 0 0 0-.8l-.2-.4V5v-.3-.2h-.1l-.2-.2-.6-.1h-.5l-.4.3A.5.5 0 0 0 9 5v.3H9c0 .2.3.5.4.5h.1V6l-.1.2v.2h.1c0 .2.2.3.4.3h.1l.4.1h.3zm-.3-1.5h-.1l-.2-.1h-.7H9l.1-.2.3-.2h.1l.3-.1.2-.1h.5c.2.2.1.2-.3.2h-.5c-.1.2 0 .2.2.2h.4v.1l.3.2h-.2zM7.7 6l.2-.1.1.1.3.1h.2l.1-.1c.2 0 .5-.3.4-.3l-.1-.2v-.1l-.1-.1-.3-.3-.1.2v.2l.1.2-.1.2-.2-.1-.3-.3-.2.2-.4.2-.1-.2v-.2l.1-.1v-.1l.1-.1c0-.1-.3 0-.4 0v.2l-.1.1v.5L7 6l.3.1.3-.1z" fill="#02d5fb"/><path d="M7.3 14.8h-.1l-.2-.2-.2-.1-.5-.4-.5-.5h-.1-.1l-.1-.1-.2-.1H5l-.1-.1-.2-.1c0-.1 0 0 0 0l-.2-.1c0-.1 0 0-.1 0l-.2-.2-.2-.1A5.3 5.3 0 0 1 3 11.4l-.1-.2-.2-.2a.3.3 0 0 1 0-.2l-.2-.2v-.3-.2l-.1-.4-.1-.3v-1-.2L2 8l-.2-.2h-.1l-.3-.3-.2-.2-.3-.1L.7 7l-.3-.2c-.2-.2-.2-.3-.2-.6V6l.2-.1.2-.3.2-.3.1-.1.1-.2c0-.1.4-.5.6-.5l.2-.1H2l.1.1h.2v.1l.3.2.3.2.2.1.2.1c.2 0 0 0 0 .1l.6-.4c.4-.4.5-.5.5-.7L4.3 4c-.1 0 0 0 0-.1l-.1-.1-.1-.2v-.2L4 3.2V3l-.1-.4v-.4C4 2 4 2 4.2 2h.1l.1-.1h.2l.1-.1h.1l.1-.1.2-.1c0-.1 0 0 .1 0l.2-.1c0-.1 0 0 .2 0v-.2H5.9l.2-.1h.2c.2 0 .6.5.6.7V2l.1.1v.2H7l.1.2c.1 0 0 0 0 .2s.2.3.9.3c.6 0 .8 0 .8-.3v-.3l.2-.1v-.2c0-.2 0 0 0 0l.1-.2.1-.1c.1 0 0 0 0-.1s.3-.4.5-.4l.2-.1H10.2l.2.1.1.1h.2l.2.1.2.1c0 .1 0 0 .1 0l.1.1c0 .1.1 0 .2 0V2l.2.1.4.4.1.3v.1L12 3v.2l-.1.1-.1.2c-.1 0 0 0 0 0l-.1.2c-.1 0 0 0 0 .2l-.1.2c-.2 0 0 .2.4.6.4.5.6.6.8.3h.2l.2-.3.3-.1.1-.2H14.5l.4.4.2.2.2.3.2.2c.2.1.1.2.1.3h.1c.1 0 0 .1 0 .2l.1.1.1.2c0 .2 0 .3-.3.6l-.4.3-.3.2-.2.2-.2.1-.2.1-.3.2-.2.2v2l-.1.2v.2l-.1.2-.1.2c-.1 0 0 0 0 .1l-.1.1c-.1 0 0 0 0 .1l-.2.2-.1.2-.2.2-.2.3-.4.3-.2.2-.3.2-.2.1-.2.2c0 .2-.1 0-.2 0v.1l-.3.1h-.2l-.1.1c-.2 0-.5.3-.5.4l-.5.5h-.2s0 .2-.2.2l-.2.1-.1.1c0 .1 0 0-.2 0h-.2-.1l-.1-.1c0-.1 0 0-.1 0H8l-.2.1h-.5zm1.6-1.2h.4l.3-.1.3-.1h.3l.2-.1.1-.1c0-.1 0 0 .1 0l.1-.1c0-.1 0 0 .1 0 .2 0 .6-.5.6-.6v-.2l.1-.1.1-.3v-.2l.1-1V10l-.1-.1c0-.2-.2-.3-.4-.3H11l-.4-.1h-.4v-.1c-.2 0-.2 0-.2-.2l-.1-.2v-.1l-.1.2v.3h-.6l-.6-.1c0-.1 0 0-.1 0-.2 0-.2 0-.2-.2L8.2 9 8 9l-.1.1-.2.1H5.8V9v-.3l-.2.2V9l-.1.1c0 .2-.3.4-.6.4l-.4.1-.1 1.2V12l.1.1v.2l.2.2v.1l.2.3.3.2h.1l.1.1.2.1c0 .1 0 0 .1 0l.1.1h.3l.2.1.4.1H7l1 .1h.9zm-1.2-1v-.2-.1l-.1-.1-.1-.1c-.1 0 0-.2 0-.4v-.4h.4l.3-.1h.3l.2.1c.2 0 .2 0 .2.3v.2l-.1.2v.2h-.2l-.1.3-.4.2-.4-.1zm.7-.1a.4.4 0 0 0 .1-.3l-.3-.1h-.4v.3c.2.2.5.2.6 0zm-3-.5c-.2 0-.3-.2-.3-.3l-.2-.1-.2-.1v-.2h.1V11v-.2l.1-.2h.2c-.2 0-.1-.3 0-.4H5.7l.3.1c0 .1 0 0 0 0l.4.3.2.5c0 .3 0 .3-.3.6-.3.2-.3.3-.6.3l-.2-.1zm.6-.8c.2-.1 0-.5-.2-.5-.3 0-.4.4-.3.5.1.2.4.2.5 0zm4.3.8H10l-.1-.2-.1-.1v-.1l-.1-.4.1-.6.3-.1.3-.1c.2 0 .3 0 .4-.2H11.2c.1.2.2.2.1.3-.1 0 0 .2 0 .2l.2.1c.1.1.1.1 0 .2l-.2.1.2.2c.2.1.1.3 0 .3-.2 0-.3 0-.4.2l-.3.1v.1h-.6zm.4-.8l.1-.1v-.3a.4.4 0 0 0-.2 0c-.2 0-.3 0-.3.3 0 .2 0 .2.2.2h.2zM5 9.3c.2 0 .3-.2.3-.3s.5-.7.7-.7v.5.3H8v-.4c0-.2.1-.4.3-.4v.2l.1.3.1.1.2.1H9l.4.1h.3V9v-.2l-.1-.2v-.2l.5.5.4.4.1-.1h.4l.3.1c0 .1 0 0 0 0h.2l-.1-.3c-.1 0 0 0 0 0a3.3 3.3 0 0 0-1.1-1l-.2-.2h-.1l-.1-.1h-.2l-.2-.1h-.1L9 7.4l-.2-.1c0-.1-.3 0-.8 0h-.8H7l-.3.1c0 .1 0 0-.2 0l-.2.1c0 .1 0 0 0 0l-.2.2H5.9V8a4 4 0 0 0-1 1l-.1.1c-.1 0 0 0 0 .1l-.1.2h-.1.4zm.8-2.5H6l.3-.3v-.1c.1 0 .1-.4 0-.4l.2-.2.3-.3v-.1l.1-.3c0-.3 0-.4-.2-.6l-.3-.2h-.1l-.4-.1h-.5c0 .2-.2.2-.2.2l-.3.3v.7l-.1.3a.6.6 0 0 0 0 .9l.2.1.5.1h.4zm-.7-1.5l.3-.2h.4C6 5 6 5 6 4.8l-.5-.1h-.4l.5-.1h.7c.1 0 .4.3.4.5h-.2-.2-.6-.1l-.1.1c0 .1-.1 0-.2 0H5zm5.7 1.5l.3-.2a.6.6 0 0 0 0-.9c-.2-.1-.3-.3-.2-.3L11 5v-.3l-.1-.2h-.1l-.2-.2-.6-.1h-.5l-.4.3A.5.5 0 0 0 9 5v.3H9c0 .2.3.5.4.5h.1V6l-.1.2v.2h.1c0 .2.2.3.4.3h.1l.4.1h.3zm-.4-1.5h-.1l-.2-.1h-.7H9l.2-.2.2-.2h.1l.3-.1.2-.1h.5c.2.2.2.2-.3.2h-.5c-.1.2 0 .2.3.2h.3v.1c.2 0 .3.2.3.2h-.2zM7.7 6l.2-.1.1.1.3.1h.2l.1-.1c.2 0 .5-.3.4-.3l-.1-.2v-.1l-.1-.1-.3-.3-.1.2v.2l.1.2-.1.2-.2-.1-.3-.3-.2.2-.4.2-.1-.2v-.2l.1-.1v-.1l.1-.1c0-.1-.3 0-.4 0v.2l-.1.1v.5L7 6l.3.1.3-.1z" fill="#aa9394"/><path d="M7.4 14.8h-.1l-.1-.1-.1-.1-.2-.1-.2-.1c-.1 0-.5-.4-.5-.6H6l-.2-.2h-.3l-.1-.1-.2-.1H5l-.1-.1-.2-.1c0-.1 0 0 0 0l-.3-.2-.2-.1-.1-.1-.2-.1a3.5 3.5 0 0 1-1-1l-.1-.3-.2-.2v-.1-.1l-.1-.2-.2-.2v-.2-.3l-.1-.6-.1-.6c-.1 0 0 0 0-.2v-.2-.2-.1L2 8l-.2-.2-.3-.2-.2-.1-.1-.1-.3-.2L.7 7l-.3-.2c-.2-.2-.3-.3-.3-.6 0-.2 0-.3.2-.4l.2-.3.2-.2c.2 0 0 0 0-.1L1 5l.1-.2.4-.4h.1l.2-.1H2l.1.1.2.1.2.2h.2l.1.2s.2 0 .3.2.2.2.2.2c.2 0 1.2-1 1.1-1.1V4l-.1-.2v-.1l-.1-.1-.1-.2c0-.2 0 0 0 0L4 3 3.9 3v-.3-.3-.2h.2l.1-.2H4.5v-.1h.2l.1-.1.2-.1c0-.1 0 0 .1 0l.2-.1c0-.1 0 0 .2 0v-.2H6c.4 0 .4 0 .6.2l.2.4V2l.1.1v.2H7l.1.2c.1 0 0 0 0 .2s.2.3.9.3c.6 0 .8 0 .8-.3s0-.1 0-.2l.1-.1.1-.1v-.2l.1-.1v-.2l.2-.1c0-.1.2-.4.4-.4l.2-.1H10.2l.2.1.2.1h.1l.2.1.2.1c0 .1 0 0 .1 0l.1.1c0 .1.1 0 .2 0V2l.2.1c.1 0 .4.3.4.5v.1c.1 0 .1 0 0 .1v.4l-.1.2-.1.2c-.1 0 0 0 0 0l-.1.2c-.1 0 0 0 0 .1l-.2.1v.3l.2.4.5.3.3.4.2-.2.3-.2.2-.2c.1-.2.2-.1.3-.1v-.1c0-.1.1 0 .2 0l.1-.1.3-.1h.2l.1.1.3.3.2.2c.2.1.2.2.2.3l.1.2.2.3.1.1.2.2v.5c0 .2-.4.6-.5.6 0 0-.2 0-.3.2s-.2.2-.2.2l-.3.1-.2.2-.2.1-.2.2v1c0 .5-.1.9-.2.9v.6l-.1.1-.1.2c-.1 0 0 0 0 0l-.1.2c-.1 0 0 0 0 .1l-.1.1-.1.2c0 .2 0 0 0 0l-.1.2a6.2 6.2 0 0 1-1.5 1.3h-.1s0 .2-.2.2H11l-.1.1-.1.1h-.2l-.1.1-.7.6-.7.5-.2.1-.1.1c0 .1 0 0-.1 0h-.2l-.2-.1h-.5-.1l-.1.1c0 .1 0 0-.2 0zM9 13.6h.4l.3-.1.3-.1h.2l.2-.1v-.1c0-.1.1 0 .2 0l.1-.1c0-.1 0 0 .1 0l.5-.6h.1c.1 0 0-.1 0-.2l.1-.1.1-.2v-.2l.1-1-.1-1.2a.5.5 0 0 0-.3-.1H11l-.4-.1h-.3v-.2h.5l.3.1c0 .1 0 0 0 0l.2-.1-.1-.2c-.1 0 0 0 0 0a3.3 3.3 0 0 0-1.1-1l-.2-.2h-.1l-.1-.1h-.2l-.2-.1c-.2 0-.1 0-.1-.1H9l-.2-.1c0-.1-.1 0-.2 0l-.3-.2h-.1l-.5.1h-.5l-.2.1-.3.1c0 .1 0 0-.2 0l-.2.1c0 .1 0 0 0 0l-.2.1-.1.1h-.2V8a4 4 0 0 0-1 1l-.1.1c-.1 0 0 0 0 .1l-.1.2h-.1.4c.2 0 .3-.2.3-.3s.5-.7.7-.7V9c0 .1.4.2.4 0H8v-.3c0-.2.1-.4.3-.4v.2l.1.3.1.1.3.1h.2l-.3.1h-.3L8 8.7V9h-.6l-.4.1H5.8V9v-.3l-.3.4-.3.3H5l-.3.1h-.2l-.1.1c-.1 0-.2 0-.2 1.1l.1 1.1c.1 0 0 0 0 .2l.1.2c.1 0 0 0 0 .1l.2.1v.1l.2.3.3.2h.1l.1.1.2.1c0 .1 0 0 0 0l.2.1h.3l.2.1.3.1H7l1 .1H9zm-1.3-1.2l-.2-.4v-.2c-.1 0 0-.3 0-.4h1.3v.8h-.2l-.1.3c-.2.2-.5.2-.8 0zm.7 0a.4.4 0 0 0 .1-.2l-.3-.1h-.4v.3c.2.2.5.2.6 0zM5.6 12h-.1l-.3-.2c-.1-.2-.2-.2-.3-.2l-.2-.1.1-.2c.2 0 .2-.1 0-.3v-.2H5v-.3c-.1 0 .1-.3.3-.3.1 0 .2 0 .2.2h.3c.3 0 .4.1.5.2l.1.3.2.4c0 .2 0 .3-.3.5-.2.2-.3.3-.5.3l-.2-.1zm.5-.9c0-.2-.1-.4-.3-.4s-.3.2-.3.4v.2H6zm4.3.9h-.1l-.3-.3c-.2-.2-.2-.2-.2-.5v-.3-.2h.2l.1-.1.1-.1h.2c0-.2.2-.2.2 0l.2-.1a.4.4 0 0 1 .3-.2l.1.2V10.7l.3.1c.1.1.1.1 0 .2-.2.1-.2.3 0 .3v.2c0 .2 0 0-.1 0l-.3.3-.3.1-.2.1c0 .1 0 0-.1 0h-.1zm.3-.8l.1-.1v-.3a.4.4 0 0 0-.2 0c-.2 0-.3 0-.3.3 0 .2 0 .2.2.2h.2zm-1.4-2h.1c.2 0 .2 0 .2-.2h.1c0 .3 0 .3-.2.3h-.2zm.7 0V9h-.1l-.1-.2-.2-.1v-.3l.4.5.1.2.1.1H10zM5.8 6.8H6l.3-.3v-.1c.1 0 .1-.4 0-.4l.2-.2.3-.3v-.1l.1-.3c0-.3 0-.4-.2-.6l-.3-.2h-.1l-.4-.1h-.5c0 .2-.2.2-.2.2l-.3.3v.7l-.2.4a.6.6 0 0 0 0 .8l.3.1.5.1h.4zm-.7-1.5h.1l.1-.1c0-.1 0 0 .2 0V5h.3c.3 0 .3-.1.2-.2l-.5-.1H5l.5-.1h.6c.2 0 .5.4.5.5H6.4h-.7-.2l-.2.1c0 .1 0 0 0 0H5zm5.6 1.5h.1l.3-.2a.6.6 0 0 0 0-.8l-.2-.4V5v-.3-.2h-.1l-.2-.2-.6-.1h-.5l-.4.3A.5.5 0 0 0 9 5v.3H9c0 .2.3.4.4.4l.1.2-.1.3v.2h.1c0 .2.2.3.3.3h.2l.4.1h.3zm-.3-1.5h-.1l-.2-.1c0-.1-.2 0-.4 0h-.4H9c-.2 0 0 0 0 0V5l.3-.2h.1l.3-.1.2-.1h.5c.2.2.1.2-.3.2h-.5c-.1.2 0 .2.2.2h.3l.1.1.3.2h-.2zM7.7 6l.2-.1.1.1.3.1h.2l.1-.1c.2 0 .5-.3.4-.3l-.1-.2v-.1l-.1-.1-.3-.3-.1.2v.2l.1.2c0 .1 0 .2-.2.2l-.1-.1-.3-.3-.2.2c-.1.2-.3.2-.4.2l-.1-.2v-.2-.1l.2-.1V5c0-.1-.3 0-.4 0v.2l-.1.1v.5L7 6l.3.1.3-.1z" fill="#958b8f"/><path d="M7.2 14.7H7l-.6-.6-.6-.5h-.3l-.1-.2h-.2l-.2-.1H5s0-.2-.2-.2h-.2l-.1-.1-.1-.1c-.1 0-.2 0-.3-.2s-.2-.2-.2-.2l-.7-.6-.1-.2-.2-.3-.2-.2v-.1-.2l-.1-.2v-.1l-.2-.1v-.2-.2l-.1-1c0-.9 0-.9-.2-1L2 7.9s-.2 0-.3-.2-.2-.1-.2-.1l-.2-.2c0-.2-.1 0-.2 0l-.2-.2-.1-.1-.3-.2a.5.5 0 0 1-.2-.5V6l.3-.3.2-.3v-.2l.2-.2L1 5l.1-.2.3-.3h.2l.2-.2.3.1s.2 0 .3.2l.2.2.2.1.2.1.2.1.1.2c.2 0 1.2-1 1.2-1.2l-.1-.2h-.1c-.1 0 0-.1 0-.2l-.1-.1v-.2c0-.2-.1 0-.1 0L4 3V3l-.1-.3a.5.5 0 0 1 .2-.5l.3-.2.3-.1h.2v-.1l.2-.1c0-.1 0 0 .1 0l.1-.1.2-.1h.2l.4-.1.4.1.2.3.1.2V2l.1.2.1.2c.1 0 0 0 0 0l.1.2c.1 0 0 0 0 .1 0 .2.2.3 1 .3l.7-.1v-.2l.1-.1v-.2l.1-.1v-.2h.1l.1-.2c.1 0 0 0 0-.2l.2-.3.6-.1h.4v.1h.2l.2.1h.2l.1.2H11.4c.2 0 0 .1 0 .1h.2a.5.5 0 0 1 .3.2c.2.2.2.2.2.6V3l-.1.1v.1l-.1.2c0 .2 0 0-.1 0v.3l-.1.1-.1.3c0 .2.2.5.4.5l.2.2.4.4.2-.2c0-.2.1 0 .1 0l.3-.3.3-.1.1-.2h.2l.1-.1.2-.1c.2 0 .3 0 .6.3l.3.4.2.3.2.2.1.2.2.2V6c.2 0 .3.4.1.4 0 .2-.4.6-.5.6l-.2.1-.2.1-.2.2-.3.2-.2.2c-.1.2-.2.2-.3.2v1l-.1.9-.1.2v.3l-.1.1v.1l-.2.2V11.2l-.1.1-.1.1-.1.2-.1.2a4.5 4.5 0 0 1-1.2 1.1l-.2.1h-.1l-.1.1-.2.1c0 .1 0 0 0 0l-.2.1h-.2l-.2.1v.1l-.7.6-.7.5-.4.1-.5-.1c0-.1-.1-.1-.1 0H8l-.5.1h-.3zM9 13.6h.4l.3-.1.3-.1h.2l.2-.1.2-.2h.2l.5-.6h.1c.1 0 0-.1 0-.2l.1-.1.1-.2v-.2l.1-1v-1l-.1-.2h-.2l-.2-.1-.3-.1-.4-.1v-.1h.4l.3.1c0 .1 0 0 0 0h.2l-.1-.3c-.1 0 0 0 0 0a3.3 3.3 0 0 0-1.1-1l-.2-.2h-.1l-.1-.1h-.2l-.2-.1h-.1L9 7.4c-.2 0 0 0 0-.1h-.3l-.3-.1-.1-.1h-.1l-.5.1h-.5l-.2.2h-.3-.2l-.2.1-.2.2H5.9V8a4 4 0 0 0-1 1l-.1.1c-.1 0 0 0 0 .2h-.1l-.1.1H5c.2 0 .3-.2.3-.3s.5-.7.7-.7v.8H8v-.3c0-.3.1-.5.3-.5v.2l.1.3.1.1.2.1h.2s-.1.2-.3.2c-.2 0-.2 0-.2-.2l-.1-.2c-.1 0-.2 0-.2.2v.2H6.4h-.6V9l-.1-.3h-.1V9l-.1.1-.1.1c-.1 0 0 .1 0 .2h-.2l-.2.1-.3.1c-.3 0-.4 0-.4 1.2l.1 1.1c.1 0 0 .1 0 .2l.1.2v.1l.2.1v.1l.2.3.3.2h.1l.2.1c.2 0 0 0 0 .1h.2l.1.1.3.1h.2l.3.1H7l1 .1H9zm-1.3-1.1l-.2-.5v-.2c-.1 0 0-.3 0-.4h1.3c.1.1.1.1 0 .2v.6h-.2l-.1.3c-.2.2-.5.2-.8 0zm.7 0a.4.4 0 0 0 .1-.3l-.3-.1h-.4v.3c.2.2.5.2.6 0zM5.6 12h-.1l-.3-.3-.3-.1-.2-.1.1-.2c.2 0 .2-.1 0-.3v-.2H5v-.3c0-.2 0-.3.3-.3.1 0 .2 0 .2.2h.3c.3 0 .4.1.5.2l.1.3h.1v.6l-.3.3c-.1.2-.2.2-.4.2h-.2zm.5-.9c0-.2-.1-.4-.3-.4s-.3.2-.3.4v.2H6zm4.3.9h-.1l-.3-.3c-.2-.2-.2-.2-.2-.5s0-.3.2-.5c.1-.2.2-.2.5-.2l.3-.1a.3.3 0 0 1 .3-.2l.1.2V10.7c.3 0 .3 0 .3.2v.2l-.2.1.1.1c.1 0 0 0 0 .1v.2s-.2 0-.3.2l-.3.1-.2.1c0 .1 0 0-.1 0h-.1zm.4-.8a.3.3 0 0 0 0-.2l-.3-.4-.1.1-.2.1v.4l.3.1h.3zM9.6 9.1h.1c-.1 0 0 0 0 0zm0-.6s0-.1 0 0 .2.2 0 .2v-.1zM5.7 6.8H6l.3-.3v-.1c.1 0 .1-.4 0-.4l.2-.2.3-.3v-.1l.1-.3c0-.3 0-.4-.2-.6l-.3-.2h-.1l-.4-.1-.5.1-.2.1-.3.3v.7l-.2.4a.6.6 0 0 0 0 .8l.3.1.5.1h.4zm-.6-1.4l.3-.2V5c0-.1.2 0 .4 0 .3 0 .3-.1.2-.2l-.5-.1h-.4l.4-.1h.5l.2.1.1.1.2.1v.2c0 .1 0 0 0 0h-.2-.8-.2c-.2 0 0 .1 0 .1h-.1zm5.5 1.4h.1l.3-.2a.6.6 0 0 0 0-.8l-.2-.4V5v-.3-.2h-.1l-.2-.2-.6-.1h-.5v.1l-.4.2A.5.5 0 0 0 9 5v.3H9c0 .2.3.4.4.4l.1.2V6l-.1.2v.2h.1c0 .2.2.3.3.3h.2l.4.1h.3zm-.3-1.5H10l-.4-.1h-.4-.1c-.1 0 0 0 0-.1v-.2l.3-.1.5-.1H10.1c-.3 0-.4.1-.5.2-.1.1-.1.1.2.1h.3l.2.1c.1 0 .2 0 .2.2s-.1 0-.1 0zM7.7 6l.2-.1.1.1.3.1h.2l.1-.1.4-.3-.1-.2v-.1l-.1-.1-.3-.3-.1.2v.2l.1.2c0 .1 0 .2-.2.2l-.1-.1-.3-.3-.2.2-.4.2-.1-.2v-.2l.1-.1v-.1l.1-.1c0-.1-.3 0-.4 0v.2h-.1V6L7 6l.3.1.3-.1z" fill="#a87985"/><path d="M7.2 14.7H7l-.6-.6-.6-.5h-.3l-.1-.2h-.2l-.2-.1H5s0-.2-.2-.2h-.2l-.1-.1-.1-.1c-.1 0-.2 0-.3-.2s-.2-.2-.2-.2l-.7-.6-.1-.2-.2-.3-.2-.2v-.1-.2l-.1-.2v-.1l-.2-.1v-.2-.2l-.1-1c0-.9 0-.9-.2-1L2 7.9s-.2 0-.3-.2-.2-.1-.2-.1l-.2-.2c0-.2-.1 0-.2 0l-.2-.2-.1-.1-.3-.2a.5.5 0 0 1-.2-.5V6l.3-.3.2-.3v-.2l.2-.2L1 5l.1-.2.3-.3h.2l.2-.2.3.1s.2 0 .3.2l.2.2.2.1.2.1.2.1.1.2c.2 0 1.2-1 1.2-1.2l-.1-.2h-.1c-.1 0 0-.1 0-.2l-.1-.1v-.2c0-.2-.1 0-.1 0L4 3V3l-.1-.3a.5.5 0 0 1 .2-.5l.3-.2.3-.1h.2v-.1l.2-.1c0-.1 0 0 .1 0l.1-.1.2-.1h.2l.4-.1.4.1.2.3.1.2V2l.1.2.1.2c.1 0 0 0 0 0l.1.2c.1 0 0 0 0 .1 0 .2.2.3 1 .3l.7-.1v-.2l.1-.1v-.2l.1-.1v-.2h.1l.1-.2c.1 0 0 0 0-.2l.2-.3.6-.1h.4v.1h.2l.2.1h.2l.1.2H11.4c.2 0 0 .1 0 .1h.2a.5.5 0 0 1 .3.2c.2.2.2.2.2.6V3l-.1.1v.1l-.1.2c0 .2 0 0-.1 0v.3l-.1.1-.1.3c0 .2.2.5.4.5l.2.2.4.4.2-.2c0-.2.1 0 .1 0l.3-.3.3-.1.1-.2h.2l.1-.1.2-.1c.2 0 .3 0 .6.3l.3.4.2.3.2.2.1.2.2.2V6c.2 0 .3.4.1.4 0 .2-.4.6-.5.6l-.2.1-.2.1-.2.2-.3.2-.2.2c-.1.2-.2.2-.3.2v1l-.1.9-.1.2v.3l-.1.1v.1l-.2.2V11.2l-.1.1-.1.1-.1.2-.1.2a4.5 4.5 0 0 1-1.2 1.1l-.2.1h-.1l-.1.1-.2.1c0 .1 0 0 0 0l-.2.1h-.2l-.2.1v.1l-.7.6-.7.5-.4.1-.5-.1c0-.1-.1-.1-.1 0H8l-.5.1h-.3zm2-1.1h.3l.4-.1.2-.1h.3v-.1h.2l.1-.2.4-.3.4-.4v-.1l.1-.2V12l.1-1V9.6h-.1c0-.2 0-.2-.2-.2h-.2l-.3-.1-.4-.1V9l.1.1h.3l.3.1h.2l-.1-.3c-.1 0 0 0 0 0a3.3 3.3 0 0 0-1.1-1l-.2-.2h-.1l-.1-.1h-.2l-.1-.1h-.2L9 7.4c-.2 0 0 0 0-.1h-.3l-.3-.1h-.2-1l-.2.2h-.3-.2l-.2.1-.2.2H5.9V8a4 4 0 0 0-1 1l-.1.1c-.1 0 0 0 0 .2s-.1 0-.1 0l-.1.1H5c.2 0 .3-.2.3-.3s.5-.7.7-.7v.8H8v-.4c0-.2.1-.4.3-.4v.2l.1.3.1.1.2.1h.2l-.3.1-.2-.1-.2-.3V9h-.9l-.8.1h-.6V9v-.4l-.2.3V9l-.1.1-.1.1c-.1 0 0 .1 0 .2h-.2l-.2.1-.3.1c-.3 0-.4.1-.4.5v1.3l.1.6c.1 0 0 .1 0 .2l.1.2v.1l.4.4.5.3v.1c0 .1.1 0 .2 0l.1.1.2.1H6l.3.1h.4a9.4 9.4 0 0 0 2.3 0zm-1.7-1.7v-.5h1.3c.1.1.1.1 0 .2v.3l-.1.3-.2-.1-.4-.2-.2.1c0 .1 0 0-.1 0l-.1.1c0 .1 0 0-.1 0V12zm-2.3-.1c0-.2-.2-.2-.3-.2l-.2-.1.1-.2c.2 0 .2-.1 0-.3v-.2H5v-.3c0-.2.1-.3.2-.3l.2.2h.4l.5.2.1.3h.1v.6l-.2.3-.5.1-.6-.1zm.9-.7c0-.2-.1-.4-.3-.4s-.3.2-.3.4v.2H6zm3.9.6a.6.6 0 0 1-.2-.5c0-.3 0-.3.2-.5s.2-.2.5-.2l.3-.1a.3.3 0 0 1 .3-.2l.1.2V10.7c.3 0 .3 0 .3.2v.2l-.2.1.1.1c.1 0 0 0 0 .1l-.1.2-.2.1-.1.1h-.1l-.4.1c-.3 0-.4 0-.5-.2zm.8-.4a.3.3 0 0 0 0-.3c0-.1-.2-.5-.3-.4l-.1.1-.2.1v.4l.3.1h.3zM9.6 9h.1c-.1 0 0 0 0 0zm0-.6c0-.1 0-.1 0 0s.2.2 0 .2v-.2zM5.7 6.8H6l.3-.3v-.1c.1 0 .1-.4 0-.4l.2-.2.3-.3v-.1l.1-.3c0-.3 0-.4-.2-.6l-.3-.2h-.1l-.4-.1-.5.1-.2.1-.3.3v.7l-.2.4a.6.6 0 0 0 0 .8l.3.1.5.1h.4zm-.6-1.4l.3-.2V5c0-.1.2 0 .4 0 .3 0 .3-.1.2-.2l-.5-.1h-.4l.4-.1h.5l.2.1.1.1.2.1v.2c0 .1 0 0 0 0h-.2-.8-.2c-.2 0 0 .1 0 .1h-.1zm5.5 1.4h.1l.3-.2a.6.6 0 0 0 0-.8l-.2-.4V5v-.3-.2h-.1l-.2-.2-.6-.1h-.5v.1l-.4.2A.5.5 0 0 0 9 5v.3H9c0 .2.3.4.4.4l.1.2V6l-.1.2v.2h.1c0 .2.2.3.3.3h.2l.4.1h.3zm-.3-1.5H10l-.4-.1h-.4-.1c-.1 0 0 0 0-.1v-.2l.3-.1.5-.1H10.1c-.3 0-.4.1-.5.2-.1.1-.1.1.2.1h.3l.2.1c.1 0 .2 0 .2.2s-.1 0-.1 0zM7.7 6l.2-.1.1.1.3.1h.2l.1-.1.4-.3-.1-.2v-.1l-.1-.1-.3-.3-.1.2v.2l.1.2c0 .1 0 .2-.2.2l-.1-.1-.3-.3-.2.2-.4.2-.1-.2v-.2l.1-.1v-.1l.1-.1c0-.1-.3 0-.4 0v.2h-.1V6L7 6l.3.1.3-.1z" fill="#0093e0"/><path d="M7.2 14.7H7l-.6-.6-.6-.5h-.3l-.1-.2h-.2l-.2-.1H5s0-.2-.2-.2h-.2l-.1-.1-.1-.1c-.1 0-.2 0-.3-.2s-.2-.2-.2-.2l-.7-.6-.1-.2-.2-.3-.2-.2v-.1-.2l-.1-.2v-.1l-.2-.1v-.2-.2l-.1-1c0-.9 0-.9-.2-1L2 7.9s-.2 0-.3-.2-.2-.1-.2-.1l-.2-.2c0-.2-.1 0-.2 0l-.2-.2-.1-.1-.3-.2a.5.5 0 0 1-.2-.5V6l.3-.3.2-.3v-.2l.2-.2L1 5l.1-.2.3-.3h.2l.2-.2.3.1s.2 0 .3.2l.2.2.2.1.2.1.2.1.1.2c.2 0 1.2-1 1.2-1.2l-.1-.2h-.1c-.1 0 0-.1 0-.2l-.1-.1v-.2c0-.2-.1 0-.1 0L4 3V3l-.1-.3a.5.5 0 0 1 .2-.5l.3-.2.3-.1h.2v-.1l.2-.1c0-.1 0 0 .1 0l.1-.1.2-.1h.2l.4-.1.4.1.2.3.1.2V2l.1.2.1.2c.1 0 0 0 0 0l.1.2c.1 0 0 0 0 .1 0 .2.2.3 1 .3l.7-.1v-.2l.1-.1v-.2l.1-.1v-.2h.1l.1-.2c.1 0 0 0 0-.2l.2-.3.6-.1h.4v.1h.2l.2.1h.2l.1.2H11.4c.2 0 0 .1 0 .1h.2a.5.5 0 0 1 .3.2c.2.2.2.2.2.6V3l-.1.1v.1l-.1.2c0 .2 0 0-.1 0v.3l-.1.1-.1.3c0 .2.2.5.4.5l.2.2.4.4.2-.2c0-.2.1 0 .1 0l.3-.3.3-.1.1-.2h.2l.1-.1.2-.1c.2 0 .3 0 .6.3l.3.4.2.3.2.2.1.2.2.2V6c.2 0 .3.4.1.4 0 .2-.4.6-.5.6l-.2.1-.2.1-.2.2-.3.2-.2.2c-.1.2-.2.2-.3.2v1l-.1.9-.1.2v.3l-.1.1v.1l-.2.2V11.2l-.1.1-.1.1-.1.2-.1.2a4.5 4.5 0 0 1-1.2 1.1l-.2.1h-.1l-.1.1-.2.1c0 .1 0 0 0 0l-.2.1h-.2l-.2.1v.1l-.7.6-.7.5-.4.1-.5-.1c0-.1-.1-.1-.1 0H8l-.5.1h-.3zm1.7-.3l.4-.3c.1-.2.3-.2.4-.2v-.2l-.2.1H8.4v.3l.1.3H8.8zm-1-.1c0-.2 0-.3-.2-.3h-.2c0-.2-.2-.1-.2 0h-.1c0-.1-.4-.2-.4 0l.2.2.5.2.3-.1zm1.2-.7h.4l.4-.1.2-.1h.3v-.1h.2l.1-.2.4-.3.4-.4v-.1l.1-.2V12l.1-1V9.6h-.1c0-.2 0-.2-.2-.2h-.2l-.3-.1-.4-.1V9l.1.1h.3l.3.1h.2c.2 0 0 0 0 0v-.1l-.1-.2c-.1 0 0 0 0 0a3.3 3.3 0 0 0-1.1-1l-.2-.2h-.1l-.1-.1h-.2l-.1-.1h-.2L9 7.4c-.2 0 0 0 0-.1h-.3l-.3-.1-.1-.1h-.1l-.5.1h-.5l-.2.2h-.3-.2l-.2.1-.2.2H6l-.1.1a4 4 0 0 0-1 1l-.1.1c-.1 0 0 0 0 .2h-.1l-.1.1H5c.2 0 .3-.2.3-.3v-.1h.2c0-.2.4-.6.5-.6V9.2H6h-.3V9v-.4l-.2.3V9l-.1.1-.1.2c-.1 0 0 0 0 0 0 .2-.1.2-.2.2H5l-.3.1c-.3 0-.4.1-.4.5v1.3l.1.6c.1 0 0 .1 0 .2l.1.2v.1l.4.4.5.3v.1c0 .1.1 0 .2 0l.1.1h.2c.2 0 .2.1.2.2h.7a9.4 9.4 0 0 0 2.3 0zm-1.6-1.7v-.5h1.3c.1.1.1.1 0 .2v.3l-.1.3-.2-.1-.4-.2-.2.1c0 .1 0 0-.1 0l-.1.1c0 .1 0 0-.1 0V12zm-2.3-.2a.5.5 0 0 0-.3-.1l-.2-.1.1-.2c.2 0 .2-.1 0-.3v-.2H5v-.3c0-.2.1-.3.2-.3l.2.2h.4l.5.2.1.3h.1v.6l-.2.3-.5.1-.6-.1zm.9-.6c0-.2-.1-.4-.3-.4s-.3.2-.3.4v.2H6zm3.9.6a.6.6 0 0 1-.2-.5c0-.3 0-.3.2-.5s.2-.2.5-.2l.3-.1a.3.3 0 0 1 .3-.2l.1.2V10.7c.3 0 .3 0 .3.2v.2l-.2.1.1.1c.1 0 0 0 0 .1l-.1.2-.2.1-.1.1h-.1l-.4.1c-.3 0-.4 0-.5-.2zm.8-.5a.3.3 0 0 0 0-.2c0-.1-.2-.5-.3-.4l-.1.1-.2.1v.4l.3.1h.3zM6.6 9.1H7.9v-.3c0-.4.1-.6.3-.4v.2l.1.2.1.1.2.1.2.1h-.3L8.3 9 8 8.7v.5h-.8L6.6 9zm3 0h.1zm0-.6s0-.1 0 0 .2.2 0 .2v-.1zm2.8 3.5l.4-.6.1-.2.1-.1c.1 0 0 0 0-.1l.1-.1v-.2l.2-.2v-.2-.3l.1-.5.1-.6c.1 0 0 0 0-.1v-.1-.5l-.1-.5c-.1 0 0-.1 0-.2l-.1-.3-.1-.2V7l-.1-.2-.1-.2-.1-.1c-.1 0 0 0 0-.1l-.2-.2-.1-.2a11.1 11.1 0 0 0-1.8-1.7l-.2-.1-.2-.2h-.1-.2l-.2-.1-.2-.1h-.2l-.3-.1H9s-.3-.2-.9-.2l-.8.1h-.3l-.3.1-.3.1h-.2l-.1.1h-.2l-.1.1-.1.1c0 .1 0 0-.1 0l-.2.2-.2.1-.1.1-.1.1c-.1 0 0 .1 0 .2h-.3a3.7 3.7 0 0 0-1.1 1.1l-.1.2v.1l-.1.1-.2.2a.3.3 0 0 0 0 .3l-.2.1V7c0 .2 0 0 0 0l-.1.3-.1.3c-.1 0 0 .1 0 .4l-.1.4V9.8l.1.3c.1 0 0 0 0 .2l.1.2c.1 0 0 0 0 .2l.1.1.1.2c0 .2 0 0 0 0l.1.2.1.2.2.1.7.8h.1v-.1-.3l-.1-.3L4 11v-.5c-.1 0-.1 0 0-.1v-.3-.2l.1-.3v-.2l.1-.2.1-.2c.1 0 0 0 0 0l.2-.3.1-.1 1-1h.1l.1-.1.2-.1c0-.1 0 0 0 0l.2-.1c0-.1 0 0 .1 0l.1-.2h.4l.4-.1h.5l.5-.1H9l.3.1h.2c.2 0 .1.1.1.1l.2.1.2.1.1.1c0 .1 0 0 .1 0l.2.2.2.1.8.7v.2l.2.2.1.2a.3.3 0 0 1 .2.2v.4l.1.2.1.6v.7l-.1.5v.5h-.1v.2l.5-.4zM5.2 6.9h.2-.2zm5 0h.1c.1 0 0 0 0 0zm-5.4-.1H5zm1 0H6zm4 0h.1c.1 0 0 0 0 0zm1 0zm-6.3-.2c0-.1 0-.2.1 0h.1c0 .1 0 .1-.2 0zm1.7-.2h.1-.1zm3.2 0h.1-.1zm-5-.2V6v.2zm6.8 0V6l.1.2v0zm-2 0h.1c.1 0 0 0 0 0zm-3-.3h.1-.1zm3.2 0h.1-.1zm1.7-.1c-.1-.2 0-.2 0 0h.1c0 .1 0 0-.1 0zm-3.5-.2zm-2.4-.3l.3-.2H6c.3 0 .3-.1.2-.2l-.5-.1h-.4l.4-.1h.5l.2.1.1.1.1.1.1.1c.1 0 0 0 0 .1h-.2-.8-.2c-.2 0 0 0 0 .1h-.1-.1zm5.2 0h-.2v-.1h-.9-.1c-.1 0 0 0 0-.1v-.2l.2-.1.6-.1H10.1c-.3 0-.5.1-.5.2-.2.1-.1.1.2.1h.3l.2.1c.1 0 .2 0 .2.2s-.1 0-.1 0zm-1.7-.1V5c.1-.1.2-.1.2 0 0 .3 0 .3-.2.2zm2.3-.4v-.3l.1.3v.3l-.1-.3zM4.6 5v-.1h.1V5h-.1zm5.8-.9zM2.2 7.5l.1-.2c.1 0 0 0 0-.1l.1-.2c.1 0 0-.1 0-.2l.2-.2v-.1-.1l.1-.2L3 6v-.2l.2-.2-.4-.3-.2-.2-.3-.2-.1-.1c-.1-.1-.3-.2-.3 0h-.1c-.2 0-.3.1-.3.2l-.2.3-.2.2-.1.2-.1.2-.2.2v.6l.3.1.2.2.3.2.2.1.2.2h.1c.2.3.3.2.3 0zm11.7.1h.1l.3-.2.2-.2s.2 0 .3-.2.2-.2.2-.2l.2-.1c.3-.2.3-.6 0-.8v-.1l-.2-.3-.2-.2-.1-.2-.2-.2c0-.2-.5-.3-.6-.1l-.2.1-.2.1-.2.1-.3.3-.2.2h.1l.2.3v.2l.2.1v.2c0 .2 0 0 0 0l.1.2v.1l.2.2v.4l.1.2h.1v.2h.1zM5 4h.2l.1-.1.1-.1h.2v-.1h.2s0-.2.2-.2h.4c.2 0 .1-.1.1-.1l.3-.1h.2V3L6.8 3v-.2l-.1-.1v-.2l-.1-.2-.1-.2c-.1 0 0 0 0 0 0-.2-.2-.4-.3-.4H6h-.2l-.1.1c0 .1 0 0-.2 0l-.2.1L5 2l-.2.1h-.2l-.1.1-.1.1c0 .1 0 0-.1 0s-.2.1-.2.4V3l.1.1.1.2c.1 0 0 0 0 .1l.1.2.1.2.1.1V4H5zm6.5 0v-.2-.2l.1-.2h.1V3l.1-.4c0-.3 0-.5-.3-.5h-.2-.1L11 2h-.4l-.1-.1h-.1l-.2-.1-.2-.1h-.1a.1.1 0 0 1-.1 0c-.2 0-.3.2-.3.4v.1l-.1.2-.1.3-.1.1v.3l.3.1h.1l.2.1.2.1c0 .1 0 0 .2 0l.2.1c0 .1 0 0 0 0l.2.1.1.1.2.1.3.1h.1z" fill="#8c7075"/><path d="M7.1 14.6l-.2-.1-.5-.4-.5-.5h-.3l-.1-.1-.2-.1-.2-.1H5s0-.2-.2-.2h-.2l-.1-.1h-.1l-.4-.4c-.1-.2-.4-.3-.4-.3h-.1l-.3-.4c-.2-.1-.2-.3-.2-.3l-.1-.2a.3.3 0 0 1-.1-.3l-.1-.1c-.1 0 0 0 0-.2h-.1c-.1 0 0-.1 0-.2l-.2-.1v-.3-.2l-.1-.9v-.9L2 8c-.2 0-.3-.2-.3-.2l-.2-.1-.2-.1-.2-.2-.3-.2-.2-.1L.5 7v-.1l-.2-.2-.1-.3V6c.2 0 .2-.2.2-.2l.1-.2.2-.2.1-.2L1 5l.3-.3c.3-.3.3-.3.6-.3H2l.1.1.2.2h.2L3 5 3 5l.1.1c0 .1.1 0 .2 0 .2 0 .3 0 .3-.2l.4-.3c.1 0 .4-.3.4-.5v-.1l-.1-.2c0-.2 0 0-.1 0v-.3l-.1-.1-.1-.2L4 3V3l-.1-.3v-.2-.1c0-.2.4-.4.5-.4h.2l.1-.1h.1l.2-.1v-.1h.3l.2-.1c0-.1 0 0 0 0l.2-.2h.6l.1.1.3.3.1.3v.1l.1.2.2.2v.2l.2.3c.2.1.4.2.4 0h.5l.6-.1v-.2l.2-.2v-.1-.1l.1-.2.1-.2c.1 0 0 0 0-.1l.1-.1c.1 0 0-.1 0-.2h.2l.1-.2h.6l.2.1h.2l.2.1s.2 0 .2.2.2 0 .3 0l.2.1V2h.2l.1.1.2.1v1l-.1.1c-.1 0 0 0 0 .2h-.1v.3l-.1.1-.1.3c0 .1 0 .2.5.6.4.4.6.6.6.4h.1l.3-.2.2-.2.2-.1.2-.1.2-.2c0-.1.4-.1.4 0h.1c.1 0 .6.5.6.7l.2.1c.2.1 0 .1 0 .2l.3.2.1.3.1.1v.7l-.3.3s-.2 0-.2.2-.3.1-.3.1l-.2.2c0 .2-.1 0-.1 0l-.3.3-.3.1c-.2 0-.2.2-.2 1.1v.9l-.1.2v.3l-.1.1-.1.2c-.1 0 0 .1 0 .2l-.1.2c-.1 0 0 0 0 .1l-.1.1-.1.1c0 .1 0 .2-.2.3s-.2.2-.2.2l-.7.8-.2.1-.2.1-.2.1-.2.2H11 11l-.1.1-.2.1c-.2 0 0 0 0 0l-.2.1-.6.5-.5.5h-.1l-.2.1c-.2 0 0 0 0 0l-.4.1h-.4l-.1-.2-.2.1-.5.1h-.4zm1.8-.2H9l.3-.3c.1-.2.3-.2.4-.2v-.1h-.2-1.1v.3l.1.3H9zm-1-.1c0-.2 0-.3-.2-.3h-.2c0-.2-.2-.1-.2 0h-.1c0-.1-.4-.2-.4 0l.2.1.5.3.3-.1zm1.6-.7h.3l.2-.1.2-.1h.2l.1-.1c.1 0 .2 0 .3-.2s.1 0 .2 0c0 0 .3-.3.3-.5l.2-.1a.3.3 0 0 0 .1-.3v-.1l.1-.5v-.4l.1-.5v-.5-.2c0-.4-.2-.5-.4-.5h-.2l-.2-.1c-.3 0-.6-.1-.5-.2h.4l.3.1h.2c.2 0 0 0 0 0V9c0-.2 0 0-.1 0v-.2a3.3 3.3 0 0 0-1.1-1H10l-.1-.1-.1-.1h-.2l-.1-.1h-.2L9 7.4c-.2 0 0 0 0-.1h-.3l-.1-.1h-.4-1l-.2.2h-.3-.2l-.2.1v.1h-.2l-.1.1H6l-.1.1a4 4 0 0 0-1 1l-.1.1c-.1 0 0 0 0 .1l-.1.2h-.1.4c.2 0 .3-.2.3-.3l.1-.1c.1 0 0 0 0 0 0-.2.5-.6.6-.6v.8h.2l.2.1h-.6V9v-.3H6c0-.2-.2-.2-.3 0l-.1.1V9l-.1.1-.1.1c-.1 0 0 .1 0 .2h-.2l-.2.2h-.2c-.3 0-.4.1-.4.4l-.1.2v1.5l.1.3c.1 0 0 .1 0 .2l.1.2.1.1v.1l.1.1.4.4.2.2c0 .2.1 0 .2 0l.2.1.2.1H6l.2.1h.3l1.4.1h1.5zm-2-1.8v-.5h1.3v.8h-.2l-.2-.1c0-.1 0 0-.2 0h-.3-.1l-.1.1c0 .1 0 0 0 0l-.1-.3zm-2 0h-.2s-.2-.1-.2-.3-.1 0-.1 0h-.1c-.1 0 0 0 0 0v-.2-.3c-.2 0-.2-.1-.1-.2h.3l.1-.1-.1-.3c0-.2.2-.2.3 0h.4l.3.1v.1c.2 0 .3.1.3.3h.1v.6l-.2.3-.5.1h-.3zm.6-.6v-.1c.2 0-.2-.4-.4-.4h-.1l-.1.1-.2.1c0 .1 0 0 0 0l.2.3.3.1H6zm4 .6c-.2 0-.2-.2-.2-.3l-.1-.3a.5.5 0 0 1 .2-.5c.1-.2.2-.2.4-.2l.4-.1a.3.3 0 0 1 .3-.2l.1.2v.2l.1.1c.1 0 .2 0 .2.2l-.1.2v.4s-.2 0-.3.2l-.6.2-.5-.1zm.8-.7a.5.5 0 0 0-.2-.4c-.1 0-.2-.1-.2 0h-.1l-.2.1v.4l.4.1h.3zm-4.3-2H7.9v-.4c0-.3.1-.5.3-.3v.2l.1.2.1.1.2.1h.2l-.3.1-.2-.1v-.2l-.1-.1-.1-.1v.6h-.8L6.6 9zm3-.6c0-.1 0-.1 0 0s.2.2 0 .2v-.2zm2.8 3.5l.4-.6.1-.2.1-.1c.1 0 0 0 0-.1l.1-.1.1-.2v-.2l.1-.3V10l.1-.5.1-.6c.1 0 0 0 0-.1v-.1-.5l-.1-.5v-.3l-.1-.2-.1-.2v-.2H13v-.2l-.1-.1-.1-.1c-.1 0 0 0 0-.1l-.2-.2-.1-.2a11.7 11.7 0 0 0-1.8-1.7l-.2-.1-.2-.2h-.1-.2l-.2-.2h-.4l-.3-.1H9s-.3-.2-.9-.2l-.8.1h-.3l-.3.1h-.3l-.2.1-.1.1h-.2l-.1.1-.1.1c0 .1 0 0-.1 0l-.2.2-.2.1-.1.1-.1.1c-.1 0 0 .1 0 .2h-.3a3.7 3.7 0 0 0-1.1 1.1l-.1.2v.1l-.1.1-.2.2a.3.3 0 0 0-.1.3v.2h-.1v.2l-.1.2-.1.3c-.1 0 0 .2 0 .4l-.1.4V9.8l.1.3c.1 0 0 .1 0 .2l.1.2c.1 0 0 0 0 .2l.1.2H3v.2h.1s0 .2.2.3 0 .1 0 .2l.8.7h.1v-.1-.3l-.1-.3L4 11v-.5c-.1 0-.1 0 0 0v-.4-.2l.1-.2v-.3l.1-.2v-.2h.1l.2-.2v-.2l1.1-1h.1l.1-.1H6l.2-.1v-.1c0-.1.1 0 .2 0l.1-.1h.2l.2-.1.4-.1h.5l.5-.1h.7l.4.2H9.6l.1.1h.2l.1.2h.2l.2.2.2.1.7.8.2.1.1.2.1.2a.3.3 0 0 1 .1.2l.1.2c.1 0 0 .1 0 .2l.1.2V11.7l-.1.5c-.1 0 0 0 0 .1v.1l.5-.4zM5.2 7l.2-.1h0-.2zm5 0l.1-.1c.1 0 0 0 0 0zm-5.4-.2H5c.1 0 0 0 0 0zm1 0H6c-.1 0 0 0 0 0zm4 0h.2-.1zm1 0zm-6.3-.2c0-.1 0-.2.1 0h.1c0 .1 0 .1-.2 0zm1.7-.2h.1-.1zm3.2 0h.1-.1zm-5-.2V6v.2zm6.8 0V6l.1.2v0zm-2 0h.1c.1 0 0 0 0 0zm-3-.3h.1V6h-.1zm3.2 0h.1V6h-.1zm1.7-.1c-.1-.1 0-.2 0 0h.2c0 .1-.2 0-.2 0zm-3.5-.2zm-2.4-.2l.3-.3H6c.3 0 .3 0 .2-.2l-.5-.1h-.4l.4-.1h.5c.2 0 .6.5.6.5H6.4h-.8-.1l-.2.1zm5.2 0l-.1-.1H10l-.5-.1h-.4a.8.8 0 0 1 .4-.4l.5-.1h0c-.3 0-.4.1-.5.2-.1.1-.1.1.2.1h.3l.2.2h.2v.2h-.1zm-1.7-.2V5c.2-.1.2-.1.2 0s0 .3-.2.2zm2.3-.4v-.3l.1.3v.3l-.1-.3zM4.6 5v-.1h.1V5h-.1zm5.8-.9h.1-.1zM2.3 7.5v-.2-.2c0-.2.1-.1.1-.1l.1-.2v-.2l.1-.1v-.1l.1-.2c0-.2 0 0 .1 0V6l.2-.2.1-.2-.3-.3-.3-.2-.3-.2-.1-.1c-.1-.1-.3-.2-.3 0h-.1l-.3.2s0 .2-.2.3l-.2.2v.2l-.2.2-.1.2c-.2 0-.2.4 0 .6l.2.1.3.2.2.2.2.1.2.2h.1c.2.3.4.2.4 0zm11.6.1h.1l.3-.2.3-.2.2-.2c.1-.2.2-.1.2-.1l.3-.2c.2-.2.2-.6 0-.8l-.1-.1-.2-.3-.2-.2-.1-.2-.1-.2c0-.2-.5-.3-.7-.1l-.2.1-.2.1-.1.2s-.2 0-.3.2l-.3.2h.2V6h.2V6.3l.1.2c0 .2 0 0 0 0l.2.2V6.9l.1.2.1.2v.2h.1v.2h.1zM5 4l.2-.1h.1l.1-.1h.2v-.1l.2-.1c0-.1 0 0 .2 0l.2-.1c0-.1 0 0 .2 0l.1-.1.3-.1h.2V3v-.2c0-.2-.1 0-.1 0l-.1-.3v-.1l-.1-.2-.1-.2c-.1 0 0 0 0-.1l-.3-.3H6c0-.1-.1-.1-.1 0h-.2l-.1.1c0 .1 0 0-.2 0l-.2.1c0 .1 0 0 0 0L5 2l-.2.1h-.2l-.1.1h-.1l-.1.1c-.1 0-.2 0-.2.3V3l.2.2V3.4l.1.2.2.2V4H5zm6.5-.1v-.1-.2l.1-.2.1-.1v-.1l.1-.4c0-.3 0-.5-.3-.5h-.2L11 2h-.4l-.1-.1-.1-.1c0-.1-.1 0-.2 0l-.2-.1c0-.1 0-.1-.1 0a.1.1 0 0 1-.1 0c-.2 0-.3.2-.3.4v.1l-.1.1v.2l-.1.1v.2c-.2 0-.2.2 0 .3l.2.1h.1l.2.1h.2l.2.1.2.1c0 .1 0 0 0 0l.2.1c0 .1 0 0 .1 0l.2.2.3.1h.1z" fill="#0191db"/><path d="M7.1 14.6l-.2-.1-.5-.4-.5-.5h-.3l-.1-.1-.2-.1-.2-.1H5s0-.2-.2-.2h-.2l-.1-.1h-.1l-.4-.4c-.1-.2-.4-.3-.4-.3h-.1l-.3-.4c-.2-.1-.2-.3-.2-.3l-.1-.2a.3.3 0 0 1-.1-.3l-.1-.1c-.1 0 0 0 0-.2h-.1c-.1 0 0-.1 0-.2l-.2-.1v-.3-.2l-.1-.9v-.9L2 8c-.2 0-.3-.2-.3-.2l-.2-.1-.2-.1-.2-.2-.3-.2-.2-.1L.5 7v-.1l-.2-.2-.1-.3V6c.2 0 .2-.2.2-.2l.1-.2.2-.2.1-.2L1 5l.3-.3c.3-.3.3-.3.6-.3H2l.1.1.2.2h.2L3 5 3 5l.1.1c0 .1.1 0 .2 0 .2 0 .3 0 .3-.2l.4-.3c.1 0 .4-.3.4-.5v-.1l-.1-.2c0-.2 0 0-.1 0v-.3l-.1-.1-.1-.2L4 3V3l-.1-.3v-.2-.1c0-.2.4-.4.5-.4h.2l.1-.1h.1l.2-.1v-.1h.3l.2-.1c0-.1 0 0 0 0l.2-.2h.6l.1.1.3.3.1.3v.1l.1.2.2.2v.2l.2.3c.2.1.4.2.4 0h.5l.6-.1v-.2l.2-.2v-.1-.1l.1-.2.1-.2c.1 0 0 0 0-.1l.1-.1c.1 0 0-.1 0-.2h.2l.1-.2h.6l.2.1h.2l.2.1s.2 0 .2.2.2 0 .3 0l.2.1V2h.2l.1.1.2.1v1l-.1.1c-.1 0 0 0 0 .2h-.1v.3l-.1.1-.1.3c0 .1 0 .2.5.6.4.4.6.6.6.4h.1l.3-.2.2-.2.2-.1.2-.1.2-.2c0-.1.4-.1.4 0h.1c.1 0 .6.5.6.7l.2.1c.2.1 0 .1 0 .2l.3.2.1.3.1.1v.7l-.3.3s-.2 0-.2.2-.3.1-.3.1l-.2.2c0 .2-.1 0-.1 0l-.3.3-.3.1c-.2 0-.2.2-.2 1.1v.9l-.1.2v.3l-.1.1-.1.2c-.1 0 0 .1 0 .2l-.1.2c-.1 0 0 0 0 .1l-.1.1-.1.1c0 .1 0 .2-.2.3s-.2.2-.2.2l-.7.8-.2.1-.2.1-.2.1-.2.2H11 11l-.1.1-.2.1c-.2 0 0 0 0 0l-.2.1-.6.5-.5.5h-.1l-.2.1c-.2 0 0 0 0 0l-.4.1h-.4l-.1-.2-.2.1-.5.1h-.4zm.7-.2l.1-.2.1-.2-.5-.1h-.6l-.2-.1h-.1l.6.6h.6zm1.2 0h.1l.7-.6H9h-.3c-.4 0-.4 0-.4.2v.1l.1.1v.2H9zm.5-.8h.3l.2-.1.2-.1h.2l.1-.1c.1 0 .2 0 .3-.2s.1 0 .2 0c0 0 .3-.3.3-.5l.2-.1a.3.3 0 0 0 .1-.3v-.1l.1-.5v-.4l.1-.5v-.5-.2c0-.4-.2-.5-.4-.5h-.2l-.3-.1h-.3l.3-.1h.5V9l-.2-.2-1-1H10l-.1-.2H9.6l-.1-.1h-.2L9 7.4c-.2 0 0 0 0-.1h-.3l-.1-.1h-.4-1.1s-.1.2-.3.2h-.2-.1l-.2.1-.2.2H6l-.1.1-.3.2-.3.2v.1l-.3.3-.3.4-.1.2h.2l.2.1-.3.1c-.2 0-.4.1-.4.4V11.6l.1.3c.1 0 0 .1 0 .2l.1.2v.1l.2.1v.1l.4.4.2.1.2.2h.2l.2.1H6l.2.1h.3l1.4.1h1.5zm-2-1.8v-.5h1.3v.8h-.2l-.2-.1c0-.1-.1 0-.2 0h-.3-.1l-.1.1c0 .1 0 0 0 0l-.2-.3zm-2 0h-.2s-.2-.1-.2-.3-.1 0-.1 0h-.1c-.1 0 0 0 0 0v-.2-.3c-.2 0-.2-.1-.1-.2h.3l.1-.1-.1-.3c0-.2.2-.2.3 0h.4l.3.1v.1c.2 0 .3.1.3.3h.1v.6l-.2.3-.5.1h-.3zm.6-.6v-.1c.2 0-.2-.4-.4-.4h-.1l-.2.1c-.2 0 0 0 0 .1v.3l.4.1H6zm4 .6c-.2 0-.2-.2-.2-.3l-.1-.3a.5.5 0 0 1 .2-.5c.1-.2.2-.2.4-.2l.4-.1a.3.3 0 0 1 .3-.2l.1.2v.2l.1.1c.1 0 .2 0 .2.2l-.1.2v.4s-.2 0-.3.2l-.6.2-.5-.1zm.8-.7a.5.5 0 0 0-.2-.4c-.1 0-.2-.1-.2 0h-.1l-.2.1v.4l.4.1h.3zM5 9.3h.1l.1-.3h.1c.1 0 0-.1 0-.2l.3-.3c.2-.2.2-.2.3-.1.1.1.1.1 0 .1s-.4.2-.4.3V9l-.1.1-.1.1c-.1 0 0 .1 0 .2h-.2-.1zm.7-.3v-.3s.2 0 .2.2v.2h.2l.3.1c0 .1-.2 0-.4 0h-.3zm1 0H8v-.2-.3H8v-.2c.2 0 .3.2.3.3v.2l.1.1.2.1h.2l-.3.1-.2-.1v-.2l-.1-.1v-.2l-.2.3v.3H6.8zm2.7-.5c0-.1 0-.1.2 0s0 .2 0 .2c-.1 0-.2 0-.2-.2zm-5.1 4l-.1-.2c-.1 0 0-.1 0-.2l-.1-.3v-1-1.2-.2c0-.2 0-.1.1-.1V9c0-.1 0 0 .1 0v-.2l.3-.3.3-.3.2-.2.3-.2.2-.2h.1l.2-.1c.2 0 0 0 0 0l.2-.1.1-.1c0-.1 0 0 .1 0l.2-.1h.2c.2 0 .3-.1.3-.2h2l.2.1h.2l.1.1h.2v.2H10.2l.2.1A5 5 0 0 1 11.7 9v.2h.1v.2l.1.2c0 .2 0 .1.1.1v2.4l-.1.2c-.1 0 0 0 0 .1v.1h.1c.2 0 .8-.7.8-.8l.1-.2.2-.2V11l.1-.1.1-.1v-.2l.1-.2v-.1l.1-.3.1-.3v-1V8v-.3l-.1-.3c-.1 0 0 0 0 0l-.1-.2-.1-.2v-.2H13v-.2l-.1-.1-.1-.2c-.1 0 0 0 0 0l-.2-.3-.1-.1c0-.1 0-.2-.2-.3l-.2-.2-.5-.5-.3-.3c0-.2-.3-.2-.3-.2H11l-.1-.1-.2-.1-.2-.2h-.1-.2l-.2-.1-.1-.1h-.1l-.3-.1h-.2L8 3.4H6.8h-.2l-.3.1h-.2c-.2 0-.1.1-.1.2h-.2l-.2.1-.1.1c0 .1 0 0-.1 0l-.2.2-.2.1s-.2 0-.3.2l-.2.2-.8.7-.1.2-.2.3-.1.2-.2.2v.2l-.1.1-.1.2V7l-.1.2c0 .2 0 .1-.1.1v.3l-.1.2v2.3l.1.3c.1 0 0 0 0 .2l.1.1c.1 0 0 0 0 .2H3V11.3l.1.1.2.3.2.2.6.6h.1l.1.1c.1 0 0 0 0 0zm.8-7.1l.3-.3H6c.3 0 .3 0 .2-.2l-.5-.1h-.4l.4-.1h.5c.2 0 .6.5.6.5H6.4h-.8-.1l-.2.1zm5.2 0l-.1-.1H10S10 5 9.6 5h-.4a.8.8 0 0 1 .4-.3l.5-.1h0c-.3 0-.4.1-.5.2-.1.1-.1.1.2.1h.3l.2.1c.2 0 .2 0 .2.2s-.1 0-.1 0zM2.3 7.6v-.1-.3l.1-.2.1-.1v-.2l.1-.1v-.2l.1-.1.1-.2c.1 0 0 0 0 0l.2-.3.1-.2c.2-.1-.1-.4-.2-.4L2.6 5l-.2-.2-.2-.1-.3-.1h-.3l-.2.2-.1.2-.2.2-.1.2-.2.3-.2.1c-.1.1 0 .2 0 .2l-.1.1v.4l.3.2.2.2H1l.3.3.3.1.1.2H2l.1.2.1-.1zm11.8 0c0-.2.2-.3.2-.3h.2l.2-.2.2-.2c.1-.2.2-.1.3-.1l.2-.2a.6.6 0 0 0 0-.8l-.2-.3-.2-.1c-.2 0 0-.2 0-.2l-.8-.8-.1.1c0 .1 0 0-.1 0l-.2.2-.2.1s-.2 0-.3.2-.2.2-.2.2c-.3 0-.3.4-.1.5V6l.1.1.1.1v.2h.1v.2l.1.1.1.1c.1 0 0 .1 0 .2l.1.2c.1 0 0 .1 0 .2 0 .2.2.4.3.4l.2-.2zM5 3.8h.1l.1-.2h.2c.2 0 0 0 0 0l.2-.1h.1l.2-.2h.4l.3-.1h.1L7 3v-.2-.1l-.1-.2-.1-.1v-.2h-.1L6.5 2c-.1 0 0 0 0-.1 0-.2-.2-.3-.5-.3l-.3.1c0 .1 0 0-.1 0l-.1.1c0 .1-.1 0-.2 0V2L5 2h-.2v.1h-.2l-.1.2c-.1 0-.4.2-.4.4v.2l.1.1v.2l.1.1.1.2c.1 0 0 0 0 0l.1.2v.2c0 .1.1.2.3.2L5 4zm6.3 0v-.2l.1-.1.1-.2v-.2l.1-.1V3l.1-.3c0-.3 0-.5-.2-.5h-.1-.2L11 2 11 2h-.1l-.2-.1h-.2l-.1-.2h-.1-.3c-.3 0-.5 0-.5.2V2l-.1.2v.2h-.1l-.1.2c-.1 0 0 0 0 .2L9 3C9 3 9 3 9 3l.1.2h.2l.2.1h.3l.1.1.1.1c0 .1.1 0 .2 0l.2.1h.1l.2.2.2.1.1.1c0 .1 0 0 .1 0h.2z" fill="#208cae"/><path d="M7.1 14.6l-.2-.1-.5-.4-.5-.5h-.3l-.1-.1-.2-.1-.2-.1H5s0-.2-.2-.2h-.2l-.1-.1h-.1l-.4-.4c-.1-.2-.4-.3-.4-.3h-.1l-.3-.4c-.2-.1-.2-.3-.2-.3l-.1-.2a.3.3 0 0 1-.1-.3l-.1-.1c-.1 0 0 0 0-.2h-.1c-.1 0 0-.1 0-.2l-.2-.1v-.3-.2l-.1-.9v-.9L2 8c-.2 0-.3-.2-.3-.2l-.2-.1-.2-.1-.2-.2-.3-.2-.2-.1L.5 7v-.1l-.2-.2-.1-.3V6c.2 0 .2-.2.2-.2l.1-.2.2-.2.1-.2L1 5l.3-.3c.3-.3.3-.3.6-.3H2l.1.1.2.2h.2L3 5 3 5l.1.1c0 .1.1 0 .2 0 .2 0 .3 0 .3-.2l.4-.3c.1 0 .4-.3.4-.5v-.1l-.1-.2c0-.2 0 0-.1 0v-.3l-.1-.1-.1-.2L4 3V3l-.1-.3v-.2-.1c0-.2.4-.4.5-.4h.2l.1-.1h.1l.2-.1v-.1h.3l.2-.1c0-.1 0 0 0 0l.2-.2h.6l.1.1.3.3.1.3v.1l.1.2.2.2v.2l.2.3c.2.1.4.2.4 0h.5l.6-.1v-.2l.2-.2v-.1-.1l.1-.2.1-.2c.1 0 0 0 0-.1l.1-.1c.1 0 0-.1 0-.2h.2l.1-.2h.6l.2.1h.2l.2.1s.2 0 .2.2.2 0 .3 0l.2.1V2h.2l.1.1.2.1v1l-.1.1c-.1 0 0 0 0 .2h-.1v.3l-.1.1-.1.3c0 .1 0 .2.5.6.4.4.6.6.6.4h.1l.3-.2.2-.2.2-.1.2-.1.2-.2c0-.1.4-.1.4 0h.1c.1 0 .6.5.6.7l.2.1c.2.1 0 .1 0 .2l.3.2.1.3.1.1v.7l-.3.3s-.2 0-.2.2-.3.1-.3.1l-.2.2c0 .2-.1 0-.1 0l-.3.3-.3.1c-.2 0-.2.2-.2 1.1v.9l-.1.2v.3l-.1.1-.1.2c-.1 0 0 .1 0 .2l-.1.2c-.1 0 0 0 0 .1l-.1.1-.1.1c0 .1 0 .2-.2.3s-.2.2-.2.2l-.7.8-.2.1-.2.1-.2.1-.2.2H11 11l-.1.1-.2.1c-.2 0 0 0 0 0l-.2.1-.6.5-.5.5h-.1l-.2.1c-.2 0 0 0 0 0l-.4.1h-.4l-.1-.2-.2.1-.5.1h-.4zm.7-.2l.1-.2.1-.2-.5-.1h-.6l-.2-.1h-.1l.6.6h.6zm1.2 0h.1l.7-.6H9h-.3c-.4 0-.4 0-.4.2v.1l.1.1v.2H9zm.5-.8h.3l.2-.1.2-.1h.2l.1-.1c.1 0 .2 0 .3-.2s.1 0 .2 0c0 0 .3-.3.3-.5l.2-.1a.3.3 0 0 0 .1-.3v-.1l.1-.4.1-.5c.1-.2.2-.1.2.2v.4l-.1.3-.1.2c-.1 0 0 0 0 .1v.1h.1l.8-.8.1-.2.1-.2h.1c.1 0 0-.1 0-.2l.1-.1.1-.2c0-.2 0 0 0 0l.1-.3v-.1l.1-.3.1-.3v-1V8v-.3l-.1-.3c-.1 0 0 0 0 0l-.1-.2-.1-.2v-.2H13v-.2l-.2-.1v-.2l-.2-.3-.1-.1-.2-.3-.2-.2-.5-.5-.3-.3c0-.2-.3-.2-.3-.2H11l-.1-.1-.2-.1-.2-.2h-.1-.2l-.2-.1-.1-.1h-.1l-.3-.1h-.2L8 3.4H6.8h-.2l-.3.1h-.2c-.2 0-.1.1-.1.2h-.2-.1l-.1.1-.1.1c0 .1 0 0-.2 0s-.1.1-.2.2l-.1.1c-.1 0-.2 0-.3.2l-.2.2-.8.7-.2.2c-.2.1-.1.2-.1.3l-.2.2c-.2 0 0 .1 0 .2H3l-.1.2v.1l-.1.2V7l-.1.2c0 .2 0 .1-.1.1v.3l-.1.2v2.3l.1.3c.1 0 0 0 0 .1l.1.2c.1 0 0 0 0 .1l.1.2H3v.2l.1.1.2.3.2.2.6.6h.1v.1h.1v-.2-.2l-.1-.3v-1-1.2-.1-.2l.1-.1.1-.2c.1 0 0 0 0 0l.3-.4.3-.3.2-.2.3-.2.2-.2h.1l.1-.1h.2v-.1l.2-.1c0-.1 0 0 .1 0l.2-.1c0-.1 0 0 .2 0l.3-.1L8 7h1l.2.1h.2l.1.1h.2v.2H10.2l.1.1.1.1A5 5 0 0 1 11.6 9v.1l.1.2v.1l.1.2.1.2c.1 0 0 .2 0 .4v.3l-.1-.3c-.1 0 0 0 0-.2 0-.4-.2-.5-.4-.5h-.2l.2-.1v-.1V9l-.2-.2v-.2l-.6-.5-.2-.2-.3-.2H10l-.1-.1h-.1l-.2-.1h-.2l-.2-.1-.2-.1c0-.1 0 0-.2 0l-.2-.1H7.6h-.4l-.3.2h-.2-.2c-.2 0 0 .1 0 .1l-.2.1H6l-.1.1-.2.1-.2.2-.6.6-.2.2c-.2 0 0 0 0 .2s-.1 0-.1 0l-.1.2a.3.3 0 0 1-.1.3l-.1.3-.1.2v1.5l.1.3c.1 0 0 .1 0 .2l.1.2.1.1v.1l.1.1.4.4.2.2c0 .2.1 0 .2 0l.2.1.2.1H6l.2.1h.3l1.4.1h1.5zm-2-1.8v-.5h1.3v.8h-.2l-.2-.1c0-.1-.1 0-.2 0h-.3-.1l-.1.1c0 .1 0 0 0 0l-.2-.3zm-2 0h-.2s-.2-.1-.2-.3-.1 0-.1 0h-.1c-.1 0 0 0 0 0v-.2-.3c-.2 0-.2-.1-.1-.2h.3l.1-.1-.1-.3c0-.2.2-.2.3 0h.4l.3.1v.1c.2 0 .3.1.3.3h.1v.6l-.2.3-.5.1h-.3zm.6-.6v-.1c.2 0-.2-.4-.4-.4h-.1l-.2.1c-.2 0 0 0 0 .1v.3l.4.1H6zm4 .6c-.2 0-.2-.2-.2-.3l-.1-.3a.5.5 0 0 1 .2-.5c.1-.2.2-.2.4-.2l.4-.1a.3.3 0 0 1 .3-.2l.1.2v.2l.1.1c.1 0 .2 0 .2.2l-.1.2v.4s-.2 0-.3.2l-.6.2-.5-.1zm.8-.7a.5.5 0 0 0-.2-.4c-.1 0-.2-.1-.2 0h-.1l-.2.1v.4l.4.1h.3zM4.7 9.4H5l-.2.1c-.2 0 0 0 0 0zm.5 0v-.1h.1zm5.4 0l.1-.1h0c-.2 0 0 0 0 0zM5.8 9v-.3l.1.2v.2h.3l.2.1h-.6zm-.5 0h.1v.1zM8 9H8v.1zm.4 0h.2l-.1.1h-.1zm-2.9-.2h.1c.1 0 0 0 0 0V9zm2.7-.1v-.2c0-.1.2 0 .2.2h-.1zm1.4-.2c0-.1 0-.1.2 0s0 .2 0 .2c-.2 0-.2 0-.2-.2zm-3.8 0H5.7zm-.5-3.1l.3-.3H6c.3 0 .3 0 .2-.2l-.5-.1h-.4l.4-.1h.5l.6.5H6.4h-.8-.2c-.2 0 0 .1 0 .1h-.1zm5.2 0l-.1-.1H10l-.5-.1h-.5a.8.8 0 0 1 .4-.4h.1l.5-.1h0c-.3 0-.4.1-.5.2-.1.1-.1.1.2.1h.3l.2.2h.2v.2h-.1zM2.3 7.6v-.1-.3l.1-.2.1-.1v-.2l.1-.1v-.2l.1-.1.1-.2c.1 0 0 0 0 0l.2-.3.1-.2c.2-.1-.1-.4-.2-.4L2.6 5l-.2-.2-.2-.1-.3-.1h-.3l-.2.2-.1.2-.2.2-.1.2-.2.3-.2.1c-.1.1 0 .2 0 .2l-.1.1v.4l.3.2.2.2H1l.3.3.3.1.1.2H2l.1.2.1-.1zm11.8 0c0-.2.2-.3.2-.3h.2l.2-.2.2-.2c.1-.2.2-.1.3-.1l.2-.2a.6.6 0 0 0 0-.8l-.2-.3-.2-.1c-.2 0 0-.2 0-.2l-.8-.8-.1.1c0 .1 0 0-.1 0l-.2.2-.2.1s-.2 0-.3.2-.2.2-.2.2c-.3 0-.3.4-.1.5V6l.1.1.1.1v.2h.1v.2l.1.1.1.1c.1 0 0 .1 0 .2l.1.2c.1 0 0 .1 0 .2 0 .2.2.4.3.4l.2-.2zM5 3.8h.1l.1-.2h.2c.2 0 0 0 0 0l.2-.1h.1l.2-.2h.4l.3-.1h.1L7 3v-.2-.1l-.1-.2-.1-.1v-.2h-.1L6.5 2c-.1 0 0 0 0-.1 0-.2-.2-.3-.5-.3l-.3.1c0 .1 0 0-.1 0l-.1.1c0 .1-.1 0-.2 0V2L5 2h-.2v.1h-.2l-.1.2c-.1 0-.4.2-.4.4v.2l.1.1v.2l.1.1.1.2c.1 0 0 0 0 0l.1.2v.2c0 .1.1.2.3.2L5 4zm6.3 0v-.2l.1-.1.1-.2v-.2l.1-.1V3l.1-.3c0-.3 0-.5-.2-.5h-.1-.2L11 2 11 2h-.1l-.2-.1h-.2l-.1-.2h-.1-.3c-.3 0-.5 0-.5.2V2l-.1.2v.2h-.1l-.1.2c-.1 0 0 0 0 .2L9 3C9 3 9 3 9 3l.1.2h.2l.2.1h.3l.1.1.1.1c0 .1.1 0 .2 0l.2.1h.1l.2.2.2.1.1.1c0 .1 0 0 .1 0h.2z" fill="#74696d"/><path d="M7.3 14.7h-.1l-.2-.2-.6-.5-.7-.5h-.1l-.1-.1h-.2v-.1H5l-.2-.2h-.2l-.3-.2-.2-.1A5.7 5.7 0 0 1 3 11.3l-.2-.2V11v-.2l-.1-.2v-.2c0-.2-.1-.2-.2-.2V10 10L2.2 9v-.8L2 8l-.3-.2s-.2 0-.3-.2-.2-.2-.2-.2H1l-.2-.2-.4-.3c-.3-.3-.3-.4-.3-.6v-.2c.2 0 .2-.2.2-.2l.2-.3.2-.2.1-.2L1 5s.4-.5.6-.5h.6l.3.2.3.2.1.1.2.2H3.4c.2 0 1-.8 1-1v-.1-.2l-.1-.2c-.1 0 0 0 0-.1l-.1-.2-.2-.2V3v-.2l-.1-.1v-.2-.1c0-.1.2-.3.4-.3l.2-.1.3-.1H5v-.1l.2-.1c0-.1 0 0 .1 0l.2-.1c0-.1 0 0 .1 0l.2-.1.2-.1c.2 0 .3 0 .5.3.2.1.3.3.3.4v.1l.1.2v.2l.1.1.1.1c.1 0 0 0 0 .1 0 .2.2.3.9.3s.8 0 .8-.3 0-.1 0-.2H9l.1-.2v-.1l.1-.2.1-.2c.1 0 0 0 0-.1l.3-.3c.2-.2.2-.2.5-.2h.3l.1.1h.2l.1.1.2.1c0 .1 0 0 0 0l.2.1c0 .1 0 0 .2 0l.2.1V2l.4.2.2.4V3L12 3v.2l-.2.2V3.7l-.1.1-.1.1v.2c-.2 0 0 .2.4.7l.6.5.3-.2.3-.2.2-.2c.1-.2.3-.1.3-.1l.1-.1h.3l.6.1.2.3.1.2.2.2.1.2.2.3h.1c.1 0 0 .1 0 .2l.1.1v.6l-.1.2-.3.1-.3.2-.2.2-.3.2-.1.1-.2.1-.2.2c-.2.1-.2.2-.2 1v.8l-.1.2v.3l-.1.1v.2s-.2 0-.2.2v.4a.3.3 0 0 1-.2.2l-.1.2-.1.2-.2.1-.6.7-.2.1-.3.2h-.1l-.1.1-.1.1c0 .1-.1 0-.2 0v.1h-.3l-.2.2h-.2l-.1.1-.3.3-.6.6-.2.1-.2.1-.4.1h-.3l-.2-.2-.2.1-.4.1h-.3zm.5-.3l.1-.2.1-.2-.5-.1h-.6l-.1-.1h-.2l.6.6h.6zm1.2 0h.1l.7-.6H9h-.3c-.4 0-.4 0-.4.2v.1l.1.1v.2H9zm.6-.8h.2l.2-.1.2-.1h.3l.1-.1.2-.2c.1-.2.1 0 .2 0l.4-.5v-.1a.3.3 0 0 0 .2-.3v-.1l.1-.4v-.4h.1l.1-.2c.1 0 0 .2 0 .4v.6l-.1.2c-.1 0 0 0 0 .1v.1h.1l.8-.8.1-.2.1-.2h.1c.1 0 0-.2 0-.2l.1-.1.1-.2c0-.2 0 0 0 0l.1-.3v-.1l.1-.3.1-.3v-1V8v-.3l-.1-.3c-.1 0 0 0 0 0l-.1-.2-.1-.2v-.2l-.1-.1v-.1l-.2-.1v-.2l-.2-.3-.1-.1-.2-.3-.2-.2-.5-.5-.3-.3c0-.2-.3-.2-.3-.2H11l-.1-.1-.2-.1-.2-.2h-.1-.2l-.2-.2h-.2l-.3-.1h-.2c0-.1-.5-.2-1.3-.2l-1.2.1h-.3l-.2.1c0 .1 0 0-.2 0l-.2.1v.1h-.2l-.1.1h-.2v.2H5l-.1.2c-.1 0-.2 0-.3.2s-.2.1-.2.1l-.8.8-.2.2c-.2.1-.1.2-.1.3l-.2.1v.2l-.2.1v.2l-.1.3V7l-.2.1v.5l-.1.2-.1 1v1l.1.3v.2l.1.2.1.2c.1 0 0 0 0 .1l.1.2.1.2.1.1.2.3.2.2.6.6h.1v.1h.1v-.2-.3l-.1-.2-.1-1V9.5l.1-.2v-.1l.1-.2c0-.2 0 0 .1 0v-.2l.3-.3.3-.3.2-.3.2-.1.3-.2h.1l.1-.1.2-.1c0-.1 0 0 0 0l.2-.1c0-.1 0 0 .1 0l.1-.1.3-.1H7L8 7h1.1l.2.1h.2l.1.1h.1l.2.1.1.1c0 .1 0 0 .1 0l.1.1c0 .1 0 0 .1 0A5 5 0 0 1 11.6 9v.1l.1.2.1.3.1.1v.7l-.1-.3c-.1 0 0 0 0-.2s-.2-.4-.4-.4 0-.1 0-.1v-.1V9l-.2-.3-.1-.1-.5-.5-.2-.2-.3-.2H10l-.1-.1h-.2l-.1-.1-.2-.1c0-.1 0 0-.1 0L9 7.3c0-.1 0 0-.2 0l-.3-.1-.5-.1h-.6l-.2.1H7l-.2.1-.3.1c0 .1 0 0 0 0l-.2.1c0 .1 0 0-.1 0l-.1.1-.2.1-.2.1-.1.1-.7.7v.1l-.2.2v.1l-.1.2a.3.3 0 0 1-.1.3.3.3 0 0 0-.2.2v1.8l.1.3v.3l.2.3.1.1.4.4.2.1.2.2h.3c.2 0 .1.1.1.1l.3.1h.3l1.6.1h1.5zm-2-1.8c0-.4 0-.5.6-.5h.6v.8h-.2l-.2-.1c0-.1-.1 0-.2 0h-.3-.2c-.2 0-.2 0-.2-.2zm-2.2 0h-.2c0-.2-.2-.4-.2-.3 0 .1-.2 0-.2 0l.2-.2V11l-.2-.1.1-.2c.2 0 .4-.1.3-.2s-.1-.2 0-.3h.2l.4.2H6v.1c.2 0 .3.2.3.3l.1.2c.1 0 0 0 0 .1v.2l-.1.2c-.1 0 0 0 0 0 0 .2-.1.2-.2.2h-.1l-.3.1h-.3zm.7-.6v-.1-.1-.1s-.2 0-.2-.2 0-.1 0-.1h-.2l-.1.1-.2.1v.4l.4.1H6zm4.1.7l-.2-.2-.1-.1v-.1l-.1-.3V11v-.1l.2-.3.5-.1.4-.1c0-.2.1-.2.3 0v.4h.2c.1 0 0 .1 0 .2l-.2.1.2.1v.3s0 .1 0 0c0 0-.2 0-.3.2l-.6.2h-.2zm.7-.8c0-.2-.3-.5-.4-.5l-.4.4.2.2.3.1h.3zM4.7 9.4h.1v.1zm6 0l.1-.1c.1 0 0 0 0 0zM6 9.1v-.3.1l.1.1c.1 0 0 0 0 .1H6zM8.4 9h.1zm-.2-.5zm-2.5-.1H5.7zm3.8 0h.1zM5.2 5.4l.1-.2H5.5l-.2.1zm5-.2h.1c.1 0 0 0 0 0zm-4.5-.1H6c.2 0 .2 0 .2-.2 0-.1 0-.1.2 0l.2.2h-.9zm3.4 0a1.2 1.2 0 0 1 .4-.3v.1l.3.1h.3l-.5.1h-.5zm-3.9-.4H5.3zm.5 0H5.7zm4 0H10h-.1zm-7.4 3v-.1-.3l.1-.2.1-.1v-.2l.1-.1v-.2l.1-.1.1-.2c.1 0 0 0 0 0l.2-.3.1-.2c0-.2 0 0 0 0 .2-.1-.1-.4-.2-.4L2.6 5l-.2-.2-.2-.1-.3-.1h-.3c-.2 0-.2.1-.2.2l-.1.2-.1.2-.2.2-.2.3-.1.1-.2.2v.5l.3.2.2.2.1.1c.1 0 .2 0 .3.2s.2.2.3.2h.1l.2.2h.1v.1l.2-.1zm11.8 0c0-.2.2-.2.2-.2l.2-.2h.2l.2-.3.3-.1.2-.2a.6.6 0 0 0 0-.8l-.2-.3-.1-.1-.2-.2-.7-.7H14 14l-.2.2-.2.1-.3.2-.2.2c-.3 0-.3.4-.1.5V6l.1.1.1.1v.2h.1v.2l.1.1.1.1c.1 0 0 .1 0 .2l.1.2c.1 0 0 .1 0 .2 0 .2.2.4.3.4l.2-.2zM5 3.8h.1l.1-.1.2-.1c.2 0 0 0 0 0l.2-.1h.1l.2-.1.2-.1c0-.1.1 0 .2 0l.3-.1c0-.1 0 0 .1 0L7 3v-.2-.1l-.1-.2-.1-.1v-.2h-.1L6.5 2c-.1 0 0 0 0-.1 0-.2-.2-.3-.5-.3l-.3.1c0 .1 0 0-.1 0l-.1.1c0 .1-.1 0-.2 0V2L5 2H5l-.2.1h-.1l-.1.1c-.1 0-.4.3-.4.5v.1l.1.2v.2l.1.1.1.2c.1 0 0 0 0 0l.1.2.1.2c0 .1 0 .2.2.2 0 0 .2 0 .2-.2zm6.3 0v-.2l.1-.1.1-.2v-.2l.1-.1V3l.2-.3c0-.3-.1-.5-.3-.5h-.1-.2L11 2 11 2h-.1l-.2-.1h-.2l-.1-.1-.1-.1H10c-.3 0-.5 0-.5.2V2l-.1.2v.2h-.1v.2l-.1.2L9 3C9 3 9 3 9 3l.1.2h.2l.2.1.3.1c0 .1 0 0 .1 0l.1.1c0 .1.1 0 .2 0l.2.1.1.1.2.1.2.1.1.1c0 .1 0 0 .1 0h.2z" fill="#1678af"/><path d="M7.3 14.7h-.1l-.2-.2-.6-.5-.7-.5h-.1l-.1-.1h-.2v-.1H5l-.2-.2h-.2l-.3-.2-.2-.1A5.7 5.7 0 0 1 3 11.3l-.2-.2V11v-.2l-.1-.2v-.2c0-.2-.1-.2-.2-.2V10 10L2.2 9v-.8L2 8l-.3-.2s-.2 0-.3-.2-.2-.2-.2-.2H1l-.2-.2-.4-.3c-.3-.3-.3-.4-.3-.6v-.2c.2 0 .2-.2.2-.2l.2-.3.2-.2.1-.2L1 5s.4-.5.6-.5h.6l.3.2.3.2.1.1.2.2H3.4c.2 0 1-.8 1-1v-.1-.2l-.1-.2c-.1 0 0 0 0-.1l-.1-.2-.2-.2V3v-.2l-.1-.1v-.2-.1c0-.1.2-.3.4-.3l.2-.1.3-.1H5v-.1l.2-.1c0-.1 0 0 .1 0l.2-.1c0-.1 0 0 .1 0l.2-.1.2-.1c.2 0 .3 0 .5.3.2.1.3.3.3.4v.1l.1.2v.2l.1.1.1.1c.1 0 0 0 0 .1 0 .2.2.3.9.3s.8 0 .8-.3 0-.1 0-.2H9l.1-.2v-.1l.1-.2.1-.2c.1 0 0 0 0-.1l.3-.3c.2-.2.2-.2.5-.2h.3l.1.1h.2l.1.1.2.1c0 .1 0 0 0 0l.2.1c0 .1 0 0 .2 0l.2.1V2l.4.2.2.4V3L12 3v.2l-.2.2V3.7l-.1.1-.1.1v.2c-.2 0 0 .2.4.7l.6.5.3-.2.3-.2.2-.2c.1-.2.3-.1.3-.1l.1-.1h.3l.6.1.2.3.1.2.2.2.1.2.2.3h.1c.1 0 0 .1 0 .2l.1.1v.6l-.1.2-.3.1-.3.2-.2.2-.3.2-.1.1-.2.1-.2.2c-.2.1-.2.2-.2 1v.8l-.1.2v.3l-.1.1v.2s-.2 0-.2.2v.4a.3.3 0 0 1-.2.2l-.1.2-.1.2-.2.1-.6.7-.2.1-.3.2h-.1l-.1.1-.1.1c0 .1-.1 0-.2 0v.1h-.3l-.2.2h-.2l-.1.1-.3.3-.6.6-.2.1-.2.1-.4.1h-.3l-.2-.2-.2.1-.4.1h-.3zm.4-.1v-.1l.2-.1v-.2l.1-.1v-.2h-.2l-.7-.1h-.7l.5.4.2.2h.3l.1.1.1.1c.1 0 0 0 0 0zm1 0l.3-.1.2-.1.2-.2.5-.5h-.1H9l-.7.1c-.1.1-.2.4 0 .4v.2h.1l.1.2h.1c.1 0 0 0 0 0zm1-1h.1l.2-.1.2-.1h.3l.1-.1c.1 0 .2 0 .2-.2s.1 0 .2 0l.4-.5v-.1a.3.3 0 0 0 .2-.3v-.1l.1-.4v-.4l.1.4v.6l-.1.1-.1.1c0 .2.2.2.4 0l.4-.3V12l.3-.4.2-.3h.1c.1 0 0-.1 0-.2l.1-.1.1-.1v-.2l.1-.1v-.2l.1-.3.1-.2V8.8a4 4 0 0 0 0-1.1v-.3l-.1-.2c-.1 0 0 0 0-.1l-.1-.1-.1-.2v-.2l-.1-.1v-.1l-.2-.1V6l-.2-.2-.1-.2-.1-.2A5.7 5.7 0 0 0 11 4.2h-.1l-.2-.1c-.2 0 0 0 0-.1h-.2l-.1-.1h-.2c-.2 0 0-.1 0-.2H9.8l-.3-.1-.2-.1H9L9 3.3H7.2h-.3l-.3.1c0 .1-.1 0-.2 0l-.2.1c0 .1 0 0-.1 0l-.2.1-.1.1h-.2l-.1.1c-.1 0-.2 0-.2.2S5 4 5 4l-.2.2-.2.1A7 7 0 0 0 3.2 6v.2l-.1.2H3v.2l-.1.1v.1l-.1.2-.1.2c-.1 0 0 0 0 .2l-.1.2v.3c0 .2-.1.3-.2.3v1.2l.1.4v.3l.1.2.1.2c.1 0 0 0 0 .2l.1.1c.1 0 0 0 0 .2H3l.1.2.1.2.1.1 1 1 .1.1c0 .1 0 0 .1 0v-.2-.2l-.1-.2v-.3l-.1-.4v-.7-.7-.2-.2l.1-.2.1-.2c.1 0 0 0 0 0l.2-.3.1-.1a3.5 3.5 0 0 1 1-1l.3-.1v-.1h.3l.1-.1c0-.1.1 0 .2 0v-.1l.3-.1h.3L8 7H9l.2.1h.3l.1.1h.1l.2.1c.1 0 .2 0 .3.2s.1 0 .1 0l.2.2.2.1.4.4.4.4v.1l.2.2v.1l.1.2v.2l.1.3V9.9c0-.2-.2-.4-.3-.4h-.1v-.1-.1V9l-.2-.3v-.1l-.6-.5-.2-.2-.3-.2H10l-.1-.1h-.1l-.2-.1-.2-.1c0-.1 0 0-.1 0l-.1-.1h-.3l-.2-.1-.6-.1h-.5l-.3.1h-.2l-.3.1-.2.1c0 .1 0 0-.2 0v.1c0 .1-.1 0-.2 0l-.1.1-.1.1-.2.1-.2.1-.6.7-.2.1c-.2.1 0 .2 0 .2l-.1.1-.1.2a.3.3 0 0 1-.1.3.3.3 0 0 0-.1.2l-.1.2V11.6l.1.3v.3l.2.3.1.1.4.4.2.1.2.2h.3l.2.1.3.1h.3l1.5.1h1.5zm-2.2-1.8c0-.4.1-.5.7-.5h.6v.8h-.2l-.2-.1c0-.1-.1 0-.2 0h-.3-.2c-.2 0-.2 0-.2-.2zm-2 0h-.2c0-.2-.3-.4-.3-.3 0 .1-.2 0-.2 0l.2-.2V11l-.2-.1.1-.1c.2 0 .4-.2.3-.3s-.1-.2 0-.3h.2c0 .2.2.2.4.2H6v.1c.2 0 .3.2.3.3l.1.2c.1 0 0 0 0 .1V11.5c0 .2 0 0-.1 0v.2l-.2.1h-.1l-.3.1h-.3zm.6-.6v-.1-.1-.1s-.2 0-.2-.2 0-.1 0-.1h-.2l-.1.1-.2.1v.4l.4.1H6zm4.1.7l-.2-.2-.1-.1v-.1l-.1-.3V11v-.1l.2-.3.5-.1.4-.1c0-.2.1-.2.3 0v.4h.2c.1 0 0 .1 0 .2l-.2.2h.2v.3s0 .1 0 0c0 0-.2 0-.3.2l-.6.2h-.2zm.7-.8c0-.2-.3-.5-.4-.5l-.4.4.2.2.3.1h.3zm1-.6v-.1V10.5zm-7.2-1v-.1h.1v.1zm6-.2h.1c.1 0 0 0 0 0zM6 9.2v-.3.1l.1.1c.1 0 0 0 0 .1H6zM8.4 9h.1zm-.2-.5zm-2.5-.1H5.7zm3.8 0h.1zM5.2 5.4l.1-.2H5.5l-.2.1zm5-.2h.1c.1 0 0 0 0 0zm-4.5-.1H6c.2 0 .2 0 .2-.2 0-.1 0-.1.2 0l.2.2h-.9zm3.4 0a1.2 1.2 0 0 1 .4-.3v.1l.3.1h.3l-.5.1h-.5zm-3.9-.4H5.3zm.5 0H5.7zm4 0H10h-.1zM2.4 7.8v-.3l.1-.2.1-.1V7l.1-.2v-.2l.1-.1.1-.1c.1 0 0-.1 0-.2H3L3 6l.1-.2c.2-.1.1-.5-.1-.5L2.8 5h-.2l-.2-.2-.2-.1c-.2 0 0 0 0 0l-.3-.1-.5.1-.1.2-.2.3-.2.2-.1.2-.1.2-.2.1c-.2.2-.1.5.1.8L1 7l.3.1.2.2.2.1.2.2.2.1c.2.3.2.2.3.1zm11.6 0l.1-.1c.1 0 .2 0 .3-.2s.2-.2.2-.2l.3-.1.2-.2.5-.5.1-.2V6l-.1-.1v-.1l-.3-.3-.1-.2-.2-.2-.1-.1-.2-.3c-.3-.3-.6-.3-.7-.1h-.2l-.3.3-.2.2H13l-.2.2v.3l.2.2v.2l.1.2h.1v.2l.1.1v.1s.2 0 .2.2v.3l.1.3v.1c0 .2.1.2.2.2h.1zM5 4h.2l.1-.1c0-.1 0 0 .1 0l.2-.2h.2l.1-.1H6l.1-.2h.5l.2-.1.1-.1.2-.1L7 3c-.1 0 0 0 0-.2h-.1v-.3l-.1-.2h-.1V2h-.1l-.2-.3-.4-.2h-.3l-.2.1-.2.1c0 .1 0 0 0 0L5 2H5l-.1.1-.2.1h-.2l-.1.1c-.2 0-.3.2-.3.5V3l.1.1v.2l.2.1v.2l.1.2.1.2c0 .2.2.2.3 0zm6.5 0v-.2l.1-.1.1-.2v-.2h.1V3s.2 0 .2-.2v-.2a.1.1 0 0 1 0-.2c0-.1-.3-.4-.5-.4h-.2V2H11l-.2-.1h-.2l-.1-.1-.1-.1c0-.1-.1 0-.2 0l-.2-.1c0-.1 0-.1 0 0a.1.1 0 0 1-.2 0c-.2 0-.4.3-.4.5v.1l-.1.2-.2.3V3H9l-.1.2h.4l.2.1.3.1c0 .1 0 0 0 0l.2.1c0 .1 0 0 .2 0l.2.1.1.1h.1l.1.1.2.1.2.2H11.4z" fill="#26688f"/><path d="M7.3 14.7h-.1l-.2-.2-.6-.5-.7-.5h-.1l-.1-.1h-.2v-.1H5l-.2-.2h-.2l-.3-.2-.2-.1A5.7 5.7 0 0 1 3 11.3l-.2-.2V11v-.2l-.1-.2v-.2c0-.2-.1-.2-.2-.2V10 10L2.2 9v-.8L2 8l-.3-.2s-.2 0-.3-.2-.2-.2-.2-.2H1l-.2-.2-.4-.3c-.3-.3-.3-.4-.3-.6v-.2c.2 0 .2-.2.2-.2l.2-.3.2-.2.1-.2L1 5s.4-.5.6-.5h.6l.3.2.3.2.1.1.2.2H3.4c.2 0 1-.8 1-1v-.1-.2l-.1-.2c-.1 0 0 0 0-.1l-.1-.2-.2-.2V3v-.2l-.1-.1v-.2-.1c0-.1.2-.3.4-.3l.2-.1.3-.1H5v-.1l.2-.1c0-.1 0 0 .1 0l.2-.1c0-.1 0 0 .1 0l.2-.1.2-.1c.2 0 .3 0 .5.3.2.1.3.3.3.4v.1l.1.2v.2l.1.1.1.1c.1 0 0 0 0 .1 0 .2.2.3.9.3s.8 0 .8-.3 0-.1 0-.2H9l.1-.2v-.1l.1-.2.1-.2c.1 0 0 0 0-.1l.3-.3c.2-.2.2-.2.5-.2h.3l.1.1h.2l.1.1.2.1c0 .1 0 0 0 0l.2.1c0 .1 0 0 .2 0l.2.1V2l.4.2.2.4V3L12 3v.2l-.2.2V3.7l-.1.1-.1.1v.2c-.2 0 0 .2.4.7l.6.5.3-.2.3-.2.2-.2c.1-.2.3-.1.3-.1l.1-.1h.3l.6.1.2.3.1.2.2.2.1.2.2.3h.1c.1 0 0 .1 0 .2l.1.1v.6l-.1.2-.3.1-.3.2-.2.2-.3.2-.1.1-.2.1-.2.2c-.2.1-.2.2-.2 1v.8l-.1.2v.3l-.1.1v.2s-.2 0-.2.2v.4a.3.3 0 0 1-.2.2l-.1.2-.1.2-.2.1-.6.7-.2.1-.3.2h-.1l-.1.1-.1.1c0 .1-.1 0-.2 0v.1h-.3l-.2.2h-.2l-.1.1-.3.3-.6.6-.2.1-.2.1-.4.1h-.3l-.2-.2-.2.1-.4.1h-.3zm.6-.2l.1-.3.1-.2v-.1l-.8-.1-.6-.1h2.1-.5v.3l.1.5c.2.1.5.2.5 0h.2l.1-.1.8-.7h-.2l-.2-.1c0-.1.1 0 .2 0l.2-.2h.5l.1-.1c.1 0 .2 0 .2-.2s.1 0 .2 0l.2-.2.2-.3v-.1a.3.3 0 0 0 .2-.3v-.1l.1-.4v-.4l.1.4v.5a.3.3 0 0 1-.2.3c-.2 0-.2.3 0 .3l.2-.1.2-.2.4-.3.3-.4.1-.2.2-.2v-.1a.3.3 0 0 0 .2-.3v-.2h.1v-.2l.1-.2.1-.3c.1 0 0-.2 0-.4l.1-.3v-.6-.5-.4-.3s-.2-.1-.2-.3v-.2V7l-.1-.2-.1-.1v-.2l-.1-.1-.1-.2-.2-.2v-.2l-.2-.2-.3-.3-.2-.3-.1-.1-.4-.3-.4-.3-.2-.1-.2-.1c-.2 0 0 0 0-.1h-.2l-.1-.1h-.1l-.2-.1-.1-.1h-.2l-.2-.1-.2-.1c0-.1 0 0-.2 0L9 3.3H7h-.3l-.3.1c0 .1 0 0-.1 0l-.2.1c0 .1 0 0-.2 0s0 .1 0 .2H5.5l-.1.1h-.2v.2H5l-.2.2-.1.1-.2.1-.8.8-.2.2c-.2.1-.1.2-.1.3l-.2.1c-.2.1 0 .2 0 .2l-.1.1-.1.1v.2h-.1v.2l-.1.2-.1.2c-.1 0 0 0 0 .2l-.1.1v.3l-.2.3v1.6l.1.3v.3l.1.2.1.2c.1 0 0 0 0 .1l.1.1c.1 0 0 0 0 .2H3l.1.2v.1l.1.1.2.3.2.2.5.5.2.1.2.2h.1c.1 0 .1-.2 0-.2l.2.1.4.4.2.1.2.2h.3l.2.1.3.1h.3l-.1.1c-.1 0 0 0 0 .1l.6.7h.2l.1.1c0 .2.3.1.5 0zM4.3 12V12v-.3-.3.3l.1.3c.1 0 0 .1 0 .2v0zm3.3-.3c0-.4 0-.5.7-.5h.5v.8h-.2l-.2-.1c0-.1-.1 0-.2 0h-.3-.2c-.2 0-.2 0-.2-.2zm-2.1 0h-.2c0-.2-.3-.4-.3-.3 0 .1-.2 0-.2 0l.2-.2V11l-.2-.1.1-.2c.2 0 .4-.2.3-.2s-.1-.2 0-.3h.2l.4.2H6v.1c.2 0 .3.2.3.3l.1.2c.1 0 0 0 0 .1v.2l-.1.2c-.1 0 0 0 0 0 0 .2-.1.2-.2.2h-.1l-.3.1h-.3zm.6-.6v-.1-.1-.1s-.2 0-.2-.2 0-.1 0-.1h-.2l-.1.1-.2.1v.4l.4.1H6zm4.1.7l-.2-.2-.1-.2-.1-.3V11v-.1l.2-.3.5-.1.4-.1c0-.2.1-.2.3 0v.4h.2c.1 0 0 .1 0 .2l-.2.1.2.1v.3s0 .1 0 0c0 0-.2 0-.3.2l-.6.2h-.2zm.7-.8c0-.2-.3-.5-.4-.5l-.4.4.2.2.3.1h.3zm.8-1.2l-.1-.3-.1-.3-.1-.3-.2-.2-.3-.4-.4-.3-.2-.2h-.2v-.2H9.7l-.2-.1c-.2 0 0 0 0 0l-.3-.2h-.1-.3l-.2-.1.3-.1h.3l.2.1h.1l.2.1c.2 0 0 0 0 .1h.2l.1.1h.1l.3.3.2.2.4.3.2.3.2.2V9l.1.1v.2l.1.1v.2s.2.1.2.3l-.1.2c-.1 0 0 0 0-.2zm-7.5 0v-.3l.1-.2c0-.2 0-.1.1-.1V9c0-.1.1 0 .1 0v-.2l.2-.2.1-.1.5-.5.3-.2.2-.2H6l.2-.1.2-.1.1-.1c0-.1.1 0 .2 0l.2-.1.3-.1h.3L8 7h.5l-.5.1h-.6l-.2.1h-.3s0 .2-.2.2h-.1-.2l-.2.1H6l-.2.2-.2.1a3.5 3.5 0 0 0-1 1l-.1.3-.1.3v.1l-.2.2v0zm1.6-1.4H6zm3.7 0h.1zM5.2 5.3h.1c.1-.2.3-.2.3 0H5.3zm5 0l.1-.2c.1 0 0 0 0 .1zM5.7 5H6c.2 0 .2 0 .2-.2 0-.1 0-.1.2 0l.2.2h-.9zm3.4 0a1.2 1.2 0 0 1 .4-.3v.1l.3.1h.3l-.5.1h-.5zm-3.9-.4H5.3zm.5 0H5.7zm4 0H10h-.1zm-7.3 3v-.4h.1V7l.1-.2v-.2l.1-.1.1-.1c.1 0 0 0 0-.1l.1-.2.2-.2v-.1l.1-.2.2-.1-.2-.2-.4-.3h-.1l-.2-.2-.2-.1-.2-.1-.1-.1c0-.1 0 0-.2 0-.1 0-.7.4-.7.6l-.1.2-.2.2-.1.2-.2.2v.1l-.1.2c0 .2 0 .3.3.5l.3.3s.2 0 .3.2.2.1.2.1l.2.2h.2l.2.2.2.1v-.3zm11.4.2h.1l.3-.3.2-.1.2-.2h.2L15 7l.3-.2c.1 0 .4-.3.4-.5l-.1-.2c-.1 0 0 0 0 0l-.3-.3c-.2-.1-.1-.2-.1-.3l-.2-.2c-.2 0 0-.1 0-.1l-.4-.4c-.2-.2-.3-.3-.5-.3l-.2.1c0 .1 0 0 0 0l-.3.2-.1.1c-.1 0-.2 0-.3.2s-.2.2-.2.2l-.3.2v.1l.1.1c0 .1 0 .2.2.2s0 .2 0 .2l.1.1.1.2c0 .2 0 0 0 0l.1.2v.1l.2.2v.4l.1.3v.2c0 .2.1.1.2.1zM4.8 4H5c.2 0 .1-.1.2-.2h.2l.2-.2h.2l.2-.1c.2 0 0 0 0 0l.3-.2h.4c.2 0 .2-.1.3-.2V3v-.2l-.1-.2v-.1l-.1-.1-.1-.2V2l-.1-.1-.3-.3h-.1-.4-.2l-.1.1-.2.1c0 .1 0 0-.1 0L5 2l-.2.1-.2.1h-.1l-.1.1c-.2 0-.3.2-.3.6V3l.1.1v.1l.1.2.1.2c.1 0 0 0 0 .1l.1.1v.2H4.9zm6.6 0a.4.4 0 0 0 0-.2l.1-.2.1-.1v-.2h.1v-.2s.2 0 .2-.2v-.2-.1-.2-.1c0-.1 0-.2-.2-.2h-.1-.1l-.1-.2h-.2l-.3-.1h-.1l-.2-.1v-.1h-.3l-.2-.1c0-.1 0 0-.1 0h-.2-.1c-.1 0-.2 0-.2.2l-.1.2v.1l-.1.2v.2l-.1.1-.1.1c-.1 0 0 0 0 .2s0 0-.1 0-.1.3 0 .4H9.6l.2.2H10.1l.2.1v.1h.2l.1.1h.2V4l.3.2h.3z" fill="#67545a"/><path d="M7.3 14.7h-.1l-.3-.3-.2-.2-.4-.3c0-.1-.1-.3-.3-.3H6c.2 0 .3 0 .3.2l.7.6h.2l.1.1.2.1c.2 0 .4-.2.4-.4l.1-.2v-.1l-.8-.1-.6-.1h2.1-.5v.3l.1.5c.2.1.5.2.5 0h.2l.1-.1.8-.7h-.1l-.1-.1c0-.1 0 0 .2 0l.3-.1v-.1h.2l.1-.1h.1l.1-.2.4-.2c.1-.2.2-.2.3-.2h.3l.2-.2.4-.3.3-.4.1-.2.2-.2v-.1a.3.3 0 0 0 .2-.3v-.2h.1v-.2l.1-.2.1-.3v.7l-.1.2c-.1 0 0 0 0 0l-.1.2-.1.1-.1.2-.1.2a5.7 5.7 0 0 1-1.5 1.3h-.1l-.2.1-.2.1c0 .1 0 0-.1 0l-.2.1-.2.1-.1.1-.6.6-.7.5-.3.1h-.3c-.1-.2-.5-.3-.5-.2v.1h-.2l-.3.1h-.2zm-1.8-1.3v-.1c0-.1 0 0 0 0h.2l.1.1h-.3zm-.4-.2H5l-.2-.1c0-.1 0 0 0 0l-.2-.1h-.1l-.2-.2-.2-.1-1-1v-.1l-.1-.1-.1-.2-.2-.2V11v-.2l-.1-.2v-.2-.2.4l.1.1.1.1c.1 0 0 .1 0 .2H3l.1.2v.1l.1.1.2.3.2.2.5.5.2.1.2.2c.1.1.1.1.2 0s0 0 .3.2l.3.2.1.1c0 .1 0 0 0 0H5zm-.6-.7zm7 0l.1-.2v-.1c.2 0 .1.2 0 .3h-.1zm-7.2-.3h.1c.1 0 0 0 0 0v.1zm3.2-.4c0-.3 0-.3.2-.3v-.1h.9c.1 0 .2 0 .2.3 0 .2-.2.5-.3.3h-.7-.1c-.1 0-.2 0-.2-.2zm4.2 0v-.1l.1.2v0zm-7.5 0v-.2l.1.2v0zm1-.2l-.2-.2c.1 0 .1-.3 0-.4-.2 0-.2-.2 0-.2h.2v-.2l-.1-.1.2-.1h.4c.3 0 .3.1.5.3.2.2.2.2.2.5s0 .3-.2.5-.2.2-.5.2c-.2 0-.3 0-.5-.2zm.5-.2H6l.2-.1V11v-.3l-.4-.1h-.1l-.2.1v.5c0 .1 0 .2.2.2l.1-.1zm4.4.3l-.2-.3-.1-.2v-.1-.2l.3-.3h.1l.3-.1.4-.1c.1-.2.1-.2.2 0 .1 0 .1 0 0 0v.3c0 .1 0 .2.2.2h.1c-.1 0-.2.1-.2.3s0 .1.2.1l-.1.1c-.1 0-.2 0-.2.2 0 0-.1.2-.3.2l-.3.1c-.2 0-.3 0-.4-.2zm.3-.3h.2c.2 0 .3 0 .3-.3V11l-.3-.4c-.1 0-.2 0-.3.2-.2.1-.2.3-.1.3v.2l.1.2c.1 0 0 0 0-.1zm-8-1.5v-.3l.1.3v.2l-.1-.2zm11.2-.2v-.3.3zm-9.4 0h.1v.1zm7.5 0l-.1-.1-.1-.3-.1-.3-.2-.2-.3-.4-.4-.3-.2-.2h-.2v-.2H9.7l-.2-.1-.3-.1-.1-.1c0-.1-.1 0-.2 0l-.2-.1H9.6s0 .2.2.2h.2l.1.1h.1l.3.3.2.2.4.3.2.3.2.2V9l.1.1v.2l.1.1v.2l.2.1-.1.2c-.1 0 0 0 0-.1zm-7.4-.3l.1-.1c.1 0 0 0 0-.1l.1-.2.2-.3.1-.1.5-.5.3-.2.2-.2H6l.2-.1.2-.1.1-.1c0-.1.1 0 .2 0l.2-.1h.3c.2 0 .3-.1.3-.2h1.1l-.5.1h-.6l-.2.1h-.3s0 .2-.2.2h-.1-.2l-.2.1H6l-.2.2-.2.1a3.5 3.5 0 0 0-1 1l-.1.3-.1.2v.1l-.2-.1zm-2-.2V9v.2c0 .2 0 0 0 0zm11.4-.3v-.2l.1.2v.3l-.1-.3zM2.3 8.5c0-.4-.1-.6-.3-.6h-.2l-.1-.2s-.2 0-.3-.2-.2-.2-.3-.2H1L.8 7l-.4-.4-.1-.1-.1-.2V6L.5 6v-.1l.1-.1.2-.3.2-.2L1 5l.1-.2.4-.4c.2 0 .2 0-.1.3l-.3.3-.1.3-.2.2-.1.2-.2.2V6.3c0 .2 0 .3.2.5l.3.3s.2 0 .3.2.2.1.2.1l.2.2H2l.2.2.2.1v-.3l.1-.3h.1V7l.1-.2v-.2l.1-.1.1-.1c.1 0 0 0 0-.1l.1-.2.2-.2v-.1l.1-.2.2-.1-.2-.2-.4-.3h-.1l-.2-.2-.2-.1-.2-.1v-.1c0-.1-.2 0-.2 0l-.1-.1c0-.1 0 0 0 0H2.2l.1.1c0 .1.1 0 .1 0l.3.2.3.2.1.1.2.2h.2l.6-.5.5-.6V4c0-.2 0 0-.1 0v-.2l-.1-.1c-.1 0 0 0 0-.2l-.1-.2H4V3l.1.1v.1l.1.2.1.2c.1 0 0 0 0 .1l.1.1c.1 0 0 0 0 .1l.2.2h.1L5 4h.2l.3-.2h.2v-.1h.2l.1-.1h.2l.1-.2h.4l.3-.2c.1 0 .2-.2 0-.2v-.2-.2-.1l-.1-.1-.1-.2V2l-.1-.1-.3-.3h-.1-.4-.2l-.1.1-.2.1c0 .1 0 0-.1 0L5 2l-.2.1-.2.1h-.1l-.1.1c-.2 0-.3.2-.3.5V3L4 2.7a.5.5 0 0 1 .2-.5l.4-.2h.1l.2-.1c.2 0 0 0 0 0l.3-.1.1-.1c0-.1 0 0 .2 0v-.1h.2l.1-.2h.4l.1.1.4.4V2l.1.2v.2H7v.2l.1.2c0 .2.1.2.2.3l.9.1.7-.1V3l.1-.2c0-.2 0 0 0 0l.1-.3v-.1l.1-.2h.1c.1 0 0-.1 0-.2l.1-.1c.1 0 0 0 0-.1s.2-.3.4-.3l.2-.1h.2l.2.1h.2l.1.1h.1l.2.1.2.1c0 .1 0 0 .1 0l.1.1.2.1a.5.5 0 0 1 .3.1c.2.2.2.4.1.4v-.1l-.2-.2h-.1-.1l-.2-.1V2H11l-.2-.1h-.2v-.2h-.2-.2l-.2-.1H9.8h-.2v.1l-.1.2h-.1v.2l-.1.2-.1.2c-.1 0 0 0 0 .1l-.1.1c-.1 0 0 0 0 .1L9 3c-.1 0-.1.1 0 .2l.4.1h.2l.2.2H10.1l.1.1h.2l.1.2h.2l.1.1c.1 0 .2 0 .2.2.2.2.5 0 .5-.2v-.2l.1-.1v-.1l.1-.2.1-.3.1-.2c.1 0 0 .1 0 .2V3.3l-.1.2c-.1 0 0 0 0 .1l-.1.2-.1.1v.2l-.1.1c0 .2.2.5.3.5l.5.5h.6L13 5l.2-.1.3-.2v-.1c0-.1.1 0 .2 0l.1-.1h.6l.3.3.1.2.1.1.3.4c0 .2.2.2.2.3h.1c.1 0 0 .1 0 .2v.1l-.3-.3-.1-.3-.2-.2c-.2 0 0 0 0-.1l-.4-.4c-.2-.2-.3-.3-.5-.3l-.2.1c0 .1 0 0 0 0l-.3.2-.1.1c-.1 0-.2 0-.3.2s-.2.2-.2.2l-.3.2v.1l.1.1c0 .1 0 .2.2.2s0 .2 0 .2l.1.1.1.2.1.2v.1l.1.2.1.2c.1 0 0 0 0 .2l.1.3c.1 0 0 0 0 .2l.1.1h.2l.3-.3.2-.1.2-.2h.2L15 7l.3-.1.2-.2s.1-.1.1 0l-.5.4-.1.1-.2.1-.3.2-.2.2-.2.1-.2.1V8l-.3.3v-.4l-.1-.3v-.3l-.1-.2c-.1 0 0 0 0-.1l-.1-.1-.1-.2v-.2l-.1-.1c0-.1 0-.2-.2-.2s0-.1 0-.2l-.2-.2-.1-.2-.3-.3-.2-.3-.1-.1-.4-.3-.4-.3-.2-.1-.2-.1c-.2 0 0 0 0-.1h-.2l-.1-.1c0-.1 0 0-.1 0l-.2-.1-.1-.1h-.2l-.2-.1h-.2l-.2-.1-.3-.1H7h-.3l-.3.1c0 .1 0 0-.1 0l-.2.1h-.2c-.2 0 0 .1 0 .2H5.5l-.1.1-.2.1c0 .1 0 0 0 0l-.3.2-.2.1-.1.1-.2.1-.8.8-.2.2c-.2.1-.1.2-.1.3l-.2.1c-.2.1 0 .2 0 .2l-.1.1-.1.2-.1.2v.1l-.1.2-.1.2c-.1 0 0 0 0 .2l-.1.2v.3c0 .2-.1.3-.2.3v.8l-.1-.4zm7.2 0h.1zm6.2-2.1v-.2.2c0 .2 0 0 0 0zM5.3 5.2h.1c-.1 0 0 0 0 0zm5 0zm-4.1-.1l.1-.1c0-.1.1-.1.2 0s.1.1-.1.1h-.2zm3 0V5c.1-.1.2-.1.2 0 .2.1.1.1 0 .1h-.2z" fill="#33556e"/><path d="M7.3 14.7h-.1l-.3-.3-.2-.2-.4-.3h.2l.2.2.2.2.3.2h.1l.2.1c.3 0 .5-.2.5-.4h.2c.2 0 0 0 0 0 0 .2.4.4.6.4H9l.1-.1.9-.8h-.1l-.1-.1c0-.1 0 0 .2 0l.3-.1v-.1h.2l.1-.1h.1l.1-.2c.1 0 .2 0 .3-.2h.3l.2-.1h.1l.1-.1a4.3 4.3 0 0 0 1.1-1.2l.2-.2.1-.2V11l.1-.2c0-.2 0 0 0 0h.1v.2l-.1.2-.1.1-.1.2-.1.2a5.7 5.7 0 0 1-1.5 1.3h-.1l-.2.1-.2.1c0 .1 0 0-.1 0l-.2.1-.2.1-.1.1-.6.6-.7.5-.3.1h-.3c-.1-.2-.5-.3-.5-.2v.1h-.2l-.2.1h-.3zm-1.1-1h-.1l-.2-.1c0-.1.1 0 .2 0h.2v.1h-.1zm.7 0H8 7zm-1.4-.3v-.1c0-.1 0 0 0 0h.2l.1.1h-.3zm-.4-.2H5l-.2-.1c0-.1 0 0 0 0l-.2-.1h-.1l-.2-.2-.2-.1a4.3 4.3 0 0 1-1-1.2l.3.3.7.7.2.2h.2l.1.2h.1c0-.1.1-.1.2 0 .1.2.3.2.3.2l.1.1c0 .1 0 0 0 0H5zm-.6-.7zm7 0h.1-.1zm-7.2-.3h.1c.1 0 0 0 0 0v.1zm7.3 0h.1v.1h-.1zm-4-.4v-.3l.2-.1c0-.1.2 0 .4 0h.4c.1 0 .2 0 .2.3 0 .2-.2.5-.3.3h-.7-.1c-.1 0-.2 0-.2-.2zm-2.4-.2l-.2-.2c.1 0 .1-.3 0-.4-.2 0-.2-.2 0-.2h.2v-.2l-.1-.1.2-.1h.4c.3 0 .3.1.5.3.2.2.2.2.2.5s0 .3-.2.5-.2.2-.5.2c-.2 0-.3 0-.5-.2zm.5-.2H6l.2-.1V11v-.3l-.4-.1h-.1l-.2.1v.5c0 .1 0 .2.2.2l.1-.1zm4.4.3l-.2-.3-.1-.2v-.1-.2l.3-.3h.1l.3-.1.4-.1c.1-.2.1-.2.3 0v.3l.1.2h.1c-.1 0-.2.1-.2.3s0 .1.2.1l-.1.1c-.1 0-.2 0-.2.2 0 0-.1.2-.3.2l-.3.1c-.2 0-.3 0-.4-.2zm.3-.3h.2c.2 0 .3 0 .3-.3V11l-.3-.4c-.1 0-.2 0-.3.2-.2.1-.2.3-.1.3v.2l.1.2c.1 0 0 0 0-.1zm-6.2.3v-.1h.1v.1zm7.5 0h.1v.1zm-8.9-.5v-.1l-.1-.1c-.1 0 0 0 0-.1v-.2.2c0 .2 0 0 .1 0v.2l.1.1H3c0 .2 0 .1-.2 0zm-.3-.7v-.1h.1v.1zm11 0v-.3.2zM2.3 9.8v-.2l.1.2v.2l-.1-.2zm11.2 0v-.3.2zm-9.4-.2h.1v.1zm7.5.1h.1c-.1 0 0 0 0 0zm-.1-.4v-.1l-.1-.1V9h-.1a4.2 4.2 0 0 0-1.2-1.2l-.2-.1h-.1l-.1-.1h-.2l.2-.1c.2 0 0 0 0 0h.2l.2.2.2.1a5.3 5.3 0 0 1 1.2 1.4l.1.3v0zm-7.3 0l.1-.1c.1 0 0 0 0-.1l.1-.2c0-.2.5-.6.6-.5l-.2.2-.2.2V9l-.1.2c0 .2 0 0 0 0l-.1.2v.1l-.2-.1zm-2-.2V9v.2c0 .2 0 0 0 0zm11.4-.3v-.2l.1.2v.3l-.1-.3zM2.3 8.5c0-.4-.1-.6-.3-.6h-.2l-.1-.2s-.2 0-.3-.2-.2-.2-.3-.2H1L.8 7l-.4-.4.2.1.2.2H1l.1.2s.2 0 .3.2.2.2.3.2h.1l.2.2h.1l.2.1v.6zm7.2 0h.1zM5.3 8l.4-.3-.1.2c-.2.2-.3.2-.3.1zm8.4 0v-.2h-.1v-.2.1l.1.1.1.2c0 .2 0 0 0 0h-.1zm.2-.2l.4-.3.2-.2c.1-.2.1 0 .1 0l-.3.3-.2.1-.2.1zm-8-.1l.2-.2h.1l.1-.1h.1l-.2.1H6l-.2.1v.1zm.7-.4h.1-.1zm2.7 0h.1-.1zm4.2 0v-.2V7.3zm-11-.2v-.1l.1.1v.1l-.1-.1zm4.4 0h.4l-.2.1H7zm1.9 0H9l-.2.1h-.1zm6 0l.4-.2.2-.2.2-.2-.5.5-.1.1c-.1.1-.2.2-.2 0zM2.6 7h.1zm10.7 0h.1zm-.1-.2v-.1h.1v.1h-.1zm-13-.3V6s.2 0 .2.3 0 .2-.1.2l-.1-.2zm2.5.1h.1c.1 0 0 0 0 0v.1zm10.4 0v-.1h.1-.1zm2.6-.1v-.2.2c0 .2 0 0 0 0zM2.9 6.3H3h-.1zm10-.1h.1c.1 0 0 0 0 0zM.5 5.9l.1-.1.2-.3.2-.2L1 5l.1-.2s.3-.4.4-.3l-.1.1-.1.2-.2.2c-.2 0 0 .1 0 .2l-.3.2-.1.3-.3.2zm2.7 0h.1V6zm9.7 0h.1V6zm2.7 0l-.1-.2-.2-.2c-.2-.1-.2-.2-.1-.2l.4.5.2.1c0 .1-.1.1-.2 0zM3.4 5.5l-.1-.1c-.1 0 0 0 0-.1.1 0 .3 0 .7-.5l.6-.6-.1-.1v-.2h-.1l-.1-.2c-.1 0 0 0 0-.1v-.1l.1.2c.1 0 0 0 0 .1l.1.1v.2h.2l.1.1-.2.2a5.7 5.7 0 0 0-1.2 1.2zm9 0v-.2h.2c.1 0 .2 0 .3-.2h.2l.2-.3.3-.1.1-.1c.1-.1 0 0 0 0l-.1.2s-.2 0-.3.2l-.2.1-.4.4c0 .2 0 .1-.2 0zM3 5.2C3 5 3 5 3 5l.1.1c0 .1 0 0-.2 0zm2.4 0h.1c-.1 0 0 0 0 0zm5 0zm-4.1-.1l.1-.1c0-.1.1-.1.2 0s.1.1-.1.1h-.2zm3 0V5c.1-.1.2-.1.2 0 .2.1.1.1 0 .1H9zm2.9-.2l-.2-.2.5.4L12 5zm2.7 0l-.1-.2h-.1l-.2-.1c0-.1 0 0-.2 0l-.3-.1h.6c.2 0 .3.2.3.3l.1.2c.2 0 .2.1.1.1a.6.6 0 0 1-.2-.1zM2.6 5l-.2-.1-.2-.2h.2l.4.4-.2-.1zm-.8-.4H2h-.1zm9.6-.1l-.2-.2h.1l.2-.3.1-.2v-.1h.1v.2l-.1.1v.2l-.1.1v.2h.1c0 .2 0 .1-.2 0zM11 4h.1-.1zM5 4h.2H5zm5.7 0h.1c.1 0 0 0 0 0zm-5.4-.1h.1c-.1 0 0 0 0 0zm.3-.1v-.1h.1v.1h-.1zm4.8 0v-.1h.1v.1h-.1zm-4.6-.2H6zm4.2 0h.1zm-3.8 0v-.1h.1-.1zm3.4 0l.2-.1c.2 0 0 0 0 0h-.2zm-3-.2h.1-.1zm2.7 0zm2.4 0v-.2l.1-.1.1-.1c.1 0 0 0 0 0V3.4l-.1.2c-.1 0 0-.1 0-.2zm-7.6-.1h.1H4zm3 0v-.1V3 3c0-.1 0 0 .1 0 .1.2.2.2.9.2l.7-.1V3l.1-.2c0-.2 0 0 0 0H9V3h-.1v.2H9l-1 .1H7zM4 2.9h.1H4zm3-.2v-.1.2zm2-.2v-.1l.1-.2h.1c.1 0 0-.1 0-.2l.1-.1c.1 0 0 0 0 0V2.3l-.1.2c-.1 0 0 0 0 0l-.1.2c-.1 0 0 0 0-.1zm-5 0s0-.2.2-.3l.4-.2-.1.1-.3.2c-.1.2-.2.2-.2.1zm2.8 0v-.1H7zm5-.3h-.2l-.1-.2.3.1.2.2c0 .1-.1 0-.2 0zm-5.1 0V2l-.1-.1-.2-.2v-.2l.3.4V2l.1.1v.1h-.1zm-2-.3h.1zm6.4 0H11v-.2l.2.1c0 .1 0 0 .1 0l.2.1h-.2zM5 2v-.1h.1H5zm.3-.2h.1c-.1 0 0 0 0 0zm4 0l.3-.2v.2h-.2zm1.2 0h-.1l-.1-.1h.4v.1h-.2zm-5-.1h.2l.1-.2h.4l-.2.1h-.2l-.1.1h-.1zm4.3-.2H10l-.2.1h-.1z" fill="#4e484f"/><path d="M7.4 14.7H7.5c-.2 0 0 0 0 0zm1-.1c-.2-.3-.3-.3-.4-.1-.1 0-.2.1-.2 0H8l.1-.3h.2c.2 0 0 0 0 0 0 .2.4.4.5.4H9c0 .2-.3.1-.5 0zm-1.6-.3c-.2-.2 0-.2 0-.1l.1.1h-.2zm2.7 0l.3-.4.1-.2c0-.1 0-.2.2-.2h.1l-.3.4-.4.3zm-3.4-.6c0-.2 0-.2.1-.1l.1.1h-.2zm.8 0H7c-.2 0 0 0 0 0zm2 0H9h-.1zm2-.5l.2-.2h.2s0-.1 0 0l-.2.1-.1.1c0 .1 0 0 0 0h-.1zm-6.1-.1v-.3.1l.2.1c0 .2-.1.2-.2 0zm-.3-.3v.1zm7 0h.1v.1h-.1zm.2 0v-.1h.1zm-7.6-.2h.1H4zm7.9 0l.7-.7-.3.4-.4.3zm-8.4-.3l-.2-.4.6.6-.4-.3zm.9.2zm-.2-.3h.1c.1 0 0 0 0 0zm3.3-.2v-.3l.1-.3H8.6c.1 0 .2 0 .2.2v.2l-.2.1v.1h-.2l-.1-.1H8c-.2 0 0 0 0 0h-.2-.1c0 .2 0 .2-.2 0zm-2-.1h-.1c-.2 0-.3-.2-.3-.4l-.1-.3L5 11l-.2-.1c0-.1.1 0 .2 0l.3-.2v-.2c-.2-.1-.2-.1 0-.1s0 .2.2.2 0 .1 0 .2c-.2 0-.2.3-.1.3v.2l.3.1h.4v-.2c.1 0 0-.3 0-.4l-.2-.2.4.1.1.5-.1.5-.3.1-.2.1h-.2zm4.8 0h-.1l-.3-.2c-.2-.3-.2-.7 0-1 .1 0 .2-.1.2 0v.7h.4l.3-.1V11 11l.2-.2.1.3a.5.5 0 0 1-.2.5l-.3.2-.2.1h-.1zm-7.2-.2c-.1-.1 0-.2 0 0h.2c0 .1-.1.1-.2 0zm1 0h.1v.1zm7.5 0h.1v.1zm1.1 0l.2-.2c-.1.2-.2.2-.2.1zm.3-.4v-.1.1zM2.7 11h.1c.1 0 0 0 0 0zm8.6-.1h.1c.1 0 0 0 0 0zm-.6-.3l.1-.2h.3v.2c-.2.1-.4.1-.4 0zm-5 0v-.1h.1v.1h-.1zm7.7-.2l.1-.2c.1 0 0 0 0 .2zm-11-.6h.1-.1zm9.3 0h.1zm-7.5-.1h.1zm9.4 0zm-9.3-.3l.1-.1c.1 0 0 0 0-.2h.1c.1 0 0-.1 0-.2l.6-.5s0 .2-.2.3-.2.2-.2.2V9l-.1.2c0 .2 0 0 0 0l-.1.2v.1l-.2-.1zm7.3 0v-.1h.1v.2l-.1-.1zm-.1-.3h.1-.1zm-.6-.7l-.5-.5h-.2l-.2-.2h-.1l-.2-.1c-.2 0 0 0 0 0v-.2l.2.1c0 .1 0 0 0 0l.3.2.1.1 1.2 1c0 .2-.2 0-.6-.4zm-8.7-.3l.1-.2c.1 0 0 0 0 .2zm3.1 0l.4-.3-.2.2c-.1.2-.2.2-.2.1zm8.3-.1v-.3.1l.1.1.1.1h-.2zM2 7.9h.1zm-.3-.2c-.1-.1 0-.2 0 0H2c0 .1-.1.1-.2 0zm4.1 0l.3-.1.1-.1c.1-.1 0 0 0 0 .1 0 0 .2-.2.2s0 .1-.1.1zm8.3 0l.2-.1v.1c-.2.1-.2.1-.2 0zM1.2 7.4s0-.1.1 0l.1.1h-.2zm5.5 0h.1v.1h-.1zm2.6 0h.2l-.1.1h-.1zm4.1 0h.1c.1 0 0 0 0 0v0zm1.2 0v.1zm-12.1 0V7l.1.1v.1h-.1zm4.4 0h.2H7zm2 0H9h-.2zM.9 7c-.2-.1 0-.2 0 0H1c0 .1 0 .1-.1 0zm14 0l.2-.1V7c-.1.1-.2.1-.2 0zM2.6 7h.1zm10.7 0h.1zm-.1-.3h.1v.1h-.1zm-10.4 0v-.1.1zM.1 6.3v-.2s.2 0 .2.2 0 0-.1 0H.2zm12.9 0h.1-.1zM2.9 6.3zm10-.1h.1c.1 0 0 0 0 0zm-9.8-.3h.1V6zm9.7 0h.1zm2.7 0c-.1-.1 0-.2 0 0h.2c0 .1-.1 0-.2 0zm-15-.1h.1zm2.9-.3v-.1.1zm9 0v-.2h.4c.1 0 0 0 0 0v.2c0 .2-.2.1-.3 0zm2.7-.1c-.1-.1 0-.2 0 0h.2c0 .1-.1.1-.2 0zM1 5.4v-.1H1 .9zM6.3 5c0-.1 0-.1.2 0s0 .2 0 .2c-.1 0-.2 0-.2-.2zm2.8.1a.5.5 0 0 1 .3-.2V5l-.1.2H9zm4 0h.1-.1zM1 5l.1-.1c.1 0 0 0 0 0V5zm1.5 0v-.1h.1V5zm12-.2h.1V5zM2.3 4.7c-.1-.1 0-.2 0 0h.2c0 .1-.1 0-.2 0zm11.4 0zm.8 0l-.2-.1c-.2 0-.1 0-.1-.1s.3 0 .4 0v.2zm-3-.3c-.2-.1-.2-.2 0-.2 0-.2 0-.2 0 0l.1.2h.1c0 .2 0 .1-.2 0zm-6.8-.1l.1-.1c.2 0 .2 0 0 .1s-.1.1-.1 0zm6.4-.2h.1-.1zM4.5 4h.1-.1zM5 4h.1H5zm5.7 0zm-5.5-.1h.1c.1 0 0 0 0 0zm6.2 0h.1-.1zm-7.1-.1v-.1.1zm1.2 0v-.1h.1v.1h-.1zm4.8 0v-.1h.1v.1h-.1zm-4.6-.2H6zm4.2 0h.1zm-3.8 0v-.2l.1.1c0 .1 0 0 0 0h-.1zm3.4 0l.2-.2v.1c0 .1 0 0 0 0h-.2zm-3-.2h.1-.1zm2.7 0zM7 3.3zm1.7 0h.1-.1zm3 0zM7 3zm4.8 0zm-3-.1H9h-.1zm-2-.1H7zM9 2.5h.1v.1zm-4.9-.2h.1H4zm5 0c0-.2.2-.3.3-.3v.1l-.1.1-.1.2c-.1 0 0 0 0-.1zm2.7 0h.1c.1 0 0 0 0 0zm-7-.4zm1.8 0zM11 2h.1zm-6 0v-.2l.1.1c0 .1 0 0 0 0H5zm5.8 0v-.2.1c0 .1 0 0 0 0zm-.4-.2h.1-.1zm-4.8-.1h.1-.1zm.2-.2H6c.1 0 0 0 0 0v.1zm3.9 0H10l-.2.1h-.2z" fill="#3a4a57"/><path d="M7.4 14.7H7.5c-.2 0 0 0 0 0zm1.1 0h.2-.2zm-.5-.4h.2c.2 0 0 0 0 0H8zm-2-.7h.1c.1 0 0 0 0 0zm4.1 0h.1c-.1 0 0 0 0 0zm.8-.4c.1-.2.3-.2.3-.1l-.2.1c0 .1 0 0 0 0h-.1zm-6-.1H5h-.2zm7-.5l.3-.2v.2H12zm-8.3-.3l-.2-.3.6.5-.4-.2zm4-.3v-.3l.1-.2.2-.1h.7c.2 0 .2 0 .2.2v.2l-.2.1v.1c0-.1-.1 0-.2 0l-.1-.1c0-.1 0 0-.1 0H8l-.2.1h-.2zm-2-.1h-.1c-.2 0-.3-.2-.3-.4l-.1-.3L5 11l-.2-.1c0-.1.1 0 .2 0l.3-.2v-.2c-.2 0-.2-.2 0-.2v.2l.2.1v.2c-.2 0-.2.3-.1.3v.2c0 .2 0 .2.4.2.2 0 .3 0 .3-.2v-.5l-.2-.1c0-.1.2 0 .4 0l.1.5-.1.5-.3.1-.2.1h-.2zm4.8 0h-.1l-.3-.2c-.2-.3-.2-.7 0-1h.2v.7h.4l.3-.1V11 11l.2-.1.1.2a.5.5 0 0 1-.2.5l-.3.2-.2.1h-.1zm2.5-.4h.1c.1 0 0 0 0 0zm-1.6-.6h.1c.1 0 0 0 0 0zm-.6-.3l.1-.1c.1-.2.3-.2.3 0v.1c-.2.2-.4.1-.4 0zm-5 0v-.1h.1v.1h-.1zm7.7-.2h.1c.1 0 0 0 0 0zm-9-1v.1zm7.2 0h.1v.1h-.1zm-.5-.8h.1zm-8.8-.5zm8.2-.1h.1-.1zm3.2 0h.1-.1zm-12-.3h.1c.1 0 0 0 0 0v.1zm12.4 0v.1zM1.3 7.5zm8 0h.2-.1zM1 7.1H1v.1H.9zm14 0h.1v.1zM.2 6.4v.1zM15.5 6h.1V6zM3.4 5.4v.1zm11.8 0v.1zM6.3 5c0-.1 0-.1.2 0s0 .1 0 .1h-.2zm2.8.1a.5.5 0 0 1 .3-.2V5l-.1.1H9zm-7-.5h.1c-.1 0 0 0 0 0zm12.2-.1h.1-.1zm-3-.2c-.1-.1 0-.1 0-.1h.2c0 .2 0 .2-.2.1zm-2.5-1H9h-.1zm3-.3h.1c.1 0 0 0 0 0zM9 2.5h.1v.1zm2.8-.2h.1c.1 0 0 0 0 0zm-2.7-.1h.1c.1 0 0 0 0 0zm-4.4-.3h.1V2zM11 2v-.2.1c0 .1 0 0 0 0zm-5-.5H6c.1 0 0 0 0 0v.1zm3.9 0H10l-.2.1h-.1z" fill="#453d44"/><path d="M7.6 11.8a.4.4 0 0 1 0-.2v-.1h1.2v.1a.4.4 0 0 1-.1.2c-.1.1-.3.2-.3 0h-.5c0 .2-.2.1-.3 0zm-2.1 0l-.2-.1-.1-.3V11L5 11l.1-.2.1.2.2.3.2.1c.4 0 .5 0 .5-.4l-.1-.3h-.2.3l.1.2.1.3V11.5c0 .2-.3.3-.6.3h-.3zm4.5-.1c-.2-.3-.2-.7 0-1 .1 0 .2-.1.2 0-.2.2-.3.4-.1.4v.4h.8v-.2-.2-.1l.1-.2.1.2.1.2v.1l-.1.1-.1.3c-.3.2-.8.2-1 0zm-5.2-.8H5c-.1 0 0 0 0 0zm6.5 0h.1c.1 0 0 0 0 0zm-5.9-.2l.1-.1c.1 0 0 0 0 0v.1zm-.3-.2l.1-.1h.1c0 .2 0 .2-.1.1zm5.8 0v-.1c.2 0 .2 0 .1.1s-.1.1-.1 0zm-6.6-1l.1-.1c.1 0 0 0 0 0v.1zm7.3 0v-.1h.1v.1h-.1zM6.3 5H6.4zm2.8 0h.1c.1 0 0 0 0 0zm2.1-.9h.1c-.1 0 0 0 0 0z" fill="#3e3d40"/><path d="M5.5 11.5h.1-.1zm.3 0H6c-.2 0 0 0 0 0zm2.9 0zm1.6 0zm.3 0h.1zm-.7-.1l.1-.2v-.1c.2 0 .1.2 0 .3H10zM6.2 11c0-.2 0-.2.1 0s.1.2 0 .2l-.1-.2zm3.7 0v-.1h.1-.1zm1.4 0l.1-.1c.1 0 0 0 0 0zm-6.2-.6h.2H5zm5.9 0h.1-.1z" fill="#3c3b3e"/></svg>